G75*
%MOIN*%
%OFA0B0*%
%FSLAX25Y25*%
%IPPOS*%
%LPD*%
%AMOC8*
5,1,8,0,0,1.08239X$1,22.5*
%
%ADD10C,0.00394*%
%ADD11C,0.05937*%
%ADD12R,0.04331X0.05118*%
%ADD13R,0.03937X0.05512*%
%ADD14R,0.05118X0.06299*%
%ADD15R,0.04724X0.02165*%
%ADD16R,0.08661X0.02362*%
%ADD17R,0.02165X0.04724*%
%ADD18R,0.05118X0.04331*%
%ADD19C,0.04362*%
%ADD20C,0.11811*%
%ADD21R,0.02559X0.06693*%
%ADD22R,0.02362X0.08661*%
%ADD23R,0.09449X0.09449*%
%ADD24R,0.21654X0.07874*%
%ADD25C,0.02400*%
%ADD26C,0.01600*%
%ADD27C,0.03562*%
%ADD28C,0.00400*%
%ADD29C,0.16992*%
D10*
X0030185Y0010500D02*
X0286091Y0010500D01*
X0286567Y0010506D01*
X0287042Y0010523D01*
X0287517Y0010552D01*
X0287991Y0010592D01*
X0288464Y0010644D01*
X0288935Y0010707D01*
X0289405Y0010781D01*
X0289873Y0010867D01*
X0290339Y0010964D01*
X0290802Y0011072D01*
X0291262Y0011191D01*
X0291720Y0011322D01*
X0292174Y0011463D01*
X0292625Y0011616D01*
X0293071Y0011779D01*
X0293514Y0011953D01*
X0293952Y0012138D01*
X0294386Y0012333D01*
X0294815Y0012539D01*
X0295239Y0012755D01*
X0295658Y0012981D01*
X0296071Y0013217D01*
X0296478Y0013463D01*
X0296879Y0013719D01*
X0297273Y0013985D01*
X0297662Y0014260D01*
X0298043Y0014544D01*
X0298417Y0014837D01*
X0298785Y0015139D01*
X0299145Y0015451D01*
X0299497Y0015770D01*
X0299841Y0016098D01*
X0300178Y0016435D01*
X0300506Y0016779D01*
X0300825Y0017131D01*
X0301137Y0017491D01*
X0301439Y0017859D01*
X0301732Y0018233D01*
X0302016Y0018614D01*
X0302291Y0019003D01*
X0302557Y0019397D01*
X0302813Y0019798D01*
X0303059Y0020205D01*
X0303295Y0020618D01*
X0303521Y0021037D01*
X0303737Y0021461D01*
X0303943Y0021890D01*
X0304138Y0022324D01*
X0304323Y0022762D01*
X0304497Y0023205D01*
X0304660Y0023651D01*
X0304813Y0024102D01*
X0304954Y0024556D01*
X0305085Y0025014D01*
X0305204Y0025474D01*
X0305312Y0025937D01*
X0305409Y0026403D01*
X0305495Y0026871D01*
X0305569Y0027341D01*
X0305632Y0027812D01*
X0305684Y0028285D01*
X0305724Y0028759D01*
X0305753Y0029234D01*
X0305770Y0029709D01*
X0305776Y0030185D01*
X0305776Y0199476D01*
X0305770Y0199952D01*
X0305753Y0200427D01*
X0305724Y0200902D01*
X0305684Y0201376D01*
X0305632Y0201849D01*
X0305569Y0202320D01*
X0305495Y0202790D01*
X0305409Y0203258D01*
X0305312Y0203724D01*
X0305204Y0204187D01*
X0305085Y0204647D01*
X0304954Y0205105D01*
X0304813Y0205559D01*
X0304660Y0206010D01*
X0304497Y0206456D01*
X0304323Y0206899D01*
X0304138Y0207337D01*
X0303943Y0207771D01*
X0303737Y0208200D01*
X0303521Y0208624D01*
X0303295Y0209043D01*
X0303059Y0209456D01*
X0302813Y0209863D01*
X0302557Y0210264D01*
X0302291Y0210658D01*
X0302016Y0211047D01*
X0301732Y0211428D01*
X0301439Y0211802D01*
X0301137Y0212170D01*
X0300825Y0212530D01*
X0300506Y0212882D01*
X0300178Y0213226D01*
X0299841Y0213563D01*
X0299497Y0213891D01*
X0299145Y0214210D01*
X0298785Y0214522D01*
X0298417Y0214824D01*
X0298043Y0215117D01*
X0297662Y0215401D01*
X0297273Y0215676D01*
X0296879Y0215942D01*
X0296478Y0216198D01*
X0296071Y0216444D01*
X0295658Y0216680D01*
X0295239Y0216906D01*
X0294815Y0217122D01*
X0294386Y0217328D01*
X0293952Y0217523D01*
X0293514Y0217708D01*
X0293071Y0217882D01*
X0292625Y0218045D01*
X0292174Y0218198D01*
X0291720Y0218339D01*
X0291262Y0218470D01*
X0290802Y0218589D01*
X0290339Y0218697D01*
X0289873Y0218794D01*
X0289405Y0218880D01*
X0288935Y0218954D01*
X0288464Y0219017D01*
X0287991Y0219069D01*
X0287517Y0219109D01*
X0287042Y0219138D01*
X0286567Y0219155D01*
X0286091Y0219161D01*
X0282154Y0219161D01*
X0281964Y0219163D01*
X0281774Y0219170D01*
X0281584Y0219182D01*
X0281394Y0219198D01*
X0281205Y0219218D01*
X0281016Y0219244D01*
X0280828Y0219273D01*
X0280641Y0219308D01*
X0280455Y0219347D01*
X0280270Y0219390D01*
X0280085Y0219438D01*
X0279902Y0219490D01*
X0279721Y0219546D01*
X0279541Y0219607D01*
X0279362Y0219673D01*
X0279185Y0219742D01*
X0279009Y0219816D01*
X0278836Y0219894D01*
X0278664Y0219977D01*
X0278495Y0220063D01*
X0278327Y0220153D01*
X0278162Y0220248D01*
X0277999Y0220346D01*
X0277839Y0220449D01*
X0277681Y0220555D01*
X0277526Y0220665D01*
X0277373Y0220778D01*
X0277223Y0220896D01*
X0277077Y0221017D01*
X0276933Y0221141D01*
X0276792Y0221269D01*
X0276654Y0221400D01*
X0276519Y0221535D01*
X0276388Y0221673D01*
X0276260Y0221814D01*
X0276136Y0221958D01*
X0276015Y0222104D01*
X0275897Y0222254D01*
X0275784Y0222407D01*
X0275674Y0222562D01*
X0275568Y0222720D01*
X0275465Y0222880D01*
X0275367Y0223043D01*
X0275272Y0223208D01*
X0275182Y0223376D01*
X0275096Y0223545D01*
X0275013Y0223717D01*
X0274935Y0223890D01*
X0274861Y0224066D01*
X0274792Y0224243D01*
X0274726Y0224422D01*
X0274665Y0224602D01*
X0274609Y0224783D01*
X0274557Y0224966D01*
X0274509Y0225151D01*
X0274466Y0225336D01*
X0274427Y0225522D01*
X0274392Y0225709D01*
X0274363Y0225897D01*
X0274337Y0226086D01*
X0274317Y0226275D01*
X0274301Y0226465D01*
X0274289Y0226655D01*
X0274282Y0226845D01*
X0274280Y0227035D01*
X0274280Y0238846D01*
X0274278Y0239036D01*
X0274271Y0239226D01*
X0274259Y0239416D01*
X0274243Y0239606D01*
X0274223Y0239795D01*
X0274197Y0239984D01*
X0274168Y0240172D01*
X0274133Y0240359D01*
X0274094Y0240545D01*
X0274051Y0240730D01*
X0274003Y0240915D01*
X0273951Y0241098D01*
X0273895Y0241279D01*
X0273834Y0241459D01*
X0273768Y0241638D01*
X0273699Y0241815D01*
X0273625Y0241991D01*
X0273547Y0242164D01*
X0273464Y0242336D01*
X0273378Y0242505D01*
X0273288Y0242673D01*
X0273193Y0242838D01*
X0273095Y0243001D01*
X0272992Y0243161D01*
X0272886Y0243319D01*
X0272776Y0243474D01*
X0272663Y0243627D01*
X0272545Y0243777D01*
X0272424Y0243923D01*
X0272300Y0244067D01*
X0272172Y0244208D01*
X0272041Y0244346D01*
X0271906Y0244481D01*
X0271768Y0244612D01*
X0271627Y0244740D01*
X0271483Y0244864D01*
X0271337Y0244985D01*
X0271187Y0245103D01*
X0271034Y0245216D01*
X0270879Y0245326D01*
X0270721Y0245432D01*
X0270561Y0245535D01*
X0270398Y0245633D01*
X0270233Y0245728D01*
X0270065Y0245818D01*
X0269896Y0245904D01*
X0269724Y0245987D01*
X0269551Y0246065D01*
X0269375Y0246139D01*
X0269198Y0246208D01*
X0269019Y0246274D01*
X0268839Y0246335D01*
X0268658Y0246391D01*
X0268475Y0246443D01*
X0268290Y0246491D01*
X0268105Y0246534D01*
X0267919Y0246573D01*
X0267732Y0246608D01*
X0267544Y0246637D01*
X0267355Y0246663D01*
X0267166Y0246683D01*
X0266976Y0246699D01*
X0266786Y0246711D01*
X0266596Y0246718D01*
X0266406Y0246720D01*
X0049870Y0246720D01*
X0049680Y0246718D01*
X0049490Y0246711D01*
X0049300Y0246699D01*
X0049110Y0246683D01*
X0048921Y0246663D01*
X0048732Y0246637D01*
X0048544Y0246608D01*
X0048357Y0246573D01*
X0048171Y0246534D01*
X0047986Y0246491D01*
X0047801Y0246443D01*
X0047618Y0246391D01*
X0047437Y0246335D01*
X0047257Y0246274D01*
X0047078Y0246208D01*
X0046901Y0246139D01*
X0046725Y0246065D01*
X0046552Y0245987D01*
X0046380Y0245904D01*
X0046211Y0245818D01*
X0046043Y0245728D01*
X0045878Y0245633D01*
X0045715Y0245535D01*
X0045555Y0245432D01*
X0045397Y0245326D01*
X0045242Y0245216D01*
X0045089Y0245103D01*
X0044939Y0244985D01*
X0044793Y0244864D01*
X0044649Y0244740D01*
X0044508Y0244612D01*
X0044370Y0244481D01*
X0044235Y0244346D01*
X0044104Y0244208D01*
X0043976Y0244067D01*
X0043852Y0243923D01*
X0043731Y0243777D01*
X0043613Y0243627D01*
X0043500Y0243474D01*
X0043390Y0243319D01*
X0043284Y0243161D01*
X0043181Y0243001D01*
X0043083Y0242838D01*
X0042988Y0242673D01*
X0042898Y0242505D01*
X0042812Y0242336D01*
X0042729Y0242164D01*
X0042651Y0241991D01*
X0042577Y0241815D01*
X0042508Y0241638D01*
X0042442Y0241459D01*
X0042381Y0241279D01*
X0042325Y0241098D01*
X0042273Y0240915D01*
X0042225Y0240730D01*
X0042182Y0240545D01*
X0042143Y0240359D01*
X0042108Y0240172D01*
X0042079Y0239984D01*
X0042053Y0239795D01*
X0042033Y0239606D01*
X0042017Y0239416D01*
X0042005Y0239226D01*
X0041998Y0239036D01*
X0041996Y0238846D01*
X0041996Y0227035D01*
X0041994Y0226845D01*
X0041987Y0226655D01*
X0041975Y0226465D01*
X0041959Y0226275D01*
X0041939Y0226086D01*
X0041913Y0225897D01*
X0041884Y0225709D01*
X0041849Y0225522D01*
X0041810Y0225336D01*
X0041767Y0225151D01*
X0041719Y0224966D01*
X0041667Y0224783D01*
X0041611Y0224602D01*
X0041550Y0224422D01*
X0041484Y0224243D01*
X0041415Y0224066D01*
X0041341Y0223890D01*
X0041263Y0223717D01*
X0041180Y0223545D01*
X0041094Y0223376D01*
X0041004Y0223208D01*
X0040909Y0223043D01*
X0040811Y0222880D01*
X0040708Y0222720D01*
X0040602Y0222562D01*
X0040492Y0222407D01*
X0040379Y0222254D01*
X0040261Y0222104D01*
X0040140Y0221958D01*
X0040016Y0221814D01*
X0039888Y0221673D01*
X0039757Y0221535D01*
X0039622Y0221400D01*
X0039484Y0221269D01*
X0039343Y0221141D01*
X0039199Y0221017D01*
X0039053Y0220896D01*
X0038903Y0220778D01*
X0038750Y0220665D01*
X0038595Y0220555D01*
X0038437Y0220449D01*
X0038277Y0220346D01*
X0038114Y0220248D01*
X0037949Y0220153D01*
X0037781Y0220063D01*
X0037612Y0219977D01*
X0037440Y0219894D01*
X0037267Y0219816D01*
X0037091Y0219742D01*
X0036914Y0219673D01*
X0036735Y0219607D01*
X0036555Y0219546D01*
X0036374Y0219490D01*
X0036191Y0219438D01*
X0036006Y0219390D01*
X0035821Y0219347D01*
X0035635Y0219308D01*
X0035448Y0219273D01*
X0035260Y0219244D01*
X0035071Y0219218D01*
X0034882Y0219198D01*
X0034692Y0219182D01*
X0034502Y0219170D01*
X0034312Y0219163D01*
X0034122Y0219161D01*
X0030185Y0219161D01*
X0029709Y0219155D01*
X0029234Y0219138D01*
X0028759Y0219109D01*
X0028285Y0219069D01*
X0027812Y0219017D01*
X0027341Y0218954D01*
X0026871Y0218880D01*
X0026403Y0218794D01*
X0025937Y0218697D01*
X0025474Y0218589D01*
X0025014Y0218470D01*
X0024556Y0218339D01*
X0024102Y0218198D01*
X0023651Y0218045D01*
X0023205Y0217882D01*
X0022762Y0217708D01*
X0022324Y0217523D01*
X0021890Y0217328D01*
X0021461Y0217122D01*
X0021037Y0216906D01*
X0020618Y0216680D01*
X0020205Y0216444D01*
X0019798Y0216198D01*
X0019397Y0215942D01*
X0019003Y0215676D01*
X0018614Y0215401D01*
X0018233Y0215117D01*
X0017859Y0214824D01*
X0017491Y0214522D01*
X0017131Y0214210D01*
X0016779Y0213891D01*
X0016435Y0213563D01*
X0016098Y0213226D01*
X0015770Y0212882D01*
X0015451Y0212530D01*
X0015139Y0212170D01*
X0014837Y0211802D01*
X0014544Y0211428D01*
X0014260Y0211047D01*
X0013985Y0210658D01*
X0013719Y0210264D01*
X0013463Y0209863D01*
X0013217Y0209456D01*
X0012981Y0209043D01*
X0012755Y0208624D01*
X0012539Y0208200D01*
X0012333Y0207771D01*
X0012138Y0207337D01*
X0011953Y0206899D01*
X0011779Y0206456D01*
X0011616Y0206010D01*
X0011463Y0205559D01*
X0011322Y0205105D01*
X0011191Y0204647D01*
X0011072Y0204187D01*
X0010964Y0203724D01*
X0010867Y0203258D01*
X0010781Y0202790D01*
X0010707Y0202320D01*
X0010644Y0201849D01*
X0010592Y0201376D01*
X0010552Y0200902D01*
X0010523Y0200427D01*
X0010506Y0199952D01*
X0010500Y0199476D01*
X0010500Y0030185D01*
X0010506Y0029709D01*
X0010523Y0029234D01*
X0010552Y0028759D01*
X0010592Y0028285D01*
X0010644Y0027812D01*
X0010707Y0027341D01*
X0010781Y0026871D01*
X0010867Y0026403D01*
X0010964Y0025937D01*
X0011072Y0025474D01*
X0011191Y0025014D01*
X0011322Y0024556D01*
X0011463Y0024102D01*
X0011616Y0023651D01*
X0011779Y0023205D01*
X0011953Y0022762D01*
X0012138Y0022324D01*
X0012333Y0021890D01*
X0012539Y0021461D01*
X0012755Y0021037D01*
X0012981Y0020618D01*
X0013217Y0020205D01*
X0013463Y0019798D01*
X0013719Y0019397D01*
X0013985Y0019003D01*
X0014260Y0018614D01*
X0014544Y0018233D01*
X0014837Y0017859D01*
X0015139Y0017491D01*
X0015451Y0017131D01*
X0015770Y0016779D01*
X0016098Y0016435D01*
X0016435Y0016098D01*
X0016779Y0015770D01*
X0017131Y0015451D01*
X0017491Y0015139D01*
X0017859Y0014837D01*
X0018233Y0014544D01*
X0018614Y0014260D01*
X0019003Y0013985D01*
X0019397Y0013719D01*
X0019798Y0013463D01*
X0020205Y0013217D01*
X0020618Y0012981D01*
X0021037Y0012755D01*
X0021461Y0012539D01*
X0021890Y0012333D01*
X0022324Y0012138D01*
X0022762Y0011953D01*
X0023205Y0011779D01*
X0023651Y0011616D01*
X0024102Y0011463D01*
X0024556Y0011322D01*
X0025014Y0011191D01*
X0025474Y0011072D01*
X0025937Y0010964D01*
X0026403Y0010867D01*
X0026871Y0010781D01*
X0027341Y0010707D01*
X0027812Y0010644D01*
X0028285Y0010592D01*
X0028759Y0010552D01*
X0029234Y0010523D01*
X0029709Y0010506D01*
X0030185Y0010500D01*
D11*
X0100500Y0020031D02*
X0100500Y0025969D01*
X0110500Y0025969D02*
X0110500Y0020031D01*
X0178000Y0020031D02*
X0178000Y0025969D01*
X0188000Y0025969D02*
X0188000Y0020031D01*
X0210500Y0020031D02*
X0210500Y0025969D01*
X0220500Y0025969D02*
X0220500Y0020031D01*
X0025969Y0105500D02*
X0020031Y0105500D01*
X0020031Y0115500D02*
X0025969Y0115500D01*
X0025969Y0125500D02*
X0020031Y0125500D01*
X0020031Y0135500D02*
X0025969Y0135500D01*
X0025969Y0145500D02*
X0020031Y0145500D01*
D12*
X0084850Y0153000D03*
X0091150Y0153000D03*
X0147350Y0150500D03*
X0153650Y0150500D03*
X0221100Y0143000D03*
X0227400Y0143000D03*
X0246100Y0155500D03*
X0252400Y0155500D03*
X0262350Y0130500D03*
X0268650Y0130500D03*
X0263650Y0104250D03*
X0257350Y0104250D03*
X0256100Y0080500D03*
X0262400Y0080500D03*
X0272321Y0080559D03*
X0278620Y0080559D03*
X0278620Y0064309D03*
X0272321Y0064309D03*
X0268620Y0054309D03*
X0262321Y0054309D03*
X0262321Y0045559D03*
X0268620Y0045559D03*
X0251150Y0045500D03*
X0244850Y0045500D03*
X0151504Y0056642D03*
X0145205Y0056642D03*
D13*
X0251730Y0062478D03*
X0259211Y0062478D03*
X0255470Y0071140D03*
D14*
X0234240Y0045500D03*
X0226760Y0045500D03*
D15*
X0260382Y0114260D03*
X0260382Y0121740D03*
X0270618Y0121740D03*
X0270618Y0118000D03*
X0270618Y0114260D03*
D16*
X0228236Y0115500D03*
X0228236Y0110500D03*
X0228236Y0105500D03*
X0228236Y0100500D03*
X0207764Y0100500D03*
X0207764Y0105500D03*
X0207764Y0110500D03*
X0207764Y0115500D03*
X0207764Y0120500D03*
X0207764Y0125500D03*
X0207764Y0130500D03*
X0207764Y0135500D03*
X0228236Y0135500D03*
X0228236Y0130500D03*
X0228236Y0125500D03*
X0228236Y0120500D03*
D17*
X0148344Y0075510D03*
X0140864Y0075510D03*
X0140864Y0065274D03*
X0144604Y0065274D03*
X0148344Y0065274D03*
D18*
X0132104Y0068492D03*
X0132104Y0074791D03*
X0135854Y0047291D03*
X0135854Y0040992D03*
X0144604Y0040992D03*
X0144604Y0047291D03*
X0144604Y0031041D03*
X0144604Y0024742D03*
X0135854Y0024742D03*
X0135854Y0031041D03*
X0093000Y0062350D03*
X0093000Y0068650D03*
X0083000Y0068650D03*
X0083000Y0062350D03*
X0158000Y0112350D03*
X0158000Y0118650D03*
X0158000Y0132350D03*
X0158000Y0138650D03*
X0245500Y0136150D03*
X0245500Y0129850D03*
X0245500Y0121150D03*
X0245500Y0114850D03*
X0253000Y0114850D03*
X0253000Y0121150D03*
X0280500Y0108650D03*
X0280500Y0102350D03*
D19*
X0175638Y0165799D02*
X0175638Y0170161D01*
X0170638Y0170161D02*
X0170638Y0165799D01*
X0165638Y0165799D02*
X0165638Y0170161D01*
X0160638Y0170161D02*
X0160638Y0165799D01*
X0155638Y0165799D02*
X0155638Y0170161D01*
X0150638Y0170161D02*
X0150638Y0165799D01*
X0145638Y0165799D02*
X0145638Y0170161D01*
X0140638Y0170161D02*
X0140638Y0165799D01*
D20*
X0266209Y0178807D02*
X0266209Y0190618D01*
X0266209Y0218177D02*
X0266209Y0229988D01*
D21*
X0110500Y0144319D03*
X0105500Y0144319D03*
X0100500Y0144319D03*
X0095500Y0144319D03*
X0090500Y0144319D03*
X0085500Y0144319D03*
X0080500Y0144319D03*
X0075500Y0144319D03*
X0070500Y0144319D03*
X0065500Y0144319D03*
X0060500Y0144319D03*
X0055500Y0144319D03*
X0050500Y0144319D03*
X0045500Y0144319D03*
X0045500Y0106681D03*
X0050500Y0106681D03*
X0055500Y0106681D03*
X0060500Y0106681D03*
X0065500Y0106681D03*
X0070500Y0106681D03*
X0075500Y0106681D03*
X0080500Y0106681D03*
X0085500Y0106681D03*
X0090500Y0106681D03*
X0095500Y0106681D03*
X0100500Y0106681D03*
X0105500Y0106681D03*
X0110500Y0106681D03*
D22*
X0170500Y0078236D03*
X0175500Y0078236D03*
X0180500Y0078236D03*
X0185500Y0078236D03*
X0185500Y0057764D03*
X0180500Y0057764D03*
X0175500Y0057764D03*
X0170500Y0057764D03*
D23*
X0168157Y0045500D03*
X0187843Y0045500D03*
X0187843Y0090500D03*
X0168157Y0090500D03*
D24*
X0106701Y0085500D03*
X0069299Y0085500D03*
D25*
X0124604Y0075392D02*
X0124604Y0031632D01*
X0135854Y0031041D01*
X0185500Y0045500D02*
X0187843Y0045500D01*
X0188000Y0045500D01*
X0188000Y0035500D01*
X0188000Y0023000D01*
X0185500Y0045500D02*
X0185500Y0057764D01*
X0185500Y0078236D02*
X0185500Y0088000D01*
X0233000Y0088000D01*
X0228236Y0105500D02*
X0216750Y0105500D01*
X0216750Y0135500D01*
X0228236Y0135500D01*
X0244260Y0135500D01*
X0244320Y0135483D01*
X0244380Y0135471D01*
X0244442Y0135461D01*
X0244504Y0135456D01*
X0244566Y0135455D01*
X0244628Y0135458D01*
X0244690Y0135464D01*
X0244751Y0135475D01*
X0244812Y0135489D01*
X0244872Y0135507D01*
X0244930Y0135529D01*
X0244987Y0135554D01*
X0245042Y0135583D01*
X0245095Y0135615D01*
X0245146Y0135651D01*
X0245195Y0135689D01*
X0245241Y0135731D01*
X0245284Y0135775D01*
X0245325Y0135823D01*
X0245362Y0135872D01*
X0245397Y0135924D01*
X0245428Y0135978D01*
X0245455Y0136034D01*
X0245480Y0136091D01*
X0245500Y0136150D01*
X0228236Y0135500D02*
X0228236Y0143000D01*
X0228236Y0155500D01*
X0246100Y0155500D01*
X0228236Y0155500D02*
X0185500Y0155500D01*
X0185500Y0100500D01*
X0140864Y0100500D01*
X0140864Y0075510D01*
X0133482Y0075510D01*
X0133482Y0075392D01*
X0124604Y0075392D01*
X0185500Y0088000D02*
X0185500Y0090500D01*
X0187843Y0090500D01*
X0185500Y0090500D02*
X0185500Y0100500D01*
X0158000Y0132350D02*
X0089240Y0131760D01*
X0085500Y0135500D01*
X0085500Y0144319D01*
X0085500Y0153000D01*
X0085500Y0160500D01*
X0035500Y0160500D01*
X0035500Y0145500D01*
X0023000Y0145500D01*
X0084850Y0153000D02*
X0085500Y0153000D01*
X0085500Y0160500D02*
X0140638Y0160500D01*
X0140638Y0167980D01*
X0140638Y0160500D02*
X0155638Y0160500D01*
X0155638Y0151898D01*
X0153650Y0150500D01*
X0155638Y0160500D02*
X0155638Y0167980D01*
X0155638Y0180500D01*
X0185500Y0180500D01*
X0185500Y0155500D01*
X0227400Y0143000D02*
X0228236Y0143000D01*
X0263000Y0103010D02*
X0263000Y0095500D01*
X0254250Y0095500D01*
X0263000Y0103010D02*
X0262983Y0103070D01*
X0262971Y0103130D01*
X0262961Y0103192D01*
X0262956Y0103254D01*
X0262955Y0103316D01*
X0262958Y0103378D01*
X0262964Y0103440D01*
X0262975Y0103501D01*
X0262989Y0103562D01*
X0263007Y0103622D01*
X0263029Y0103680D01*
X0263054Y0103737D01*
X0263083Y0103792D01*
X0263115Y0103845D01*
X0263151Y0103896D01*
X0263189Y0103945D01*
X0263231Y0103991D01*
X0263275Y0104034D01*
X0263323Y0104075D01*
X0263372Y0104112D01*
X0263424Y0104147D01*
X0263478Y0104178D01*
X0263534Y0104205D01*
X0263591Y0104230D01*
X0263650Y0104250D01*
X0233000Y0063000D02*
X0233000Y0046740D01*
X0233002Y0046670D01*
X0233008Y0046601D01*
X0233018Y0046532D01*
X0233031Y0046464D01*
X0233048Y0046397D01*
X0233070Y0046330D01*
X0233094Y0046265D01*
X0233123Y0046202D01*
X0233155Y0046140D01*
X0233190Y0046080D01*
X0233229Y0046022D01*
X0233271Y0045967D01*
X0233315Y0045914D01*
X0233363Y0045863D01*
X0233414Y0045815D01*
X0233467Y0045771D01*
X0233522Y0045729D01*
X0233580Y0045690D01*
X0233640Y0045655D01*
X0233702Y0045623D01*
X0233765Y0045594D01*
X0233830Y0045570D01*
X0233897Y0045548D01*
X0233964Y0045531D01*
X0234032Y0045518D01*
X0234101Y0045508D01*
X0234170Y0045502D01*
X0234240Y0045500D01*
X0244850Y0045500D01*
X0245470Y0045559D01*
D26*
X0251150Y0045500D02*
X0262321Y0045559D01*
X0262321Y0054309D01*
X0251730Y0054309D01*
X0251730Y0062478D01*
X0259211Y0062478D02*
X0270480Y0062478D01*
X0272321Y0064309D01*
X0272321Y0080559D01*
X0262400Y0080500D01*
X0256100Y0080500D02*
X0255500Y0080510D01*
X0255500Y0084250D01*
X0258000Y0086750D01*
X0276750Y0086750D01*
X0280500Y0090500D01*
X0280500Y0102350D01*
X0280500Y0108650D02*
X0280500Y0118000D01*
X0276760Y0121740D01*
X0270618Y0121740D01*
X0269240Y0121740D01*
X0268650Y0130500D01*
X0269713Y0128650D01*
X0262350Y0130500D02*
X0261760Y0121740D01*
X0260382Y0121740D01*
X0253000Y0121150D01*
X0245500Y0121150D01*
X0245500Y0129850D01*
X0235500Y0118000D02*
X0233000Y0120500D01*
X0228236Y0120500D01*
X0228236Y0115500D02*
X0220844Y0116150D01*
X0220844Y0126150D01*
X0227094Y0126150D01*
X0235500Y0118000D02*
X0235500Y0113000D01*
X0235500Y0095500D01*
X0240500Y0090500D01*
X0265500Y0090500D01*
X0270500Y0095500D01*
X0270500Y0114142D01*
X0270618Y0114260D01*
X0270618Y0118000D02*
X0265500Y0118000D01*
X0265500Y0105510D01*
X0263650Y0104250D01*
X0235500Y0113000D02*
X0233000Y0110500D01*
X0228236Y0110500D01*
X0207764Y0105500D02*
X0203000Y0105500D01*
X0198000Y0110500D01*
X0198000Y0125500D01*
X0175638Y0105500D02*
X0115500Y0105500D01*
X0115500Y0100500D01*
X0105500Y0100500D01*
X0105500Y0106681D01*
X0110500Y0106681D02*
X0110500Y0111760D01*
X0158000Y0112350D01*
X0158000Y0111228D01*
X0170638Y0111228D01*
X0170638Y0167980D01*
X0175638Y0167980D02*
X0175638Y0105500D01*
X0158000Y0118650D02*
X0158000Y0132350D01*
X0158000Y0138650D02*
X0110500Y0139240D01*
X0110500Y0144319D01*
X0085500Y0125500D02*
X0080500Y0130500D01*
X0080500Y0144319D01*
X0060500Y0144319D02*
X0060500Y0118000D01*
X0148000Y0118000D01*
X0148000Y0125500D02*
X0085500Y0125500D01*
X0085500Y0106681D02*
X0085500Y0088000D01*
X0083000Y0085500D01*
X0083000Y0068650D01*
X0093000Y0068650D02*
X0093000Y0085500D01*
X0106701Y0085500D01*
X0093000Y0085500D02*
X0090500Y0088000D01*
X0090500Y0106681D01*
X0083000Y0085500D02*
X0069299Y0085500D01*
X0045500Y0106681D02*
X0045500Y0115500D01*
X0035500Y0115500D01*
X0023000Y0115500D01*
X0023000Y0125500D02*
X0035500Y0125500D01*
X0045500Y0125500D01*
X0045500Y0144319D01*
X0050500Y0144319D02*
X0050500Y0150500D01*
X0040500Y0150500D01*
X0040500Y0135500D01*
X0035500Y0135500D01*
X0023000Y0135500D01*
X0132104Y0074791D02*
X0133482Y0075510D01*
X0144604Y0065274D02*
X0144604Y0056652D01*
X0145205Y0056642D01*
X0144614Y0047882D01*
X0144604Y0047291D01*
X0144604Y0040992D02*
X0135854Y0040992D01*
X0144604Y0040992D02*
X0144604Y0031041D01*
X0144604Y0024742D02*
X0135854Y0024742D01*
X0135554Y0024152D01*
X0135854Y0024742D02*
X0135867Y0024669D01*
X0135877Y0024594D01*
X0135882Y0024520D01*
X0135884Y0024445D01*
X0135882Y0024370D01*
X0135876Y0024296D01*
X0135867Y0024221D01*
X0135853Y0024148D01*
X0135836Y0024075D01*
X0135816Y0024003D01*
X0135791Y0023932D01*
X0135764Y0023863D01*
X0135732Y0023795D01*
X0135697Y0023728D01*
X0135659Y0023664D01*
X0135618Y0023602D01*
X0135574Y0023541D01*
X0135526Y0023483D01*
X0135476Y0023428D01*
X0135423Y0023375D01*
X0135368Y0023325D01*
X0135309Y0023278D01*
X0135249Y0023234D01*
X0135187Y0023192D01*
X0135122Y0023155D01*
X0135056Y0023120D01*
X0134988Y0023089D01*
X0134918Y0023061D01*
X0134847Y0023037D01*
X0134775Y0023017D01*
X0134702Y0023000D01*
X0134703Y0023000D02*
X0123000Y0023000D01*
X0110500Y0023000D01*
X0151854Y0054642D02*
X0151504Y0056642D01*
X0152094Y0075510D01*
X0148344Y0075510D01*
X0148000Y0075510D01*
X0148000Y0093000D01*
X0158000Y0138650D02*
X0158000Y0139772D01*
X0165638Y0139772D01*
X0165638Y0167980D01*
X0252400Y0155500D02*
X0265500Y0155500D01*
X0265500Y0160500D01*
X0265500Y0184250D01*
X0255470Y0080559D02*
X0256100Y0080500D01*
X0255470Y0080559D02*
X0255470Y0071140D01*
X0217390Y0071140D01*
X0210500Y0064250D01*
X0210500Y0035500D01*
X0210500Y0023000D01*
X0220500Y0023000D02*
X0220500Y0035500D01*
X0220500Y0045500D01*
X0226760Y0045500D01*
D27*
X0220500Y0035500D03*
X0210500Y0035500D03*
X0188000Y0035500D03*
X0178000Y0035500D03*
X0133354Y0059142D03*
X0100500Y0049250D03*
X0123000Y0023000D03*
X0148000Y0093000D03*
X0148000Y0118000D03*
X0148000Y0125500D03*
X0128000Y0150500D03*
X0140500Y0160500D03*
X0155500Y0160500D03*
X0160500Y0160500D03*
X0165500Y0160500D03*
X0170500Y0160500D03*
X0175500Y0160500D03*
X0196750Y0144250D03*
X0198000Y0125500D03*
X0233000Y0088000D03*
X0245500Y0105500D03*
X0254250Y0095500D03*
X0233000Y0063000D03*
X0265500Y0160500D03*
X0049250Y0180500D03*
X0035500Y0145500D03*
X0035500Y0135500D03*
X0035500Y0125500D03*
X0035500Y0115500D03*
X0035500Y0105500D03*
D28*
X0017660Y0017660D02*
X0020761Y0015187D01*
X0024335Y0013466D01*
X0028202Y0012583D01*
X0030185Y0012472D01*
X0286091Y0012472D01*
X0288074Y0012583D01*
X0291941Y0013466D01*
X0295515Y0015187D01*
X0298616Y0017660D01*
X0301089Y0020761D01*
X0302810Y0024335D01*
X0303693Y0028202D01*
X0303804Y0030185D01*
X0303804Y0199476D01*
X0303693Y0201460D01*
X0302810Y0205327D01*
X0301089Y0208900D01*
X0298616Y0212002D01*
X0295515Y0214475D01*
X0291941Y0216196D01*
X0288074Y0217078D01*
X0286091Y0217190D01*
X0280594Y0217190D01*
X0277628Y0218154D01*
X0277628Y0218154D01*
X0275105Y0219987D01*
X0275105Y0219987D01*
X0273272Y0222510D01*
X0273272Y0222510D01*
X0272308Y0225476D01*
X0272308Y0238846D01*
X0272235Y0239770D01*
X0271665Y0241526D01*
X0270579Y0243020D01*
X0269085Y0244105D01*
X0267329Y0244676D01*
X0266406Y0244749D01*
X0049870Y0244749D01*
X0048947Y0244676D01*
X0047190Y0244105D01*
X0045696Y0243020D01*
X0044611Y0241526D01*
X0044040Y0239770D01*
X0043968Y0238846D01*
X0043968Y0225476D01*
X0043004Y0222510D01*
X0043004Y0222510D01*
X0041171Y0219987D01*
X0041171Y0219987D01*
X0041171Y0219987D01*
X0038648Y0218154D01*
X0038648Y0218154D01*
X0035681Y0217190D01*
X0030185Y0217190D01*
X0028202Y0217078D01*
X0024335Y0216196D01*
X0020761Y0214475D01*
X0017660Y0212002D01*
X0015187Y0208900D01*
X0013466Y0205327D01*
X0012583Y0201460D01*
X0012472Y0199476D01*
X0012472Y0030185D01*
X0012583Y0028202D01*
X0013466Y0024335D01*
X0015187Y0020761D01*
X0017660Y0017660D01*
X0017649Y0017673D02*
X0106343Y0017673D01*
X0106479Y0017345D02*
X0105757Y0019088D01*
X0105757Y0026912D01*
X0106479Y0028655D01*
X0107813Y0029990D01*
X0109556Y0030712D01*
X0111444Y0030712D01*
X0113187Y0029990D01*
X0114521Y0028655D01*
X0115243Y0026912D01*
X0115243Y0025575D01*
X0120546Y0025575D01*
X0120986Y0026015D01*
X0122293Y0026556D01*
X0123707Y0026556D01*
X0125014Y0026015D01*
X0125454Y0025575D01*
X0131520Y0025575D01*
X0131520Y0027643D01*
X0131770Y0027892D01*
X0131520Y0028141D01*
X0131520Y0028290D01*
X0124526Y0028657D01*
X0124013Y0028657D01*
X0123938Y0028688D01*
X0123857Y0028692D01*
X0123394Y0028913D01*
X0122919Y0029110D01*
X0122862Y0029167D01*
X0122789Y0029202D01*
X0122446Y0029583D01*
X0122082Y0029947D01*
X0122052Y0030021D01*
X0121998Y0030081D01*
X0121826Y0030565D01*
X0121630Y0031040D01*
X0121630Y0031121D01*
X0121603Y0031197D01*
X0121630Y0031710D01*
X0121630Y0075983D01*
X0122082Y0077077D01*
X0122919Y0077914D01*
X0124013Y0078367D01*
X0128445Y0078367D01*
X0128810Y0078731D01*
X0135399Y0078731D01*
X0135645Y0078485D01*
X0137889Y0078485D01*
X0137889Y0101092D01*
X0138342Y0102185D01*
X0139082Y0102925D01*
X0118075Y0102925D01*
X0118075Y0099988D01*
X0117683Y0099041D01*
X0116959Y0098317D01*
X0116012Y0097925D01*
X0104988Y0097925D01*
X0104041Y0098317D01*
X0103317Y0099041D01*
X0102925Y0099988D01*
X0102925Y0101970D01*
X0102515Y0101560D01*
X0098485Y0101560D01*
X0098000Y0102045D01*
X0097515Y0101560D01*
X0093485Y0101560D01*
X0093075Y0101970D01*
X0093075Y0089067D01*
X0094067Y0088075D01*
X0094099Y0088075D01*
X0094099Y0090172D01*
X0095139Y0091212D01*
X0118263Y0091212D01*
X0119302Y0090172D01*
X0119302Y0080828D01*
X0118263Y0079788D01*
X0095575Y0079788D01*
X0095575Y0072590D01*
X0096294Y0072590D01*
X0097334Y0071550D01*
X0097334Y0065749D01*
X0096294Y0064709D01*
X0089706Y0064709D01*
X0088666Y0065749D01*
X0088666Y0071550D01*
X0089706Y0072590D01*
X0090425Y0072590D01*
X0090425Y0084433D01*
X0088317Y0086541D01*
X0088000Y0087307D01*
X0087683Y0086541D01*
X0085575Y0084433D01*
X0085575Y0072590D01*
X0086294Y0072590D01*
X0087334Y0071550D01*
X0087334Y0065749D01*
X0086294Y0064709D01*
X0079706Y0064709D01*
X0078666Y0065749D01*
X0078666Y0071550D01*
X0079706Y0072590D01*
X0080425Y0072590D01*
X0080425Y0079788D01*
X0057737Y0079788D01*
X0056698Y0080828D01*
X0056698Y0090172D01*
X0057737Y0091212D01*
X0080861Y0091212D01*
X0081901Y0090172D01*
X0081901Y0088075D01*
X0081933Y0088075D01*
X0082925Y0089067D01*
X0082925Y0102120D01*
X0082446Y0102599D01*
X0082446Y0110763D01*
X0083485Y0111802D01*
X0087515Y0111802D01*
X0088000Y0111317D01*
X0088485Y0111802D01*
X0092515Y0111802D01*
X0093000Y0111317D01*
X0093485Y0111802D01*
X0097515Y0111802D01*
X0098000Y0111317D01*
X0098485Y0111802D01*
X0102515Y0111802D01*
X0103000Y0111317D01*
X0103485Y0111802D01*
X0107515Y0111802D01*
X0107925Y0111392D01*
X0107925Y0111744D01*
X0107919Y0112240D01*
X0107925Y0112255D01*
X0107925Y0112272D01*
X0108115Y0112731D01*
X0108299Y0113191D01*
X0108311Y0113203D01*
X0108317Y0113218D01*
X0108668Y0113569D01*
X0109014Y0113924D01*
X0109030Y0113931D01*
X0109041Y0113943D01*
X0109500Y0114132D01*
X0109956Y0114328D01*
X0109972Y0114328D01*
X0109988Y0114335D01*
X0110484Y0114335D01*
X0146477Y0114782D01*
X0145986Y0114985D01*
X0145546Y0115425D01*
X0059988Y0115425D01*
X0059041Y0115817D01*
X0058317Y0116541D01*
X0057925Y0117488D01*
X0057925Y0139608D01*
X0057515Y0139198D01*
X0053485Y0139198D01*
X0053000Y0139683D01*
X0052515Y0139198D01*
X0048485Y0139198D01*
X0048075Y0139608D01*
X0048075Y0124988D01*
X0047683Y0124041D01*
X0046959Y0123317D01*
X0046012Y0122925D01*
X0037954Y0122925D01*
X0037514Y0122485D01*
X0036207Y0121944D01*
X0034793Y0121944D01*
X0033486Y0122485D01*
X0033046Y0122925D01*
X0030036Y0122925D01*
X0029990Y0122813D01*
X0028655Y0121479D01*
X0026912Y0120757D01*
X0019088Y0120757D01*
X0017345Y0121479D01*
X0016010Y0122813D01*
X0015288Y0124556D01*
X0015288Y0126444D01*
X0016010Y0128187D01*
X0017345Y0129521D01*
X0019088Y0130243D01*
X0026912Y0130243D01*
X0028655Y0129521D01*
X0029990Y0128187D01*
X0030036Y0128075D01*
X0033046Y0128075D01*
X0033486Y0128515D01*
X0034793Y0129056D01*
X0036207Y0129056D01*
X0037514Y0128515D01*
X0037954Y0128075D01*
X0042925Y0128075D01*
X0042925Y0134627D01*
X0042683Y0134041D01*
X0041959Y0133317D01*
X0041012Y0132925D01*
X0037954Y0132925D01*
X0037514Y0132485D01*
X0036207Y0131944D01*
X0034793Y0131944D01*
X0033486Y0132485D01*
X0033046Y0132925D01*
X0030036Y0132925D01*
X0029990Y0132813D01*
X0028655Y0131479D01*
X0026912Y0130757D01*
X0019088Y0130757D01*
X0017345Y0131479D01*
X0016010Y0132813D01*
X0015288Y0134556D01*
X0015288Y0136444D01*
X0016010Y0138187D01*
X0017345Y0139521D01*
X0019088Y0140243D01*
X0026912Y0140243D01*
X0028655Y0139521D01*
X0029990Y0138187D01*
X0030036Y0138075D01*
X0033046Y0138075D01*
X0033486Y0138515D01*
X0034793Y0139056D01*
X0036207Y0139056D01*
X0037514Y0138515D01*
X0037925Y0138104D01*
X0037925Y0142896D01*
X0037514Y0142485D01*
X0036207Y0141944D01*
X0034793Y0141944D01*
X0033486Y0142485D01*
X0033446Y0142525D01*
X0029702Y0142525D01*
X0028655Y0141479D01*
X0026912Y0140757D01*
X0019088Y0140757D01*
X0017345Y0141479D01*
X0016010Y0142813D01*
X0015288Y0144556D01*
X0015288Y0146444D01*
X0016010Y0148187D01*
X0017345Y0149521D01*
X0019088Y0150243D01*
X0026912Y0150243D01*
X0028655Y0149521D01*
X0029702Y0148475D01*
X0032525Y0148475D01*
X0032525Y0161092D01*
X0032978Y0162185D01*
X0033815Y0163022D01*
X0034908Y0163475D01*
X0137368Y0163475D01*
X0137284Y0163558D01*
X0136682Y0165012D01*
X0136682Y0170948D01*
X0137284Y0172402D01*
X0138397Y0173515D01*
X0139851Y0174117D01*
X0141425Y0174117D01*
X0142879Y0173515D01*
X0143138Y0173256D01*
X0143397Y0173515D01*
X0144851Y0174117D01*
X0146425Y0174117D01*
X0147879Y0173515D01*
X0148138Y0173256D01*
X0148397Y0173515D01*
X0149851Y0174117D01*
X0151425Y0174117D01*
X0152663Y0173604D01*
X0152663Y0181092D01*
X0153116Y0182185D01*
X0153953Y0183022D01*
X0155046Y0183475D01*
X0186092Y0183475D01*
X0187185Y0183022D01*
X0188022Y0182185D01*
X0188475Y0181092D01*
X0188475Y0158475D01*
X0242160Y0158475D01*
X0242160Y0158794D01*
X0243200Y0159834D01*
X0249001Y0159834D01*
X0249250Y0159585D01*
X0249499Y0159834D01*
X0255300Y0159834D01*
X0256340Y0158794D01*
X0256340Y0158075D01*
X0262896Y0158075D01*
X0262485Y0158486D01*
X0261944Y0159793D01*
X0261944Y0161207D01*
X0262485Y0162514D01*
X0262925Y0162954D01*
X0262925Y0171854D01*
X0261858Y0172296D01*
X0259698Y0174457D01*
X0258528Y0177279D01*
X0258528Y0192146D01*
X0259698Y0194969D01*
X0261858Y0197129D01*
X0264681Y0198298D01*
X0267736Y0198298D01*
X0270559Y0197129D01*
X0272720Y0194969D01*
X0273889Y0192146D01*
X0273889Y0177279D01*
X0272720Y0174457D01*
X0270559Y0172296D01*
X0268075Y0171267D01*
X0268075Y0162954D01*
X0268515Y0162514D01*
X0269056Y0161207D01*
X0269056Y0159793D01*
X0268515Y0158486D01*
X0268075Y0158046D01*
X0268075Y0154988D01*
X0267683Y0154041D01*
X0266959Y0153317D01*
X0266012Y0152925D01*
X0256340Y0152925D01*
X0256340Y0152206D01*
X0255300Y0151166D01*
X0249499Y0151166D01*
X0249250Y0151415D01*
X0249001Y0151166D01*
X0243200Y0151166D01*
X0242160Y0152206D01*
X0242160Y0152525D01*
X0231211Y0152525D01*
X0231211Y0146423D01*
X0231340Y0146294D01*
X0231340Y0139706D01*
X0231211Y0139577D01*
X0231211Y0138475D01*
X0241166Y0138475D01*
X0241166Y0139050D01*
X0242206Y0140090D01*
X0248794Y0140090D01*
X0249834Y0139050D01*
X0249834Y0133249D01*
X0249585Y0133000D01*
X0249834Y0132751D01*
X0249834Y0126950D01*
X0248794Y0125910D01*
X0248075Y0125910D01*
X0248075Y0125090D01*
X0248794Y0125090D01*
X0249250Y0124634D01*
X0249706Y0125090D01*
X0256294Y0125090D01*
X0257035Y0124349D01*
X0257285Y0124598D01*
X0259372Y0124598D01*
X0259478Y0126166D01*
X0259450Y0126166D01*
X0258410Y0127206D01*
X0258410Y0133794D01*
X0259450Y0134834D01*
X0265251Y0134834D01*
X0265500Y0134585D01*
X0265749Y0134834D01*
X0271550Y0134834D01*
X0272590Y0133794D01*
X0272590Y0127206D01*
X0271550Y0126166D01*
X0271522Y0126166D01*
X0271628Y0124598D01*
X0273715Y0124598D01*
X0273998Y0124315D01*
X0277272Y0124315D01*
X0278218Y0123923D01*
X0281959Y0120183D01*
X0282683Y0119459D01*
X0283075Y0118512D01*
X0283075Y0112590D01*
X0283794Y0112590D01*
X0284834Y0111550D01*
X0284834Y0105749D01*
X0284585Y0105500D01*
X0284834Y0105251D01*
X0284834Y0099450D01*
X0283794Y0098410D01*
X0283075Y0098410D01*
X0283075Y0089988D01*
X0282683Y0089041D01*
X0278933Y0085291D01*
X0278209Y0084567D01*
X0277262Y0084175D01*
X0275939Y0084175D01*
X0276261Y0083853D01*
X0276261Y0077265D01*
X0275221Y0076225D01*
X0274896Y0076225D01*
X0274896Y0068643D01*
X0275221Y0068643D01*
X0276261Y0067603D01*
X0276261Y0061015D01*
X0275221Y0059975D01*
X0271165Y0059975D01*
X0270992Y0059904D01*
X0270989Y0059904D01*
X0270986Y0059902D01*
X0270476Y0059904D01*
X0262954Y0059904D01*
X0262954Y0058987D01*
X0262610Y0058643D01*
X0265221Y0058643D01*
X0266261Y0057603D01*
X0266261Y0051015D01*
X0265221Y0049975D01*
X0264896Y0049975D01*
X0264896Y0049893D01*
X0265221Y0049893D01*
X0266261Y0048853D01*
X0266261Y0042265D01*
X0265221Y0041225D01*
X0259420Y0041225D01*
X0258381Y0042265D01*
X0258381Y0042963D01*
X0255090Y0042946D01*
X0255090Y0042206D01*
X0254050Y0041166D01*
X0248249Y0041166D01*
X0248000Y0041415D01*
X0247751Y0041166D01*
X0241950Y0041166D01*
X0240910Y0042206D01*
X0240910Y0042525D01*
X0238574Y0042525D01*
X0238574Y0041615D01*
X0237534Y0040576D01*
X0230946Y0040576D01*
X0230500Y0041022D01*
X0230054Y0040576D01*
X0223466Y0040576D01*
X0223075Y0040966D01*
X0223075Y0037954D01*
X0223515Y0037514D01*
X0224056Y0036207D01*
X0224056Y0034793D01*
X0223515Y0033486D01*
X0223075Y0033046D01*
X0223075Y0030036D01*
X0223187Y0029990D01*
X0224521Y0028655D01*
X0225243Y0026912D01*
X0225243Y0019088D01*
X0224521Y0017345D01*
X0223187Y0016010D01*
X0221444Y0015288D01*
X0219556Y0015288D01*
X0217813Y0016010D01*
X0216479Y0017345D01*
X0215757Y0019088D01*
X0215757Y0026912D01*
X0216479Y0028655D01*
X0217813Y0029990D01*
X0217925Y0030036D01*
X0217925Y0033046D01*
X0217485Y0033486D01*
X0216944Y0034793D01*
X0216944Y0036207D01*
X0217485Y0037514D01*
X0217925Y0037954D01*
X0217925Y0046012D01*
X0218317Y0046959D01*
X0219041Y0047683D01*
X0219988Y0048075D01*
X0222426Y0048075D01*
X0222426Y0049385D01*
X0223466Y0050424D01*
X0230025Y0050424D01*
X0230025Y0060946D01*
X0229985Y0060986D01*
X0229444Y0062293D01*
X0229444Y0063707D01*
X0229985Y0065014D01*
X0230986Y0066015D01*
X0232293Y0066556D01*
X0233707Y0066556D01*
X0235014Y0066015D01*
X0236015Y0065014D01*
X0236556Y0063707D01*
X0236556Y0062293D01*
X0236015Y0060986D01*
X0235975Y0060946D01*
X0235975Y0050424D01*
X0237534Y0050424D01*
X0238574Y0049385D01*
X0238574Y0048475D01*
X0240910Y0048475D01*
X0240910Y0048794D01*
X0241950Y0049834D01*
X0247751Y0049834D01*
X0248000Y0049585D01*
X0248249Y0049834D01*
X0254050Y0049834D01*
X0255090Y0048794D01*
X0255090Y0048096D01*
X0258381Y0048113D01*
X0258381Y0048853D01*
X0259420Y0049893D01*
X0259746Y0049893D01*
X0259746Y0049975D01*
X0259420Y0049975D01*
X0258381Y0051015D01*
X0258381Y0051734D01*
X0251218Y0051734D01*
X0250272Y0052126D01*
X0249548Y0052851D01*
X0249156Y0053797D01*
X0249156Y0057948D01*
X0249027Y0057948D01*
X0247987Y0058987D01*
X0247987Y0065969D01*
X0249027Y0067009D01*
X0252367Y0067009D01*
X0251727Y0067649D01*
X0251727Y0068565D01*
X0218456Y0068565D01*
X0213075Y0063183D01*
X0213075Y0037954D01*
X0213515Y0037514D01*
X0214056Y0036207D01*
X0214056Y0034793D01*
X0213515Y0033486D01*
X0213075Y0033046D01*
X0213075Y0030036D01*
X0213187Y0029990D01*
X0214521Y0028655D01*
X0215243Y0026912D01*
X0215243Y0019088D01*
X0214521Y0017345D01*
X0213187Y0016010D01*
X0211444Y0015288D01*
X0209556Y0015288D01*
X0207813Y0016010D01*
X0206479Y0017345D01*
X0205757Y0019088D01*
X0205757Y0026912D01*
X0206479Y0028655D01*
X0207813Y0029990D01*
X0207925Y0030036D01*
X0207925Y0033046D01*
X0207485Y0033486D01*
X0206944Y0034793D01*
X0206944Y0036207D01*
X0207485Y0037514D01*
X0207925Y0037954D01*
X0207925Y0064762D01*
X0208317Y0065709D01*
X0209041Y0066433D01*
X0215931Y0073323D01*
X0216878Y0073715D01*
X0251727Y0073715D01*
X0251727Y0074631D01*
X0252767Y0075670D01*
X0252896Y0075670D01*
X0252896Y0076470D01*
X0252160Y0077206D01*
X0252160Y0083794D01*
X0252925Y0084559D01*
X0252925Y0084762D01*
X0253317Y0085709D01*
X0254041Y0086433D01*
X0255534Y0087925D01*
X0239988Y0087925D01*
X0239041Y0088317D01*
X0238317Y0089041D01*
X0233317Y0094041D01*
X0232925Y0094988D01*
X0232925Y0097544D01*
X0223170Y0097544D01*
X0222131Y0098584D01*
X0222131Y0102416D01*
X0222240Y0102525D01*
X0216158Y0102525D01*
X0215065Y0102978D01*
X0214228Y0103815D01*
X0213869Y0104681D01*
X0213869Y0103584D01*
X0212830Y0102544D01*
X0202698Y0102544D01*
X0202196Y0103046D01*
X0201541Y0103317D01*
X0196541Y0108317D01*
X0195817Y0109041D01*
X0195425Y0109988D01*
X0195425Y0123046D01*
X0194985Y0123486D01*
X0194444Y0124793D01*
X0194444Y0126207D01*
X0194985Y0127514D01*
X0195986Y0128515D01*
X0197293Y0129056D01*
X0198707Y0129056D01*
X0200014Y0128515D01*
X0201015Y0127514D01*
X0201556Y0126207D01*
X0201556Y0124793D01*
X0201015Y0123486D01*
X0200575Y0123046D01*
X0200575Y0111567D01*
X0201658Y0110483D01*
X0201658Y0112416D01*
X0202242Y0113000D01*
X0201658Y0113584D01*
X0201658Y0117416D01*
X0202242Y0118000D01*
X0201658Y0118584D01*
X0201658Y0122416D01*
X0202242Y0123000D01*
X0201658Y0123584D01*
X0201658Y0127416D01*
X0202242Y0128000D01*
X0201658Y0128584D01*
X0201658Y0132416D01*
X0202242Y0133000D01*
X0201658Y0133584D01*
X0201658Y0137416D01*
X0202698Y0138456D01*
X0212830Y0138456D01*
X0213869Y0137416D01*
X0213869Y0136319D01*
X0214228Y0137185D01*
X0215065Y0138022D01*
X0216158Y0138475D01*
X0225261Y0138475D01*
X0225261Y0138666D01*
X0224499Y0138666D01*
X0223459Y0139706D01*
X0223459Y0146294D01*
X0224499Y0147334D01*
X0225261Y0147334D01*
X0225261Y0152525D01*
X0188475Y0152525D01*
X0188475Y0096999D01*
X0193302Y0096999D01*
X0194342Y0095960D01*
X0194342Y0090975D01*
X0230946Y0090975D01*
X0230986Y0091015D01*
X0232293Y0091556D01*
X0233707Y0091556D01*
X0235014Y0091015D01*
X0236015Y0090014D01*
X0236556Y0088707D01*
X0236556Y0087293D01*
X0236015Y0085986D01*
X0235014Y0084985D01*
X0233707Y0084444D01*
X0232293Y0084444D01*
X0230986Y0084985D01*
X0230946Y0085025D01*
X0194326Y0085025D01*
X0193302Y0084001D01*
X0188475Y0084001D01*
X0188475Y0077644D01*
X0188456Y0077599D01*
X0188456Y0073170D01*
X0187416Y0072131D01*
X0183584Y0072131D01*
X0182544Y0073170D01*
X0182544Y0077599D01*
X0182525Y0077644D01*
X0182525Y0084001D01*
X0182383Y0084001D01*
X0181343Y0085040D01*
X0181343Y0095960D01*
X0182383Y0096999D01*
X0182525Y0096999D01*
X0182525Y0097525D01*
X0143839Y0097525D01*
X0143839Y0074918D01*
X0143722Y0074635D01*
X0143722Y0072412D01*
X0142682Y0071373D01*
X0139046Y0071373D01*
X0138007Y0072412D01*
X0138007Y0072535D01*
X0136438Y0072535D01*
X0136438Y0071891D01*
X0135399Y0070851D01*
X0128810Y0070851D01*
X0127770Y0071891D01*
X0127770Y0072417D01*
X0127579Y0072417D01*
X0127579Y0034455D01*
X0131811Y0034232D01*
X0132560Y0034981D01*
X0139149Y0034981D01*
X0140188Y0033942D01*
X0140188Y0028141D01*
X0139939Y0027892D01*
X0140188Y0027643D01*
X0140188Y0027317D01*
X0140270Y0027317D01*
X0140270Y0027643D01*
X0140520Y0027892D01*
X0140270Y0028141D01*
X0140270Y0033942D01*
X0141310Y0034981D01*
X0142030Y0034981D01*
X0142030Y0037052D01*
X0141310Y0037052D01*
X0140270Y0038092D01*
X0140270Y0038417D01*
X0140188Y0038417D01*
X0140188Y0038092D01*
X0139149Y0037052D01*
X0132560Y0037052D01*
X0131520Y0038092D01*
X0131520Y0043893D01*
X0132560Y0044932D01*
X0139149Y0044932D01*
X0140188Y0043893D01*
X0140188Y0043567D01*
X0140270Y0043567D01*
X0140270Y0043893D01*
X0140520Y0044142D01*
X0140270Y0044391D01*
X0140270Y0050192D01*
X0141310Y0051231D01*
X0142259Y0051231D01*
X0142332Y0052308D01*
X0142304Y0052308D01*
X0141265Y0053348D01*
X0141265Y0059936D01*
X0142030Y0060701D01*
X0142030Y0061137D01*
X0139046Y0061137D01*
X0138007Y0062176D01*
X0138007Y0068371D01*
X0139046Y0069411D01*
X0142682Y0069411D01*
X0142734Y0069358D01*
X0142787Y0069411D01*
X0146422Y0069411D01*
X0147462Y0068371D01*
X0147462Y0062176D01*
X0147179Y0061894D01*
X0147179Y0060976D01*
X0148105Y0060976D01*
X0148354Y0060726D01*
X0148603Y0060976D01*
X0149064Y0060976D01*
X0149389Y0071373D01*
X0146527Y0071373D01*
X0145487Y0072412D01*
X0145487Y0074848D01*
X0145425Y0074998D01*
X0145425Y0090546D01*
X0144985Y0090986D01*
X0144444Y0092293D01*
X0144444Y0093707D01*
X0144985Y0095014D01*
X0145986Y0096015D01*
X0147293Y0096556D01*
X0148707Y0096556D01*
X0150014Y0096015D01*
X0151015Y0095014D01*
X0151556Y0093707D01*
X0151556Y0092293D01*
X0151015Y0090986D01*
X0150575Y0090546D01*
X0150575Y0079234D01*
X0151202Y0078607D01*
X0151202Y0078085D01*
X0151624Y0078085D01*
X0151663Y0078099D01*
X0152135Y0078085D01*
X0152607Y0078085D01*
X0152645Y0078069D01*
X0152687Y0078067D01*
X0153117Y0077873D01*
X0153553Y0077693D01*
X0153583Y0077663D01*
X0153621Y0077646D01*
X0153944Y0077302D01*
X0154277Y0076968D01*
X0154293Y0076930D01*
X0154322Y0076899D01*
X0154489Y0076458D01*
X0154669Y0076022D01*
X0154669Y0075980D01*
X0154684Y0075941D01*
X0154669Y0075470D01*
X0154669Y0074998D01*
X0154653Y0074959D01*
X0154216Y0060976D01*
X0154404Y0060976D01*
X0155444Y0059936D01*
X0155444Y0053348D01*
X0154404Y0052308D01*
X0152982Y0052308D01*
X0152803Y0052194D01*
X0151794Y0052017D01*
X0150794Y0052240D01*
X0150698Y0052308D01*
X0148603Y0052308D01*
X0148354Y0052557D01*
X0148105Y0052308D01*
X0147493Y0052308D01*
X0147421Y0051231D01*
X0147899Y0051231D01*
X0148938Y0050192D01*
X0148938Y0044391D01*
X0148689Y0044142D01*
X0148938Y0043893D01*
X0148938Y0038092D01*
X0147899Y0037052D01*
X0147179Y0037052D01*
X0147179Y0034981D01*
X0147899Y0034981D01*
X0148938Y0033942D01*
X0148938Y0028141D01*
X0148689Y0027892D01*
X0148938Y0027643D01*
X0148938Y0021842D01*
X0147899Y0020802D01*
X0141310Y0020802D01*
X0140270Y0021842D01*
X0140270Y0022167D01*
X0140188Y0022167D01*
X0140188Y0021842D01*
X0139149Y0020802D01*
X0136403Y0020802D01*
X0136281Y0020694D01*
X0136281Y0020694D01*
X0135460Y0020527D01*
X0135215Y0020425D01*
X0134963Y0020425D01*
X0134716Y0020375D01*
X0134456Y0020425D01*
X0125454Y0020425D01*
X0125014Y0019985D01*
X0123707Y0019444D01*
X0122293Y0019444D01*
X0120986Y0019985D01*
X0120546Y0020425D01*
X0115243Y0020425D01*
X0115243Y0019088D01*
X0114521Y0017345D01*
X0113187Y0016010D01*
X0111444Y0015288D01*
X0109556Y0015288D01*
X0107813Y0016010D01*
X0106479Y0017345D01*
X0106549Y0017275D02*
X0018143Y0017275D01*
X0018642Y0016876D02*
X0106947Y0016876D01*
X0107346Y0016478D02*
X0019142Y0016478D01*
X0019642Y0016079D02*
X0107744Y0016079D01*
X0108609Y0015681D02*
X0020142Y0015681D01*
X0020641Y0015282D02*
X0295634Y0015282D01*
X0296134Y0015681D02*
X0222391Y0015681D01*
X0223256Y0016079D02*
X0296634Y0016079D01*
X0297133Y0016478D02*
X0223654Y0016478D01*
X0224053Y0016876D02*
X0297633Y0016876D01*
X0298133Y0017275D02*
X0224451Y0017275D01*
X0224657Y0017673D02*
X0298627Y0017673D01*
X0298944Y0018072D02*
X0224822Y0018072D01*
X0224987Y0018470D02*
X0299262Y0018470D01*
X0299580Y0018869D02*
X0225152Y0018869D01*
X0225243Y0019267D02*
X0299898Y0019267D01*
X0300216Y0019666D02*
X0225243Y0019666D01*
X0225243Y0020064D02*
X0300533Y0020064D01*
X0300851Y0020463D02*
X0225243Y0020463D01*
X0225243Y0020861D02*
X0301137Y0020861D01*
X0301329Y0021260D02*
X0225243Y0021260D01*
X0225243Y0021658D02*
X0301521Y0021658D01*
X0301713Y0022057D02*
X0225243Y0022057D01*
X0225243Y0022455D02*
X0301905Y0022455D01*
X0302097Y0022854D02*
X0225243Y0022854D01*
X0225243Y0023252D02*
X0302289Y0023252D01*
X0302481Y0023651D02*
X0225243Y0023651D01*
X0225243Y0024049D02*
X0302673Y0024049D01*
X0302836Y0024448D02*
X0225243Y0024448D01*
X0225243Y0024846D02*
X0302927Y0024846D01*
X0303018Y0025245D02*
X0225243Y0025245D01*
X0225243Y0025643D02*
X0303109Y0025643D01*
X0303200Y0026042D02*
X0225243Y0026042D01*
X0225243Y0026440D02*
X0303291Y0026440D01*
X0303382Y0026839D02*
X0225243Y0026839D01*
X0225108Y0027237D02*
X0303472Y0027237D01*
X0303563Y0027636D02*
X0224943Y0027636D01*
X0224778Y0028034D02*
X0303654Y0028034D01*
X0303706Y0028433D02*
X0224613Y0028433D01*
X0224345Y0028832D02*
X0303728Y0028832D01*
X0303750Y0029230D02*
X0223947Y0029230D01*
X0223548Y0029629D02*
X0303773Y0029629D01*
X0303795Y0030027D02*
X0223097Y0030027D01*
X0223075Y0030426D02*
X0303804Y0030426D01*
X0303804Y0030824D02*
X0223075Y0030824D01*
X0223075Y0031223D02*
X0303804Y0031223D01*
X0303804Y0031621D02*
X0223075Y0031621D01*
X0223075Y0032020D02*
X0303804Y0032020D01*
X0303804Y0032418D02*
X0223075Y0032418D01*
X0223075Y0032817D02*
X0303804Y0032817D01*
X0303804Y0033215D02*
X0223244Y0033215D01*
X0223568Y0033614D02*
X0303804Y0033614D01*
X0303804Y0034012D02*
X0223733Y0034012D01*
X0223898Y0034411D02*
X0303804Y0034411D01*
X0303804Y0034809D02*
X0224056Y0034809D01*
X0224056Y0035208D02*
X0303804Y0035208D01*
X0303804Y0035606D02*
X0224056Y0035606D01*
X0224056Y0036005D02*
X0303804Y0036005D01*
X0303804Y0036403D02*
X0223975Y0036403D01*
X0223810Y0036802D02*
X0303804Y0036802D01*
X0303804Y0037200D02*
X0223645Y0037200D01*
X0223430Y0037599D02*
X0303804Y0037599D01*
X0303804Y0037997D02*
X0223075Y0037997D01*
X0223075Y0038396D02*
X0303804Y0038396D01*
X0303804Y0038794D02*
X0223075Y0038794D01*
X0223075Y0039193D02*
X0303804Y0039193D01*
X0303804Y0039591D02*
X0223075Y0039591D01*
X0223075Y0039990D02*
X0303804Y0039990D01*
X0303804Y0040388D02*
X0223075Y0040388D01*
X0223075Y0040787D02*
X0223254Y0040787D01*
X0217925Y0040787D02*
X0213075Y0040787D01*
X0213075Y0041185D02*
X0217925Y0041185D01*
X0217925Y0041584D02*
X0213075Y0041584D01*
X0213075Y0041982D02*
X0217925Y0041982D01*
X0217925Y0042381D02*
X0213075Y0042381D01*
X0213075Y0042779D02*
X0217925Y0042779D01*
X0217925Y0043178D02*
X0213075Y0043178D01*
X0213075Y0043576D02*
X0217925Y0043576D01*
X0217925Y0043975D02*
X0213075Y0043975D01*
X0213075Y0044373D02*
X0217925Y0044373D01*
X0217925Y0044772D02*
X0213075Y0044772D01*
X0213075Y0045170D02*
X0217925Y0045170D01*
X0217925Y0045569D02*
X0213075Y0045569D01*
X0213075Y0045968D02*
X0217925Y0045968D01*
X0218072Y0046366D02*
X0213075Y0046366D01*
X0213075Y0046765D02*
X0218237Y0046765D01*
X0218522Y0047163D02*
X0213075Y0047163D01*
X0213075Y0047562D02*
X0218920Y0047562D01*
X0219711Y0047960D02*
X0213075Y0047960D01*
X0213075Y0048359D02*
X0222426Y0048359D01*
X0222426Y0048757D02*
X0213075Y0048757D01*
X0213075Y0049156D02*
X0222426Y0049156D01*
X0222595Y0049554D02*
X0213075Y0049554D01*
X0213075Y0049953D02*
X0222994Y0049953D01*
X0223392Y0050351D02*
X0213075Y0050351D01*
X0213075Y0050750D02*
X0230025Y0050750D01*
X0230025Y0051148D02*
X0213075Y0051148D01*
X0213075Y0051547D02*
X0230025Y0051547D01*
X0230025Y0051945D02*
X0213075Y0051945D01*
X0213075Y0052344D02*
X0230025Y0052344D01*
X0230025Y0052742D02*
X0213075Y0052742D01*
X0213075Y0053141D02*
X0230025Y0053141D01*
X0230025Y0053539D02*
X0213075Y0053539D01*
X0213075Y0053938D02*
X0230025Y0053938D01*
X0230025Y0054336D02*
X0213075Y0054336D01*
X0213075Y0054735D02*
X0230025Y0054735D01*
X0230025Y0055133D02*
X0213075Y0055133D01*
X0213075Y0055532D02*
X0230025Y0055532D01*
X0230025Y0055930D02*
X0213075Y0055930D01*
X0213075Y0056329D02*
X0230025Y0056329D01*
X0230025Y0056727D02*
X0213075Y0056727D01*
X0213075Y0057126D02*
X0230025Y0057126D01*
X0230025Y0057524D02*
X0213075Y0057524D01*
X0213075Y0057923D02*
X0230025Y0057923D01*
X0230025Y0058321D02*
X0213075Y0058321D01*
X0213075Y0058720D02*
X0230025Y0058720D01*
X0230025Y0059118D02*
X0213075Y0059118D01*
X0213075Y0059517D02*
X0230025Y0059517D01*
X0230025Y0059915D02*
X0213075Y0059915D01*
X0213075Y0060314D02*
X0230025Y0060314D01*
X0230025Y0060712D02*
X0213075Y0060712D01*
X0213075Y0061111D02*
X0229934Y0061111D01*
X0229769Y0061509D02*
X0213075Y0061509D01*
X0213075Y0061908D02*
X0229603Y0061908D01*
X0229444Y0062306D02*
X0213075Y0062306D01*
X0213075Y0062705D02*
X0229444Y0062705D01*
X0229444Y0063103D02*
X0213075Y0063103D01*
X0213393Y0063502D02*
X0229444Y0063502D01*
X0229524Y0063901D02*
X0213792Y0063901D01*
X0214190Y0064299D02*
X0229689Y0064299D01*
X0229854Y0064698D02*
X0214589Y0064698D01*
X0214987Y0065096D02*
X0230067Y0065096D01*
X0230466Y0065495D02*
X0215386Y0065495D01*
X0215784Y0065893D02*
X0230864Y0065893D01*
X0231655Y0066292D02*
X0216183Y0066292D01*
X0216581Y0066690D02*
X0248708Y0066690D01*
X0248309Y0066292D02*
X0234345Y0066292D01*
X0235136Y0065893D02*
X0247987Y0065893D01*
X0247987Y0065495D02*
X0235534Y0065495D01*
X0235933Y0065096D02*
X0247987Y0065096D01*
X0247987Y0064698D02*
X0236146Y0064698D01*
X0236311Y0064299D02*
X0247987Y0064299D01*
X0247987Y0063901D02*
X0236476Y0063901D01*
X0236556Y0063502D02*
X0247987Y0063502D01*
X0247987Y0063103D02*
X0236556Y0063103D01*
X0236556Y0062705D02*
X0247987Y0062705D01*
X0247987Y0062306D02*
X0236556Y0062306D01*
X0236397Y0061908D02*
X0247987Y0061908D01*
X0247987Y0061509D02*
X0236231Y0061509D01*
X0236066Y0061111D02*
X0247987Y0061111D01*
X0247987Y0060712D02*
X0235975Y0060712D01*
X0235975Y0060314D02*
X0247987Y0060314D01*
X0247987Y0059915D02*
X0235975Y0059915D01*
X0235975Y0059517D02*
X0247987Y0059517D01*
X0247987Y0059118D02*
X0235975Y0059118D01*
X0235975Y0058720D02*
X0248254Y0058720D01*
X0248653Y0058321D02*
X0235975Y0058321D01*
X0235975Y0057923D02*
X0249156Y0057923D01*
X0249156Y0057524D02*
X0235975Y0057524D01*
X0235975Y0057126D02*
X0249156Y0057126D01*
X0249156Y0056727D02*
X0235975Y0056727D01*
X0235975Y0056329D02*
X0249156Y0056329D01*
X0249156Y0055930D02*
X0235975Y0055930D01*
X0235975Y0055532D02*
X0249156Y0055532D01*
X0249156Y0055133D02*
X0235975Y0055133D01*
X0235975Y0054735D02*
X0249156Y0054735D01*
X0249156Y0054336D02*
X0235975Y0054336D01*
X0235975Y0053938D02*
X0249156Y0053938D01*
X0249262Y0053539D02*
X0235975Y0053539D01*
X0235975Y0053141D02*
X0249427Y0053141D01*
X0249656Y0052742D02*
X0235975Y0052742D01*
X0235975Y0052344D02*
X0250054Y0052344D01*
X0250709Y0051945D02*
X0235975Y0051945D01*
X0235975Y0051547D02*
X0258381Y0051547D01*
X0258381Y0051148D02*
X0235975Y0051148D01*
X0235975Y0050750D02*
X0258646Y0050750D01*
X0259044Y0050351D02*
X0237608Y0050351D01*
X0238006Y0049953D02*
X0259746Y0049953D01*
X0259082Y0049554D02*
X0254330Y0049554D01*
X0254728Y0049156D02*
X0258683Y0049156D01*
X0258381Y0048757D02*
X0255090Y0048757D01*
X0255090Y0048359D02*
X0258381Y0048359D01*
X0258381Y0042779D02*
X0255090Y0042779D01*
X0255090Y0042381D02*
X0258381Y0042381D01*
X0258663Y0041982D02*
X0254866Y0041982D01*
X0254468Y0041584D02*
X0259062Y0041584D01*
X0254069Y0041185D02*
X0303804Y0041185D01*
X0303804Y0040787D02*
X0237746Y0040787D01*
X0238144Y0041185D02*
X0241931Y0041185D01*
X0241532Y0041584D02*
X0238543Y0041584D01*
X0238574Y0041982D02*
X0241134Y0041982D01*
X0240910Y0042381D02*
X0238574Y0042381D01*
X0238574Y0048757D02*
X0240910Y0048757D01*
X0241272Y0049156D02*
X0238574Y0049156D01*
X0238405Y0049554D02*
X0241670Y0049554D01*
X0247770Y0041185D02*
X0248230Y0041185D01*
X0230735Y0040787D02*
X0230265Y0040787D01*
X0217925Y0040388D02*
X0213075Y0040388D01*
X0213075Y0039990D02*
X0217925Y0039990D01*
X0217925Y0039591D02*
X0213075Y0039591D01*
X0213075Y0039193D02*
X0217925Y0039193D01*
X0217925Y0038794D02*
X0213075Y0038794D01*
X0213075Y0038396D02*
X0217925Y0038396D01*
X0217925Y0037997D02*
X0213075Y0037997D01*
X0213430Y0037599D02*
X0217570Y0037599D01*
X0217355Y0037200D02*
X0213645Y0037200D01*
X0213810Y0036802D02*
X0217190Y0036802D01*
X0217025Y0036403D02*
X0213975Y0036403D01*
X0214056Y0036005D02*
X0216944Y0036005D01*
X0216944Y0035606D02*
X0214056Y0035606D01*
X0214056Y0035208D02*
X0216944Y0035208D01*
X0216944Y0034809D02*
X0214056Y0034809D01*
X0213898Y0034411D02*
X0217102Y0034411D01*
X0217267Y0034012D02*
X0213733Y0034012D01*
X0213568Y0033614D02*
X0217432Y0033614D01*
X0217756Y0033215D02*
X0213244Y0033215D01*
X0213075Y0032817D02*
X0217925Y0032817D01*
X0217925Y0032418D02*
X0213075Y0032418D01*
X0213075Y0032020D02*
X0217925Y0032020D01*
X0217925Y0031621D02*
X0213075Y0031621D01*
X0213075Y0031223D02*
X0217925Y0031223D01*
X0217925Y0030824D02*
X0213075Y0030824D01*
X0213075Y0030426D02*
X0217925Y0030426D01*
X0217903Y0030027D02*
X0213097Y0030027D01*
X0213548Y0029629D02*
X0217452Y0029629D01*
X0217053Y0029230D02*
X0213947Y0029230D01*
X0214345Y0028832D02*
X0216655Y0028832D01*
X0216387Y0028433D02*
X0214613Y0028433D01*
X0214778Y0028034D02*
X0216222Y0028034D01*
X0216057Y0027636D02*
X0214943Y0027636D01*
X0215108Y0027237D02*
X0215892Y0027237D01*
X0215757Y0026839D02*
X0215243Y0026839D01*
X0215243Y0026440D02*
X0215757Y0026440D01*
X0215757Y0026042D02*
X0215243Y0026042D01*
X0215243Y0025643D02*
X0215757Y0025643D01*
X0215757Y0025245D02*
X0215243Y0025245D01*
X0215243Y0024846D02*
X0215757Y0024846D01*
X0215757Y0024448D02*
X0215243Y0024448D01*
X0215243Y0024049D02*
X0215757Y0024049D01*
X0215757Y0023651D02*
X0215243Y0023651D01*
X0215243Y0023252D02*
X0215757Y0023252D01*
X0215757Y0022854D02*
X0215243Y0022854D01*
X0215243Y0022455D02*
X0215757Y0022455D01*
X0215757Y0022057D02*
X0215243Y0022057D01*
X0215243Y0021658D02*
X0215757Y0021658D01*
X0215757Y0021260D02*
X0215243Y0021260D01*
X0215243Y0020861D02*
X0215757Y0020861D01*
X0215757Y0020463D02*
X0215243Y0020463D01*
X0215243Y0020064D02*
X0215757Y0020064D01*
X0215757Y0019666D02*
X0215243Y0019666D01*
X0215243Y0019267D02*
X0215757Y0019267D01*
X0215848Y0018869D02*
X0215152Y0018869D01*
X0214987Y0018470D02*
X0216013Y0018470D01*
X0216178Y0018072D02*
X0214822Y0018072D01*
X0214657Y0017673D02*
X0216343Y0017673D01*
X0216549Y0017275D02*
X0214451Y0017275D01*
X0214053Y0016876D02*
X0216947Y0016876D01*
X0217346Y0016478D02*
X0213654Y0016478D01*
X0213256Y0016079D02*
X0217744Y0016079D01*
X0218609Y0015681D02*
X0212391Y0015681D01*
X0208609Y0015681D02*
X0189891Y0015681D01*
X0190687Y0016010D02*
X0188944Y0015288D01*
X0187056Y0015288D01*
X0185313Y0016010D01*
X0183979Y0017345D01*
X0183257Y0019088D01*
X0183257Y0026912D01*
X0183979Y0028655D01*
X0185025Y0029702D01*
X0185025Y0033446D01*
X0184985Y0033486D01*
X0184444Y0034793D01*
X0184444Y0036207D01*
X0184985Y0037514D01*
X0185025Y0037554D01*
X0185025Y0039001D01*
X0182383Y0039001D01*
X0181343Y0040040D01*
X0181343Y0050960D01*
X0182383Y0051999D01*
X0182525Y0051999D01*
X0182525Y0058355D01*
X0182544Y0058401D01*
X0182544Y0062830D01*
X0183584Y0063869D01*
X0187416Y0063869D01*
X0188456Y0062830D01*
X0188456Y0058401D01*
X0188475Y0058355D01*
X0188475Y0051999D01*
X0193302Y0051999D01*
X0194342Y0050960D01*
X0194342Y0040040D01*
X0193302Y0039001D01*
X0190975Y0039001D01*
X0190975Y0037554D01*
X0191015Y0037514D01*
X0191556Y0036207D01*
X0191556Y0034793D01*
X0191015Y0033486D01*
X0190975Y0033446D01*
X0190975Y0029702D01*
X0192021Y0028655D01*
X0192743Y0026912D01*
X0192743Y0019088D01*
X0192021Y0017345D01*
X0190687Y0016010D01*
X0190756Y0016079D02*
X0207744Y0016079D01*
X0207346Y0016478D02*
X0191154Y0016478D01*
X0191553Y0016876D02*
X0206947Y0016876D01*
X0206549Y0017275D02*
X0191951Y0017275D01*
X0192157Y0017673D02*
X0206343Y0017673D01*
X0206178Y0018072D02*
X0192322Y0018072D01*
X0192487Y0018470D02*
X0206013Y0018470D01*
X0205848Y0018869D02*
X0192652Y0018869D01*
X0192743Y0019267D02*
X0205757Y0019267D01*
X0205757Y0019666D02*
X0192743Y0019666D01*
X0192743Y0020064D02*
X0205757Y0020064D01*
X0205757Y0020463D02*
X0192743Y0020463D01*
X0192743Y0020861D02*
X0205757Y0020861D01*
X0205757Y0021260D02*
X0192743Y0021260D01*
X0192743Y0021658D02*
X0205757Y0021658D01*
X0205757Y0022057D02*
X0192743Y0022057D01*
X0192743Y0022455D02*
X0205757Y0022455D01*
X0205757Y0022854D02*
X0192743Y0022854D01*
X0192743Y0023252D02*
X0205757Y0023252D01*
X0205757Y0023651D02*
X0192743Y0023651D01*
X0192743Y0024049D02*
X0205757Y0024049D01*
X0205757Y0024448D02*
X0192743Y0024448D01*
X0192743Y0024846D02*
X0205757Y0024846D01*
X0205757Y0025245D02*
X0192743Y0025245D01*
X0192743Y0025643D02*
X0205757Y0025643D01*
X0205757Y0026042D02*
X0192743Y0026042D01*
X0192743Y0026440D02*
X0205757Y0026440D01*
X0205757Y0026839D02*
X0192743Y0026839D01*
X0192608Y0027237D02*
X0205892Y0027237D01*
X0206057Y0027636D02*
X0192443Y0027636D01*
X0192278Y0028034D02*
X0206222Y0028034D01*
X0206387Y0028433D02*
X0192113Y0028433D01*
X0191845Y0028832D02*
X0206655Y0028832D01*
X0207053Y0029230D02*
X0191447Y0029230D01*
X0191048Y0029629D02*
X0207452Y0029629D01*
X0207903Y0030027D02*
X0190975Y0030027D01*
X0190975Y0030426D02*
X0207925Y0030426D01*
X0207925Y0030824D02*
X0190975Y0030824D01*
X0190975Y0031223D02*
X0207925Y0031223D01*
X0207925Y0031621D02*
X0190975Y0031621D01*
X0190975Y0032020D02*
X0207925Y0032020D01*
X0207925Y0032418D02*
X0190975Y0032418D01*
X0190975Y0032817D02*
X0207925Y0032817D01*
X0207756Y0033215D02*
X0190975Y0033215D01*
X0191068Y0033614D02*
X0207432Y0033614D01*
X0207267Y0034012D02*
X0191233Y0034012D01*
X0191398Y0034411D02*
X0207102Y0034411D01*
X0206944Y0034809D02*
X0191556Y0034809D01*
X0191556Y0035208D02*
X0206944Y0035208D01*
X0206944Y0035606D02*
X0191556Y0035606D01*
X0191556Y0036005D02*
X0206944Y0036005D01*
X0207025Y0036403D02*
X0191475Y0036403D01*
X0191310Y0036802D02*
X0207190Y0036802D01*
X0207355Y0037200D02*
X0191145Y0037200D01*
X0190975Y0037599D02*
X0207570Y0037599D01*
X0207925Y0037997D02*
X0190975Y0037997D01*
X0190975Y0038396D02*
X0207925Y0038396D01*
X0207925Y0038794D02*
X0190975Y0038794D01*
X0193494Y0039193D02*
X0207925Y0039193D01*
X0207925Y0039591D02*
X0193893Y0039591D01*
X0194291Y0039990D02*
X0207925Y0039990D01*
X0207925Y0040388D02*
X0194342Y0040388D01*
X0194342Y0040787D02*
X0207925Y0040787D01*
X0207925Y0041185D02*
X0194342Y0041185D01*
X0194342Y0041584D02*
X0207925Y0041584D01*
X0207925Y0041982D02*
X0194342Y0041982D01*
X0194342Y0042381D02*
X0207925Y0042381D01*
X0207925Y0042779D02*
X0194342Y0042779D01*
X0194342Y0043178D02*
X0207925Y0043178D01*
X0207925Y0043576D02*
X0194342Y0043576D01*
X0194342Y0043975D02*
X0207925Y0043975D01*
X0207925Y0044373D02*
X0194342Y0044373D01*
X0194342Y0044772D02*
X0207925Y0044772D01*
X0207925Y0045170D02*
X0194342Y0045170D01*
X0194342Y0045569D02*
X0207925Y0045569D01*
X0207925Y0045968D02*
X0194342Y0045968D01*
X0194342Y0046366D02*
X0207925Y0046366D01*
X0207925Y0046765D02*
X0194342Y0046765D01*
X0194342Y0047163D02*
X0207925Y0047163D01*
X0207925Y0047562D02*
X0194342Y0047562D01*
X0194342Y0047960D02*
X0207925Y0047960D01*
X0207925Y0048359D02*
X0194342Y0048359D01*
X0194342Y0048757D02*
X0207925Y0048757D01*
X0207925Y0049156D02*
X0194342Y0049156D01*
X0194342Y0049554D02*
X0207925Y0049554D01*
X0207925Y0049953D02*
X0194342Y0049953D01*
X0194342Y0050351D02*
X0207925Y0050351D01*
X0207925Y0050750D02*
X0194342Y0050750D01*
X0194153Y0051148D02*
X0207925Y0051148D01*
X0207925Y0051547D02*
X0193755Y0051547D01*
X0193356Y0051945D02*
X0207925Y0051945D01*
X0207925Y0052344D02*
X0188475Y0052344D01*
X0188475Y0052742D02*
X0207925Y0052742D01*
X0207925Y0053141D02*
X0188475Y0053141D01*
X0188475Y0053539D02*
X0207925Y0053539D01*
X0207925Y0053938D02*
X0188475Y0053938D01*
X0188475Y0054336D02*
X0207925Y0054336D01*
X0207925Y0054735D02*
X0188475Y0054735D01*
X0188475Y0055133D02*
X0207925Y0055133D01*
X0207925Y0055532D02*
X0188475Y0055532D01*
X0188475Y0055930D02*
X0207925Y0055930D01*
X0207925Y0056329D02*
X0188475Y0056329D01*
X0188475Y0056727D02*
X0207925Y0056727D01*
X0207925Y0057126D02*
X0188475Y0057126D01*
X0188475Y0057524D02*
X0207925Y0057524D01*
X0207925Y0057923D02*
X0188475Y0057923D01*
X0188475Y0058321D02*
X0207925Y0058321D01*
X0207925Y0058720D02*
X0188456Y0058720D01*
X0188456Y0059118D02*
X0207925Y0059118D01*
X0207925Y0059517D02*
X0188456Y0059517D01*
X0188456Y0059915D02*
X0207925Y0059915D01*
X0207925Y0060314D02*
X0188456Y0060314D01*
X0188456Y0060712D02*
X0207925Y0060712D01*
X0207925Y0061111D02*
X0188456Y0061111D01*
X0188456Y0061509D02*
X0207925Y0061509D01*
X0207925Y0061908D02*
X0188456Y0061908D01*
X0188456Y0062306D02*
X0207925Y0062306D01*
X0207925Y0062705D02*
X0188456Y0062705D01*
X0188182Y0063103D02*
X0207925Y0063103D01*
X0207925Y0063502D02*
X0187784Y0063502D01*
X0183216Y0063502D02*
X0172784Y0063502D01*
X0172416Y0063869D02*
X0168584Y0063869D01*
X0167544Y0062830D01*
X0167544Y0052698D01*
X0168584Y0051658D01*
X0172416Y0051658D01*
X0173456Y0052698D01*
X0173456Y0062830D01*
X0172416Y0063869D01*
X0173182Y0063103D02*
X0182818Y0063103D01*
X0182544Y0062705D02*
X0173456Y0062705D01*
X0173456Y0062306D02*
X0182544Y0062306D01*
X0182544Y0061908D02*
X0173456Y0061908D01*
X0173456Y0061509D02*
X0182544Y0061509D01*
X0182544Y0061111D02*
X0173456Y0061111D01*
X0173456Y0060712D02*
X0182544Y0060712D01*
X0182544Y0060314D02*
X0173456Y0060314D01*
X0173456Y0059915D02*
X0182544Y0059915D01*
X0182544Y0059517D02*
X0173456Y0059517D01*
X0173456Y0059118D02*
X0182544Y0059118D01*
X0182544Y0058720D02*
X0173456Y0058720D01*
X0173456Y0058321D02*
X0182525Y0058321D01*
X0182525Y0057923D02*
X0173456Y0057923D01*
X0173456Y0057524D02*
X0182525Y0057524D01*
X0182525Y0057126D02*
X0173456Y0057126D01*
X0173456Y0056727D02*
X0182525Y0056727D01*
X0182525Y0056329D02*
X0173456Y0056329D01*
X0173456Y0055930D02*
X0182525Y0055930D01*
X0182525Y0055532D02*
X0173456Y0055532D01*
X0173456Y0055133D02*
X0182525Y0055133D01*
X0182525Y0054735D02*
X0173456Y0054735D01*
X0173456Y0054336D02*
X0182525Y0054336D01*
X0182525Y0053938D02*
X0173456Y0053938D01*
X0173456Y0053539D02*
X0182525Y0053539D01*
X0182525Y0053141D02*
X0173456Y0053141D01*
X0173456Y0052742D02*
X0182525Y0052742D01*
X0182525Y0052344D02*
X0173102Y0052344D01*
X0172703Y0051945D02*
X0182329Y0051945D01*
X0181930Y0051547D02*
X0147442Y0051547D01*
X0147469Y0051945D02*
X0168297Y0051945D01*
X0167898Y0052344D02*
X0154440Y0052344D01*
X0154839Y0052742D02*
X0167544Y0052742D01*
X0167544Y0053141D02*
X0155237Y0053141D01*
X0155444Y0053539D02*
X0167544Y0053539D01*
X0167544Y0053938D02*
X0155444Y0053938D01*
X0155444Y0054336D02*
X0167544Y0054336D01*
X0167544Y0054735D02*
X0155444Y0054735D01*
X0155444Y0055133D02*
X0167544Y0055133D01*
X0167544Y0055532D02*
X0155444Y0055532D01*
X0155444Y0055930D02*
X0167544Y0055930D01*
X0167544Y0056329D02*
X0155444Y0056329D01*
X0155444Y0056727D02*
X0167544Y0056727D01*
X0167544Y0057126D02*
X0155444Y0057126D01*
X0155444Y0057524D02*
X0167544Y0057524D01*
X0167544Y0057923D02*
X0155444Y0057923D01*
X0155444Y0058321D02*
X0167544Y0058321D01*
X0167544Y0058720D02*
X0155444Y0058720D01*
X0155444Y0059118D02*
X0167544Y0059118D01*
X0167544Y0059517D02*
X0155444Y0059517D01*
X0155444Y0059915D02*
X0167544Y0059915D01*
X0167544Y0060314D02*
X0155066Y0060314D01*
X0154668Y0060712D02*
X0167544Y0060712D01*
X0167544Y0061111D02*
X0154220Y0061111D01*
X0154232Y0061509D02*
X0167544Y0061509D01*
X0167544Y0061908D02*
X0154245Y0061908D01*
X0154257Y0062306D02*
X0167544Y0062306D01*
X0167544Y0062705D02*
X0154270Y0062705D01*
X0154282Y0063103D02*
X0167818Y0063103D01*
X0168216Y0063502D02*
X0154295Y0063502D01*
X0154307Y0063901D02*
X0207925Y0063901D01*
X0207925Y0064299D02*
X0154320Y0064299D01*
X0154332Y0064698D02*
X0207925Y0064698D01*
X0208064Y0065096D02*
X0154345Y0065096D01*
X0154357Y0065495D02*
X0208229Y0065495D01*
X0208502Y0065893D02*
X0154370Y0065893D01*
X0154382Y0066292D02*
X0208900Y0066292D01*
X0209299Y0066690D02*
X0154394Y0066690D01*
X0154407Y0067089D02*
X0209697Y0067089D01*
X0210096Y0067487D02*
X0154419Y0067487D01*
X0154432Y0067886D02*
X0210494Y0067886D01*
X0210893Y0068284D02*
X0154444Y0068284D01*
X0154457Y0068683D02*
X0211291Y0068683D01*
X0211690Y0069081D02*
X0154469Y0069081D01*
X0154482Y0069480D02*
X0212088Y0069480D01*
X0212487Y0069878D02*
X0154494Y0069878D01*
X0154507Y0070277D02*
X0212885Y0070277D01*
X0213284Y0070675D02*
X0154519Y0070675D01*
X0154532Y0071074D02*
X0213682Y0071074D01*
X0214081Y0071472D02*
X0154544Y0071472D01*
X0154557Y0071871D02*
X0214479Y0071871D01*
X0214878Y0072269D02*
X0187555Y0072269D01*
X0187953Y0072668D02*
X0215276Y0072668D01*
X0215675Y0073066D02*
X0188352Y0073066D01*
X0188456Y0073465D02*
X0216275Y0073465D01*
X0218175Y0068284D02*
X0251727Y0068284D01*
X0251727Y0067886D02*
X0217777Y0067886D01*
X0217378Y0067487D02*
X0251889Y0067487D01*
X0252287Y0067089D02*
X0216980Y0067089D01*
X0230950Y0085022D02*
X0194323Y0085022D01*
X0193924Y0084623D02*
X0231861Y0084623D01*
X0234139Y0084623D02*
X0252925Y0084623D01*
X0253033Y0085022D02*
X0235050Y0085022D01*
X0235449Y0085420D02*
X0253198Y0085420D01*
X0253427Y0085819D02*
X0235847Y0085819D01*
X0236110Y0086217D02*
X0253826Y0086217D01*
X0254224Y0086616D02*
X0236275Y0086616D01*
X0236441Y0087014D02*
X0254623Y0087014D01*
X0255021Y0087413D02*
X0236556Y0087413D01*
X0236556Y0087811D02*
X0255420Y0087811D01*
X0252591Y0084225D02*
X0193526Y0084225D01*
X0188475Y0083826D02*
X0252192Y0083826D01*
X0252160Y0083428D02*
X0188475Y0083428D01*
X0188475Y0083029D02*
X0252160Y0083029D01*
X0252160Y0082631D02*
X0188475Y0082631D01*
X0188475Y0082232D02*
X0252160Y0082232D01*
X0252160Y0081834D02*
X0188475Y0081834D01*
X0188475Y0081435D02*
X0252160Y0081435D01*
X0252160Y0081037D02*
X0188475Y0081037D01*
X0188475Y0080638D02*
X0252160Y0080638D01*
X0252160Y0080239D02*
X0188475Y0080239D01*
X0188475Y0079841D02*
X0252160Y0079841D01*
X0252160Y0079442D02*
X0188475Y0079442D01*
X0188475Y0079044D02*
X0252160Y0079044D01*
X0252160Y0078645D02*
X0188475Y0078645D01*
X0188475Y0078247D02*
X0252160Y0078247D01*
X0252160Y0077848D02*
X0188475Y0077848D01*
X0188456Y0077450D02*
X0252160Y0077450D01*
X0252315Y0077051D02*
X0188456Y0077051D01*
X0188456Y0076653D02*
X0252713Y0076653D01*
X0252896Y0076254D02*
X0188456Y0076254D01*
X0188456Y0075856D02*
X0252896Y0075856D01*
X0252554Y0075457D02*
X0188456Y0075457D01*
X0188456Y0075059D02*
X0252155Y0075059D01*
X0251757Y0074660D02*
X0188456Y0074660D01*
X0188456Y0074262D02*
X0251727Y0074262D01*
X0251727Y0073863D02*
X0188456Y0073863D01*
X0183445Y0072269D02*
X0172555Y0072269D01*
X0172416Y0072131D02*
X0173456Y0073170D01*
X0173456Y0083302D01*
X0172416Y0084342D01*
X0168584Y0084342D01*
X0167544Y0083302D01*
X0167544Y0073170D01*
X0168584Y0072131D01*
X0172416Y0072131D01*
X0172953Y0072668D02*
X0183047Y0072668D01*
X0182648Y0073066D02*
X0173352Y0073066D01*
X0173456Y0073465D02*
X0182544Y0073465D01*
X0182544Y0073863D02*
X0173456Y0073863D01*
X0173456Y0074262D02*
X0182544Y0074262D01*
X0182544Y0074660D02*
X0173456Y0074660D01*
X0173456Y0075059D02*
X0182544Y0075059D01*
X0182544Y0075457D02*
X0173456Y0075457D01*
X0173456Y0075856D02*
X0182544Y0075856D01*
X0182544Y0076254D02*
X0173456Y0076254D01*
X0173456Y0076653D02*
X0182544Y0076653D01*
X0182544Y0077051D02*
X0173456Y0077051D01*
X0173456Y0077450D02*
X0182544Y0077450D01*
X0182525Y0077848D02*
X0173456Y0077848D01*
X0173456Y0078247D02*
X0182525Y0078247D01*
X0182525Y0078645D02*
X0173456Y0078645D01*
X0173456Y0079044D02*
X0182525Y0079044D01*
X0182525Y0079442D02*
X0173456Y0079442D01*
X0173456Y0079841D02*
X0182525Y0079841D01*
X0182525Y0080239D02*
X0173456Y0080239D01*
X0173456Y0080638D02*
X0182525Y0080638D01*
X0182525Y0081037D02*
X0173456Y0081037D01*
X0173456Y0081435D02*
X0182525Y0081435D01*
X0182525Y0081834D02*
X0173456Y0081834D01*
X0173456Y0082232D02*
X0182525Y0082232D01*
X0182525Y0082631D02*
X0173456Y0082631D01*
X0173456Y0083029D02*
X0182525Y0083029D01*
X0182525Y0083428D02*
X0173330Y0083428D01*
X0172932Y0083826D02*
X0182525Y0083826D01*
X0182159Y0084225D02*
X0172533Y0084225D01*
X0168467Y0084225D02*
X0150575Y0084225D01*
X0150575Y0084623D02*
X0181761Y0084623D01*
X0181362Y0085022D02*
X0150575Y0085022D01*
X0150575Y0085420D02*
X0181343Y0085420D01*
X0181343Y0085819D02*
X0150575Y0085819D01*
X0150575Y0086217D02*
X0181343Y0086217D01*
X0181343Y0086616D02*
X0150575Y0086616D01*
X0150575Y0087014D02*
X0181343Y0087014D01*
X0181343Y0087413D02*
X0150575Y0087413D01*
X0150575Y0087811D02*
X0181343Y0087811D01*
X0181343Y0088210D02*
X0150575Y0088210D01*
X0150575Y0088608D02*
X0181343Y0088608D01*
X0181343Y0089007D02*
X0150575Y0089007D01*
X0150575Y0089405D02*
X0181343Y0089405D01*
X0181343Y0089804D02*
X0150575Y0089804D01*
X0150575Y0090202D02*
X0181343Y0090202D01*
X0181343Y0090601D02*
X0150630Y0090601D01*
X0151020Y0090999D02*
X0181343Y0090999D01*
X0181343Y0091398D02*
X0151185Y0091398D01*
X0151350Y0091796D02*
X0181343Y0091796D01*
X0181343Y0092195D02*
X0151515Y0092195D01*
X0151556Y0092593D02*
X0181343Y0092593D01*
X0181343Y0092992D02*
X0151556Y0092992D01*
X0151556Y0093390D02*
X0181343Y0093390D01*
X0181343Y0093789D02*
X0151522Y0093789D01*
X0151357Y0094187D02*
X0181343Y0094187D01*
X0181343Y0094586D02*
X0151192Y0094586D01*
X0151027Y0094984D02*
X0181343Y0094984D01*
X0181343Y0095383D02*
X0150646Y0095383D01*
X0150247Y0095781D02*
X0181343Y0095781D01*
X0181564Y0096180D02*
X0149615Y0096180D01*
X0146385Y0096180D02*
X0143839Y0096180D01*
X0143839Y0096578D02*
X0181962Y0096578D01*
X0182361Y0096977D02*
X0143839Y0096977D01*
X0143839Y0097375D02*
X0182525Y0097375D01*
X0188475Y0097375D02*
X0232925Y0097375D01*
X0232925Y0096977D02*
X0193324Y0096977D01*
X0193723Y0096578D02*
X0232925Y0096578D01*
X0232925Y0096180D02*
X0194121Y0096180D01*
X0194342Y0095781D02*
X0232925Y0095781D01*
X0232925Y0095383D02*
X0194342Y0095383D01*
X0194342Y0094984D02*
X0232927Y0094984D01*
X0233092Y0094586D02*
X0194342Y0094586D01*
X0194342Y0094187D02*
X0233257Y0094187D01*
X0233570Y0093789D02*
X0194342Y0093789D01*
X0194342Y0093390D02*
X0233968Y0093390D01*
X0234367Y0092992D02*
X0194342Y0092992D01*
X0194342Y0092593D02*
X0234765Y0092593D01*
X0235164Y0092195D02*
X0194342Y0092195D01*
X0194342Y0091796D02*
X0235562Y0091796D01*
X0235961Y0091398D02*
X0234089Y0091398D01*
X0235030Y0090999D02*
X0236359Y0090999D01*
X0236758Y0090601D02*
X0235428Y0090601D01*
X0235827Y0090202D02*
X0237156Y0090202D01*
X0237555Y0089804D02*
X0236102Y0089804D01*
X0236267Y0089405D02*
X0237953Y0089405D01*
X0238352Y0089007D02*
X0236432Y0089007D01*
X0236556Y0088608D02*
X0238750Y0088608D01*
X0239301Y0088210D02*
X0236556Y0088210D01*
X0231911Y0091398D02*
X0194342Y0091398D01*
X0194342Y0090999D02*
X0230970Y0090999D01*
X0238075Y0096567D02*
X0238075Y0118512D01*
X0237683Y0119459D01*
X0236959Y0120183D01*
X0234459Y0122683D01*
X0233804Y0122954D01*
X0233302Y0123456D01*
X0223170Y0123456D01*
X0222131Y0122416D01*
X0222131Y0118584D01*
X0223170Y0117544D01*
X0232315Y0117544D01*
X0232925Y0116933D01*
X0232925Y0114067D01*
X0232315Y0113456D01*
X0223170Y0113456D01*
X0222131Y0112416D01*
X0222131Y0108584D01*
X0222240Y0108475D01*
X0219725Y0108475D01*
X0219725Y0132525D01*
X0222240Y0132525D01*
X0222131Y0132416D01*
X0222131Y0128584D01*
X0223170Y0127544D01*
X0233302Y0127544D01*
X0234342Y0128584D01*
X0234342Y0132416D01*
X0234233Y0132525D01*
X0241166Y0132525D01*
X0241166Y0126950D01*
X0242206Y0125910D01*
X0242925Y0125910D01*
X0242925Y0125090D01*
X0242206Y0125090D01*
X0241166Y0124050D01*
X0241166Y0118249D01*
X0242206Y0117209D01*
X0248794Y0117209D01*
X0249250Y0117665D01*
X0249706Y0117209D01*
X0256294Y0117209D01*
X0257334Y0118249D01*
X0257334Y0118883D01*
X0263079Y0118883D01*
X0262925Y0118512D01*
X0262925Y0108584D01*
X0260749Y0108584D01*
X0259709Y0107544D01*
X0259709Y0100956D01*
X0260025Y0100640D01*
X0260025Y0098475D01*
X0256304Y0098475D01*
X0256264Y0098515D01*
X0254957Y0099056D01*
X0253543Y0099056D01*
X0252236Y0098515D01*
X0251235Y0097514D01*
X0250694Y0096207D01*
X0250694Y0094793D01*
X0251235Y0093486D01*
X0251646Y0093075D01*
X0241567Y0093075D01*
X0238075Y0096567D01*
X0238075Y0096578D02*
X0250848Y0096578D01*
X0250694Y0096180D02*
X0238461Y0096180D01*
X0238860Y0095781D02*
X0250694Y0095781D01*
X0250694Y0095383D02*
X0239258Y0095383D01*
X0239657Y0094984D02*
X0250694Y0094984D01*
X0250780Y0094586D02*
X0240055Y0094586D01*
X0240454Y0094187D02*
X0250945Y0094187D01*
X0251110Y0093789D02*
X0240852Y0093789D01*
X0241251Y0093390D02*
X0251331Y0093390D01*
X0251013Y0096977D02*
X0238075Y0096977D01*
X0238075Y0097375D02*
X0251178Y0097375D01*
X0251495Y0097774D02*
X0238075Y0097774D01*
X0238075Y0098172D02*
X0251894Y0098172D01*
X0252372Y0098571D02*
X0238075Y0098571D01*
X0238075Y0098970D02*
X0253334Y0098970D01*
X0255166Y0098970D02*
X0260025Y0098970D01*
X0260025Y0099368D02*
X0238075Y0099368D01*
X0238075Y0099767D02*
X0260025Y0099767D01*
X0260025Y0100165D02*
X0238075Y0100165D01*
X0238075Y0100564D02*
X0260025Y0100564D01*
X0259709Y0100962D02*
X0238075Y0100962D01*
X0238075Y0101361D02*
X0259709Y0101361D01*
X0259709Y0101759D02*
X0238075Y0101759D01*
X0238075Y0102158D02*
X0259709Y0102158D01*
X0259709Y0102556D02*
X0238075Y0102556D01*
X0238075Y0102955D02*
X0259709Y0102955D01*
X0259709Y0103353D02*
X0238075Y0103353D01*
X0238075Y0103752D02*
X0259709Y0103752D01*
X0259709Y0104150D02*
X0238075Y0104150D01*
X0238075Y0104549D02*
X0259709Y0104549D01*
X0259709Y0104947D02*
X0238075Y0104947D01*
X0238075Y0105346D02*
X0259709Y0105346D01*
X0259709Y0105744D02*
X0238075Y0105744D01*
X0238075Y0106143D02*
X0259709Y0106143D01*
X0259709Y0106541D02*
X0238075Y0106541D01*
X0238075Y0106940D02*
X0259709Y0106940D01*
X0259709Y0107338D02*
X0238075Y0107338D01*
X0238075Y0107737D02*
X0259902Y0107737D01*
X0260301Y0108135D02*
X0238075Y0108135D01*
X0238075Y0108534D02*
X0260699Y0108534D01*
X0262925Y0108932D02*
X0238075Y0108932D01*
X0238075Y0109331D02*
X0262925Y0109331D01*
X0262925Y0109729D02*
X0238075Y0109729D01*
X0238075Y0110128D02*
X0262925Y0110128D01*
X0262925Y0110526D02*
X0238075Y0110526D01*
X0238075Y0110925D02*
X0262925Y0110925D01*
X0262925Y0111323D02*
X0238075Y0111323D01*
X0238075Y0111722D02*
X0262925Y0111722D01*
X0262925Y0112120D02*
X0238075Y0112120D01*
X0238075Y0112519D02*
X0262925Y0112519D01*
X0262925Y0112917D02*
X0238075Y0112917D01*
X0238075Y0113316D02*
X0262925Y0113316D01*
X0262925Y0113714D02*
X0238075Y0113714D01*
X0238075Y0114113D02*
X0262925Y0114113D01*
X0262925Y0114511D02*
X0238075Y0114511D01*
X0238075Y0114910D02*
X0262925Y0114910D01*
X0262925Y0115308D02*
X0238075Y0115308D01*
X0238075Y0115707D02*
X0262925Y0115707D01*
X0262925Y0116105D02*
X0238075Y0116105D01*
X0238075Y0116504D02*
X0262925Y0116504D01*
X0262925Y0116903D02*
X0238075Y0116903D01*
X0238075Y0117301D02*
X0242114Y0117301D01*
X0241716Y0117700D02*
X0238075Y0117700D01*
X0238075Y0118098D02*
X0241317Y0118098D01*
X0241166Y0118497D02*
X0238075Y0118497D01*
X0237916Y0118895D02*
X0241166Y0118895D01*
X0241166Y0119294D02*
X0237751Y0119294D01*
X0237449Y0119692D02*
X0241166Y0119692D01*
X0241166Y0120091D02*
X0237051Y0120091D01*
X0236652Y0120489D02*
X0241166Y0120489D01*
X0241166Y0120888D02*
X0236254Y0120888D01*
X0235855Y0121286D02*
X0241166Y0121286D01*
X0241166Y0121685D02*
X0235457Y0121685D01*
X0235058Y0122083D02*
X0241166Y0122083D01*
X0241166Y0122482D02*
X0234660Y0122482D01*
X0233982Y0122880D02*
X0241166Y0122880D01*
X0241166Y0123279D02*
X0233479Y0123279D01*
X0233420Y0127662D02*
X0241166Y0127662D01*
X0241166Y0127264D02*
X0219725Y0127264D01*
X0219725Y0127662D02*
X0223052Y0127662D01*
X0222654Y0128061D02*
X0219725Y0128061D01*
X0219725Y0128459D02*
X0222255Y0128459D01*
X0222131Y0128858D02*
X0219725Y0128858D01*
X0219725Y0129256D02*
X0222131Y0129256D01*
X0222131Y0129655D02*
X0219725Y0129655D01*
X0219725Y0130053D02*
X0222131Y0130053D01*
X0222131Y0130452D02*
X0219725Y0130452D01*
X0219725Y0130850D02*
X0222131Y0130850D01*
X0222131Y0131249D02*
X0219725Y0131249D01*
X0219725Y0131647D02*
X0222131Y0131647D01*
X0222131Y0132046D02*
X0219725Y0132046D01*
X0219725Y0132444D02*
X0222159Y0132444D01*
X0219725Y0126865D02*
X0241251Y0126865D01*
X0241649Y0126467D02*
X0219725Y0126467D01*
X0219725Y0126068D02*
X0242048Y0126068D01*
X0242925Y0125670D02*
X0219725Y0125670D01*
X0219725Y0125271D02*
X0242925Y0125271D01*
X0241989Y0124873D02*
X0219725Y0124873D01*
X0219725Y0124474D02*
X0241590Y0124474D01*
X0241192Y0124076D02*
X0219725Y0124076D01*
X0219725Y0123677D02*
X0241166Y0123677D01*
X0241166Y0128061D02*
X0233819Y0128061D01*
X0234217Y0128459D02*
X0241166Y0128459D01*
X0241166Y0128858D02*
X0234342Y0128858D01*
X0234342Y0129256D02*
X0241166Y0129256D01*
X0241166Y0129655D02*
X0234342Y0129655D01*
X0234342Y0130053D02*
X0241166Y0130053D01*
X0241166Y0130452D02*
X0234342Y0130452D01*
X0234342Y0130850D02*
X0241166Y0130850D01*
X0241166Y0131249D02*
X0234342Y0131249D01*
X0234342Y0131647D02*
X0241166Y0131647D01*
X0241166Y0132046D02*
X0234342Y0132046D01*
X0234313Y0132444D02*
X0241166Y0132444D01*
X0241166Y0138821D02*
X0231211Y0138821D01*
X0231211Y0139219D02*
X0241335Y0139219D01*
X0241734Y0139618D02*
X0231252Y0139618D01*
X0231340Y0140016D02*
X0242132Y0140016D01*
X0248868Y0140016D02*
X0303804Y0140016D01*
X0303804Y0139618D02*
X0249266Y0139618D01*
X0249665Y0139219D02*
X0303804Y0139219D01*
X0303804Y0138821D02*
X0249834Y0138821D01*
X0249834Y0138422D02*
X0303804Y0138422D01*
X0303804Y0138024D02*
X0249834Y0138024D01*
X0249834Y0137625D02*
X0303804Y0137625D01*
X0303804Y0137227D02*
X0249834Y0137227D01*
X0249834Y0136828D02*
X0303804Y0136828D01*
X0303804Y0136430D02*
X0249834Y0136430D01*
X0249834Y0136031D02*
X0303804Y0136031D01*
X0303804Y0135633D02*
X0249834Y0135633D01*
X0249834Y0135234D02*
X0303804Y0135234D01*
X0303804Y0134836D02*
X0249834Y0134836D01*
X0249834Y0134437D02*
X0259053Y0134437D01*
X0258655Y0134039D02*
X0249834Y0134039D01*
X0249834Y0133640D02*
X0258410Y0133640D01*
X0258410Y0133241D02*
X0249826Y0133241D01*
X0249742Y0132843D02*
X0258410Y0132843D01*
X0258410Y0132444D02*
X0249834Y0132444D01*
X0249834Y0132046D02*
X0258410Y0132046D01*
X0258410Y0131647D02*
X0249834Y0131647D01*
X0249834Y0131249D02*
X0258410Y0131249D01*
X0258410Y0130850D02*
X0249834Y0130850D01*
X0249834Y0130452D02*
X0258410Y0130452D01*
X0258410Y0130053D02*
X0249834Y0130053D01*
X0249834Y0129655D02*
X0258410Y0129655D01*
X0258410Y0129256D02*
X0249834Y0129256D01*
X0249834Y0128858D02*
X0258410Y0128858D01*
X0258410Y0128459D02*
X0249834Y0128459D01*
X0249834Y0128061D02*
X0258410Y0128061D01*
X0258410Y0127662D02*
X0249834Y0127662D01*
X0249834Y0127264D02*
X0258410Y0127264D01*
X0258751Y0126865D02*
X0249749Y0126865D01*
X0249351Y0126467D02*
X0259149Y0126467D01*
X0259471Y0126068D02*
X0248952Y0126068D01*
X0248075Y0125670D02*
X0259444Y0125670D01*
X0259417Y0125271D02*
X0248075Y0125271D01*
X0249011Y0124873D02*
X0249489Y0124873D01*
X0256511Y0124873D02*
X0259390Y0124873D01*
X0257161Y0124474D02*
X0256910Y0124474D01*
X0257334Y0118497D02*
X0262925Y0118497D01*
X0262925Y0118098D02*
X0257183Y0118098D01*
X0256784Y0117700D02*
X0262925Y0117700D01*
X0262925Y0117301D02*
X0256386Y0117301D01*
X0249614Y0117301D02*
X0248886Y0117301D01*
X0232925Y0116903D02*
X0219725Y0116903D01*
X0219725Y0117301D02*
X0232558Y0117301D01*
X0232925Y0116504D02*
X0219725Y0116504D01*
X0219725Y0116105D02*
X0232925Y0116105D01*
X0232925Y0115707D02*
X0219725Y0115707D01*
X0219725Y0115308D02*
X0232925Y0115308D01*
X0232925Y0114910D02*
X0219725Y0114910D01*
X0219725Y0114511D02*
X0232925Y0114511D01*
X0232925Y0114113D02*
X0219725Y0114113D01*
X0219725Y0113714D02*
X0232573Y0113714D01*
X0223030Y0113316D02*
X0219725Y0113316D01*
X0219725Y0112917D02*
X0222632Y0112917D01*
X0222233Y0112519D02*
X0219725Y0112519D01*
X0219725Y0112120D02*
X0222131Y0112120D01*
X0222131Y0111722D02*
X0219725Y0111722D01*
X0219725Y0111323D02*
X0222131Y0111323D01*
X0222131Y0110925D02*
X0219725Y0110925D01*
X0219725Y0110526D02*
X0222131Y0110526D01*
X0222131Y0110128D02*
X0219725Y0110128D01*
X0219725Y0109729D02*
X0222131Y0109729D01*
X0222131Y0109331D02*
X0219725Y0109331D01*
X0219725Y0108932D02*
X0222131Y0108932D01*
X0222181Y0108534D02*
X0219725Y0108534D01*
X0222131Y0102158D02*
X0188475Y0102158D01*
X0188475Y0102556D02*
X0202686Y0102556D01*
X0202287Y0102955D02*
X0188475Y0102955D01*
X0188475Y0103353D02*
X0201506Y0103353D01*
X0201107Y0103752D02*
X0188475Y0103752D01*
X0188475Y0104150D02*
X0200709Y0104150D01*
X0200310Y0104549D02*
X0188475Y0104549D01*
X0188475Y0104947D02*
X0199911Y0104947D01*
X0199513Y0105346D02*
X0188475Y0105346D01*
X0188475Y0105744D02*
X0199114Y0105744D01*
X0198716Y0106143D02*
X0188475Y0106143D01*
X0188475Y0106541D02*
X0198317Y0106541D01*
X0197919Y0106940D02*
X0188475Y0106940D01*
X0188475Y0107338D02*
X0197520Y0107338D01*
X0197122Y0107737D02*
X0188475Y0107737D01*
X0188475Y0108135D02*
X0196723Y0108135D01*
X0196325Y0108534D02*
X0188475Y0108534D01*
X0188475Y0108932D02*
X0195926Y0108932D01*
X0195697Y0109331D02*
X0188475Y0109331D01*
X0188475Y0109729D02*
X0195532Y0109729D01*
X0195425Y0110128D02*
X0188475Y0110128D01*
X0188475Y0110526D02*
X0195425Y0110526D01*
X0195425Y0110925D02*
X0188475Y0110925D01*
X0188475Y0111323D02*
X0195425Y0111323D01*
X0195425Y0111722D02*
X0188475Y0111722D01*
X0188475Y0112120D02*
X0195425Y0112120D01*
X0195425Y0112519D02*
X0188475Y0112519D01*
X0188475Y0112917D02*
X0195425Y0112917D01*
X0195425Y0113316D02*
X0188475Y0113316D01*
X0188475Y0113714D02*
X0195425Y0113714D01*
X0195425Y0114113D02*
X0188475Y0114113D01*
X0188475Y0114511D02*
X0195425Y0114511D01*
X0195425Y0114910D02*
X0188475Y0114910D01*
X0188475Y0115308D02*
X0195425Y0115308D01*
X0195425Y0115707D02*
X0188475Y0115707D01*
X0188475Y0116105D02*
X0195425Y0116105D01*
X0195425Y0116504D02*
X0188475Y0116504D01*
X0188475Y0116903D02*
X0195425Y0116903D01*
X0195425Y0117301D02*
X0188475Y0117301D01*
X0188475Y0117700D02*
X0195425Y0117700D01*
X0195425Y0118098D02*
X0188475Y0118098D01*
X0188475Y0118497D02*
X0195425Y0118497D01*
X0195425Y0118895D02*
X0188475Y0118895D01*
X0188475Y0119294D02*
X0195425Y0119294D01*
X0195425Y0119692D02*
X0188475Y0119692D01*
X0188475Y0120091D02*
X0195425Y0120091D01*
X0195425Y0120489D02*
X0188475Y0120489D01*
X0188475Y0120888D02*
X0195425Y0120888D01*
X0195425Y0121286D02*
X0188475Y0121286D01*
X0188475Y0121685D02*
X0195425Y0121685D01*
X0195425Y0122083D02*
X0188475Y0122083D01*
X0188475Y0122482D02*
X0195425Y0122482D01*
X0195425Y0122880D02*
X0188475Y0122880D01*
X0188475Y0123279D02*
X0195192Y0123279D01*
X0194906Y0123677D02*
X0188475Y0123677D01*
X0188475Y0124076D02*
X0194741Y0124076D01*
X0194576Y0124474D02*
X0188475Y0124474D01*
X0188475Y0124873D02*
X0194444Y0124873D01*
X0194444Y0125271D02*
X0188475Y0125271D01*
X0188475Y0125670D02*
X0194444Y0125670D01*
X0194444Y0126068D02*
X0188475Y0126068D01*
X0188475Y0126467D02*
X0194552Y0126467D01*
X0194717Y0126865D02*
X0188475Y0126865D01*
X0188475Y0127264D02*
X0194882Y0127264D01*
X0195134Y0127662D02*
X0188475Y0127662D01*
X0188475Y0128061D02*
X0195532Y0128061D01*
X0195931Y0128459D02*
X0188475Y0128459D01*
X0188475Y0128858D02*
X0196815Y0128858D01*
X0199185Y0128858D02*
X0201658Y0128858D01*
X0201658Y0129256D02*
X0188475Y0129256D01*
X0188475Y0129655D02*
X0201658Y0129655D01*
X0201658Y0130053D02*
X0188475Y0130053D01*
X0188475Y0130452D02*
X0201658Y0130452D01*
X0201658Y0130850D02*
X0188475Y0130850D01*
X0188475Y0131249D02*
X0201658Y0131249D01*
X0201658Y0131647D02*
X0188475Y0131647D01*
X0188475Y0132046D02*
X0201658Y0132046D01*
X0201687Y0132444D02*
X0188475Y0132444D01*
X0188475Y0132843D02*
X0202085Y0132843D01*
X0202001Y0133241D02*
X0188475Y0133241D01*
X0188475Y0133640D02*
X0201658Y0133640D01*
X0201658Y0134039D02*
X0188475Y0134039D01*
X0188475Y0134437D02*
X0201658Y0134437D01*
X0201658Y0134836D02*
X0188475Y0134836D01*
X0188475Y0135234D02*
X0201658Y0135234D01*
X0201658Y0135633D02*
X0188475Y0135633D01*
X0188475Y0136031D02*
X0201658Y0136031D01*
X0201658Y0136430D02*
X0188475Y0136430D01*
X0188475Y0136828D02*
X0201658Y0136828D01*
X0201658Y0137227D02*
X0188475Y0137227D01*
X0188475Y0137625D02*
X0201867Y0137625D01*
X0202266Y0138024D02*
X0188475Y0138024D01*
X0188475Y0138422D02*
X0202664Y0138422D01*
X0212863Y0138422D02*
X0216031Y0138422D01*
X0215069Y0138024D02*
X0213262Y0138024D01*
X0213660Y0137625D02*
X0214668Y0137625D01*
X0214270Y0137227D02*
X0213869Y0137227D01*
X0213869Y0136828D02*
X0214080Y0136828D01*
X0213915Y0136430D02*
X0213869Y0136430D01*
X0223548Y0139618D02*
X0188475Y0139618D01*
X0188475Y0140016D02*
X0223459Y0140016D01*
X0223459Y0140415D02*
X0188475Y0140415D01*
X0188475Y0140813D02*
X0223459Y0140813D01*
X0223459Y0141212D02*
X0188475Y0141212D01*
X0188475Y0141610D02*
X0223459Y0141610D01*
X0223459Y0142009D02*
X0188475Y0142009D01*
X0188475Y0142407D02*
X0223459Y0142407D01*
X0223459Y0142806D02*
X0188475Y0142806D01*
X0188475Y0143204D02*
X0223459Y0143204D01*
X0223459Y0143603D02*
X0188475Y0143603D01*
X0188475Y0144001D02*
X0223459Y0144001D01*
X0223459Y0144400D02*
X0188475Y0144400D01*
X0188475Y0144798D02*
X0223459Y0144798D01*
X0223459Y0145197D02*
X0188475Y0145197D01*
X0188475Y0145595D02*
X0223459Y0145595D01*
X0223459Y0145994D02*
X0188475Y0145994D01*
X0188475Y0146392D02*
X0223558Y0146392D01*
X0223956Y0146791D02*
X0188475Y0146791D01*
X0188475Y0147189D02*
X0224355Y0147189D01*
X0225261Y0147588D02*
X0188475Y0147588D01*
X0188475Y0147986D02*
X0225261Y0147986D01*
X0225261Y0148385D02*
X0188475Y0148385D01*
X0188475Y0148783D02*
X0225261Y0148783D01*
X0225261Y0149182D02*
X0188475Y0149182D01*
X0188475Y0149580D02*
X0225261Y0149580D01*
X0225261Y0149979D02*
X0188475Y0149979D01*
X0188475Y0150377D02*
X0225261Y0150377D01*
X0225261Y0150776D02*
X0188475Y0150776D01*
X0188475Y0151174D02*
X0225261Y0151174D01*
X0225261Y0151573D02*
X0188475Y0151573D01*
X0188475Y0151972D02*
X0225261Y0151972D01*
X0225261Y0152370D02*
X0188475Y0152370D01*
X0182525Y0152370D02*
X0178213Y0152370D01*
X0178213Y0151972D02*
X0182525Y0151972D01*
X0182525Y0151573D02*
X0178213Y0151573D01*
X0178213Y0151174D02*
X0182525Y0151174D01*
X0182525Y0150776D02*
X0178213Y0150776D01*
X0178213Y0150377D02*
X0182525Y0150377D01*
X0182525Y0149979D02*
X0178213Y0149979D01*
X0178213Y0149580D02*
X0182525Y0149580D01*
X0182525Y0149182D02*
X0178213Y0149182D01*
X0178213Y0148783D02*
X0182525Y0148783D01*
X0182525Y0148385D02*
X0178213Y0148385D01*
X0178213Y0147986D02*
X0182525Y0147986D01*
X0182525Y0147588D02*
X0178213Y0147588D01*
X0178213Y0147189D02*
X0182525Y0147189D01*
X0182525Y0146791D02*
X0178213Y0146791D01*
X0178213Y0146392D02*
X0182525Y0146392D01*
X0182525Y0145994D02*
X0178213Y0145994D01*
X0178213Y0145595D02*
X0182525Y0145595D01*
X0182525Y0145197D02*
X0178213Y0145197D01*
X0178213Y0144798D02*
X0182525Y0144798D01*
X0182525Y0144400D02*
X0178213Y0144400D01*
X0178213Y0144001D02*
X0182525Y0144001D01*
X0182525Y0143603D02*
X0178213Y0143603D01*
X0178213Y0143204D02*
X0182525Y0143204D01*
X0182525Y0142806D02*
X0178213Y0142806D01*
X0178213Y0142407D02*
X0182525Y0142407D01*
X0182525Y0142009D02*
X0178213Y0142009D01*
X0178213Y0141610D02*
X0182525Y0141610D01*
X0182525Y0141212D02*
X0178213Y0141212D01*
X0178213Y0140813D02*
X0182525Y0140813D01*
X0182525Y0140415D02*
X0178213Y0140415D01*
X0178213Y0140016D02*
X0182525Y0140016D01*
X0182525Y0139618D02*
X0178213Y0139618D01*
X0178213Y0139219D02*
X0182525Y0139219D01*
X0182525Y0138821D02*
X0178213Y0138821D01*
X0178213Y0138422D02*
X0182525Y0138422D01*
X0182525Y0138024D02*
X0178213Y0138024D01*
X0178213Y0137625D02*
X0182525Y0137625D01*
X0182525Y0137227D02*
X0178213Y0137227D01*
X0178213Y0136828D02*
X0182525Y0136828D01*
X0182525Y0136430D02*
X0178213Y0136430D01*
X0178213Y0136031D02*
X0182525Y0136031D01*
X0182525Y0135633D02*
X0178213Y0135633D01*
X0178213Y0135234D02*
X0182525Y0135234D01*
X0182525Y0134836D02*
X0178213Y0134836D01*
X0178213Y0134437D02*
X0182525Y0134437D01*
X0182525Y0134039D02*
X0178213Y0134039D01*
X0178213Y0133640D02*
X0182525Y0133640D01*
X0182525Y0133241D02*
X0178213Y0133241D01*
X0178213Y0132843D02*
X0182525Y0132843D01*
X0182525Y0132444D02*
X0178213Y0132444D01*
X0178213Y0132046D02*
X0182525Y0132046D01*
X0182525Y0131647D02*
X0178213Y0131647D01*
X0178213Y0131249D02*
X0182525Y0131249D01*
X0182525Y0130850D02*
X0178213Y0130850D01*
X0178213Y0130452D02*
X0182525Y0130452D01*
X0182525Y0130053D02*
X0178213Y0130053D01*
X0178213Y0129655D02*
X0182525Y0129655D01*
X0182525Y0129256D02*
X0178213Y0129256D01*
X0178213Y0128858D02*
X0182525Y0128858D01*
X0182525Y0128459D02*
X0178213Y0128459D01*
X0178213Y0128061D02*
X0182525Y0128061D01*
X0182525Y0127662D02*
X0178213Y0127662D01*
X0178213Y0127264D02*
X0182525Y0127264D01*
X0182525Y0126865D02*
X0178213Y0126865D01*
X0178213Y0126467D02*
X0182525Y0126467D01*
X0182525Y0126068D02*
X0178213Y0126068D01*
X0178213Y0125670D02*
X0182525Y0125670D01*
X0182525Y0125271D02*
X0178213Y0125271D01*
X0178213Y0124873D02*
X0182525Y0124873D01*
X0182525Y0124474D02*
X0178213Y0124474D01*
X0178213Y0124076D02*
X0182525Y0124076D01*
X0182525Y0123677D02*
X0178213Y0123677D01*
X0178213Y0123279D02*
X0182525Y0123279D01*
X0182525Y0122880D02*
X0178213Y0122880D01*
X0178213Y0122482D02*
X0182525Y0122482D01*
X0182525Y0122083D02*
X0178213Y0122083D01*
X0178213Y0121685D02*
X0182525Y0121685D01*
X0182525Y0121286D02*
X0178213Y0121286D01*
X0178213Y0120888D02*
X0182525Y0120888D01*
X0182525Y0120489D02*
X0178213Y0120489D01*
X0178213Y0120091D02*
X0182525Y0120091D01*
X0182525Y0119692D02*
X0178213Y0119692D01*
X0178213Y0119294D02*
X0182525Y0119294D01*
X0182525Y0118895D02*
X0178213Y0118895D01*
X0178213Y0118497D02*
X0182525Y0118497D01*
X0182525Y0118098D02*
X0178213Y0118098D01*
X0178213Y0117700D02*
X0182525Y0117700D01*
X0182525Y0117301D02*
X0178213Y0117301D01*
X0178213Y0116903D02*
X0182525Y0116903D01*
X0182525Y0116504D02*
X0178213Y0116504D01*
X0178213Y0116105D02*
X0182525Y0116105D01*
X0182525Y0115707D02*
X0178213Y0115707D01*
X0178213Y0115308D02*
X0182525Y0115308D01*
X0182525Y0114910D02*
X0178213Y0114910D01*
X0178213Y0114511D02*
X0182525Y0114511D01*
X0182525Y0114113D02*
X0178213Y0114113D01*
X0178213Y0113714D02*
X0182525Y0113714D01*
X0182525Y0113316D02*
X0178213Y0113316D01*
X0178213Y0112917D02*
X0182525Y0112917D01*
X0182525Y0112519D02*
X0178213Y0112519D01*
X0178213Y0112120D02*
X0182525Y0112120D01*
X0182525Y0111722D02*
X0178213Y0111722D01*
X0178213Y0111323D02*
X0182525Y0111323D01*
X0182525Y0110925D02*
X0178213Y0110925D01*
X0178213Y0110526D02*
X0182525Y0110526D01*
X0182525Y0110128D02*
X0178213Y0110128D01*
X0178213Y0109729D02*
X0182525Y0109729D01*
X0182525Y0109331D02*
X0178213Y0109331D01*
X0178213Y0108932D02*
X0182525Y0108932D01*
X0182525Y0108534D02*
X0178213Y0108534D01*
X0178213Y0108135D02*
X0182525Y0108135D01*
X0182525Y0107737D02*
X0178213Y0107737D01*
X0178213Y0107338D02*
X0182525Y0107338D01*
X0182525Y0106940D02*
X0178213Y0106940D01*
X0178213Y0106541D02*
X0182525Y0106541D01*
X0182525Y0106143D02*
X0178213Y0106143D01*
X0178213Y0105744D02*
X0182525Y0105744D01*
X0182525Y0105346D02*
X0178213Y0105346D01*
X0178213Y0104988D02*
X0178213Y0158184D01*
X0178515Y0158486D01*
X0179056Y0159793D01*
X0179056Y0161207D01*
X0178515Y0162514D01*
X0178231Y0162798D01*
X0178991Y0163558D01*
X0179594Y0165012D01*
X0179594Y0170948D01*
X0178991Y0172402D01*
X0177879Y0173515D01*
X0176425Y0174117D01*
X0174851Y0174117D01*
X0173397Y0173515D01*
X0173138Y0173256D01*
X0172879Y0173515D01*
X0171425Y0174117D01*
X0169851Y0174117D01*
X0168397Y0173515D01*
X0168138Y0173256D01*
X0167879Y0173515D01*
X0166425Y0174117D01*
X0164851Y0174117D01*
X0163397Y0173515D01*
X0162284Y0172402D01*
X0161682Y0170948D01*
X0161682Y0165012D01*
X0162284Y0163558D01*
X0162907Y0162936D01*
X0162485Y0162514D01*
X0161944Y0161207D01*
X0161944Y0159793D01*
X0162485Y0158486D01*
X0163063Y0157908D01*
X0163063Y0142346D01*
X0161537Y0142346D01*
X0161294Y0142590D01*
X0154706Y0142590D01*
X0153666Y0141550D01*
X0153666Y0141278D01*
X0113554Y0141777D01*
X0113554Y0148400D01*
X0112515Y0149440D01*
X0108485Y0149440D01*
X0108000Y0148955D01*
X0107515Y0149440D01*
X0103485Y0149440D01*
X0103000Y0148955D01*
X0102515Y0149440D01*
X0098485Y0149440D01*
X0098000Y0148955D01*
X0097515Y0149440D01*
X0093485Y0149440D01*
X0092446Y0148400D01*
X0092446Y0140237D01*
X0093485Y0139198D01*
X0097515Y0139198D01*
X0098000Y0139683D01*
X0098485Y0139198D01*
X0102515Y0139198D01*
X0103000Y0139683D01*
X0103485Y0139198D01*
X0107515Y0139198D01*
X0107925Y0139608D01*
X0107925Y0139256D01*
X0107919Y0138760D01*
X0107925Y0138745D01*
X0107925Y0138728D01*
X0108115Y0138269D01*
X0108299Y0137809D01*
X0108311Y0137797D01*
X0108317Y0137782D01*
X0108668Y0137431D01*
X0109014Y0137076D01*
X0109030Y0137069D01*
X0109041Y0137057D01*
X0109500Y0136868D01*
X0109956Y0136672D01*
X0109972Y0136672D01*
X0109988Y0136665D01*
X0110484Y0136665D01*
X0153666Y0136128D01*
X0153666Y0135749D01*
X0153915Y0135500D01*
X0153704Y0135288D01*
X0090462Y0134745D01*
X0088475Y0136732D01*
X0088475Y0140158D01*
X0088554Y0140237D01*
X0088554Y0148400D01*
X0088475Y0148480D01*
X0088475Y0149390D01*
X0088791Y0149706D01*
X0088791Y0156294D01*
X0088475Y0156610D01*
X0088475Y0157525D01*
X0138446Y0157525D01*
X0138486Y0157485D01*
X0139793Y0156944D01*
X0141207Y0156944D01*
X0142514Y0157485D01*
X0142554Y0157525D01*
X0152663Y0157525D01*
X0152663Y0154834D01*
X0150749Y0154834D01*
X0149709Y0153794D01*
X0149709Y0147206D01*
X0150749Y0146166D01*
X0156550Y0146166D01*
X0157590Y0147206D01*
X0157590Y0149634D01*
X0157833Y0149804D01*
X0157974Y0150026D01*
X0158160Y0150213D01*
X0158288Y0150521D01*
X0158467Y0150804D01*
X0158512Y0151063D01*
X0158613Y0151306D01*
X0158613Y0151640D01*
X0158670Y0151969D01*
X0158613Y0152226D01*
X0158613Y0158722D01*
X0159056Y0159793D01*
X0159056Y0161207D01*
X0158613Y0162278D01*
X0158613Y0163180D01*
X0158991Y0163558D01*
X0159594Y0165012D01*
X0159594Y0170948D01*
X0158991Y0172402D01*
X0158613Y0172781D01*
X0158613Y0177525D01*
X0182525Y0177525D01*
X0182525Y0103475D01*
X0177254Y0103475D01*
X0177821Y0104041D01*
X0178213Y0104988D01*
X0178196Y0104947D02*
X0182525Y0104947D01*
X0182525Y0104549D02*
X0178031Y0104549D01*
X0177866Y0104150D02*
X0182525Y0104150D01*
X0182525Y0103752D02*
X0177531Y0103752D01*
X0188475Y0101759D02*
X0222131Y0101759D01*
X0222131Y0101361D02*
X0188475Y0101361D01*
X0188475Y0100962D02*
X0222131Y0100962D01*
X0222131Y0100564D02*
X0188475Y0100564D01*
X0188475Y0100165D02*
X0222131Y0100165D01*
X0222131Y0099767D02*
X0188475Y0099767D01*
X0188475Y0099368D02*
X0222131Y0099368D01*
X0222131Y0098970D02*
X0188475Y0098970D01*
X0188475Y0098571D02*
X0222143Y0098571D01*
X0222542Y0098172D02*
X0188475Y0098172D01*
X0188475Y0097774D02*
X0222940Y0097774D01*
X0216084Y0102556D02*
X0212842Y0102556D01*
X0213240Y0102955D02*
X0215122Y0102955D01*
X0214690Y0103353D02*
X0213639Y0103353D01*
X0213869Y0103752D02*
X0214291Y0103752D01*
X0214089Y0104150D02*
X0213869Y0104150D01*
X0213869Y0104549D02*
X0213924Y0104549D01*
X0201658Y0110526D02*
X0201615Y0110526D01*
X0201658Y0110925D02*
X0201216Y0110925D01*
X0200818Y0111323D02*
X0201658Y0111323D01*
X0201658Y0111722D02*
X0200575Y0111722D01*
X0200575Y0112120D02*
X0201658Y0112120D01*
X0201761Y0112519D02*
X0200575Y0112519D01*
X0200575Y0112917D02*
X0202159Y0112917D01*
X0201926Y0113316D02*
X0200575Y0113316D01*
X0200575Y0113714D02*
X0201658Y0113714D01*
X0201658Y0114113D02*
X0200575Y0114113D01*
X0200575Y0114511D02*
X0201658Y0114511D01*
X0201658Y0114910D02*
X0200575Y0114910D01*
X0200575Y0115308D02*
X0201658Y0115308D01*
X0201658Y0115707D02*
X0200575Y0115707D01*
X0200575Y0116105D02*
X0201658Y0116105D01*
X0201658Y0116504D02*
X0200575Y0116504D01*
X0200575Y0116903D02*
X0201658Y0116903D01*
X0201658Y0117301D02*
X0200575Y0117301D01*
X0200575Y0117700D02*
X0201942Y0117700D01*
X0202144Y0118098D02*
X0200575Y0118098D01*
X0200575Y0118497D02*
X0201745Y0118497D01*
X0201658Y0118895D02*
X0200575Y0118895D01*
X0200575Y0119294D02*
X0201658Y0119294D01*
X0201658Y0119692D02*
X0200575Y0119692D01*
X0200575Y0120091D02*
X0201658Y0120091D01*
X0201658Y0120489D02*
X0200575Y0120489D01*
X0200575Y0120888D02*
X0201658Y0120888D01*
X0201658Y0121286D02*
X0200575Y0121286D01*
X0200575Y0121685D02*
X0201658Y0121685D01*
X0201658Y0122083D02*
X0200575Y0122083D01*
X0200575Y0122482D02*
X0201724Y0122482D01*
X0202122Y0122880D02*
X0200575Y0122880D01*
X0200808Y0123279D02*
X0201963Y0123279D01*
X0201658Y0123677D02*
X0201094Y0123677D01*
X0201259Y0124076D02*
X0201658Y0124076D01*
X0201658Y0124474D02*
X0201424Y0124474D01*
X0201556Y0124873D02*
X0201658Y0124873D01*
X0201658Y0125271D02*
X0201556Y0125271D01*
X0201556Y0125670D02*
X0201658Y0125670D01*
X0201658Y0126068D02*
X0201556Y0126068D01*
X0201658Y0126467D02*
X0201448Y0126467D01*
X0201283Y0126865D02*
X0201658Y0126865D01*
X0201658Y0127264D02*
X0201118Y0127264D01*
X0200866Y0127662D02*
X0201904Y0127662D01*
X0202181Y0128061D02*
X0200468Y0128061D01*
X0200069Y0128459D02*
X0201783Y0128459D01*
X0188475Y0138821D02*
X0224345Y0138821D01*
X0223946Y0139219D02*
X0188475Y0139219D01*
X0182525Y0152769D02*
X0178213Y0152769D01*
X0178213Y0153167D02*
X0182525Y0153167D01*
X0182525Y0153566D02*
X0178213Y0153566D01*
X0178213Y0153964D02*
X0182525Y0153964D01*
X0182525Y0154363D02*
X0178213Y0154363D01*
X0178213Y0154761D02*
X0182525Y0154761D01*
X0182525Y0155160D02*
X0178213Y0155160D01*
X0178213Y0155558D02*
X0182525Y0155558D01*
X0182525Y0155957D02*
X0178213Y0155957D01*
X0178213Y0156355D02*
X0182525Y0156355D01*
X0182525Y0156754D02*
X0178213Y0156754D01*
X0178213Y0157152D02*
X0182525Y0157152D01*
X0182525Y0157551D02*
X0178213Y0157551D01*
X0178213Y0157949D02*
X0182525Y0157949D01*
X0182525Y0158348D02*
X0178377Y0158348D01*
X0178622Y0158746D02*
X0182525Y0158746D01*
X0182525Y0159145D02*
X0178787Y0159145D01*
X0178953Y0159543D02*
X0182525Y0159543D01*
X0182525Y0159942D02*
X0179056Y0159942D01*
X0179056Y0160340D02*
X0182525Y0160340D01*
X0182525Y0160739D02*
X0179056Y0160739D01*
X0179056Y0161137D02*
X0182525Y0161137D01*
X0182525Y0161536D02*
X0178920Y0161536D01*
X0178755Y0161934D02*
X0182525Y0161934D01*
X0182525Y0162333D02*
X0178590Y0162333D01*
X0178297Y0162731D02*
X0182525Y0162731D01*
X0182525Y0163130D02*
X0178563Y0163130D01*
X0178961Y0163528D02*
X0182525Y0163528D01*
X0182525Y0163927D02*
X0179144Y0163927D01*
X0179309Y0164325D02*
X0182525Y0164325D01*
X0182525Y0164724D02*
X0179474Y0164724D01*
X0179594Y0165122D02*
X0182525Y0165122D01*
X0182525Y0165521D02*
X0179594Y0165521D01*
X0179594Y0165919D02*
X0182525Y0165919D01*
X0182525Y0166318D02*
X0179594Y0166318D01*
X0179594Y0166716D02*
X0182525Y0166716D01*
X0182525Y0167115D02*
X0179594Y0167115D01*
X0179594Y0167513D02*
X0182525Y0167513D01*
X0182525Y0167912D02*
X0179594Y0167912D01*
X0179594Y0168310D02*
X0182525Y0168310D01*
X0182525Y0168709D02*
X0179594Y0168709D01*
X0179594Y0169108D02*
X0182525Y0169108D01*
X0182525Y0169506D02*
X0179594Y0169506D01*
X0179594Y0169905D02*
X0182525Y0169905D01*
X0182525Y0170303D02*
X0179594Y0170303D01*
X0179594Y0170702D02*
X0182525Y0170702D01*
X0182525Y0171100D02*
X0179531Y0171100D01*
X0179366Y0171499D02*
X0182525Y0171499D01*
X0182525Y0171897D02*
X0179201Y0171897D01*
X0179036Y0172296D02*
X0182525Y0172296D01*
X0182525Y0172694D02*
X0178700Y0172694D01*
X0178301Y0173093D02*
X0182525Y0173093D01*
X0182525Y0173491D02*
X0177903Y0173491D01*
X0176974Y0173890D02*
X0182525Y0173890D01*
X0182525Y0174288D02*
X0158613Y0174288D01*
X0158613Y0173890D02*
X0164301Y0173890D01*
X0163373Y0173491D02*
X0158613Y0173491D01*
X0158613Y0173093D02*
X0162975Y0173093D01*
X0162576Y0172694D02*
X0158700Y0172694D01*
X0159036Y0172296D02*
X0162240Y0172296D01*
X0162075Y0171897D02*
X0159201Y0171897D01*
X0159366Y0171499D02*
X0161910Y0171499D01*
X0161745Y0171100D02*
X0159531Y0171100D01*
X0159594Y0170702D02*
X0161682Y0170702D01*
X0161682Y0170303D02*
X0159594Y0170303D01*
X0159594Y0169905D02*
X0161682Y0169905D01*
X0161682Y0169506D02*
X0159594Y0169506D01*
X0159594Y0169108D02*
X0161682Y0169108D01*
X0161682Y0168709D02*
X0159594Y0168709D01*
X0159594Y0168310D02*
X0161682Y0168310D01*
X0161682Y0167912D02*
X0159594Y0167912D01*
X0159594Y0167513D02*
X0161682Y0167513D01*
X0161682Y0167115D02*
X0159594Y0167115D01*
X0159594Y0166716D02*
X0161682Y0166716D01*
X0161682Y0166318D02*
X0159594Y0166318D01*
X0159594Y0165919D02*
X0161682Y0165919D01*
X0161682Y0165521D02*
X0159594Y0165521D01*
X0159594Y0165122D02*
X0161682Y0165122D01*
X0161801Y0164724D02*
X0159474Y0164724D01*
X0159309Y0164325D02*
X0161966Y0164325D01*
X0162131Y0163927D02*
X0159144Y0163927D01*
X0158961Y0163528D02*
X0162314Y0163528D01*
X0162713Y0163130D02*
X0158613Y0163130D01*
X0158613Y0162731D02*
X0162703Y0162731D01*
X0162410Y0162333D02*
X0158613Y0162333D01*
X0158755Y0161934D02*
X0162245Y0161934D01*
X0162080Y0161536D02*
X0158920Y0161536D01*
X0159056Y0161137D02*
X0161944Y0161137D01*
X0161944Y0160739D02*
X0159056Y0160739D01*
X0159056Y0160340D02*
X0161944Y0160340D01*
X0161944Y0159942D02*
X0159056Y0159942D01*
X0158953Y0159543D02*
X0162047Y0159543D01*
X0162212Y0159145D02*
X0158788Y0159145D01*
X0158622Y0158746D02*
X0162378Y0158746D01*
X0162623Y0158348D02*
X0158613Y0158348D01*
X0158613Y0157949D02*
X0163022Y0157949D01*
X0163063Y0157551D02*
X0158613Y0157551D01*
X0158613Y0157152D02*
X0163063Y0157152D01*
X0163063Y0156754D02*
X0158613Y0156754D01*
X0158613Y0156355D02*
X0163063Y0156355D01*
X0163063Y0155957D02*
X0158613Y0155957D01*
X0158613Y0155558D02*
X0163063Y0155558D01*
X0163063Y0155160D02*
X0158613Y0155160D01*
X0158613Y0154761D02*
X0163063Y0154761D01*
X0163063Y0154363D02*
X0158613Y0154363D01*
X0158613Y0153964D02*
X0163063Y0153964D01*
X0163063Y0153566D02*
X0158613Y0153566D01*
X0158613Y0153167D02*
X0163063Y0153167D01*
X0163063Y0152769D02*
X0158613Y0152769D01*
X0158613Y0152370D02*
X0163063Y0152370D01*
X0163063Y0151972D02*
X0158670Y0151972D01*
X0158613Y0151573D02*
X0163063Y0151573D01*
X0163063Y0151174D02*
X0158558Y0151174D01*
X0158449Y0150776D02*
X0163063Y0150776D01*
X0163063Y0150377D02*
X0158228Y0150377D01*
X0157943Y0149979D02*
X0163063Y0149979D01*
X0163063Y0149580D02*
X0157590Y0149580D01*
X0157590Y0149182D02*
X0163063Y0149182D01*
X0163063Y0148783D02*
X0157590Y0148783D01*
X0157590Y0148385D02*
X0163063Y0148385D01*
X0163063Y0147986D02*
X0157590Y0147986D01*
X0157590Y0147588D02*
X0163063Y0147588D01*
X0163063Y0147189D02*
X0157573Y0147189D01*
X0157175Y0146791D02*
X0163063Y0146791D01*
X0163063Y0146392D02*
X0156776Y0146392D01*
X0154523Y0142407D02*
X0113554Y0142407D01*
X0113554Y0142009D02*
X0154125Y0142009D01*
X0153726Y0141610D02*
X0126982Y0141610D01*
X0129449Y0136430D02*
X0088777Y0136430D01*
X0088475Y0136828D02*
X0109592Y0136828D01*
X0108867Y0137227D02*
X0088475Y0137227D01*
X0088475Y0137625D02*
X0108474Y0137625D01*
X0108213Y0138024D02*
X0088475Y0138024D01*
X0088475Y0138422D02*
X0108052Y0138422D01*
X0107920Y0138821D02*
X0088475Y0138821D01*
X0088475Y0139219D02*
X0093464Y0139219D01*
X0093065Y0139618D02*
X0088475Y0139618D01*
X0088475Y0140016D02*
X0092667Y0140016D01*
X0092446Y0140415D02*
X0088554Y0140415D01*
X0088554Y0140813D02*
X0092446Y0140813D01*
X0092446Y0141212D02*
X0088554Y0141212D01*
X0088554Y0141610D02*
X0092446Y0141610D01*
X0092446Y0142009D02*
X0088554Y0142009D01*
X0088554Y0142407D02*
X0092446Y0142407D01*
X0092446Y0142806D02*
X0088554Y0142806D01*
X0088554Y0143204D02*
X0092446Y0143204D01*
X0092446Y0143603D02*
X0088554Y0143603D01*
X0088554Y0144001D02*
X0092446Y0144001D01*
X0092446Y0144400D02*
X0088554Y0144400D01*
X0088554Y0144798D02*
X0092446Y0144798D01*
X0092446Y0145197D02*
X0088554Y0145197D01*
X0088554Y0145595D02*
X0092446Y0145595D01*
X0092446Y0145994D02*
X0088554Y0145994D01*
X0088554Y0146392D02*
X0092446Y0146392D01*
X0092446Y0146791D02*
X0088554Y0146791D01*
X0088554Y0147189D02*
X0092446Y0147189D01*
X0092446Y0147588D02*
X0088554Y0147588D01*
X0088554Y0147986D02*
X0092446Y0147986D01*
X0092446Y0148385D02*
X0088554Y0148385D01*
X0088475Y0148783D02*
X0092829Y0148783D01*
X0093227Y0149182D02*
X0088475Y0149182D01*
X0088665Y0149580D02*
X0149709Y0149580D01*
X0149709Y0149182D02*
X0112773Y0149182D01*
X0113171Y0148783D02*
X0149709Y0148783D01*
X0149709Y0148385D02*
X0113554Y0148385D01*
X0113554Y0147986D02*
X0149709Y0147986D01*
X0149709Y0147588D02*
X0113554Y0147588D01*
X0113554Y0147189D02*
X0149726Y0147189D01*
X0150124Y0146791D02*
X0113554Y0146791D01*
X0113554Y0146392D02*
X0150523Y0146392D01*
X0149709Y0149979D02*
X0088791Y0149979D01*
X0088791Y0150377D02*
X0149709Y0150377D01*
X0149709Y0150776D02*
X0088791Y0150776D01*
X0088791Y0151174D02*
X0149709Y0151174D01*
X0149709Y0151573D02*
X0088791Y0151573D01*
X0088791Y0151972D02*
X0149709Y0151972D01*
X0149709Y0152370D02*
X0088791Y0152370D01*
X0088791Y0152769D02*
X0149709Y0152769D01*
X0149709Y0153167D02*
X0088791Y0153167D01*
X0088791Y0153566D02*
X0149709Y0153566D01*
X0149879Y0153964D02*
X0088791Y0153964D01*
X0088791Y0154363D02*
X0150278Y0154363D01*
X0150676Y0154761D02*
X0088791Y0154761D01*
X0088791Y0155160D02*
X0152663Y0155160D01*
X0152663Y0155558D02*
X0088791Y0155558D01*
X0088791Y0155957D02*
X0152663Y0155957D01*
X0152663Y0156355D02*
X0088730Y0156355D01*
X0088475Y0156754D02*
X0152663Y0156754D01*
X0152663Y0157152D02*
X0141710Y0157152D01*
X0139290Y0157152D02*
X0088475Y0157152D01*
X0097773Y0149182D02*
X0098227Y0149182D01*
X0102773Y0149182D02*
X0103227Y0149182D01*
X0107773Y0149182D02*
X0108227Y0149182D01*
X0113554Y0145994D02*
X0163063Y0145994D01*
X0163063Y0145595D02*
X0113554Y0145595D01*
X0113554Y0145197D02*
X0163063Y0145197D01*
X0163063Y0144798D02*
X0113554Y0144798D01*
X0113554Y0144400D02*
X0163063Y0144400D01*
X0163063Y0144001D02*
X0113554Y0144001D01*
X0113554Y0143603D02*
X0163063Y0143603D01*
X0163063Y0143204D02*
X0113554Y0143204D01*
X0113554Y0142806D02*
X0163063Y0142806D01*
X0163063Y0142407D02*
X0161477Y0142407D01*
X0153666Y0136031D02*
X0089176Y0136031D01*
X0089574Y0135633D02*
X0153783Y0135633D01*
X0147376Y0135234D02*
X0089973Y0135234D01*
X0090371Y0134836D02*
X0100976Y0134836D01*
X0102536Y0139219D02*
X0103464Y0139219D01*
X0103065Y0139618D02*
X0102935Y0139618D01*
X0098464Y0139219D02*
X0097536Y0139219D01*
X0097935Y0139618D02*
X0098065Y0139618D01*
X0107536Y0139219D02*
X0107925Y0139219D01*
X0137314Y0163528D02*
X0012472Y0163528D01*
X0012472Y0163130D02*
X0034075Y0163130D01*
X0033524Y0162731D02*
X0012472Y0162731D01*
X0012472Y0162333D02*
X0033126Y0162333D01*
X0032874Y0161934D02*
X0012472Y0161934D01*
X0012472Y0161536D02*
X0032709Y0161536D01*
X0032544Y0161137D02*
X0012472Y0161137D01*
X0012472Y0160739D02*
X0032525Y0160739D01*
X0032525Y0160340D02*
X0012472Y0160340D01*
X0012472Y0159942D02*
X0032525Y0159942D01*
X0032525Y0159543D02*
X0012472Y0159543D01*
X0012472Y0159145D02*
X0032525Y0159145D01*
X0032525Y0158746D02*
X0012472Y0158746D01*
X0012472Y0158348D02*
X0032525Y0158348D01*
X0032525Y0157949D02*
X0012472Y0157949D01*
X0012472Y0157551D02*
X0032525Y0157551D01*
X0032525Y0157152D02*
X0012472Y0157152D01*
X0012472Y0156754D02*
X0032525Y0156754D01*
X0032525Y0156355D02*
X0012472Y0156355D01*
X0012472Y0155957D02*
X0032525Y0155957D01*
X0032525Y0155558D02*
X0012472Y0155558D01*
X0012472Y0155160D02*
X0032525Y0155160D01*
X0032525Y0154761D02*
X0012472Y0154761D01*
X0012472Y0154363D02*
X0032525Y0154363D01*
X0032525Y0153964D02*
X0012472Y0153964D01*
X0012472Y0153566D02*
X0032525Y0153566D01*
X0032525Y0153167D02*
X0012472Y0153167D01*
X0012472Y0152769D02*
X0032525Y0152769D01*
X0032525Y0152370D02*
X0012472Y0152370D01*
X0012472Y0151972D02*
X0032525Y0151972D01*
X0032525Y0151573D02*
X0012472Y0151573D01*
X0012472Y0151174D02*
X0032525Y0151174D01*
X0032525Y0150776D02*
X0012472Y0150776D01*
X0012472Y0150377D02*
X0032525Y0150377D01*
X0032525Y0149979D02*
X0027550Y0149979D01*
X0028512Y0149580D02*
X0032525Y0149580D01*
X0032525Y0149182D02*
X0028995Y0149182D01*
X0029393Y0148783D02*
X0032525Y0148783D01*
X0033675Y0142407D02*
X0029584Y0142407D01*
X0029185Y0142009D02*
X0034637Y0142009D01*
X0036363Y0142009D02*
X0037925Y0142009D01*
X0037925Y0142407D02*
X0037325Y0142407D01*
X0037835Y0142806D02*
X0037925Y0142806D01*
X0037925Y0141610D02*
X0028787Y0141610D01*
X0028011Y0141212D02*
X0037925Y0141212D01*
X0037925Y0140813D02*
X0027048Y0140813D01*
X0027460Y0140016D02*
X0037925Y0140016D01*
X0037925Y0139618D02*
X0028422Y0139618D01*
X0028957Y0139219D02*
X0037925Y0139219D01*
X0037925Y0138821D02*
X0036775Y0138821D01*
X0037607Y0138422D02*
X0037925Y0138422D01*
X0037925Y0140415D02*
X0012472Y0140415D01*
X0012472Y0140813D02*
X0018952Y0140813D01*
X0018540Y0140016D02*
X0012472Y0140016D01*
X0012472Y0139618D02*
X0017578Y0139618D01*
X0017043Y0139219D02*
X0012472Y0139219D01*
X0012472Y0138821D02*
X0016644Y0138821D01*
X0016246Y0138422D02*
X0012472Y0138422D01*
X0012472Y0138024D02*
X0015943Y0138024D01*
X0015778Y0137625D02*
X0012472Y0137625D01*
X0012472Y0137227D02*
X0015613Y0137227D01*
X0015447Y0136828D02*
X0012472Y0136828D01*
X0012472Y0136430D02*
X0015288Y0136430D01*
X0015288Y0136031D02*
X0012472Y0136031D01*
X0012472Y0135633D02*
X0015288Y0135633D01*
X0015288Y0135234D02*
X0012472Y0135234D01*
X0012472Y0134836D02*
X0015288Y0134836D01*
X0015338Y0134437D02*
X0012472Y0134437D01*
X0012472Y0134039D02*
X0015503Y0134039D01*
X0015668Y0133640D02*
X0012472Y0133640D01*
X0012472Y0133241D02*
X0015833Y0133241D01*
X0015998Y0132843D02*
X0012472Y0132843D01*
X0012472Y0132444D02*
X0016379Y0132444D01*
X0016777Y0132046D02*
X0012472Y0132046D01*
X0012472Y0131647D02*
X0017176Y0131647D01*
X0017900Y0131249D02*
X0012472Y0131249D01*
X0012472Y0130850D02*
X0018862Y0130850D01*
X0018630Y0130053D02*
X0012472Y0130053D01*
X0012472Y0129655D02*
X0017667Y0129655D01*
X0017080Y0129256D02*
X0012472Y0129256D01*
X0012472Y0128858D02*
X0016681Y0128858D01*
X0016283Y0128459D02*
X0012472Y0128459D01*
X0012472Y0128061D02*
X0015958Y0128061D01*
X0015793Y0127662D02*
X0012472Y0127662D01*
X0012472Y0127264D02*
X0015628Y0127264D01*
X0015463Y0126865D02*
X0012472Y0126865D01*
X0012472Y0126467D02*
X0015298Y0126467D01*
X0015288Y0126068D02*
X0012472Y0126068D01*
X0012472Y0125670D02*
X0015288Y0125670D01*
X0015288Y0125271D02*
X0012472Y0125271D01*
X0012472Y0124873D02*
X0015288Y0124873D01*
X0015322Y0124474D02*
X0012472Y0124474D01*
X0012472Y0124076D02*
X0015487Y0124076D01*
X0015652Y0123677D02*
X0012472Y0123677D01*
X0012472Y0123279D02*
X0015817Y0123279D01*
X0015983Y0122880D02*
X0012472Y0122880D01*
X0012472Y0122482D02*
X0016342Y0122482D01*
X0016740Y0122083D02*
X0012472Y0122083D01*
X0012472Y0121685D02*
X0017139Y0121685D01*
X0017810Y0121286D02*
X0012472Y0121286D01*
X0012472Y0120888D02*
X0018772Y0120888D01*
X0019088Y0120243D02*
X0017345Y0119521D01*
X0016010Y0118187D01*
X0015288Y0116444D01*
X0015288Y0114556D01*
X0016010Y0112813D01*
X0017345Y0111479D01*
X0019088Y0110757D01*
X0026912Y0110757D01*
X0028655Y0111479D01*
X0029990Y0112813D01*
X0030036Y0112925D01*
X0033046Y0112925D01*
X0033486Y0112485D01*
X0034793Y0111944D01*
X0036207Y0111944D01*
X0037514Y0112485D01*
X0037954Y0112925D01*
X0042925Y0112925D01*
X0042925Y0111242D01*
X0042446Y0110763D01*
X0042446Y0102599D01*
X0043485Y0101560D01*
X0047515Y0101560D01*
X0048000Y0102045D01*
X0048485Y0101560D01*
X0052515Y0101560D01*
X0053000Y0102045D01*
X0053485Y0101560D01*
X0057515Y0101560D01*
X0058000Y0102045D01*
X0058485Y0101560D01*
X0062515Y0101560D01*
X0063000Y0102045D01*
X0063485Y0101560D01*
X0067515Y0101560D01*
X0068000Y0102045D01*
X0068485Y0101560D01*
X0072515Y0101560D01*
X0073000Y0102045D01*
X0073485Y0101560D01*
X0077515Y0101560D01*
X0078554Y0102599D01*
X0078554Y0110763D01*
X0077515Y0111802D01*
X0073485Y0111802D01*
X0073000Y0111317D01*
X0072515Y0111802D01*
X0068485Y0111802D01*
X0068000Y0111317D01*
X0067515Y0111802D01*
X0063485Y0111802D01*
X0063000Y0111317D01*
X0062515Y0111802D01*
X0058485Y0111802D01*
X0058000Y0111317D01*
X0057515Y0111802D01*
X0053485Y0111802D01*
X0053000Y0111317D01*
X0052515Y0111802D01*
X0048485Y0111802D01*
X0048075Y0111392D01*
X0048075Y0116012D01*
X0047683Y0116959D01*
X0046959Y0117683D01*
X0046012Y0118075D01*
X0037954Y0118075D01*
X0037514Y0118515D01*
X0036207Y0119056D01*
X0034793Y0119056D01*
X0033486Y0118515D01*
X0033046Y0118075D01*
X0030036Y0118075D01*
X0029990Y0118187D01*
X0028655Y0119521D01*
X0026912Y0120243D01*
X0019088Y0120243D01*
X0018719Y0120091D02*
X0012472Y0120091D01*
X0012472Y0120489D02*
X0057925Y0120489D01*
X0057925Y0120091D02*
X0027281Y0120091D01*
X0027228Y0120888D02*
X0057925Y0120888D01*
X0057925Y0121286D02*
X0028190Y0121286D01*
X0028861Y0121685D02*
X0057925Y0121685D01*
X0057925Y0122083D02*
X0036543Y0122083D01*
X0037505Y0122482D02*
X0057925Y0122482D01*
X0057925Y0122880D02*
X0037909Y0122880D01*
X0034457Y0122083D02*
X0029260Y0122083D01*
X0029658Y0122482D02*
X0033495Y0122482D01*
X0033091Y0122880D02*
X0030017Y0122880D01*
X0028243Y0119692D02*
X0057925Y0119692D01*
X0057925Y0119294D02*
X0028883Y0119294D01*
X0029281Y0118895D02*
X0034404Y0118895D01*
X0033468Y0118497D02*
X0029680Y0118497D01*
X0030026Y0118098D02*
X0033069Y0118098D01*
X0036596Y0118895D02*
X0057925Y0118895D01*
X0057925Y0118497D02*
X0037532Y0118497D01*
X0037931Y0118098D02*
X0057925Y0118098D01*
X0057925Y0117700D02*
X0046918Y0117700D01*
X0047340Y0117301D02*
X0058003Y0117301D01*
X0058168Y0116903D02*
X0047706Y0116903D01*
X0047871Y0116504D02*
X0058355Y0116504D01*
X0058753Y0116105D02*
X0048036Y0116105D01*
X0048075Y0115707D02*
X0059308Y0115707D01*
X0058405Y0111722D02*
X0057595Y0111722D01*
X0057994Y0111323D02*
X0058006Y0111323D01*
X0053405Y0111722D02*
X0052595Y0111722D01*
X0052994Y0111323D02*
X0053006Y0111323D01*
X0048405Y0111722D02*
X0048075Y0111722D01*
X0048075Y0112120D02*
X0107921Y0112120D01*
X0107925Y0111722D02*
X0107595Y0111722D01*
X0108027Y0112519D02*
X0048075Y0112519D01*
X0048075Y0112917D02*
X0108190Y0112917D01*
X0108415Y0113316D02*
X0048075Y0113316D01*
X0048075Y0113714D02*
X0108810Y0113714D01*
X0109453Y0114113D02*
X0048075Y0114113D01*
X0048075Y0114511D02*
X0124707Y0114511D01*
X0118075Y0102556D02*
X0138713Y0102556D01*
X0138331Y0102158D02*
X0118075Y0102158D01*
X0118075Y0101759D02*
X0138166Y0101759D01*
X0138001Y0101361D02*
X0118075Y0101361D01*
X0118075Y0100962D02*
X0137889Y0100962D01*
X0137889Y0100564D02*
X0118075Y0100564D01*
X0118075Y0100165D02*
X0137889Y0100165D01*
X0137889Y0099767D02*
X0117983Y0099767D01*
X0117818Y0099368D02*
X0137889Y0099368D01*
X0137889Y0098970D02*
X0117611Y0098970D01*
X0117212Y0098571D02*
X0137889Y0098571D01*
X0137889Y0098172D02*
X0116609Y0098172D01*
X0118475Y0090999D02*
X0137889Y0090999D01*
X0137889Y0090601D02*
X0118874Y0090601D01*
X0119272Y0090202D02*
X0137889Y0090202D01*
X0137889Y0089804D02*
X0119302Y0089804D01*
X0119302Y0089405D02*
X0137889Y0089405D01*
X0137889Y0089007D02*
X0119302Y0089007D01*
X0119302Y0088608D02*
X0137889Y0088608D01*
X0137889Y0088210D02*
X0119302Y0088210D01*
X0119302Y0087811D02*
X0137889Y0087811D01*
X0137889Y0087413D02*
X0119302Y0087413D01*
X0119302Y0087014D02*
X0137889Y0087014D01*
X0137889Y0086616D02*
X0119302Y0086616D01*
X0119302Y0086217D02*
X0137889Y0086217D01*
X0137889Y0085819D02*
X0119302Y0085819D01*
X0119302Y0085420D02*
X0137889Y0085420D01*
X0137889Y0085022D02*
X0119302Y0085022D01*
X0119302Y0084623D02*
X0137889Y0084623D01*
X0137889Y0084225D02*
X0119302Y0084225D01*
X0119302Y0083826D02*
X0137889Y0083826D01*
X0137889Y0083428D02*
X0119302Y0083428D01*
X0119302Y0083029D02*
X0137889Y0083029D01*
X0137889Y0082631D02*
X0119302Y0082631D01*
X0119302Y0082232D02*
X0137889Y0082232D01*
X0137889Y0081834D02*
X0119302Y0081834D01*
X0119302Y0081435D02*
X0137889Y0081435D01*
X0137889Y0081037D02*
X0119302Y0081037D01*
X0119112Y0080638D02*
X0137889Y0080638D01*
X0137889Y0080239D02*
X0118714Y0080239D01*
X0118315Y0079841D02*
X0137889Y0079841D01*
X0137889Y0079442D02*
X0095575Y0079442D01*
X0095575Y0079044D02*
X0137889Y0079044D01*
X0137889Y0078645D02*
X0135485Y0078645D01*
X0136438Y0072269D02*
X0138150Y0072269D01*
X0138548Y0071871D02*
X0136418Y0071871D01*
X0136020Y0071472D02*
X0138947Y0071472D01*
X0138717Y0069081D02*
X0127579Y0069081D01*
X0127579Y0068683D02*
X0138318Y0068683D01*
X0138007Y0068284D02*
X0127579Y0068284D01*
X0127579Y0067886D02*
X0138007Y0067886D01*
X0138007Y0067487D02*
X0127579Y0067487D01*
X0127579Y0067089D02*
X0138007Y0067089D01*
X0138007Y0066690D02*
X0127579Y0066690D01*
X0127579Y0066292D02*
X0138007Y0066292D01*
X0138007Y0065893D02*
X0127579Y0065893D01*
X0127579Y0065495D02*
X0138007Y0065495D01*
X0138007Y0065096D02*
X0127579Y0065096D01*
X0127579Y0064698D02*
X0138007Y0064698D01*
X0138007Y0064299D02*
X0127579Y0064299D01*
X0127579Y0063901D02*
X0138007Y0063901D01*
X0138007Y0063502D02*
X0127579Y0063502D01*
X0127579Y0063103D02*
X0138007Y0063103D01*
X0138007Y0062705D02*
X0127579Y0062705D01*
X0127579Y0062306D02*
X0138007Y0062306D01*
X0138275Y0061908D02*
X0127579Y0061908D01*
X0127579Y0061509D02*
X0138674Y0061509D01*
X0141265Y0059915D02*
X0127579Y0059915D01*
X0127579Y0059517D02*
X0141265Y0059517D01*
X0141265Y0059118D02*
X0127579Y0059118D01*
X0127579Y0058720D02*
X0141265Y0058720D01*
X0141265Y0058321D02*
X0127579Y0058321D01*
X0127579Y0057923D02*
X0141265Y0057923D01*
X0141265Y0057524D02*
X0127579Y0057524D01*
X0127579Y0057126D02*
X0141265Y0057126D01*
X0141265Y0056727D02*
X0127579Y0056727D01*
X0127579Y0056329D02*
X0141265Y0056329D01*
X0141265Y0055930D02*
X0127579Y0055930D01*
X0127579Y0055532D02*
X0141265Y0055532D01*
X0141265Y0055133D02*
X0127579Y0055133D01*
X0127579Y0054735D02*
X0141265Y0054735D01*
X0141265Y0054336D02*
X0127579Y0054336D01*
X0127579Y0053938D02*
X0141265Y0053938D01*
X0141265Y0053539D02*
X0127579Y0053539D01*
X0127579Y0053141D02*
X0141471Y0053141D01*
X0141870Y0052742D02*
X0127579Y0052742D01*
X0127579Y0052344D02*
X0142268Y0052344D01*
X0142307Y0051945D02*
X0127579Y0051945D01*
X0127579Y0051547D02*
X0142281Y0051547D01*
X0141227Y0051148D02*
X0127579Y0051148D01*
X0127579Y0050750D02*
X0140828Y0050750D01*
X0140430Y0050351D02*
X0127579Y0050351D01*
X0127579Y0049953D02*
X0140270Y0049953D01*
X0140270Y0049554D02*
X0127579Y0049554D01*
X0127579Y0049156D02*
X0140270Y0049156D01*
X0140270Y0048757D02*
X0127579Y0048757D01*
X0127579Y0048359D02*
X0140270Y0048359D01*
X0140270Y0047960D02*
X0127579Y0047960D01*
X0127579Y0047562D02*
X0140270Y0047562D01*
X0140270Y0047163D02*
X0127579Y0047163D01*
X0127579Y0046765D02*
X0140270Y0046765D01*
X0140270Y0046366D02*
X0127579Y0046366D01*
X0127579Y0045968D02*
X0140270Y0045968D01*
X0140270Y0045569D02*
X0127579Y0045569D01*
X0127579Y0045170D02*
X0140270Y0045170D01*
X0140270Y0044772D02*
X0139309Y0044772D01*
X0139707Y0044373D02*
X0140288Y0044373D01*
X0140353Y0043975D02*
X0140106Y0043975D01*
X0140188Y0043576D02*
X0140270Y0043576D01*
X0140188Y0038396D02*
X0140270Y0038396D01*
X0140365Y0037997D02*
X0140094Y0037997D01*
X0139695Y0037599D02*
X0140763Y0037599D01*
X0141162Y0037200D02*
X0139297Y0037200D01*
X0139321Y0034809D02*
X0141138Y0034809D01*
X0140739Y0034411D02*
X0139719Y0034411D01*
X0140118Y0034012D02*
X0140341Y0034012D01*
X0140270Y0033614D02*
X0140188Y0033614D01*
X0140188Y0033215D02*
X0140270Y0033215D01*
X0140270Y0032817D02*
X0140188Y0032817D01*
X0140188Y0032418D02*
X0140270Y0032418D01*
X0140270Y0032020D02*
X0140188Y0032020D01*
X0140188Y0031621D02*
X0140270Y0031621D01*
X0140270Y0031223D02*
X0140188Y0031223D01*
X0140188Y0030824D02*
X0140270Y0030824D01*
X0140270Y0030426D02*
X0140188Y0030426D01*
X0140188Y0030027D02*
X0140270Y0030027D01*
X0140270Y0029629D02*
X0140188Y0029629D01*
X0140188Y0029230D02*
X0140270Y0029230D01*
X0140270Y0028832D02*
X0140188Y0028832D01*
X0140188Y0028433D02*
X0140270Y0028433D01*
X0140377Y0028034D02*
X0140082Y0028034D01*
X0140188Y0027636D02*
X0140270Y0027636D01*
X0140188Y0022057D02*
X0140270Y0022057D01*
X0140454Y0021658D02*
X0140005Y0021658D01*
X0139606Y0021260D02*
X0140852Y0021260D01*
X0141251Y0020861D02*
X0139208Y0020861D01*
X0135306Y0020463D02*
X0183257Y0020463D01*
X0183257Y0020861D02*
X0147958Y0020861D01*
X0148356Y0021260D02*
X0183257Y0021260D01*
X0183257Y0021658D02*
X0148755Y0021658D01*
X0148938Y0022057D02*
X0183257Y0022057D01*
X0183257Y0022455D02*
X0148938Y0022455D01*
X0148938Y0022854D02*
X0183257Y0022854D01*
X0183257Y0023252D02*
X0148938Y0023252D01*
X0148938Y0023651D02*
X0183257Y0023651D01*
X0183257Y0024049D02*
X0148938Y0024049D01*
X0148938Y0024448D02*
X0183257Y0024448D01*
X0183257Y0024846D02*
X0148938Y0024846D01*
X0148938Y0025245D02*
X0183257Y0025245D01*
X0183257Y0025643D02*
X0148938Y0025643D01*
X0148938Y0026042D02*
X0183257Y0026042D01*
X0183257Y0026440D02*
X0148938Y0026440D01*
X0148938Y0026839D02*
X0183257Y0026839D01*
X0183392Y0027237D02*
X0148938Y0027237D01*
X0148938Y0027636D02*
X0183557Y0027636D01*
X0183722Y0028034D02*
X0148832Y0028034D01*
X0148938Y0028433D02*
X0183887Y0028433D01*
X0184155Y0028832D02*
X0148938Y0028832D01*
X0148938Y0029230D02*
X0184553Y0029230D01*
X0184952Y0029629D02*
X0148938Y0029629D01*
X0148938Y0030027D02*
X0185025Y0030027D01*
X0185025Y0030426D02*
X0148938Y0030426D01*
X0148938Y0030824D02*
X0185025Y0030824D01*
X0185025Y0031223D02*
X0148938Y0031223D01*
X0148938Y0031621D02*
X0185025Y0031621D01*
X0185025Y0032020D02*
X0148938Y0032020D01*
X0148938Y0032418D02*
X0185025Y0032418D01*
X0185025Y0032817D02*
X0148938Y0032817D01*
X0148938Y0033215D02*
X0185025Y0033215D01*
X0184932Y0033614D02*
X0148938Y0033614D01*
X0148868Y0034012D02*
X0184767Y0034012D01*
X0184602Y0034411D02*
X0148469Y0034411D01*
X0148071Y0034809D02*
X0184444Y0034809D01*
X0184444Y0035208D02*
X0147179Y0035208D01*
X0147179Y0035606D02*
X0184444Y0035606D01*
X0184444Y0036005D02*
X0147179Y0036005D01*
X0147179Y0036403D02*
X0184525Y0036403D01*
X0184690Y0036802D02*
X0147179Y0036802D01*
X0148047Y0037200D02*
X0184855Y0037200D01*
X0185025Y0037599D02*
X0148445Y0037599D01*
X0148844Y0037997D02*
X0185025Y0037997D01*
X0185025Y0038396D02*
X0148938Y0038396D01*
X0148938Y0038794D02*
X0185025Y0038794D01*
X0182191Y0039193D02*
X0148938Y0039193D01*
X0148938Y0039591D02*
X0181792Y0039591D01*
X0181394Y0039990D02*
X0148938Y0039990D01*
X0148938Y0040388D02*
X0181343Y0040388D01*
X0181343Y0040787D02*
X0148938Y0040787D01*
X0148938Y0041185D02*
X0181343Y0041185D01*
X0181343Y0041584D02*
X0148938Y0041584D01*
X0148938Y0041982D02*
X0181343Y0041982D01*
X0181343Y0042381D02*
X0148938Y0042381D01*
X0148938Y0042779D02*
X0181343Y0042779D01*
X0181343Y0043178D02*
X0148938Y0043178D01*
X0148938Y0043576D02*
X0181343Y0043576D01*
X0181343Y0043975D02*
X0148856Y0043975D01*
X0148921Y0044373D02*
X0181343Y0044373D01*
X0181343Y0044772D02*
X0148938Y0044772D01*
X0148938Y0045170D02*
X0181343Y0045170D01*
X0181343Y0045569D02*
X0148938Y0045569D01*
X0148938Y0045968D02*
X0181343Y0045968D01*
X0181343Y0046366D02*
X0148938Y0046366D01*
X0148938Y0046765D02*
X0181343Y0046765D01*
X0181343Y0047163D02*
X0148938Y0047163D01*
X0148938Y0047562D02*
X0181343Y0047562D01*
X0181343Y0047960D02*
X0148938Y0047960D01*
X0148938Y0048359D02*
X0181343Y0048359D01*
X0181343Y0048757D02*
X0148938Y0048757D01*
X0148938Y0049156D02*
X0181343Y0049156D01*
X0181343Y0049554D02*
X0148938Y0049554D01*
X0148938Y0049953D02*
X0181343Y0049953D01*
X0181343Y0050351D02*
X0148779Y0050351D01*
X0148380Y0050750D02*
X0181343Y0050750D01*
X0181532Y0051148D02*
X0147982Y0051148D01*
X0148141Y0052344D02*
X0148568Y0052344D01*
X0149068Y0061111D02*
X0147179Y0061111D01*
X0147179Y0061509D02*
X0149080Y0061509D01*
X0149093Y0061908D02*
X0147193Y0061908D01*
X0147462Y0062306D02*
X0149105Y0062306D01*
X0149118Y0062705D02*
X0147462Y0062705D01*
X0147462Y0063103D02*
X0149130Y0063103D01*
X0149143Y0063502D02*
X0147462Y0063502D01*
X0147462Y0063901D02*
X0149155Y0063901D01*
X0149168Y0064299D02*
X0147462Y0064299D01*
X0147462Y0064698D02*
X0149180Y0064698D01*
X0149192Y0065096D02*
X0147462Y0065096D01*
X0147462Y0065495D02*
X0149205Y0065495D01*
X0149217Y0065893D02*
X0147462Y0065893D01*
X0147462Y0066292D02*
X0149230Y0066292D01*
X0149242Y0066690D02*
X0147462Y0066690D01*
X0147462Y0067089D02*
X0149255Y0067089D01*
X0149267Y0067487D02*
X0147462Y0067487D01*
X0147462Y0067886D02*
X0149280Y0067886D01*
X0149292Y0068284D02*
X0147462Y0068284D01*
X0147150Y0068683D02*
X0149305Y0068683D01*
X0149317Y0069081D02*
X0146752Y0069081D01*
X0146427Y0071472D02*
X0142781Y0071472D01*
X0143180Y0071871D02*
X0146029Y0071871D01*
X0145630Y0072269D02*
X0143578Y0072269D01*
X0143722Y0072668D02*
X0145487Y0072668D01*
X0145487Y0073066D02*
X0143722Y0073066D01*
X0143722Y0073465D02*
X0145487Y0073465D01*
X0145487Y0073863D02*
X0143722Y0073863D01*
X0143722Y0074262D02*
X0145487Y0074262D01*
X0145487Y0074660D02*
X0143732Y0074660D01*
X0143839Y0075059D02*
X0145425Y0075059D01*
X0145425Y0075457D02*
X0143839Y0075457D01*
X0143839Y0075856D02*
X0145425Y0075856D01*
X0145425Y0076254D02*
X0143839Y0076254D01*
X0143839Y0076653D02*
X0145425Y0076653D01*
X0145425Y0077051D02*
X0143839Y0077051D01*
X0143839Y0077450D02*
X0145425Y0077450D01*
X0145425Y0077848D02*
X0143839Y0077848D01*
X0143839Y0078247D02*
X0145425Y0078247D01*
X0145425Y0078645D02*
X0143839Y0078645D01*
X0143839Y0079044D02*
X0145425Y0079044D01*
X0145425Y0079442D02*
X0143839Y0079442D01*
X0143839Y0079841D02*
X0145425Y0079841D01*
X0145425Y0080239D02*
X0143839Y0080239D01*
X0143839Y0080638D02*
X0145425Y0080638D01*
X0145425Y0081037D02*
X0143839Y0081037D01*
X0143839Y0081435D02*
X0145425Y0081435D01*
X0145425Y0081834D02*
X0143839Y0081834D01*
X0143839Y0082232D02*
X0145425Y0082232D01*
X0145425Y0082631D02*
X0143839Y0082631D01*
X0143839Y0083029D02*
X0145425Y0083029D01*
X0145425Y0083428D02*
X0143839Y0083428D01*
X0143839Y0083826D02*
X0145425Y0083826D01*
X0145425Y0084225D02*
X0143839Y0084225D01*
X0143839Y0084623D02*
X0145425Y0084623D01*
X0145425Y0085022D02*
X0143839Y0085022D01*
X0143839Y0085420D02*
X0145425Y0085420D01*
X0145425Y0085819D02*
X0143839Y0085819D01*
X0143839Y0086217D02*
X0145425Y0086217D01*
X0145425Y0086616D02*
X0143839Y0086616D01*
X0143839Y0087014D02*
X0145425Y0087014D01*
X0145425Y0087413D02*
X0143839Y0087413D01*
X0143839Y0087811D02*
X0145425Y0087811D01*
X0145425Y0088210D02*
X0143839Y0088210D01*
X0143839Y0088608D02*
X0145425Y0088608D01*
X0145425Y0089007D02*
X0143839Y0089007D01*
X0143839Y0089405D02*
X0145425Y0089405D01*
X0145425Y0089804D02*
X0143839Y0089804D01*
X0143839Y0090202D02*
X0145425Y0090202D01*
X0145370Y0090601D02*
X0143839Y0090601D01*
X0143839Y0090999D02*
X0144980Y0090999D01*
X0144815Y0091398D02*
X0143839Y0091398D01*
X0143839Y0091796D02*
X0144650Y0091796D01*
X0144485Y0092195D02*
X0143839Y0092195D01*
X0143839Y0092593D02*
X0144444Y0092593D01*
X0144444Y0092992D02*
X0143839Y0092992D01*
X0143839Y0093390D02*
X0144444Y0093390D01*
X0144478Y0093789D02*
X0143839Y0093789D01*
X0143839Y0094187D02*
X0144643Y0094187D01*
X0144808Y0094586D02*
X0143839Y0094586D01*
X0143839Y0094984D02*
X0144973Y0094984D01*
X0145354Y0095383D02*
X0143839Y0095383D01*
X0143839Y0095781D02*
X0145753Y0095781D01*
X0137889Y0095781D02*
X0093075Y0095781D01*
X0093075Y0095383D02*
X0137889Y0095383D01*
X0137889Y0094984D02*
X0093075Y0094984D01*
X0093075Y0094586D02*
X0137889Y0094586D01*
X0137889Y0094187D02*
X0093075Y0094187D01*
X0093075Y0093789D02*
X0137889Y0093789D01*
X0137889Y0093390D02*
X0093075Y0093390D01*
X0093075Y0092992D02*
X0137889Y0092992D01*
X0137889Y0092593D02*
X0093075Y0092593D01*
X0093075Y0092195D02*
X0137889Y0092195D01*
X0137889Y0091796D02*
X0093075Y0091796D01*
X0093075Y0091398D02*
X0137889Y0091398D01*
X0137889Y0096180D02*
X0093075Y0096180D01*
X0093075Y0096578D02*
X0137889Y0096578D01*
X0137889Y0096977D02*
X0093075Y0096977D01*
X0093075Y0097375D02*
X0137889Y0097375D01*
X0137889Y0097774D02*
X0093075Y0097774D01*
X0093075Y0098172D02*
X0104391Y0098172D01*
X0103788Y0098571D02*
X0093075Y0098571D01*
X0093075Y0098970D02*
X0103389Y0098970D01*
X0103182Y0099368D02*
X0093075Y0099368D01*
X0093075Y0099767D02*
X0103017Y0099767D01*
X0102925Y0100165D02*
X0093075Y0100165D01*
X0093075Y0100564D02*
X0102925Y0100564D01*
X0102925Y0100962D02*
X0093075Y0100962D01*
X0093075Y0101361D02*
X0102925Y0101361D01*
X0102925Y0101759D02*
X0102714Y0101759D01*
X0098286Y0101759D02*
X0097714Y0101759D01*
X0093286Y0101759D02*
X0093075Y0101759D01*
X0092994Y0111323D02*
X0093006Y0111323D01*
X0093405Y0111722D02*
X0092595Y0111722D01*
X0097595Y0111722D02*
X0098405Y0111722D01*
X0098006Y0111323D02*
X0097994Y0111323D01*
X0102595Y0111722D02*
X0103405Y0111722D01*
X0103006Y0111323D02*
X0102994Y0111323D01*
X0088405Y0111722D02*
X0087595Y0111722D01*
X0087994Y0111323D02*
X0088006Y0111323D01*
X0083405Y0111722D02*
X0077595Y0111722D01*
X0077994Y0111323D02*
X0083006Y0111323D01*
X0082608Y0110925D02*
X0078392Y0110925D01*
X0078554Y0110526D02*
X0082446Y0110526D01*
X0082446Y0110128D02*
X0078554Y0110128D01*
X0078554Y0109729D02*
X0082446Y0109729D01*
X0082446Y0109331D02*
X0078554Y0109331D01*
X0078554Y0108932D02*
X0082446Y0108932D01*
X0082446Y0108534D02*
X0078554Y0108534D01*
X0078554Y0108135D02*
X0082446Y0108135D01*
X0082446Y0107737D02*
X0078554Y0107737D01*
X0078554Y0107338D02*
X0082446Y0107338D01*
X0082446Y0106940D02*
X0078554Y0106940D01*
X0078554Y0106541D02*
X0082446Y0106541D01*
X0082446Y0106143D02*
X0078554Y0106143D01*
X0078554Y0105744D02*
X0082446Y0105744D01*
X0082446Y0105346D02*
X0078554Y0105346D01*
X0078554Y0104947D02*
X0082446Y0104947D01*
X0082446Y0104549D02*
X0078554Y0104549D01*
X0078554Y0104150D02*
X0082446Y0104150D01*
X0082446Y0103752D02*
X0078554Y0103752D01*
X0078554Y0103353D02*
X0082446Y0103353D01*
X0082446Y0102955D02*
X0078554Y0102955D01*
X0078511Y0102556D02*
X0082489Y0102556D01*
X0082888Y0102158D02*
X0078112Y0102158D01*
X0077714Y0101759D02*
X0082925Y0101759D01*
X0082925Y0101361D02*
X0012472Y0101361D01*
X0012472Y0101759D02*
X0043286Y0101759D01*
X0042888Y0102158D02*
X0012472Y0102158D01*
X0012472Y0102556D02*
X0042489Y0102556D01*
X0042446Y0102955D02*
X0012472Y0102955D01*
X0012472Y0103353D02*
X0042446Y0103353D01*
X0042446Y0103752D02*
X0012472Y0103752D01*
X0012472Y0104150D02*
X0042446Y0104150D01*
X0042446Y0104549D02*
X0012472Y0104549D01*
X0012472Y0104947D02*
X0042446Y0104947D01*
X0042446Y0105346D02*
X0012472Y0105346D01*
X0012472Y0105744D02*
X0042446Y0105744D01*
X0042446Y0106143D02*
X0012472Y0106143D01*
X0012472Y0106541D02*
X0042446Y0106541D01*
X0042446Y0106940D02*
X0012472Y0106940D01*
X0012472Y0107338D02*
X0042446Y0107338D01*
X0042446Y0107737D02*
X0012472Y0107737D01*
X0012472Y0108135D02*
X0042446Y0108135D01*
X0042446Y0108534D02*
X0012472Y0108534D01*
X0012472Y0108932D02*
X0042446Y0108932D01*
X0042446Y0109331D02*
X0012472Y0109331D01*
X0012472Y0109729D02*
X0042446Y0109729D01*
X0042446Y0110128D02*
X0012472Y0110128D01*
X0012472Y0110526D02*
X0042446Y0110526D01*
X0042608Y0110925D02*
X0027318Y0110925D01*
X0028280Y0111323D02*
X0042925Y0111323D01*
X0042925Y0111722D02*
X0028898Y0111722D01*
X0029297Y0112120D02*
X0034367Y0112120D01*
X0033452Y0112519D02*
X0029695Y0112519D01*
X0030033Y0112917D02*
X0033054Y0112917D01*
X0036633Y0112120D02*
X0042925Y0112120D01*
X0042925Y0112519D02*
X0037548Y0112519D01*
X0037946Y0112917D02*
X0042925Y0112917D01*
X0048075Y0114910D02*
X0146168Y0114910D01*
X0145663Y0115308D02*
X0048075Y0115308D01*
X0046866Y0123279D02*
X0057925Y0123279D01*
X0057925Y0123677D02*
X0047319Y0123677D01*
X0047697Y0124076D02*
X0057925Y0124076D01*
X0057925Y0124474D02*
X0047862Y0124474D01*
X0048027Y0124873D02*
X0057925Y0124873D01*
X0057925Y0125271D02*
X0048075Y0125271D01*
X0048075Y0125670D02*
X0057925Y0125670D01*
X0057925Y0126068D02*
X0048075Y0126068D01*
X0048075Y0126467D02*
X0057925Y0126467D01*
X0057925Y0126865D02*
X0048075Y0126865D01*
X0048075Y0127264D02*
X0057925Y0127264D01*
X0057925Y0127662D02*
X0048075Y0127662D01*
X0048075Y0128061D02*
X0057925Y0128061D01*
X0057925Y0128459D02*
X0048075Y0128459D01*
X0048075Y0128858D02*
X0057925Y0128858D01*
X0057925Y0129256D02*
X0048075Y0129256D01*
X0048075Y0129655D02*
X0057925Y0129655D01*
X0057925Y0130053D02*
X0048075Y0130053D01*
X0048075Y0130452D02*
X0057925Y0130452D01*
X0057925Y0130850D02*
X0048075Y0130850D01*
X0048075Y0131249D02*
X0057925Y0131249D01*
X0057925Y0131647D02*
X0048075Y0131647D01*
X0048075Y0132046D02*
X0057925Y0132046D01*
X0057925Y0132444D02*
X0048075Y0132444D01*
X0048075Y0132843D02*
X0057925Y0132843D01*
X0057925Y0133241D02*
X0048075Y0133241D01*
X0048075Y0133640D02*
X0057925Y0133640D01*
X0057925Y0134039D02*
X0048075Y0134039D01*
X0048075Y0134437D02*
X0057925Y0134437D01*
X0057925Y0134836D02*
X0048075Y0134836D01*
X0048075Y0135234D02*
X0057925Y0135234D01*
X0057925Y0135633D02*
X0048075Y0135633D01*
X0048075Y0136031D02*
X0057925Y0136031D01*
X0057925Y0136430D02*
X0048075Y0136430D01*
X0048075Y0136828D02*
X0057925Y0136828D01*
X0057925Y0137227D02*
X0048075Y0137227D01*
X0048075Y0137625D02*
X0057925Y0137625D01*
X0057925Y0138024D02*
X0048075Y0138024D01*
X0048075Y0138422D02*
X0057925Y0138422D01*
X0057925Y0138821D02*
X0048075Y0138821D01*
X0048075Y0139219D02*
X0048464Y0139219D01*
X0052536Y0139219D02*
X0053464Y0139219D01*
X0053065Y0139618D02*
X0052935Y0139618D01*
X0057536Y0139219D02*
X0057925Y0139219D01*
X0042925Y0134437D02*
X0042847Y0134437D01*
X0042925Y0134039D02*
X0042680Y0134039D01*
X0042925Y0133640D02*
X0042281Y0133640D01*
X0041776Y0133241D02*
X0042925Y0133241D01*
X0042925Y0132843D02*
X0037872Y0132843D01*
X0037415Y0132444D02*
X0042925Y0132444D01*
X0042925Y0132046D02*
X0036453Y0132046D01*
X0034547Y0132046D02*
X0029223Y0132046D01*
X0029621Y0132444D02*
X0033585Y0132444D01*
X0033128Y0132843D02*
X0030002Y0132843D01*
X0028824Y0131647D02*
X0042925Y0131647D01*
X0042925Y0131249D02*
X0028100Y0131249D01*
X0027138Y0130850D02*
X0042925Y0130850D01*
X0042925Y0130452D02*
X0012472Y0130452D01*
X0012472Y0141212D02*
X0017989Y0141212D01*
X0017213Y0141610D02*
X0012472Y0141610D01*
X0012472Y0142009D02*
X0016815Y0142009D01*
X0016416Y0142407D02*
X0012472Y0142407D01*
X0012472Y0142806D02*
X0016018Y0142806D01*
X0015848Y0143204D02*
X0012472Y0143204D01*
X0012472Y0143603D02*
X0015683Y0143603D01*
X0015518Y0144001D02*
X0012472Y0144001D01*
X0012472Y0144400D02*
X0015353Y0144400D01*
X0015288Y0144798D02*
X0012472Y0144798D01*
X0012472Y0145197D02*
X0015288Y0145197D01*
X0015288Y0145595D02*
X0012472Y0145595D01*
X0012472Y0145994D02*
X0015288Y0145994D01*
X0015288Y0146392D02*
X0012472Y0146392D01*
X0012472Y0146791D02*
X0015432Y0146791D01*
X0015597Y0147189D02*
X0012472Y0147189D01*
X0012472Y0147588D02*
X0015762Y0147588D01*
X0015927Y0147986D02*
X0012472Y0147986D01*
X0012472Y0148385D02*
X0016208Y0148385D01*
X0016607Y0148783D02*
X0012472Y0148783D01*
X0012472Y0149182D02*
X0017005Y0149182D01*
X0017488Y0149580D02*
X0012472Y0149580D01*
X0012472Y0149979D02*
X0018450Y0149979D01*
X0029356Y0138821D02*
X0034225Y0138821D01*
X0033393Y0138422D02*
X0029754Y0138422D01*
X0027370Y0130053D02*
X0042925Y0130053D01*
X0042925Y0129655D02*
X0028333Y0129655D01*
X0028920Y0129256D02*
X0042925Y0129256D01*
X0042925Y0128858D02*
X0036685Y0128858D01*
X0037569Y0128459D02*
X0042925Y0128459D01*
X0034315Y0128858D02*
X0029319Y0128858D01*
X0029717Y0128459D02*
X0033431Y0128459D01*
X0017757Y0119692D02*
X0012472Y0119692D01*
X0012472Y0119294D02*
X0017117Y0119294D01*
X0016719Y0118895D02*
X0012472Y0118895D01*
X0012472Y0118497D02*
X0016320Y0118497D01*
X0015974Y0118098D02*
X0012472Y0118098D01*
X0012472Y0117700D02*
X0015808Y0117700D01*
X0015643Y0117301D02*
X0012472Y0117301D01*
X0012472Y0116903D02*
X0015478Y0116903D01*
X0015313Y0116504D02*
X0012472Y0116504D01*
X0012472Y0116105D02*
X0015288Y0116105D01*
X0015288Y0115707D02*
X0012472Y0115707D01*
X0012472Y0115308D02*
X0015288Y0115308D01*
X0015288Y0114910D02*
X0012472Y0114910D01*
X0012472Y0114511D02*
X0015307Y0114511D01*
X0015472Y0114113D02*
X0012472Y0114113D01*
X0012472Y0113714D02*
X0015637Y0113714D01*
X0015802Y0113316D02*
X0012472Y0113316D01*
X0012472Y0112917D02*
X0015967Y0112917D01*
X0016305Y0112519D02*
X0012472Y0112519D01*
X0012472Y0112120D02*
X0016703Y0112120D01*
X0017102Y0111722D02*
X0012472Y0111722D01*
X0012472Y0111323D02*
X0017720Y0111323D01*
X0018682Y0110925D02*
X0012472Y0110925D01*
X0012472Y0100962D02*
X0082925Y0100962D01*
X0082925Y0100564D02*
X0012472Y0100564D01*
X0012472Y0100165D02*
X0082925Y0100165D01*
X0082925Y0099767D02*
X0012472Y0099767D01*
X0012472Y0099368D02*
X0082925Y0099368D01*
X0082925Y0098970D02*
X0012472Y0098970D01*
X0012472Y0098571D02*
X0082925Y0098571D01*
X0082925Y0098172D02*
X0012472Y0098172D01*
X0012472Y0097774D02*
X0082925Y0097774D01*
X0082925Y0097375D02*
X0012472Y0097375D01*
X0012472Y0096977D02*
X0082925Y0096977D01*
X0082925Y0096578D02*
X0012472Y0096578D01*
X0012472Y0096180D02*
X0082925Y0096180D01*
X0082925Y0095781D02*
X0012472Y0095781D01*
X0012472Y0095383D02*
X0082925Y0095383D01*
X0082925Y0094984D02*
X0012472Y0094984D01*
X0012472Y0094586D02*
X0082925Y0094586D01*
X0082925Y0094187D02*
X0012472Y0094187D01*
X0012472Y0093789D02*
X0082925Y0093789D01*
X0082925Y0093390D02*
X0012472Y0093390D01*
X0012472Y0092992D02*
X0082925Y0092992D01*
X0082925Y0092593D02*
X0012472Y0092593D01*
X0012472Y0092195D02*
X0082925Y0092195D01*
X0082925Y0091796D02*
X0012472Y0091796D01*
X0012472Y0091398D02*
X0082925Y0091398D01*
X0082925Y0090999D02*
X0081074Y0090999D01*
X0081472Y0090601D02*
X0082925Y0090601D01*
X0082925Y0090202D02*
X0081871Y0090202D01*
X0081901Y0089804D02*
X0082925Y0089804D01*
X0082925Y0089405D02*
X0081901Y0089405D01*
X0081901Y0089007D02*
X0082865Y0089007D01*
X0082467Y0088608D02*
X0081901Y0088608D01*
X0081901Y0088210D02*
X0082068Y0088210D01*
X0085764Y0084623D02*
X0090236Y0084623D01*
X0090425Y0084225D02*
X0085575Y0084225D01*
X0085575Y0083826D02*
X0090425Y0083826D01*
X0090425Y0083428D02*
X0085575Y0083428D01*
X0085575Y0083029D02*
X0090425Y0083029D01*
X0090425Y0082631D02*
X0085575Y0082631D01*
X0085575Y0082232D02*
X0090425Y0082232D01*
X0090425Y0081834D02*
X0085575Y0081834D01*
X0085575Y0081435D02*
X0090425Y0081435D01*
X0090425Y0081037D02*
X0085575Y0081037D01*
X0085575Y0080638D02*
X0090425Y0080638D01*
X0090425Y0080239D02*
X0085575Y0080239D01*
X0085575Y0079841D02*
X0090425Y0079841D01*
X0090425Y0079442D02*
X0085575Y0079442D01*
X0085575Y0079044D02*
X0090425Y0079044D01*
X0090425Y0078645D02*
X0085575Y0078645D01*
X0085575Y0078247D02*
X0090425Y0078247D01*
X0090425Y0077848D02*
X0085575Y0077848D01*
X0085575Y0077450D02*
X0090425Y0077450D01*
X0090425Y0077051D02*
X0085575Y0077051D01*
X0085575Y0076653D02*
X0090425Y0076653D01*
X0090425Y0076254D02*
X0085575Y0076254D01*
X0085575Y0075856D02*
X0090425Y0075856D01*
X0090425Y0075457D02*
X0085575Y0075457D01*
X0085575Y0075059D02*
X0090425Y0075059D01*
X0090425Y0074660D02*
X0085575Y0074660D01*
X0085575Y0074262D02*
X0090425Y0074262D01*
X0090425Y0073863D02*
X0085575Y0073863D01*
X0085575Y0073465D02*
X0090425Y0073465D01*
X0090425Y0073066D02*
X0085575Y0073066D01*
X0085575Y0072668D02*
X0090425Y0072668D01*
X0089385Y0072269D02*
X0086615Y0072269D01*
X0087013Y0071871D02*
X0088987Y0071871D01*
X0088666Y0071472D02*
X0087334Y0071472D01*
X0087334Y0071074D02*
X0088666Y0071074D01*
X0088666Y0070675D02*
X0087334Y0070675D01*
X0087334Y0070277D02*
X0088666Y0070277D01*
X0088666Y0069878D02*
X0087334Y0069878D01*
X0087334Y0069480D02*
X0088666Y0069480D01*
X0088666Y0069081D02*
X0087334Y0069081D01*
X0087334Y0068683D02*
X0088666Y0068683D01*
X0088666Y0068284D02*
X0087334Y0068284D01*
X0087334Y0067886D02*
X0088666Y0067886D01*
X0088666Y0067487D02*
X0087334Y0067487D01*
X0087334Y0067089D02*
X0088666Y0067089D01*
X0088666Y0066690D02*
X0087334Y0066690D01*
X0087334Y0066292D02*
X0088666Y0066292D01*
X0088666Y0065893D02*
X0087334Y0065893D01*
X0087079Y0065495D02*
X0088921Y0065495D01*
X0089319Y0065096D02*
X0086681Y0065096D01*
X0079319Y0065096D02*
X0012472Y0065096D01*
X0012472Y0064698D02*
X0121630Y0064698D01*
X0121630Y0065096D02*
X0096681Y0065096D01*
X0097079Y0065495D02*
X0121630Y0065495D01*
X0121630Y0065893D02*
X0097334Y0065893D01*
X0097334Y0066292D02*
X0121630Y0066292D01*
X0121630Y0066690D02*
X0097334Y0066690D01*
X0097334Y0067089D02*
X0121630Y0067089D01*
X0121630Y0067487D02*
X0097334Y0067487D01*
X0097334Y0067886D02*
X0121630Y0067886D01*
X0121630Y0068284D02*
X0097334Y0068284D01*
X0097334Y0068683D02*
X0121630Y0068683D01*
X0121630Y0069081D02*
X0097334Y0069081D01*
X0097334Y0069480D02*
X0121630Y0069480D01*
X0121630Y0069878D02*
X0097334Y0069878D01*
X0097334Y0070277D02*
X0121630Y0070277D01*
X0121630Y0070675D02*
X0097334Y0070675D01*
X0097334Y0071074D02*
X0121630Y0071074D01*
X0121630Y0071472D02*
X0097334Y0071472D01*
X0097013Y0071871D02*
X0121630Y0071871D01*
X0121630Y0072269D02*
X0096615Y0072269D01*
X0095575Y0072668D02*
X0121630Y0072668D01*
X0121630Y0073066D02*
X0095575Y0073066D01*
X0095575Y0073465D02*
X0121630Y0073465D01*
X0121630Y0073863D02*
X0095575Y0073863D01*
X0095575Y0074262D02*
X0121630Y0074262D01*
X0121630Y0074660D02*
X0095575Y0074660D01*
X0095575Y0075059D02*
X0121630Y0075059D01*
X0121630Y0075457D02*
X0095575Y0075457D01*
X0095575Y0075856D02*
X0121630Y0075856D01*
X0121742Y0076254D02*
X0095575Y0076254D01*
X0095575Y0076653D02*
X0121907Y0076653D01*
X0122072Y0077051D02*
X0095575Y0077051D01*
X0095575Y0077450D02*
X0122455Y0077450D01*
X0122854Y0077848D02*
X0095575Y0077848D01*
X0095575Y0078247D02*
X0123724Y0078247D01*
X0128724Y0078645D02*
X0095575Y0078645D01*
X0089837Y0085022D02*
X0086163Y0085022D01*
X0086561Y0085420D02*
X0089439Y0085420D01*
X0089040Y0085819D02*
X0086960Y0085819D01*
X0087358Y0086217D02*
X0088642Y0086217D01*
X0088286Y0086616D02*
X0087714Y0086616D01*
X0087879Y0087014D02*
X0088121Y0087014D01*
X0093135Y0089007D02*
X0094099Y0089007D01*
X0094099Y0089405D02*
X0093075Y0089405D01*
X0093075Y0089804D02*
X0094099Y0089804D01*
X0094129Y0090202D02*
X0093075Y0090202D01*
X0093075Y0090601D02*
X0094528Y0090601D01*
X0094926Y0090999D02*
X0093075Y0090999D01*
X0093533Y0088608D02*
X0094099Y0088608D01*
X0094099Y0088210D02*
X0093932Y0088210D01*
X0080425Y0079442D02*
X0012472Y0079442D01*
X0012472Y0079044D02*
X0080425Y0079044D01*
X0080425Y0078645D02*
X0012472Y0078645D01*
X0012472Y0078247D02*
X0080425Y0078247D01*
X0080425Y0077848D02*
X0012472Y0077848D01*
X0012472Y0077450D02*
X0080425Y0077450D01*
X0080425Y0077051D02*
X0012472Y0077051D01*
X0012472Y0076653D02*
X0080425Y0076653D01*
X0080425Y0076254D02*
X0012472Y0076254D01*
X0012472Y0075856D02*
X0080425Y0075856D01*
X0080425Y0075457D02*
X0012472Y0075457D01*
X0012472Y0075059D02*
X0080425Y0075059D01*
X0080425Y0074660D02*
X0012472Y0074660D01*
X0012472Y0074262D02*
X0080425Y0074262D01*
X0080425Y0073863D02*
X0012472Y0073863D01*
X0012472Y0073465D02*
X0080425Y0073465D01*
X0080425Y0073066D02*
X0012472Y0073066D01*
X0012472Y0072668D02*
X0080425Y0072668D01*
X0079385Y0072269D02*
X0012472Y0072269D01*
X0012472Y0071871D02*
X0078987Y0071871D01*
X0078666Y0071472D02*
X0012472Y0071472D01*
X0012472Y0071074D02*
X0078666Y0071074D01*
X0078666Y0070675D02*
X0012472Y0070675D01*
X0012472Y0070277D02*
X0078666Y0070277D01*
X0078666Y0069878D02*
X0012472Y0069878D01*
X0012472Y0069480D02*
X0078666Y0069480D01*
X0078666Y0069081D02*
X0012472Y0069081D01*
X0012472Y0068683D02*
X0078666Y0068683D01*
X0078666Y0068284D02*
X0012472Y0068284D01*
X0012472Y0067886D02*
X0078666Y0067886D01*
X0078666Y0067487D02*
X0012472Y0067487D01*
X0012472Y0067089D02*
X0078666Y0067089D01*
X0078666Y0066690D02*
X0012472Y0066690D01*
X0012472Y0066292D02*
X0078666Y0066292D01*
X0078666Y0065893D02*
X0012472Y0065893D01*
X0012472Y0065495D02*
X0078921Y0065495D01*
X0057685Y0079841D02*
X0012472Y0079841D01*
X0012472Y0080239D02*
X0057286Y0080239D01*
X0056887Y0080638D02*
X0012472Y0080638D01*
X0012472Y0081037D02*
X0056698Y0081037D01*
X0056698Y0081435D02*
X0012472Y0081435D01*
X0012472Y0081834D02*
X0056698Y0081834D01*
X0056698Y0082232D02*
X0012472Y0082232D01*
X0012472Y0082631D02*
X0056698Y0082631D01*
X0056698Y0083029D02*
X0012472Y0083029D01*
X0012472Y0083428D02*
X0056698Y0083428D01*
X0056698Y0083826D02*
X0012472Y0083826D01*
X0012472Y0084225D02*
X0056698Y0084225D01*
X0056698Y0084623D02*
X0012472Y0084623D01*
X0012472Y0085022D02*
X0056698Y0085022D01*
X0056698Y0085420D02*
X0012472Y0085420D01*
X0012472Y0085819D02*
X0056698Y0085819D01*
X0056698Y0086217D02*
X0012472Y0086217D01*
X0012472Y0086616D02*
X0056698Y0086616D01*
X0056698Y0087014D02*
X0012472Y0087014D01*
X0012472Y0087413D02*
X0056698Y0087413D01*
X0056698Y0087811D02*
X0012472Y0087811D01*
X0012472Y0088210D02*
X0056698Y0088210D01*
X0056698Y0088608D02*
X0012472Y0088608D01*
X0012472Y0089007D02*
X0056698Y0089007D01*
X0056698Y0089405D02*
X0012472Y0089405D01*
X0012472Y0089804D02*
X0056698Y0089804D01*
X0056728Y0090202D02*
X0012472Y0090202D01*
X0012472Y0090601D02*
X0057126Y0090601D01*
X0057525Y0090999D02*
X0012472Y0090999D01*
X0012472Y0064299D02*
X0121630Y0064299D01*
X0121630Y0063901D02*
X0012472Y0063901D01*
X0012472Y0063502D02*
X0121630Y0063502D01*
X0121630Y0063103D02*
X0012472Y0063103D01*
X0012472Y0062705D02*
X0121630Y0062705D01*
X0121630Y0062306D02*
X0012472Y0062306D01*
X0012472Y0061908D02*
X0121630Y0061908D01*
X0121630Y0061509D02*
X0012472Y0061509D01*
X0012472Y0061111D02*
X0121630Y0061111D01*
X0121630Y0060712D02*
X0012472Y0060712D01*
X0012472Y0060314D02*
X0121630Y0060314D01*
X0121630Y0059915D02*
X0012472Y0059915D01*
X0012472Y0059517D02*
X0121630Y0059517D01*
X0121630Y0059118D02*
X0012472Y0059118D01*
X0012472Y0058720D02*
X0121630Y0058720D01*
X0121630Y0058321D02*
X0012472Y0058321D01*
X0012472Y0057923D02*
X0121630Y0057923D01*
X0121630Y0057524D02*
X0012472Y0057524D01*
X0012472Y0057126D02*
X0121630Y0057126D01*
X0121630Y0056727D02*
X0012472Y0056727D01*
X0012472Y0056329D02*
X0121630Y0056329D01*
X0121630Y0055930D02*
X0012472Y0055930D01*
X0012472Y0055532D02*
X0121630Y0055532D01*
X0121630Y0055133D02*
X0012472Y0055133D01*
X0012472Y0054735D02*
X0121630Y0054735D01*
X0121630Y0054336D02*
X0012472Y0054336D01*
X0012472Y0053938D02*
X0121630Y0053938D01*
X0121630Y0053539D02*
X0012472Y0053539D01*
X0012472Y0053141D02*
X0121630Y0053141D01*
X0121630Y0052742D02*
X0012472Y0052742D01*
X0012472Y0052344D02*
X0121630Y0052344D01*
X0121630Y0051945D02*
X0012472Y0051945D01*
X0012472Y0051547D02*
X0121630Y0051547D01*
X0121630Y0051148D02*
X0012472Y0051148D01*
X0012472Y0050750D02*
X0121630Y0050750D01*
X0121630Y0050351D02*
X0012472Y0050351D01*
X0012472Y0049953D02*
X0121630Y0049953D01*
X0121630Y0049554D02*
X0012472Y0049554D01*
X0012472Y0049156D02*
X0121630Y0049156D01*
X0121630Y0048757D02*
X0012472Y0048757D01*
X0012472Y0048359D02*
X0121630Y0048359D01*
X0121630Y0047960D02*
X0012472Y0047960D01*
X0012472Y0047562D02*
X0121630Y0047562D01*
X0121630Y0047163D02*
X0012472Y0047163D01*
X0012472Y0046765D02*
X0121630Y0046765D01*
X0121630Y0046366D02*
X0012472Y0046366D01*
X0012472Y0045968D02*
X0121630Y0045968D01*
X0121630Y0045569D02*
X0012472Y0045569D01*
X0012472Y0045170D02*
X0121630Y0045170D01*
X0121630Y0044772D02*
X0012472Y0044772D01*
X0012472Y0044373D02*
X0121630Y0044373D01*
X0121630Y0043975D02*
X0012472Y0043975D01*
X0012472Y0043576D02*
X0121630Y0043576D01*
X0121630Y0043178D02*
X0012472Y0043178D01*
X0012472Y0042779D02*
X0121630Y0042779D01*
X0121630Y0042381D02*
X0012472Y0042381D01*
X0012472Y0041982D02*
X0121630Y0041982D01*
X0121630Y0041584D02*
X0012472Y0041584D01*
X0012472Y0041185D02*
X0121630Y0041185D01*
X0121630Y0040787D02*
X0012472Y0040787D01*
X0012472Y0040388D02*
X0121630Y0040388D01*
X0121630Y0039990D02*
X0012472Y0039990D01*
X0012472Y0039591D02*
X0121630Y0039591D01*
X0121630Y0039193D02*
X0012472Y0039193D01*
X0012472Y0038794D02*
X0121630Y0038794D01*
X0121630Y0038396D02*
X0012472Y0038396D01*
X0012472Y0037997D02*
X0121630Y0037997D01*
X0121630Y0037599D02*
X0012472Y0037599D01*
X0012472Y0037200D02*
X0121630Y0037200D01*
X0121630Y0036802D02*
X0012472Y0036802D01*
X0012472Y0036403D02*
X0121630Y0036403D01*
X0121630Y0036005D02*
X0012472Y0036005D01*
X0012472Y0035606D02*
X0121630Y0035606D01*
X0121630Y0035208D02*
X0012472Y0035208D01*
X0012472Y0034809D02*
X0121630Y0034809D01*
X0121630Y0034411D02*
X0012472Y0034411D01*
X0012472Y0034012D02*
X0121630Y0034012D01*
X0121630Y0033614D02*
X0012472Y0033614D01*
X0012472Y0033215D02*
X0121630Y0033215D01*
X0121630Y0032817D02*
X0012472Y0032817D01*
X0012472Y0032418D02*
X0121630Y0032418D01*
X0121630Y0032020D02*
X0012472Y0032020D01*
X0012472Y0031621D02*
X0121625Y0031621D01*
X0121604Y0031223D02*
X0012472Y0031223D01*
X0012472Y0030824D02*
X0121719Y0030824D01*
X0121876Y0030426D02*
X0112135Y0030426D01*
X0113097Y0030027D02*
X0122046Y0030027D01*
X0122401Y0029629D02*
X0113548Y0029629D01*
X0113947Y0029230D02*
X0122764Y0029230D01*
X0123565Y0028832D02*
X0114345Y0028832D01*
X0114613Y0028433D02*
X0128795Y0028433D01*
X0131520Y0027636D02*
X0114943Y0027636D01*
X0114778Y0028034D02*
X0131627Y0028034D01*
X0131520Y0027237D02*
X0115108Y0027237D01*
X0115243Y0026839D02*
X0131520Y0026839D01*
X0131520Y0026440D02*
X0123986Y0026440D01*
X0124948Y0026042D02*
X0131520Y0026042D01*
X0131520Y0025643D02*
X0125385Y0025643D01*
X0122014Y0026440D02*
X0115243Y0026440D01*
X0115243Y0026042D02*
X0121052Y0026042D01*
X0120615Y0025643D02*
X0115243Y0025643D01*
X0115243Y0020064D02*
X0120907Y0020064D01*
X0121758Y0019666D02*
X0115243Y0019666D01*
X0115243Y0019267D02*
X0183257Y0019267D01*
X0183257Y0019666D02*
X0124242Y0019666D01*
X0125093Y0020064D02*
X0183257Y0020064D01*
X0183348Y0018869D02*
X0115152Y0018869D01*
X0114987Y0018470D02*
X0183513Y0018470D01*
X0183678Y0018072D02*
X0114822Y0018072D01*
X0114657Y0017673D02*
X0183843Y0017673D01*
X0184049Y0017275D02*
X0114451Y0017275D01*
X0114053Y0016876D02*
X0184447Y0016876D01*
X0184846Y0016478D02*
X0113654Y0016478D01*
X0113256Y0016079D02*
X0185244Y0016079D01*
X0186109Y0015681D02*
X0112391Y0015681D01*
X0106178Y0018072D02*
X0017331Y0018072D01*
X0017013Y0018470D02*
X0106013Y0018470D01*
X0105848Y0018869D02*
X0016696Y0018869D01*
X0016378Y0019267D02*
X0105757Y0019267D01*
X0105757Y0019666D02*
X0016060Y0019666D01*
X0015742Y0020064D02*
X0105757Y0020064D01*
X0105757Y0020463D02*
X0015424Y0020463D01*
X0015138Y0020861D02*
X0105757Y0020861D01*
X0105757Y0021260D02*
X0014946Y0021260D01*
X0014755Y0021658D02*
X0105757Y0021658D01*
X0105757Y0022057D02*
X0014563Y0022057D01*
X0014371Y0022455D02*
X0105757Y0022455D01*
X0105757Y0022854D02*
X0014179Y0022854D01*
X0013987Y0023252D02*
X0105757Y0023252D01*
X0105757Y0023651D02*
X0013795Y0023651D01*
X0013603Y0024049D02*
X0105757Y0024049D01*
X0105757Y0024448D02*
X0013440Y0024448D01*
X0013349Y0024846D02*
X0105757Y0024846D01*
X0105757Y0025245D02*
X0013258Y0025245D01*
X0013167Y0025643D02*
X0105757Y0025643D01*
X0105757Y0026042D02*
X0013076Y0026042D01*
X0012985Y0026440D02*
X0105757Y0026440D01*
X0105757Y0026839D02*
X0012894Y0026839D01*
X0012803Y0027237D02*
X0105892Y0027237D01*
X0106057Y0027636D02*
X0012712Y0027636D01*
X0012621Y0028034D02*
X0106222Y0028034D01*
X0106387Y0028433D02*
X0012570Y0028433D01*
X0012548Y0028832D02*
X0106655Y0028832D01*
X0107053Y0029230D02*
X0012525Y0029230D01*
X0012503Y0029629D02*
X0107452Y0029629D01*
X0107903Y0030027D02*
X0012481Y0030027D01*
X0012472Y0030426D02*
X0108865Y0030426D01*
X0127579Y0034809D02*
X0132388Y0034809D01*
X0131989Y0034411D02*
X0128416Y0034411D01*
X0127579Y0035208D02*
X0142030Y0035208D01*
X0142030Y0035606D02*
X0127579Y0035606D01*
X0127579Y0036005D02*
X0142030Y0036005D01*
X0142030Y0036403D02*
X0127579Y0036403D01*
X0127579Y0036802D02*
X0142030Y0036802D01*
X0132412Y0037200D02*
X0127579Y0037200D01*
X0127579Y0037599D02*
X0132013Y0037599D01*
X0131615Y0037997D02*
X0127579Y0037997D01*
X0127579Y0038396D02*
X0131520Y0038396D01*
X0131520Y0038794D02*
X0127579Y0038794D01*
X0127579Y0039193D02*
X0131520Y0039193D01*
X0131520Y0039591D02*
X0127579Y0039591D01*
X0127579Y0039990D02*
X0131520Y0039990D01*
X0131520Y0040388D02*
X0127579Y0040388D01*
X0127579Y0040787D02*
X0131520Y0040787D01*
X0131520Y0041185D02*
X0127579Y0041185D01*
X0127579Y0041584D02*
X0131520Y0041584D01*
X0131520Y0041982D02*
X0127579Y0041982D01*
X0127579Y0042381D02*
X0131520Y0042381D01*
X0131520Y0042779D02*
X0127579Y0042779D01*
X0127579Y0043178D02*
X0131520Y0043178D01*
X0131520Y0043576D02*
X0127579Y0043576D01*
X0127579Y0043975D02*
X0131603Y0043975D01*
X0132001Y0044373D02*
X0127579Y0044373D01*
X0127579Y0044772D02*
X0132400Y0044772D01*
X0127579Y0060314D02*
X0141643Y0060314D01*
X0142030Y0060712D02*
X0127579Y0060712D01*
X0127579Y0061111D02*
X0142030Y0061111D01*
X0149330Y0069480D02*
X0127579Y0069480D01*
X0127579Y0069878D02*
X0149342Y0069878D01*
X0149355Y0070277D02*
X0127579Y0070277D01*
X0127579Y0070675D02*
X0149367Y0070675D01*
X0149380Y0071074D02*
X0135621Y0071074D01*
X0128588Y0071074D02*
X0127579Y0071074D01*
X0127579Y0071472D02*
X0128189Y0071472D01*
X0127791Y0071871D02*
X0127579Y0071871D01*
X0127579Y0072269D02*
X0127770Y0072269D01*
X0150575Y0079442D02*
X0167544Y0079442D01*
X0167544Y0079044D02*
X0150765Y0079044D01*
X0151164Y0078645D02*
X0167544Y0078645D01*
X0167544Y0078247D02*
X0151202Y0078247D01*
X0150575Y0079841D02*
X0167544Y0079841D01*
X0167544Y0080239D02*
X0150575Y0080239D01*
X0150575Y0080638D02*
X0167544Y0080638D01*
X0167544Y0081037D02*
X0150575Y0081037D01*
X0150575Y0081435D02*
X0167544Y0081435D01*
X0167544Y0081834D02*
X0150575Y0081834D01*
X0150575Y0082232D02*
X0167544Y0082232D01*
X0167544Y0082631D02*
X0150575Y0082631D01*
X0150575Y0083029D02*
X0167544Y0083029D01*
X0167670Y0083428D02*
X0150575Y0083428D01*
X0150575Y0083826D02*
X0168068Y0083826D01*
X0167544Y0077848D02*
X0153177Y0077848D01*
X0153805Y0077450D02*
X0167544Y0077450D01*
X0167544Y0077051D02*
X0154194Y0077051D01*
X0154415Y0076653D02*
X0167544Y0076653D01*
X0167544Y0076254D02*
X0154573Y0076254D01*
X0154681Y0075856D02*
X0167544Y0075856D01*
X0167544Y0075457D02*
X0154669Y0075457D01*
X0154669Y0075059D02*
X0167544Y0075059D01*
X0167544Y0074660D02*
X0154644Y0074660D01*
X0154631Y0074262D02*
X0167544Y0074262D01*
X0167544Y0073863D02*
X0154619Y0073863D01*
X0154607Y0073465D02*
X0167544Y0073465D01*
X0167648Y0073066D02*
X0154594Y0073066D01*
X0154582Y0072668D02*
X0168047Y0072668D01*
X0168445Y0072269D02*
X0154569Y0072269D01*
X0219725Y0117700D02*
X0223015Y0117700D01*
X0222616Y0118098D02*
X0219725Y0118098D01*
X0219725Y0118497D02*
X0222218Y0118497D01*
X0222131Y0118895D02*
X0219725Y0118895D01*
X0219725Y0119294D02*
X0222131Y0119294D01*
X0222131Y0119692D02*
X0219725Y0119692D01*
X0219725Y0120091D02*
X0222131Y0120091D01*
X0222131Y0120489D02*
X0219725Y0120489D01*
X0219725Y0120888D02*
X0222131Y0120888D01*
X0222131Y0121286D02*
X0219725Y0121286D01*
X0219725Y0121685D02*
X0222131Y0121685D01*
X0222131Y0122083D02*
X0219725Y0122083D01*
X0219725Y0122482D02*
X0222196Y0122482D01*
X0222595Y0122880D02*
X0219725Y0122880D01*
X0219725Y0123279D02*
X0222993Y0123279D01*
X0231340Y0140415D02*
X0303804Y0140415D01*
X0303804Y0140813D02*
X0231340Y0140813D01*
X0231340Y0141212D02*
X0303804Y0141212D01*
X0303804Y0141610D02*
X0231340Y0141610D01*
X0231340Y0142009D02*
X0303804Y0142009D01*
X0303804Y0142407D02*
X0231340Y0142407D01*
X0231340Y0142806D02*
X0303804Y0142806D01*
X0303804Y0143204D02*
X0231340Y0143204D01*
X0231340Y0143603D02*
X0303804Y0143603D01*
X0303804Y0144001D02*
X0231340Y0144001D01*
X0231340Y0144400D02*
X0303804Y0144400D01*
X0303804Y0144798D02*
X0231340Y0144798D01*
X0231340Y0145197D02*
X0303804Y0145197D01*
X0303804Y0145595D02*
X0231340Y0145595D01*
X0231340Y0145994D02*
X0303804Y0145994D01*
X0303804Y0146392D02*
X0231242Y0146392D01*
X0231211Y0146791D02*
X0303804Y0146791D01*
X0303804Y0147189D02*
X0231211Y0147189D01*
X0231211Y0147588D02*
X0303804Y0147588D01*
X0303804Y0147986D02*
X0231211Y0147986D01*
X0231211Y0148385D02*
X0303804Y0148385D01*
X0303804Y0148783D02*
X0231211Y0148783D01*
X0231211Y0149182D02*
X0303804Y0149182D01*
X0303804Y0149580D02*
X0231211Y0149580D01*
X0231211Y0149979D02*
X0303804Y0149979D01*
X0303804Y0150377D02*
X0231211Y0150377D01*
X0231211Y0150776D02*
X0303804Y0150776D01*
X0303804Y0151174D02*
X0255308Y0151174D01*
X0255707Y0151573D02*
X0303804Y0151573D01*
X0303804Y0151972D02*
X0256105Y0151972D01*
X0256340Y0152370D02*
X0303804Y0152370D01*
X0303804Y0152769D02*
X0256340Y0152769D01*
X0256340Y0158348D02*
X0262623Y0158348D01*
X0262378Y0158746D02*
X0256340Y0158746D01*
X0255989Y0159145D02*
X0262212Y0159145D01*
X0262047Y0159543D02*
X0255591Y0159543D01*
X0261944Y0159942D02*
X0188475Y0159942D01*
X0188475Y0160340D02*
X0261944Y0160340D01*
X0261944Y0160739D02*
X0188475Y0160739D01*
X0188475Y0161137D02*
X0261944Y0161137D01*
X0262080Y0161536D02*
X0188475Y0161536D01*
X0188475Y0161934D02*
X0262245Y0161934D01*
X0262410Y0162333D02*
X0188475Y0162333D01*
X0188475Y0162731D02*
X0262703Y0162731D01*
X0262925Y0163130D02*
X0188475Y0163130D01*
X0188475Y0163528D02*
X0262925Y0163528D01*
X0262925Y0163927D02*
X0188475Y0163927D01*
X0188475Y0164325D02*
X0262925Y0164325D01*
X0262925Y0164724D02*
X0188475Y0164724D01*
X0188475Y0165122D02*
X0262925Y0165122D01*
X0262925Y0165521D02*
X0188475Y0165521D01*
X0188475Y0165919D02*
X0262925Y0165919D01*
X0262925Y0166318D02*
X0188475Y0166318D01*
X0188475Y0166716D02*
X0262925Y0166716D01*
X0262925Y0167115D02*
X0188475Y0167115D01*
X0188475Y0167513D02*
X0262925Y0167513D01*
X0262925Y0167912D02*
X0188475Y0167912D01*
X0188475Y0168310D02*
X0262925Y0168310D01*
X0262925Y0168709D02*
X0188475Y0168709D01*
X0188475Y0169108D02*
X0262925Y0169108D01*
X0262925Y0169506D02*
X0188475Y0169506D01*
X0188475Y0169905D02*
X0262925Y0169905D01*
X0262925Y0170303D02*
X0188475Y0170303D01*
X0188475Y0170702D02*
X0262925Y0170702D01*
X0262925Y0171100D02*
X0188475Y0171100D01*
X0188475Y0171499D02*
X0262925Y0171499D01*
X0262821Y0171897D02*
X0188475Y0171897D01*
X0188475Y0172296D02*
X0261859Y0172296D01*
X0261460Y0172694D02*
X0188475Y0172694D01*
X0188475Y0173093D02*
X0261062Y0173093D01*
X0260663Y0173491D02*
X0188475Y0173491D01*
X0188475Y0173890D02*
X0260264Y0173890D01*
X0259866Y0174288D02*
X0188475Y0174288D01*
X0188475Y0174687D02*
X0259602Y0174687D01*
X0259437Y0175085D02*
X0188475Y0175085D01*
X0188475Y0175484D02*
X0259272Y0175484D01*
X0259107Y0175882D02*
X0188475Y0175882D01*
X0188475Y0176281D02*
X0258942Y0176281D01*
X0258777Y0176679D02*
X0188475Y0176679D01*
X0188475Y0177078D02*
X0258612Y0177078D01*
X0258528Y0177476D02*
X0188475Y0177476D01*
X0188475Y0177875D02*
X0258528Y0177875D01*
X0258528Y0178273D02*
X0188475Y0178273D01*
X0188475Y0178672D02*
X0258528Y0178672D01*
X0258528Y0179070D02*
X0188475Y0179070D01*
X0188475Y0179469D02*
X0258528Y0179469D01*
X0258528Y0179867D02*
X0188475Y0179867D01*
X0188475Y0180266D02*
X0258528Y0180266D01*
X0258528Y0180664D02*
X0188475Y0180664D01*
X0188475Y0181063D02*
X0258528Y0181063D01*
X0258528Y0181461D02*
X0188322Y0181461D01*
X0188157Y0181860D02*
X0258528Y0181860D01*
X0258528Y0182258D02*
X0187949Y0182258D01*
X0187550Y0182657D02*
X0258528Y0182657D01*
X0258528Y0183055D02*
X0187104Y0183055D01*
X0186142Y0183454D02*
X0258528Y0183454D01*
X0258528Y0183852D02*
X0012472Y0183852D01*
X0012472Y0183454D02*
X0154996Y0183454D01*
X0154034Y0183055D02*
X0012472Y0183055D01*
X0012472Y0182657D02*
X0153588Y0182657D01*
X0153189Y0182258D02*
X0012472Y0182258D01*
X0012472Y0181860D02*
X0152981Y0181860D01*
X0152816Y0181461D02*
X0012472Y0181461D01*
X0012472Y0181063D02*
X0152663Y0181063D01*
X0152663Y0180664D02*
X0012472Y0180664D01*
X0012472Y0180266D02*
X0152663Y0180266D01*
X0152663Y0179867D02*
X0012472Y0179867D01*
X0012472Y0179469D02*
X0152663Y0179469D01*
X0152663Y0179070D02*
X0012472Y0179070D01*
X0012472Y0178672D02*
X0152663Y0178672D01*
X0152663Y0178273D02*
X0012472Y0178273D01*
X0012472Y0177875D02*
X0152663Y0177875D01*
X0152663Y0177476D02*
X0012472Y0177476D01*
X0012472Y0177078D02*
X0152663Y0177078D01*
X0152663Y0176679D02*
X0012472Y0176679D01*
X0012472Y0176281D02*
X0152663Y0176281D01*
X0152663Y0175882D02*
X0012472Y0175882D01*
X0012472Y0175484D02*
X0152663Y0175484D01*
X0152663Y0175085D02*
X0012472Y0175085D01*
X0012472Y0174687D02*
X0152663Y0174687D01*
X0152663Y0174288D02*
X0012472Y0174288D01*
X0012472Y0173890D02*
X0139301Y0173890D01*
X0138373Y0173491D02*
X0012472Y0173491D01*
X0012472Y0173093D02*
X0137975Y0173093D01*
X0137576Y0172694D02*
X0012472Y0172694D01*
X0012472Y0172296D02*
X0137240Y0172296D01*
X0137075Y0171897D02*
X0012472Y0171897D01*
X0012472Y0171499D02*
X0136910Y0171499D01*
X0136745Y0171100D02*
X0012472Y0171100D01*
X0012472Y0170702D02*
X0136682Y0170702D01*
X0136682Y0170303D02*
X0012472Y0170303D01*
X0012472Y0169905D02*
X0136682Y0169905D01*
X0136682Y0169506D02*
X0012472Y0169506D01*
X0012472Y0169108D02*
X0136682Y0169108D01*
X0136682Y0168709D02*
X0012472Y0168709D01*
X0012472Y0168310D02*
X0136682Y0168310D01*
X0136682Y0167912D02*
X0012472Y0167912D01*
X0012472Y0167513D02*
X0136682Y0167513D01*
X0136682Y0167115D02*
X0012472Y0167115D01*
X0012472Y0166716D02*
X0136682Y0166716D01*
X0136682Y0166318D02*
X0012472Y0166318D01*
X0012472Y0165919D02*
X0136682Y0165919D01*
X0136682Y0165521D02*
X0012472Y0165521D01*
X0012472Y0165122D02*
X0136682Y0165122D01*
X0136801Y0164724D02*
X0012472Y0164724D01*
X0012472Y0164325D02*
X0136966Y0164325D01*
X0137131Y0163927D02*
X0012472Y0163927D01*
X0012472Y0184251D02*
X0258528Y0184251D01*
X0258528Y0184649D02*
X0012472Y0184649D01*
X0012472Y0185048D02*
X0258528Y0185048D01*
X0258528Y0185446D02*
X0012472Y0185446D01*
X0012472Y0185845D02*
X0258528Y0185845D01*
X0258528Y0186243D02*
X0012472Y0186243D01*
X0012472Y0186642D02*
X0258528Y0186642D01*
X0258528Y0187041D02*
X0012472Y0187041D01*
X0012472Y0187439D02*
X0258528Y0187439D01*
X0258528Y0187838D02*
X0012472Y0187838D01*
X0012472Y0188236D02*
X0258528Y0188236D01*
X0258528Y0188635D02*
X0012472Y0188635D01*
X0012472Y0189033D02*
X0258528Y0189033D01*
X0258528Y0189432D02*
X0012472Y0189432D01*
X0012472Y0189830D02*
X0258528Y0189830D01*
X0258528Y0190229D02*
X0012472Y0190229D01*
X0012472Y0190627D02*
X0258528Y0190627D01*
X0258528Y0191026D02*
X0012472Y0191026D01*
X0012472Y0191424D02*
X0258528Y0191424D01*
X0258528Y0191823D02*
X0012472Y0191823D01*
X0012472Y0192221D02*
X0258560Y0192221D01*
X0258725Y0192620D02*
X0012472Y0192620D01*
X0012472Y0193018D02*
X0258890Y0193018D01*
X0259055Y0193417D02*
X0012472Y0193417D01*
X0012472Y0193815D02*
X0259220Y0193815D01*
X0259385Y0194214D02*
X0012472Y0194214D01*
X0012472Y0194612D02*
X0259550Y0194612D01*
X0259740Y0195011D02*
X0012472Y0195011D01*
X0012472Y0195409D02*
X0260138Y0195409D01*
X0260537Y0195808D02*
X0012472Y0195808D01*
X0012472Y0196206D02*
X0260935Y0196206D01*
X0261334Y0196605D02*
X0012472Y0196605D01*
X0012472Y0197003D02*
X0261732Y0197003D01*
X0262516Y0197402D02*
X0012472Y0197402D01*
X0012472Y0197800D02*
X0263478Y0197800D01*
X0264441Y0198199D02*
X0012472Y0198199D01*
X0012472Y0198597D02*
X0303804Y0198597D01*
X0303804Y0198199D02*
X0267977Y0198199D01*
X0268939Y0197800D02*
X0303804Y0197800D01*
X0303804Y0197402D02*
X0269901Y0197402D01*
X0270685Y0197003D02*
X0303804Y0197003D01*
X0303804Y0196605D02*
X0271084Y0196605D01*
X0271482Y0196206D02*
X0303804Y0196206D01*
X0303804Y0195808D02*
X0271881Y0195808D01*
X0272279Y0195409D02*
X0303804Y0195409D01*
X0303804Y0195011D02*
X0272678Y0195011D01*
X0272867Y0194612D02*
X0303804Y0194612D01*
X0303804Y0194214D02*
X0273032Y0194214D01*
X0273197Y0193815D02*
X0303804Y0193815D01*
X0303804Y0193417D02*
X0273363Y0193417D01*
X0273528Y0193018D02*
X0303804Y0193018D01*
X0303804Y0192620D02*
X0273693Y0192620D01*
X0273858Y0192221D02*
X0303804Y0192221D01*
X0303804Y0191823D02*
X0273889Y0191823D01*
X0273889Y0191424D02*
X0303804Y0191424D01*
X0303804Y0191026D02*
X0273889Y0191026D01*
X0273889Y0190627D02*
X0303804Y0190627D01*
X0303804Y0190229D02*
X0273889Y0190229D01*
X0273889Y0189830D02*
X0303804Y0189830D01*
X0303804Y0189432D02*
X0273889Y0189432D01*
X0273889Y0189033D02*
X0303804Y0189033D01*
X0303804Y0188635D02*
X0273889Y0188635D01*
X0273889Y0188236D02*
X0303804Y0188236D01*
X0303804Y0187838D02*
X0273889Y0187838D01*
X0273889Y0187439D02*
X0303804Y0187439D01*
X0303804Y0187041D02*
X0273889Y0187041D01*
X0273889Y0186642D02*
X0303804Y0186642D01*
X0303804Y0186243D02*
X0273889Y0186243D01*
X0273889Y0185845D02*
X0303804Y0185845D01*
X0303804Y0185446D02*
X0273889Y0185446D01*
X0273889Y0185048D02*
X0303804Y0185048D01*
X0303804Y0184649D02*
X0273889Y0184649D01*
X0273889Y0184251D02*
X0303804Y0184251D01*
X0303804Y0183852D02*
X0273889Y0183852D01*
X0273889Y0183454D02*
X0303804Y0183454D01*
X0303804Y0183055D02*
X0273889Y0183055D01*
X0273889Y0182657D02*
X0303804Y0182657D01*
X0303804Y0182258D02*
X0273889Y0182258D01*
X0273889Y0181860D02*
X0303804Y0181860D01*
X0303804Y0181461D02*
X0273889Y0181461D01*
X0273889Y0181063D02*
X0303804Y0181063D01*
X0303804Y0180664D02*
X0273889Y0180664D01*
X0273889Y0180266D02*
X0303804Y0180266D01*
X0303804Y0179867D02*
X0273889Y0179867D01*
X0273889Y0179469D02*
X0303804Y0179469D01*
X0303804Y0179070D02*
X0273889Y0179070D01*
X0273889Y0178672D02*
X0303804Y0178672D01*
X0303804Y0178273D02*
X0273889Y0178273D01*
X0273889Y0177875D02*
X0303804Y0177875D01*
X0303804Y0177476D02*
X0273889Y0177476D01*
X0273805Y0177078D02*
X0303804Y0177078D01*
X0303804Y0176679D02*
X0273640Y0176679D01*
X0273475Y0176281D02*
X0303804Y0176281D01*
X0303804Y0175882D02*
X0273310Y0175882D01*
X0273145Y0175484D02*
X0303804Y0175484D01*
X0303804Y0175085D02*
X0272980Y0175085D01*
X0272815Y0174687D02*
X0303804Y0174687D01*
X0303804Y0174288D02*
X0272551Y0174288D01*
X0272153Y0173890D02*
X0303804Y0173890D01*
X0303804Y0173491D02*
X0271754Y0173491D01*
X0271356Y0173093D02*
X0303804Y0173093D01*
X0303804Y0172694D02*
X0270957Y0172694D01*
X0270558Y0172296D02*
X0303804Y0172296D01*
X0303804Y0171897D02*
X0269596Y0171897D01*
X0268634Y0171499D02*
X0303804Y0171499D01*
X0303804Y0171100D02*
X0268075Y0171100D01*
X0268075Y0170702D02*
X0303804Y0170702D01*
X0303804Y0170303D02*
X0268075Y0170303D01*
X0268075Y0169905D02*
X0303804Y0169905D01*
X0303804Y0169506D02*
X0268075Y0169506D01*
X0268075Y0169108D02*
X0303804Y0169108D01*
X0303804Y0168709D02*
X0268075Y0168709D01*
X0268075Y0168310D02*
X0303804Y0168310D01*
X0303804Y0167912D02*
X0268075Y0167912D01*
X0268075Y0167513D02*
X0303804Y0167513D01*
X0303804Y0167115D02*
X0268075Y0167115D01*
X0268075Y0166716D02*
X0303804Y0166716D01*
X0303804Y0166318D02*
X0268075Y0166318D01*
X0268075Y0165919D02*
X0303804Y0165919D01*
X0303804Y0165521D02*
X0268075Y0165521D01*
X0268075Y0165122D02*
X0303804Y0165122D01*
X0303804Y0164724D02*
X0268075Y0164724D01*
X0268075Y0164325D02*
X0303804Y0164325D01*
X0303804Y0163927D02*
X0268075Y0163927D01*
X0268075Y0163528D02*
X0303804Y0163528D01*
X0303804Y0163130D02*
X0268075Y0163130D01*
X0268297Y0162731D02*
X0303804Y0162731D01*
X0303804Y0162333D02*
X0268590Y0162333D01*
X0268755Y0161934D02*
X0303804Y0161934D01*
X0303804Y0161536D02*
X0268920Y0161536D01*
X0269056Y0161137D02*
X0303804Y0161137D01*
X0303804Y0160739D02*
X0269056Y0160739D01*
X0269056Y0160340D02*
X0303804Y0160340D01*
X0303804Y0159942D02*
X0269056Y0159942D01*
X0268953Y0159543D02*
X0303804Y0159543D01*
X0303804Y0159145D02*
X0268788Y0159145D01*
X0268622Y0158746D02*
X0303804Y0158746D01*
X0303804Y0158348D02*
X0268377Y0158348D01*
X0268075Y0157949D02*
X0303804Y0157949D01*
X0303804Y0157551D02*
X0268075Y0157551D01*
X0268075Y0157152D02*
X0303804Y0157152D01*
X0303804Y0156754D02*
X0268075Y0156754D01*
X0268075Y0156355D02*
X0303804Y0156355D01*
X0303804Y0155957D02*
X0268075Y0155957D01*
X0268075Y0155558D02*
X0303804Y0155558D01*
X0303804Y0155160D02*
X0268075Y0155160D01*
X0267981Y0154761D02*
X0303804Y0154761D01*
X0303804Y0154363D02*
X0267816Y0154363D01*
X0267605Y0153964D02*
X0303804Y0153964D01*
X0303804Y0153566D02*
X0267207Y0153566D01*
X0266596Y0153167D02*
X0303804Y0153167D01*
X0303804Y0134437D02*
X0271947Y0134437D01*
X0272345Y0134039D02*
X0303804Y0134039D01*
X0303804Y0133640D02*
X0272590Y0133640D01*
X0272590Y0133241D02*
X0303804Y0133241D01*
X0303804Y0132843D02*
X0272590Y0132843D01*
X0272590Y0132444D02*
X0303804Y0132444D01*
X0303804Y0132046D02*
X0272590Y0132046D01*
X0272590Y0131647D02*
X0303804Y0131647D01*
X0303804Y0131249D02*
X0272590Y0131249D01*
X0272590Y0130850D02*
X0303804Y0130850D01*
X0303804Y0130452D02*
X0272590Y0130452D01*
X0272590Y0130053D02*
X0303804Y0130053D01*
X0303804Y0129655D02*
X0272590Y0129655D01*
X0272590Y0129256D02*
X0303804Y0129256D01*
X0303804Y0128858D02*
X0272590Y0128858D01*
X0272590Y0128459D02*
X0303804Y0128459D01*
X0303804Y0128061D02*
X0272590Y0128061D01*
X0272590Y0127662D02*
X0303804Y0127662D01*
X0303804Y0127264D02*
X0272590Y0127264D01*
X0272249Y0126865D02*
X0303804Y0126865D01*
X0303804Y0126467D02*
X0271851Y0126467D01*
X0271529Y0126068D02*
X0303804Y0126068D01*
X0303804Y0125670D02*
X0271556Y0125670D01*
X0271583Y0125271D02*
X0303804Y0125271D01*
X0303804Y0124873D02*
X0271610Y0124873D01*
X0273839Y0124474D02*
X0303804Y0124474D01*
X0303804Y0124076D02*
X0277850Y0124076D01*
X0278464Y0123677D02*
X0303804Y0123677D01*
X0303804Y0123279D02*
X0278863Y0123279D01*
X0279261Y0122880D02*
X0303804Y0122880D01*
X0303804Y0122482D02*
X0279660Y0122482D01*
X0280058Y0122083D02*
X0303804Y0122083D01*
X0303804Y0121685D02*
X0280457Y0121685D01*
X0280855Y0121286D02*
X0303804Y0121286D01*
X0303804Y0120888D02*
X0281254Y0120888D01*
X0281652Y0120489D02*
X0303804Y0120489D01*
X0303804Y0120091D02*
X0282051Y0120091D01*
X0282449Y0119692D02*
X0303804Y0119692D01*
X0303804Y0119294D02*
X0282751Y0119294D01*
X0282916Y0118895D02*
X0303804Y0118895D01*
X0303804Y0118497D02*
X0283075Y0118497D01*
X0283075Y0118098D02*
X0303804Y0118098D01*
X0303804Y0117700D02*
X0283075Y0117700D01*
X0283075Y0117301D02*
X0303804Y0117301D01*
X0303804Y0116903D02*
X0283075Y0116903D01*
X0283075Y0116504D02*
X0303804Y0116504D01*
X0303804Y0116105D02*
X0283075Y0116105D01*
X0283075Y0115707D02*
X0303804Y0115707D01*
X0303804Y0115308D02*
X0283075Y0115308D01*
X0283075Y0114910D02*
X0303804Y0114910D01*
X0303804Y0114511D02*
X0283075Y0114511D01*
X0283075Y0114113D02*
X0303804Y0114113D01*
X0303804Y0113714D02*
X0283075Y0113714D01*
X0283075Y0113316D02*
X0303804Y0113316D01*
X0303804Y0112917D02*
X0283075Y0112917D01*
X0283865Y0112519D02*
X0303804Y0112519D01*
X0303804Y0112120D02*
X0284264Y0112120D01*
X0284662Y0111722D02*
X0303804Y0111722D01*
X0303804Y0111323D02*
X0284834Y0111323D01*
X0284834Y0110925D02*
X0303804Y0110925D01*
X0303804Y0110526D02*
X0284834Y0110526D01*
X0284834Y0110128D02*
X0303804Y0110128D01*
X0303804Y0109729D02*
X0284834Y0109729D01*
X0284834Y0109331D02*
X0303804Y0109331D01*
X0303804Y0108932D02*
X0284834Y0108932D01*
X0284834Y0108534D02*
X0303804Y0108534D01*
X0303804Y0108135D02*
X0284834Y0108135D01*
X0284834Y0107737D02*
X0303804Y0107737D01*
X0303804Y0107338D02*
X0284834Y0107338D01*
X0284834Y0106940D02*
X0303804Y0106940D01*
X0303804Y0106541D02*
X0284834Y0106541D01*
X0284834Y0106143D02*
X0303804Y0106143D01*
X0303804Y0105744D02*
X0284829Y0105744D01*
X0284739Y0105346D02*
X0303804Y0105346D01*
X0303804Y0104947D02*
X0284834Y0104947D01*
X0284834Y0104549D02*
X0303804Y0104549D01*
X0303804Y0104150D02*
X0284834Y0104150D01*
X0284834Y0103752D02*
X0303804Y0103752D01*
X0303804Y0103353D02*
X0284834Y0103353D01*
X0284834Y0102955D02*
X0303804Y0102955D01*
X0303804Y0102556D02*
X0284834Y0102556D01*
X0284834Y0102158D02*
X0303804Y0102158D01*
X0303804Y0101759D02*
X0284834Y0101759D01*
X0284834Y0101361D02*
X0303804Y0101361D01*
X0303804Y0100962D02*
X0284834Y0100962D01*
X0284834Y0100564D02*
X0303804Y0100564D01*
X0303804Y0100165D02*
X0284834Y0100165D01*
X0284834Y0099767D02*
X0303804Y0099767D01*
X0303804Y0099368D02*
X0284752Y0099368D01*
X0284353Y0098970D02*
X0303804Y0098970D01*
X0303804Y0098571D02*
X0283955Y0098571D01*
X0283075Y0098172D02*
X0303804Y0098172D01*
X0303804Y0097774D02*
X0283075Y0097774D01*
X0283075Y0097375D02*
X0303804Y0097375D01*
X0303804Y0096977D02*
X0283075Y0096977D01*
X0283075Y0096578D02*
X0303804Y0096578D01*
X0303804Y0096180D02*
X0283075Y0096180D01*
X0283075Y0095781D02*
X0303804Y0095781D01*
X0303804Y0095383D02*
X0283075Y0095383D01*
X0283075Y0094984D02*
X0303804Y0094984D01*
X0303804Y0094586D02*
X0283075Y0094586D01*
X0283075Y0094187D02*
X0303804Y0094187D01*
X0303804Y0093789D02*
X0283075Y0093789D01*
X0283075Y0093390D02*
X0303804Y0093390D01*
X0303804Y0092992D02*
X0283075Y0092992D01*
X0283075Y0092593D02*
X0303804Y0092593D01*
X0303804Y0092195D02*
X0283075Y0092195D01*
X0283075Y0091796D02*
X0303804Y0091796D01*
X0303804Y0091398D02*
X0283075Y0091398D01*
X0283075Y0090999D02*
X0303804Y0090999D01*
X0303804Y0090601D02*
X0283075Y0090601D01*
X0283075Y0090202D02*
X0303804Y0090202D01*
X0303804Y0089804D02*
X0282999Y0089804D01*
X0282833Y0089405D02*
X0303804Y0089405D01*
X0303804Y0089007D02*
X0282648Y0089007D01*
X0282250Y0088608D02*
X0303804Y0088608D01*
X0303804Y0088210D02*
X0281851Y0088210D01*
X0281453Y0087811D02*
X0303804Y0087811D01*
X0303804Y0087413D02*
X0281054Y0087413D01*
X0280655Y0087014D02*
X0303804Y0087014D01*
X0303804Y0086616D02*
X0280257Y0086616D01*
X0279858Y0086217D02*
X0303804Y0086217D01*
X0303804Y0085819D02*
X0279460Y0085819D01*
X0279061Y0085420D02*
X0303804Y0085420D01*
X0303804Y0085022D02*
X0278663Y0085022D01*
X0278264Y0084623D02*
X0303804Y0084623D01*
X0303804Y0084225D02*
X0277381Y0084225D01*
X0276261Y0083826D02*
X0303804Y0083826D01*
X0303804Y0083428D02*
X0276261Y0083428D01*
X0276261Y0083029D02*
X0303804Y0083029D01*
X0303804Y0082631D02*
X0276261Y0082631D01*
X0276261Y0082232D02*
X0303804Y0082232D01*
X0303804Y0081834D02*
X0276261Y0081834D01*
X0276261Y0081435D02*
X0303804Y0081435D01*
X0303804Y0081037D02*
X0276261Y0081037D01*
X0276261Y0080638D02*
X0303804Y0080638D01*
X0303804Y0080239D02*
X0276261Y0080239D01*
X0276261Y0079841D02*
X0303804Y0079841D01*
X0303804Y0079442D02*
X0276261Y0079442D01*
X0276261Y0079044D02*
X0303804Y0079044D01*
X0303804Y0078645D02*
X0276261Y0078645D01*
X0276261Y0078247D02*
X0303804Y0078247D01*
X0303804Y0077848D02*
X0276261Y0077848D01*
X0276261Y0077450D02*
X0303804Y0077450D01*
X0303804Y0077051D02*
X0276048Y0077051D01*
X0275649Y0076653D02*
X0303804Y0076653D01*
X0303804Y0076254D02*
X0275251Y0076254D01*
X0274896Y0075856D02*
X0303804Y0075856D01*
X0303804Y0075457D02*
X0274896Y0075457D01*
X0274896Y0075059D02*
X0303804Y0075059D01*
X0303804Y0074660D02*
X0274896Y0074660D01*
X0274896Y0074262D02*
X0303804Y0074262D01*
X0303804Y0073863D02*
X0274896Y0073863D01*
X0274896Y0073465D02*
X0303804Y0073465D01*
X0303804Y0073066D02*
X0274896Y0073066D01*
X0274896Y0072668D02*
X0303804Y0072668D01*
X0303804Y0072269D02*
X0274896Y0072269D01*
X0274896Y0071871D02*
X0303804Y0071871D01*
X0303804Y0071472D02*
X0274896Y0071472D01*
X0274896Y0071074D02*
X0303804Y0071074D01*
X0303804Y0070675D02*
X0274896Y0070675D01*
X0274896Y0070277D02*
X0303804Y0070277D01*
X0303804Y0069878D02*
X0274896Y0069878D01*
X0274896Y0069480D02*
X0303804Y0069480D01*
X0303804Y0069081D02*
X0274896Y0069081D01*
X0274896Y0068683D02*
X0303804Y0068683D01*
X0303804Y0068284D02*
X0275580Y0068284D01*
X0275979Y0067886D02*
X0303804Y0067886D01*
X0303804Y0067487D02*
X0276261Y0067487D01*
X0276261Y0067089D02*
X0303804Y0067089D01*
X0303804Y0066690D02*
X0276261Y0066690D01*
X0276261Y0066292D02*
X0303804Y0066292D01*
X0303804Y0065893D02*
X0276261Y0065893D01*
X0276261Y0065495D02*
X0303804Y0065495D01*
X0303804Y0065096D02*
X0276261Y0065096D01*
X0276261Y0064698D02*
X0303804Y0064698D01*
X0303804Y0064299D02*
X0276261Y0064299D01*
X0276261Y0063901D02*
X0303804Y0063901D01*
X0303804Y0063502D02*
X0276261Y0063502D01*
X0276261Y0063103D02*
X0303804Y0063103D01*
X0303804Y0062705D02*
X0276261Y0062705D01*
X0276261Y0062306D02*
X0303804Y0062306D01*
X0303804Y0061908D02*
X0276261Y0061908D01*
X0276261Y0061509D02*
X0303804Y0061509D01*
X0303804Y0061111D02*
X0276261Y0061111D01*
X0275959Y0060712D02*
X0303804Y0060712D01*
X0303804Y0060314D02*
X0275560Y0060314D01*
X0271021Y0059915D02*
X0303804Y0059915D01*
X0303804Y0059517D02*
X0262954Y0059517D01*
X0262954Y0059118D02*
X0303804Y0059118D01*
X0303804Y0058720D02*
X0262686Y0058720D01*
X0265543Y0058321D02*
X0303804Y0058321D01*
X0303804Y0057923D02*
X0265941Y0057923D01*
X0266261Y0057524D02*
X0303804Y0057524D01*
X0303804Y0057126D02*
X0266261Y0057126D01*
X0266261Y0056727D02*
X0303804Y0056727D01*
X0303804Y0056329D02*
X0266261Y0056329D01*
X0266261Y0055930D02*
X0303804Y0055930D01*
X0303804Y0055532D02*
X0266261Y0055532D01*
X0266261Y0055133D02*
X0303804Y0055133D01*
X0303804Y0054735D02*
X0266261Y0054735D01*
X0266261Y0054336D02*
X0303804Y0054336D01*
X0303804Y0053938D02*
X0266261Y0053938D01*
X0266261Y0053539D02*
X0303804Y0053539D01*
X0303804Y0053141D02*
X0266261Y0053141D01*
X0266261Y0052742D02*
X0303804Y0052742D01*
X0303804Y0052344D02*
X0266261Y0052344D01*
X0266261Y0051945D02*
X0303804Y0051945D01*
X0303804Y0051547D02*
X0266261Y0051547D01*
X0266261Y0051148D02*
X0303804Y0051148D01*
X0303804Y0050750D02*
X0265996Y0050750D01*
X0265597Y0050351D02*
X0303804Y0050351D01*
X0303804Y0049953D02*
X0264896Y0049953D01*
X0265560Y0049554D02*
X0303804Y0049554D01*
X0303804Y0049156D02*
X0265959Y0049156D01*
X0266261Y0048757D02*
X0303804Y0048757D01*
X0303804Y0048359D02*
X0266261Y0048359D01*
X0266261Y0047960D02*
X0303804Y0047960D01*
X0303804Y0047562D02*
X0266261Y0047562D01*
X0266261Y0047163D02*
X0303804Y0047163D01*
X0303804Y0046765D02*
X0266261Y0046765D01*
X0266261Y0046366D02*
X0303804Y0046366D01*
X0303804Y0045968D02*
X0266261Y0045968D01*
X0266261Y0045569D02*
X0303804Y0045569D01*
X0303804Y0045170D02*
X0266261Y0045170D01*
X0266261Y0044772D02*
X0303804Y0044772D01*
X0303804Y0044373D02*
X0266261Y0044373D01*
X0266261Y0043975D02*
X0303804Y0043975D01*
X0303804Y0043576D02*
X0266261Y0043576D01*
X0266261Y0043178D02*
X0303804Y0043178D01*
X0303804Y0042779D02*
X0266261Y0042779D01*
X0266261Y0042381D02*
X0303804Y0042381D01*
X0303804Y0041982D02*
X0265979Y0041982D01*
X0265580Y0041584D02*
X0303804Y0041584D01*
X0294885Y0014884D02*
X0021390Y0014884D01*
X0022218Y0014485D02*
X0294058Y0014485D01*
X0293230Y0014087D02*
X0023045Y0014087D01*
X0023873Y0013688D02*
X0292403Y0013688D01*
X0291169Y0013290D02*
X0025106Y0013290D01*
X0026852Y0012891D02*
X0289423Y0012891D01*
X0286463Y0012493D02*
X0029813Y0012493D01*
X0047714Y0101759D02*
X0048286Y0101759D01*
X0052714Y0101759D02*
X0053286Y0101759D01*
X0057714Y0101759D02*
X0058286Y0101759D01*
X0062714Y0101759D02*
X0063286Y0101759D01*
X0067714Y0101759D02*
X0068286Y0101759D01*
X0072714Y0101759D02*
X0073286Y0101759D01*
X0072994Y0111323D02*
X0073006Y0111323D01*
X0073405Y0111722D02*
X0072595Y0111722D01*
X0068405Y0111722D02*
X0067595Y0111722D01*
X0067994Y0111323D02*
X0068006Y0111323D01*
X0063405Y0111722D02*
X0062595Y0111722D01*
X0062994Y0111323D02*
X0063006Y0111323D01*
X0141974Y0173890D02*
X0144301Y0173890D01*
X0143373Y0173491D02*
X0142903Y0173491D01*
X0146974Y0173890D02*
X0149301Y0173890D01*
X0148373Y0173491D02*
X0147903Y0173491D01*
X0151974Y0173890D02*
X0152663Y0173890D01*
X0158613Y0174687D02*
X0182525Y0174687D01*
X0182525Y0175085D02*
X0158613Y0175085D01*
X0158613Y0175484D02*
X0182525Y0175484D01*
X0182525Y0175882D02*
X0158613Y0175882D01*
X0158613Y0176281D02*
X0182525Y0176281D01*
X0182525Y0176679D02*
X0158613Y0176679D01*
X0158613Y0177078D02*
X0182525Y0177078D01*
X0182525Y0177476D02*
X0158613Y0177476D01*
X0166974Y0173890D02*
X0169301Y0173890D01*
X0168373Y0173491D02*
X0167903Y0173491D01*
X0171974Y0173890D02*
X0174301Y0173890D01*
X0173373Y0173491D02*
X0172903Y0173491D01*
X0188475Y0159543D02*
X0242909Y0159543D01*
X0242511Y0159145D02*
X0188475Y0159145D01*
X0188475Y0158746D02*
X0242160Y0158746D01*
X0242160Y0152370D02*
X0231211Y0152370D01*
X0231211Y0151972D02*
X0242395Y0151972D01*
X0242793Y0151573D02*
X0231211Y0151573D01*
X0231211Y0151174D02*
X0243192Y0151174D01*
X0249009Y0151174D02*
X0249491Y0151174D01*
X0303804Y0198996D02*
X0012472Y0198996D01*
X0012472Y0199394D02*
X0303804Y0199394D01*
X0303786Y0199793D02*
X0012489Y0199793D01*
X0012512Y0200191D02*
X0303764Y0200191D01*
X0303741Y0200590D02*
X0012534Y0200590D01*
X0012557Y0200988D02*
X0303719Y0200988D01*
X0303697Y0201387D02*
X0012579Y0201387D01*
X0012657Y0201785D02*
X0303618Y0201785D01*
X0303527Y0202184D02*
X0012748Y0202184D01*
X0012839Y0202582D02*
X0303436Y0202582D01*
X0303345Y0202981D02*
X0012930Y0202981D01*
X0013021Y0203379D02*
X0303254Y0203379D01*
X0303163Y0203778D02*
X0013112Y0203778D01*
X0013203Y0204177D02*
X0303072Y0204177D01*
X0302981Y0204575D02*
X0013294Y0204575D01*
X0013385Y0204974D02*
X0302891Y0204974D01*
X0302788Y0205372D02*
X0013487Y0205372D01*
X0013679Y0205771D02*
X0302596Y0205771D01*
X0302404Y0206169D02*
X0013871Y0206169D01*
X0014063Y0206568D02*
X0302212Y0206568D01*
X0302020Y0206966D02*
X0014255Y0206966D01*
X0014447Y0207365D02*
X0301829Y0207365D01*
X0301637Y0207763D02*
X0014639Y0207763D01*
X0014831Y0208162D02*
X0301445Y0208162D01*
X0301253Y0208560D02*
X0015023Y0208560D01*
X0015233Y0208959D02*
X0301043Y0208959D01*
X0300725Y0209357D02*
X0015551Y0209357D01*
X0015869Y0209756D02*
X0300407Y0209756D01*
X0300089Y0210154D02*
X0016186Y0210154D01*
X0016504Y0210553D02*
X0299771Y0210553D01*
X0299453Y0210951D02*
X0016822Y0210951D01*
X0017140Y0211350D02*
X0299136Y0211350D01*
X0298818Y0211748D02*
X0017458Y0211748D01*
X0017842Y0212147D02*
X0298434Y0212147D01*
X0297934Y0212545D02*
X0018341Y0212545D01*
X0018841Y0212944D02*
X0297434Y0212944D01*
X0296935Y0213342D02*
X0019341Y0213342D01*
X0019841Y0213741D02*
X0296435Y0213741D01*
X0295935Y0214139D02*
X0020340Y0214139D01*
X0020892Y0214538D02*
X0295384Y0214538D01*
X0294556Y0214936D02*
X0021719Y0214936D01*
X0022547Y0215335D02*
X0293729Y0215335D01*
X0292901Y0215733D02*
X0023374Y0215733D01*
X0024202Y0216132D02*
X0292074Y0216132D01*
X0290475Y0216530D02*
X0025801Y0216530D01*
X0027547Y0216929D02*
X0288729Y0216929D01*
X0280171Y0217327D02*
X0036105Y0217327D01*
X0037331Y0217726D02*
X0278944Y0217726D01*
X0277718Y0218124D02*
X0038558Y0218124D01*
X0039156Y0218523D02*
X0277120Y0218523D01*
X0276571Y0218921D02*
X0039704Y0218921D01*
X0040253Y0219320D02*
X0276023Y0219320D01*
X0275474Y0219718D02*
X0040802Y0219718D01*
X0041265Y0220117D02*
X0275010Y0220117D01*
X0274721Y0220515D02*
X0041555Y0220515D01*
X0041844Y0220914D02*
X0274431Y0220914D01*
X0274142Y0221312D02*
X0042134Y0221312D01*
X0042424Y0221711D02*
X0273852Y0221711D01*
X0273563Y0222110D02*
X0042713Y0222110D01*
X0043003Y0222508D02*
X0273273Y0222508D01*
X0273143Y0222907D02*
X0043133Y0222907D01*
X0043262Y0223305D02*
X0273013Y0223305D01*
X0272884Y0223704D02*
X0043392Y0223704D01*
X0043521Y0224102D02*
X0272754Y0224102D01*
X0272625Y0224501D02*
X0043651Y0224501D01*
X0043780Y0224899D02*
X0272495Y0224899D01*
X0272366Y0225298D02*
X0043910Y0225298D01*
X0043968Y0225696D02*
X0272308Y0225696D01*
X0272308Y0226095D02*
X0043968Y0226095D01*
X0043968Y0226493D02*
X0272308Y0226493D01*
X0272308Y0226892D02*
X0043968Y0226892D01*
X0043968Y0227290D02*
X0272308Y0227290D01*
X0272308Y0227689D02*
X0043968Y0227689D01*
X0043968Y0228087D02*
X0272308Y0228087D01*
X0272308Y0228486D02*
X0043968Y0228486D01*
X0043968Y0228884D02*
X0272308Y0228884D01*
X0272308Y0229283D02*
X0043968Y0229283D01*
X0043968Y0229681D02*
X0272308Y0229681D01*
X0272308Y0230080D02*
X0043968Y0230080D01*
X0043968Y0230478D02*
X0272308Y0230478D01*
X0272308Y0230877D02*
X0043968Y0230877D01*
X0043968Y0231275D02*
X0272308Y0231275D01*
X0272308Y0231674D02*
X0043968Y0231674D01*
X0043968Y0232072D02*
X0272308Y0232072D01*
X0272308Y0232471D02*
X0043968Y0232471D01*
X0043968Y0232869D02*
X0272308Y0232869D01*
X0272308Y0233268D02*
X0043968Y0233268D01*
X0043968Y0233666D02*
X0272308Y0233666D01*
X0272308Y0234065D02*
X0043968Y0234065D01*
X0043968Y0234463D02*
X0272308Y0234463D01*
X0272308Y0234862D02*
X0043968Y0234862D01*
X0043968Y0235260D02*
X0272308Y0235260D01*
X0272308Y0235659D02*
X0043968Y0235659D01*
X0043968Y0236057D02*
X0272308Y0236057D01*
X0272308Y0236456D02*
X0043968Y0236456D01*
X0043968Y0236854D02*
X0272308Y0236854D01*
X0272308Y0237253D02*
X0043968Y0237253D01*
X0043968Y0237651D02*
X0272308Y0237651D01*
X0272308Y0238050D02*
X0043968Y0238050D01*
X0043968Y0238448D02*
X0272308Y0238448D01*
X0272308Y0238847D02*
X0043968Y0238847D01*
X0043999Y0239245D02*
X0272276Y0239245D01*
X0272245Y0239644D02*
X0044030Y0239644D01*
X0044129Y0240043D02*
X0272147Y0240043D01*
X0272017Y0240441D02*
X0044258Y0240441D01*
X0044388Y0240840D02*
X0271888Y0240840D01*
X0271758Y0241238D02*
X0044517Y0241238D01*
X0044691Y0241637D02*
X0271584Y0241637D01*
X0271295Y0242035D02*
X0044981Y0242035D01*
X0045270Y0242434D02*
X0271005Y0242434D01*
X0270716Y0242832D02*
X0045560Y0242832D01*
X0045986Y0243231D02*
X0270289Y0243231D01*
X0269741Y0243629D02*
X0046535Y0243629D01*
X0047083Y0244028D02*
X0269192Y0244028D01*
X0268098Y0244426D02*
X0048177Y0244426D01*
X0256128Y0098571D02*
X0260025Y0098571D01*
D29*
X0286091Y0030185D03*
X0286091Y0199476D03*
X0030185Y0199476D03*
X0030185Y0030185D03*
M02*
