%
M48
M72
T01C0.0236
T02C0.0394
T03C0.0787
T04C0.1299
%
T01
X10050Y4925
X12300Y2300
X13335Y5914
X14800Y9300
X14800Y11800
X14800Y12550
X12800Y15050
X14050Y16050
X14064Y16798
X14564Y16798
X15064Y16798
X15564Y16798
X16064Y16798
X16564Y16798
X17064Y16798
X17564Y16798
X17550Y16050
X17050Y16050
X16550Y16050
X16050Y16050
X15550Y16050
X19675Y14425
X19800Y12550
X23300Y8800
X24550Y10550
X25425Y9550
X23300Y6300
X22050Y3550
X21050Y3550
X18800Y3550
X17800Y3550
X3550Y10550
X3550Y11550
X3550Y12550
X3550Y13550
X3550Y14550
X4925Y18050
X26550Y16050
T02
X10050Y2300
X11050Y2300
X17800Y2300
X18800Y2300
X21050Y2300
X22050Y2300
X2300Y10550
X2300Y11550
X2300Y12550
X2300Y13550
X2300Y14550
T03
X26621Y18471
X26621Y22408
T04
X28609Y3019
X28609Y19948
X3019Y19948
X3019Y3019
M30
