G75*
%MOIN*%
%OFA0B0*%
%FSLAX25Y25*%
%IPPOS*%
%LPD*%
%AMOC8*
5,1,8,0,0,1.08239X$1,22.5*
%
%ADD10C,0.00394*%
%ADD11C,0.06337*%
%ADD12C,0.04762*%
%ADD13C,0.12211*%
%ADD14C,0.17392*%
D10*
X0030185Y0010500D02*
X0286091Y0010500D01*
X0286567Y0010506D01*
X0287042Y0010523D01*
X0287517Y0010552D01*
X0287991Y0010592D01*
X0288464Y0010644D01*
X0288935Y0010707D01*
X0289405Y0010781D01*
X0289873Y0010867D01*
X0290339Y0010964D01*
X0290802Y0011072D01*
X0291262Y0011191D01*
X0291720Y0011322D01*
X0292174Y0011463D01*
X0292625Y0011616D01*
X0293071Y0011779D01*
X0293514Y0011953D01*
X0293952Y0012138D01*
X0294386Y0012333D01*
X0294815Y0012539D01*
X0295239Y0012755D01*
X0295658Y0012981D01*
X0296071Y0013217D01*
X0296478Y0013463D01*
X0296879Y0013719D01*
X0297273Y0013985D01*
X0297662Y0014260D01*
X0298043Y0014544D01*
X0298417Y0014837D01*
X0298785Y0015139D01*
X0299145Y0015451D01*
X0299497Y0015770D01*
X0299841Y0016098D01*
X0300178Y0016435D01*
X0300506Y0016779D01*
X0300825Y0017131D01*
X0301137Y0017491D01*
X0301439Y0017859D01*
X0301732Y0018233D01*
X0302016Y0018614D01*
X0302291Y0019003D01*
X0302557Y0019397D01*
X0302813Y0019798D01*
X0303059Y0020205D01*
X0303295Y0020618D01*
X0303521Y0021037D01*
X0303737Y0021461D01*
X0303943Y0021890D01*
X0304138Y0022324D01*
X0304323Y0022762D01*
X0304497Y0023205D01*
X0304660Y0023651D01*
X0304813Y0024102D01*
X0304954Y0024556D01*
X0305085Y0025014D01*
X0305204Y0025474D01*
X0305312Y0025937D01*
X0305409Y0026403D01*
X0305495Y0026871D01*
X0305569Y0027341D01*
X0305632Y0027812D01*
X0305684Y0028285D01*
X0305724Y0028759D01*
X0305753Y0029234D01*
X0305770Y0029709D01*
X0305776Y0030185D01*
X0305776Y0199476D01*
X0305770Y0199952D01*
X0305753Y0200427D01*
X0305724Y0200902D01*
X0305684Y0201376D01*
X0305632Y0201849D01*
X0305569Y0202320D01*
X0305495Y0202790D01*
X0305409Y0203258D01*
X0305312Y0203724D01*
X0305204Y0204187D01*
X0305085Y0204647D01*
X0304954Y0205105D01*
X0304813Y0205559D01*
X0304660Y0206010D01*
X0304497Y0206456D01*
X0304323Y0206899D01*
X0304138Y0207337D01*
X0303943Y0207771D01*
X0303737Y0208200D01*
X0303521Y0208624D01*
X0303295Y0209043D01*
X0303059Y0209456D01*
X0302813Y0209863D01*
X0302557Y0210264D01*
X0302291Y0210658D01*
X0302016Y0211047D01*
X0301732Y0211428D01*
X0301439Y0211802D01*
X0301137Y0212170D01*
X0300825Y0212530D01*
X0300506Y0212882D01*
X0300178Y0213226D01*
X0299841Y0213563D01*
X0299497Y0213891D01*
X0299145Y0214210D01*
X0298785Y0214522D01*
X0298417Y0214824D01*
X0298043Y0215117D01*
X0297662Y0215401D01*
X0297273Y0215676D01*
X0296879Y0215942D01*
X0296478Y0216198D01*
X0296071Y0216444D01*
X0295658Y0216680D01*
X0295239Y0216906D01*
X0294815Y0217122D01*
X0294386Y0217328D01*
X0293952Y0217523D01*
X0293514Y0217708D01*
X0293071Y0217882D01*
X0292625Y0218045D01*
X0292174Y0218198D01*
X0291720Y0218339D01*
X0291262Y0218470D01*
X0290802Y0218589D01*
X0290339Y0218697D01*
X0289873Y0218794D01*
X0289405Y0218880D01*
X0288935Y0218954D01*
X0288464Y0219017D01*
X0287991Y0219069D01*
X0287517Y0219109D01*
X0287042Y0219138D01*
X0286567Y0219155D01*
X0286091Y0219161D01*
X0282154Y0219161D01*
X0281964Y0219163D01*
X0281774Y0219170D01*
X0281584Y0219182D01*
X0281394Y0219198D01*
X0281205Y0219218D01*
X0281016Y0219244D01*
X0280828Y0219273D01*
X0280641Y0219308D01*
X0280455Y0219347D01*
X0280270Y0219390D01*
X0280085Y0219438D01*
X0279902Y0219490D01*
X0279721Y0219546D01*
X0279541Y0219607D01*
X0279362Y0219673D01*
X0279185Y0219742D01*
X0279009Y0219816D01*
X0278836Y0219894D01*
X0278664Y0219977D01*
X0278495Y0220063D01*
X0278327Y0220153D01*
X0278162Y0220248D01*
X0277999Y0220346D01*
X0277839Y0220449D01*
X0277681Y0220555D01*
X0277526Y0220665D01*
X0277373Y0220778D01*
X0277223Y0220896D01*
X0277077Y0221017D01*
X0276933Y0221141D01*
X0276792Y0221269D01*
X0276654Y0221400D01*
X0276519Y0221535D01*
X0276388Y0221673D01*
X0276260Y0221814D01*
X0276136Y0221958D01*
X0276015Y0222104D01*
X0275897Y0222254D01*
X0275784Y0222407D01*
X0275674Y0222562D01*
X0275568Y0222720D01*
X0275465Y0222880D01*
X0275367Y0223043D01*
X0275272Y0223208D01*
X0275182Y0223376D01*
X0275096Y0223545D01*
X0275013Y0223717D01*
X0274935Y0223890D01*
X0274861Y0224066D01*
X0274792Y0224243D01*
X0274726Y0224422D01*
X0274665Y0224602D01*
X0274609Y0224783D01*
X0274557Y0224966D01*
X0274509Y0225151D01*
X0274466Y0225336D01*
X0274427Y0225522D01*
X0274392Y0225709D01*
X0274363Y0225897D01*
X0274337Y0226086D01*
X0274317Y0226275D01*
X0274301Y0226465D01*
X0274289Y0226655D01*
X0274282Y0226845D01*
X0274280Y0227035D01*
X0274280Y0238846D01*
X0274278Y0239036D01*
X0274271Y0239226D01*
X0274259Y0239416D01*
X0274243Y0239606D01*
X0274223Y0239795D01*
X0274197Y0239984D01*
X0274168Y0240172D01*
X0274133Y0240359D01*
X0274094Y0240545D01*
X0274051Y0240730D01*
X0274003Y0240915D01*
X0273951Y0241098D01*
X0273895Y0241279D01*
X0273834Y0241459D01*
X0273768Y0241638D01*
X0273699Y0241815D01*
X0273625Y0241991D01*
X0273547Y0242164D01*
X0273464Y0242336D01*
X0273378Y0242505D01*
X0273288Y0242673D01*
X0273193Y0242838D01*
X0273095Y0243001D01*
X0272992Y0243161D01*
X0272886Y0243319D01*
X0272776Y0243474D01*
X0272663Y0243627D01*
X0272545Y0243777D01*
X0272424Y0243923D01*
X0272300Y0244067D01*
X0272172Y0244208D01*
X0272041Y0244346D01*
X0271906Y0244481D01*
X0271768Y0244612D01*
X0271627Y0244740D01*
X0271483Y0244864D01*
X0271337Y0244985D01*
X0271187Y0245103D01*
X0271034Y0245216D01*
X0270879Y0245326D01*
X0270721Y0245432D01*
X0270561Y0245535D01*
X0270398Y0245633D01*
X0270233Y0245728D01*
X0270065Y0245818D01*
X0269896Y0245904D01*
X0269724Y0245987D01*
X0269551Y0246065D01*
X0269375Y0246139D01*
X0269198Y0246208D01*
X0269019Y0246274D01*
X0268839Y0246335D01*
X0268658Y0246391D01*
X0268475Y0246443D01*
X0268290Y0246491D01*
X0268105Y0246534D01*
X0267919Y0246573D01*
X0267732Y0246608D01*
X0267544Y0246637D01*
X0267355Y0246663D01*
X0267166Y0246683D01*
X0266976Y0246699D01*
X0266786Y0246711D01*
X0266596Y0246718D01*
X0266406Y0246720D01*
X0049870Y0246720D01*
X0049680Y0246718D01*
X0049490Y0246711D01*
X0049300Y0246699D01*
X0049110Y0246683D01*
X0048921Y0246663D01*
X0048732Y0246637D01*
X0048544Y0246608D01*
X0048357Y0246573D01*
X0048171Y0246534D01*
X0047986Y0246491D01*
X0047801Y0246443D01*
X0047618Y0246391D01*
X0047437Y0246335D01*
X0047257Y0246274D01*
X0047078Y0246208D01*
X0046901Y0246139D01*
X0046725Y0246065D01*
X0046552Y0245987D01*
X0046380Y0245904D01*
X0046211Y0245818D01*
X0046043Y0245728D01*
X0045878Y0245633D01*
X0045715Y0245535D01*
X0045555Y0245432D01*
X0045397Y0245326D01*
X0045242Y0245216D01*
X0045089Y0245103D01*
X0044939Y0244985D01*
X0044793Y0244864D01*
X0044649Y0244740D01*
X0044508Y0244612D01*
X0044370Y0244481D01*
X0044235Y0244346D01*
X0044104Y0244208D01*
X0043976Y0244067D01*
X0043852Y0243923D01*
X0043731Y0243777D01*
X0043613Y0243627D01*
X0043500Y0243474D01*
X0043390Y0243319D01*
X0043284Y0243161D01*
X0043181Y0243001D01*
X0043083Y0242838D01*
X0042988Y0242673D01*
X0042898Y0242505D01*
X0042812Y0242336D01*
X0042729Y0242164D01*
X0042651Y0241991D01*
X0042577Y0241815D01*
X0042508Y0241638D01*
X0042442Y0241459D01*
X0042381Y0241279D01*
X0042325Y0241098D01*
X0042273Y0240915D01*
X0042225Y0240730D01*
X0042182Y0240545D01*
X0042143Y0240359D01*
X0042108Y0240172D01*
X0042079Y0239984D01*
X0042053Y0239795D01*
X0042033Y0239606D01*
X0042017Y0239416D01*
X0042005Y0239226D01*
X0041998Y0239036D01*
X0041996Y0238846D01*
X0041996Y0227035D01*
X0041994Y0226845D01*
X0041987Y0226655D01*
X0041975Y0226465D01*
X0041959Y0226275D01*
X0041939Y0226086D01*
X0041913Y0225897D01*
X0041884Y0225709D01*
X0041849Y0225522D01*
X0041810Y0225336D01*
X0041767Y0225151D01*
X0041719Y0224966D01*
X0041667Y0224783D01*
X0041611Y0224602D01*
X0041550Y0224422D01*
X0041484Y0224243D01*
X0041415Y0224066D01*
X0041341Y0223890D01*
X0041263Y0223717D01*
X0041180Y0223545D01*
X0041094Y0223376D01*
X0041004Y0223208D01*
X0040909Y0223043D01*
X0040811Y0222880D01*
X0040708Y0222720D01*
X0040602Y0222562D01*
X0040492Y0222407D01*
X0040379Y0222254D01*
X0040261Y0222104D01*
X0040140Y0221958D01*
X0040016Y0221814D01*
X0039888Y0221673D01*
X0039757Y0221535D01*
X0039622Y0221400D01*
X0039484Y0221269D01*
X0039343Y0221141D01*
X0039199Y0221017D01*
X0039053Y0220896D01*
X0038903Y0220778D01*
X0038750Y0220665D01*
X0038595Y0220555D01*
X0038437Y0220449D01*
X0038277Y0220346D01*
X0038114Y0220248D01*
X0037949Y0220153D01*
X0037781Y0220063D01*
X0037612Y0219977D01*
X0037440Y0219894D01*
X0037267Y0219816D01*
X0037091Y0219742D01*
X0036914Y0219673D01*
X0036735Y0219607D01*
X0036555Y0219546D01*
X0036374Y0219490D01*
X0036191Y0219438D01*
X0036006Y0219390D01*
X0035821Y0219347D01*
X0035635Y0219308D01*
X0035448Y0219273D01*
X0035260Y0219244D01*
X0035071Y0219218D01*
X0034882Y0219198D01*
X0034692Y0219182D01*
X0034502Y0219170D01*
X0034312Y0219163D01*
X0034122Y0219161D01*
X0030185Y0219161D01*
X0029709Y0219155D01*
X0029234Y0219138D01*
X0028759Y0219109D01*
X0028285Y0219069D01*
X0027812Y0219017D01*
X0027341Y0218954D01*
X0026871Y0218880D01*
X0026403Y0218794D01*
X0025937Y0218697D01*
X0025474Y0218589D01*
X0025014Y0218470D01*
X0024556Y0218339D01*
X0024102Y0218198D01*
X0023651Y0218045D01*
X0023205Y0217882D01*
X0022762Y0217708D01*
X0022324Y0217523D01*
X0021890Y0217328D01*
X0021461Y0217122D01*
X0021037Y0216906D01*
X0020618Y0216680D01*
X0020205Y0216444D01*
X0019798Y0216198D01*
X0019397Y0215942D01*
X0019003Y0215676D01*
X0018614Y0215401D01*
X0018233Y0215117D01*
X0017859Y0214824D01*
X0017491Y0214522D01*
X0017131Y0214210D01*
X0016779Y0213891D01*
X0016435Y0213563D01*
X0016098Y0213226D01*
X0015770Y0212882D01*
X0015451Y0212530D01*
X0015139Y0212170D01*
X0014837Y0211802D01*
X0014544Y0211428D01*
X0014260Y0211047D01*
X0013985Y0210658D01*
X0013719Y0210264D01*
X0013463Y0209863D01*
X0013217Y0209456D01*
X0012981Y0209043D01*
X0012755Y0208624D01*
X0012539Y0208200D01*
X0012333Y0207771D01*
X0012138Y0207337D01*
X0011953Y0206899D01*
X0011779Y0206456D01*
X0011616Y0206010D01*
X0011463Y0205559D01*
X0011322Y0205105D01*
X0011191Y0204647D01*
X0011072Y0204187D01*
X0010964Y0203724D01*
X0010867Y0203258D01*
X0010781Y0202790D01*
X0010707Y0202320D01*
X0010644Y0201849D01*
X0010592Y0201376D01*
X0010552Y0200902D01*
X0010523Y0200427D01*
X0010506Y0199952D01*
X0010500Y0199476D01*
X0010500Y0030185D01*
X0010506Y0029709D01*
X0010523Y0029234D01*
X0010552Y0028759D01*
X0010592Y0028285D01*
X0010644Y0027812D01*
X0010707Y0027341D01*
X0010781Y0026871D01*
X0010867Y0026403D01*
X0010964Y0025937D01*
X0011072Y0025474D01*
X0011191Y0025014D01*
X0011322Y0024556D01*
X0011463Y0024102D01*
X0011616Y0023651D01*
X0011779Y0023205D01*
X0011953Y0022762D01*
X0012138Y0022324D01*
X0012333Y0021890D01*
X0012539Y0021461D01*
X0012755Y0021037D01*
X0012981Y0020618D01*
X0013217Y0020205D01*
X0013463Y0019798D01*
X0013719Y0019397D01*
X0013985Y0019003D01*
X0014260Y0018614D01*
X0014544Y0018233D01*
X0014837Y0017859D01*
X0015139Y0017491D01*
X0015451Y0017131D01*
X0015770Y0016779D01*
X0016098Y0016435D01*
X0016435Y0016098D01*
X0016779Y0015770D01*
X0017131Y0015451D01*
X0017491Y0015139D01*
X0017859Y0014837D01*
X0018233Y0014544D01*
X0018614Y0014260D01*
X0019003Y0013985D01*
X0019397Y0013719D01*
X0019798Y0013463D01*
X0020205Y0013217D01*
X0020618Y0012981D01*
X0021037Y0012755D01*
X0021461Y0012539D01*
X0021890Y0012333D01*
X0022324Y0012138D01*
X0022762Y0011953D01*
X0023205Y0011779D01*
X0023651Y0011616D01*
X0024102Y0011463D01*
X0024556Y0011322D01*
X0025014Y0011191D01*
X0025474Y0011072D01*
X0025937Y0010964D01*
X0026403Y0010867D01*
X0026871Y0010781D01*
X0027341Y0010707D01*
X0027812Y0010644D01*
X0028285Y0010592D01*
X0028759Y0010552D01*
X0029234Y0010523D01*
X0029709Y0010506D01*
X0030185Y0010500D01*
D11*
X0100500Y0020031D02*
X0100500Y0025969D01*
X0110500Y0025969D02*
X0110500Y0020031D01*
X0178000Y0020031D02*
X0178000Y0025969D01*
X0188000Y0025969D02*
X0188000Y0020031D01*
X0210500Y0020031D02*
X0210500Y0025969D01*
X0220500Y0025969D02*
X0220500Y0020031D01*
X0025969Y0105500D02*
X0020031Y0105500D01*
X0020031Y0115500D02*
X0025969Y0115500D01*
X0025969Y0125500D02*
X0020031Y0125500D01*
X0020031Y0135500D02*
X0025969Y0135500D01*
X0025969Y0145500D02*
X0020031Y0145500D01*
D12*
X0140638Y0165799D02*
X0140638Y0170161D01*
X0145638Y0170161D02*
X0145638Y0165799D01*
X0150638Y0165799D02*
X0150638Y0170161D01*
X0155638Y0170161D02*
X0155638Y0165799D01*
X0160638Y0165799D02*
X0160638Y0170161D01*
X0165638Y0170161D02*
X0165638Y0165799D01*
X0170638Y0165799D02*
X0170638Y0170161D01*
X0175638Y0170161D02*
X0175638Y0165799D01*
D13*
X0266209Y0178807D02*
X0266209Y0190618D01*
X0266209Y0218177D02*
X0266209Y0229988D01*
D14*
X0286091Y0199476D03*
X0286091Y0030185D03*
X0030185Y0030185D03*
X0030185Y0199476D03*
M02*
