G75*
%MOIN*%
%OFA0B0*%
%FSLAX25Y25*%
%IPPOS*%
%LPD*%
%AMOC8*
5,1,8,0,0,1.08239X$1,22.5*
%
%ADD10C,0.00394*%
%ADD11C,0.05937*%
%ADD12C,0.04362*%
%ADD13C,0.11811*%
%ADD14C,0.03562*%
%ADD15C,0.02400*%
%ADD16C,0.00400*%
%ADD17C,0.16992*%
%ADD18C,0.01600*%
D10*
X0030185Y0010500D02*
X0286091Y0010500D01*
X0286567Y0010506D01*
X0287042Y0010523D01*
X0287517Y0010552D01*
X0287991Y0010592D01*
X0288464Y0010644D01*
X0288935Y0010707D01*
X0289405Y0010781D01*
X0289873Y0010867D01*
X0290339Y0010964D01*
X0290802Y0011072D01*
X0291262Y0011191D01*
X0291720Y0011322D01*
X0292174Y0011463D01*
X0292625Y0011616D01*
X0293071Y0011779D01*
X0293514Y0011953D01*
X0293952Y0012138D01*
X0294386Y0012333D01*
X0294815Y0012539D01*
X0295239Y0012755D01*
X0295658Y0012981D01*
X0296071Y0013217D01*
X0296478Y0013463D01*
X0296879Y0013719D01*
X0297273Y0013985D01*
X0297662Y0014260D01*
X0298043Y0014544D01*
X0298417Y0014837D01*
X0298785Y0015139D01*
X0299145Y0015451D01*
X0299497Y0015770D01*
X0299841Y0016098D01*
X0300178Y0016435D01*
X0300506Y0016779D01*
X0300825Y0017131D01*
X0301137Y0017491D01*
X0301439Y0017859D01*
X0301732Y0018233D01*
X0302016Y0018614D01*
X0302291Y0019003D01*
X0302557Y0019397D01*
X0302813Y0019798D01*
X0303059Y0020205D01*
X0303295Y0020618D01*
X0303521Y0021037D01*
X0303737Y0021461D01*
X0303943Y0021890D01*
X0304138Y0022324D01*
X0304323Y0022762D01*
X0304497Y0023205D01*
X0304660Y0023651D01*
X0304813Y0024102D01*
X0304954Y0024556D01*
X0305085Y0025014D01*
X0305204Y0025474D01*
X0305312Y0025937D01*
X0305409Y0026403D01*
X0305495Y0026871D01*
X0305569Y0027341D01*
X0305632Y0027812D01*
X0305684Y0028285D01*
X0305724Y0028759D01*
X0305753Y0029234D01*
X0305770Y0029709D01*
X0305776Y0030185D01*
X0305776Y0199476D01*
X0305770Y0199952D01*
X0305753Y0200427D01*
X0305724Y0200902D01*
X0305684Y0201376D01*
X0305632Y0201849D01*
X0305569Y0202320D01*
X0305495Y0202790D01*
X0305409Y0203258D01*
X0305312Y0203724D01*
X0305204Y0204187D01*
X0305085Y0204647D01*
X0304954Y0205105D01*
X0304813Y0205559D01*
X0304660Y0206010D01*
X0304497Y0206456D01*
X0304323Y0206899D01*
X0304138Y0207337D01*
X0303943Y0207771D01*
X0303737Y0208200D01*
X0303521Y0208624D01*
X0303295Y0209043D01*
X0303059Y0209456D01*
X0302813Y0209863D01*
X0302557Y0210264D01*
X0302291Y0210658D01*
X0302016Y0211047D01*
X0301732Y0211428D01*
X0301439Y0211802D01*
X0301137Y0212170D01*
X0300825Y0212530D01*
X0300506Y0212882D01*
X0300178Y0213226D01*
X0299841Y0213563D01*
X0299497Y0213891D01*
X0299145Y0214210D01*
X0298785Y0214522D01*
X0298417Y0214824D01*
X0298043Y0215117D01*
X0297662Y0215401D01*
X0297273Y0215676D01*
X0296879Y0215942D01*
X0296478Y0216198D01*
X0296071Y0216444D01*
X0295658Y0216680D01*
X0295239Y0216906D01*
X0294815Y0217122D01*
X0294386Y0217328D01*
X0293952Y0217523D01*
X0293514Y0217708D01*
X0293071Y0217882D01*
X0292625Y0218045D01*
X0292174Y0218198D01*
X0291720Y0218339D01*
X0291262Y0218470D01*
X0290802Y0218589D01*
X0290339Y0218697D01*
X0289873Y0218794D01*
X0289405Y0218880D01*
X0288935Y0218954D01*
X0288464Y0219017D01*
X0287991Y0219069D01*
X0287517Y0219109D01*
X0287042Y0219138D01*
X0286567Y0219155D01*
X0286091Y0219161D01*
X0282154Y0219161D01*
X0281964Y0219163D01*
X0281774Y0219170D01*
X0281584Y0219182D01*
X0281394Y0219198D01*
X0281205Y0219218D01*
X0281016Y0219244D01*
X0280828Y0219273D01*
X0280641Y0219308D01*
X0280455Y0219347D01*
X0280270Y0219390D01*
X0280085Y0219438D01*
X0279902Y0219490D01*
X0279721Y0219546D01*
X0279541Y0219607D01*
X0279362Y0219673D01*
X0279185Y0219742D01*
X0279009Y0219816D01*
X0278836Y0219894D01*
X0278664Y0219977D01*
X0278495Y0220063D01*
X0278327Y0220153D01*
X0278162Y0220248D01*
X0277999Y0220346D01*
X0277839Y0220449D01*
X0277681Y0220555D01*
X0277526Y0220665D01*
X0277373Y0220778D01*
X0277223Y0220896D01*
X0277077Y0221017D01*
X0276933Y0221141D01*
X0276792Y0221269D01*
X0276654Y0221400D01*
X0276519Y0221535D01*
X0276388Y0221673D01*
X0276260Y0221814D01*
X0276136Y0221958D01*
X0276015Y0222104D01*
X0275897Y0222254D01*
X0275784Y0222407D01*
X0275674Y0222562D01*
X0275568Y0222720D01*
X0275465Y0222880D01*
X0275367Y0223043D01*
X0275272Y0223208D01*
X0275182Y0223376D01*
X0275096Y0223545D01*
X0275013Y0223717D01*
X0274935Y0223890D01*
X0274861Y0224066D01*
X0274792Y0224243D01*
X0274726Y0224422D01*
X0274665Y0224602D01*
X0274609Y0224783D01*
X0274557Y0224966D01*
X0274509Y0225151D01*
X0274466Y0225336D01*
X0274427Y0225522D01*
X0274392Y0225709D01*
X0274363Y0225897D01*
X0274337Y0226086D01*
X0274317Y0226275D01*
X0274301Y0226465D01*
X0274289Y0226655D01*
X0274282Y0226845D01*
X0274280Y0227035D01*
X0274280Y0238846D01*
X0274278Y0239036D01*
X0274271Y0239226D01*
X0274259Y0239416D01*
X0274243Y0239606D01*
X0274223Y0239795D01*
X0274197Y0239984D01*
X0274168Y0240172D01*
X0274133Y0240359D01*
X0274094Y0240545D01*
X0274051Y0240730D01*
X0274003Y0240915D01*
X0273951Y0241098D01*
X0273895Y0241279D01*
X0273834Y0241459D01*
X0273768Y0241638D01*
X0273699Y0241815D01*
X0273625Y0241991D01*
X0273547Y0242164D01*
X0273464Y0242336D01*
X0273378Y0242505D01*
X0273288Y0242673D01*
X0273193Y0242838D01*
X0273095Y0243001D01*
X0272992Y0243161D01*
X0272886Y0243319D01*
X0272776Y0243474D01*
X0272663Y0243627D01*
X0272545Y0243777D01*
X0272424Y0243923D01*
X0272300Y0244067D01*
X0272172Y0244208D01*
X0272041Y0244346D01*
X0271906Y0244481D01*
X0271768Y0244612D01*
X0271627Y0244740D01*
X0271483Y0244864D01*
X0271337Y0244985D01*
X0271187Y0245103D01*
X0271034Y0245216D01*
X0270879Y0245326D01*
X0270721Y0245432D01*
X0270561Y0245535D01*
X0270398Y0245633D01*
X0270233Y0245728D01*
X0270065Y0245818D01*
X0269896Y0245904D01*
X0269724Y0245987D01*
X0269551Y0246065D01*
X0269375Y0246139D01*
X0269198Y0246208D01*
X0269019Y0246274D01*
X0268839Y0246335D01*
X0268658Y0246391D01*
X0268475Y0246443D01*
X0268290Y0246491D01*
X0268105Y0246534D01*
X0267919Y0246573D01*
X0267732Y0246608D01*
X0267544Y0246637D01*
X0267355Y0246663D01*
X0267166Y0246683D01*
X0266976Y0246699D01*
X0266786Y0246711D01*
X0266596Y0246718D01*
X0266406Y0246720D01*
X0049870Y0246720D01*
X0049680Y0246718D01*
X0049490Y0246711D01*
X0049300Y0246699D01*
X0049110Y0246683D01*
X0048921Y0246663D01*
X0048732Y0246637D01*
X0048544Y0246608D01*
X0048357Y0246573D01*
X0048171Y0246534D01*
X0047986Y0246491D01*
X0047801Y0246443D01*
X0047618Y0246391D01*
X0047437Y0246335D01*
X0047257Y0246274D01*
X0047078Y0246208D01*
X0046901Y0246139D01*
X0046725Y0246065D01*
X0046552Y0245987D01*
X0046380Y0245904D01*
X0046211Y0245818D01*
X0046043Y0245728D01*
X0045878Y0245633D01*
X0045715Y0245535D01*
X0045555Y0245432D01*
X0045397Y0245326D01*
X0045242Y0245216D01*
X0045089Y0245103D01*
X0044939Y0244985D01*
X0044793Y0244864D01*
X0044649Y0244740D01*
X0044508Y0244612D01*
X0044370Y0244481D01*
X0044235Y0244346D01*
X0044104Y0244208D01*
X0043976Y0244067D01*
X0043852Y0243923D01*
X0043731Y0243777D01*
X0043613Y0243627D01*
X0043500Y0243474D01*
X0043390Y0243319D01*
X0043284Y0243161D01*
X0043181Y0243001D01*
X0043083Y0242838D01*
X0042988Y0242673D01*
X0042898Y0242505D01*
X0042812Y0242336D01*
X0042729Y0242164D01*
X0042651Y0241991D01*
X0042577Y0241815D01*
X0042508Y0241638D01*
X0042442Y0241459D01*
X0042381Y0241279D01*
X0042325Y0241098D01*
X0042273Y0240915D01*
X0042225Y0240730D01*
X0042182Y0240545D01*
X0042143Y0240359D01*
X0042108Y0240172D01*
X0042079Y0239984D01*
X0042053Y0239795D01*
X0042033Y0239606D01*
X0042017Y0239416D01*
X0042005Y0239226D01*
X0041998Y0239036D01*
X0041996Y0238846D01*
X0041996Y0227035D01*
X0041994Y0226845D01*
X0041987Y0226655D01*
X0041975Y0226465D01*
X0041959Y0226275D01*
X0041939Y0226086D01*
X0041913Y0225897D01*
X0041884Y0225709D01*
X0041849Y0225522D01*
X0041810Y0225336D01*
X0041767Y0225151D01*
X0041719Y0224966D01*
X0041667Y0224783D01*
X0041611Y0224602D01*
X0041550Y0224422D01*
X0041484Y0224243D01*
X0041415Y0224066D01*
X0041341Y0223890D01*
X0041263Y0223717D01*
X0041180Y0223545D01*
X0041094Y0223376D01*
X0041004Y0223208D01*
X0040909Y0223043D01*
X0040811Y0222880D01*
X0040708Y0222720D01*
X0040602Y0222562D01*
X0040492Y0222407D01*
X0040379Y0222254D01*
X0040261Y0222104D01*
X0040140Y0221958D01*
X0040016Y0221814D01*
X0039888Y0221673D01*
X0039757Y0221535D01*
X0039622Y0221400D01*
X0039484Y0221269D01*
X0039343Y0221141D01*
X0039199Y0221017D01*
X0039053Y0220896D01*
X0038903Y0220778D01*
X0038750Y0220665D01*
X0038595Y0220555D01*
X0038437Y0220449D01*
X0038277Y0220346D01*
X0038114Y0220248D01*
X0037949Y0220153D01*
X0037781Y0220063D01*
X0037612Y0219977D01*
X0037440Y0219894D01*
X0037267Y0219816D01*
X0037091Y0219742D01*
X0036914Y0219673D01*
X0036735Y0219607D01*
X0036555Y0219546D01*
X0036374Y0219490D01*
X0036191Y0219438D01*
X0036006Y0219390D01*
X0035821Y0219347D01*
X0035635Y0219308D01*
X0035448Y0219273D01*
X0035260Y0219244D01*
X0035071Y0219218D01*
X0034882Y0219198D01*
X0034692Y0219182D01*
X0034502Y0219170D01*
X0034312Y0219163D01*
X0034122Y0219161D01*
X0030185Y0219161D01*
X0029709Y0219155D01*
X0029234Y0219138D01*
X0028759Y0219109D01*
X0028285Y0219069D01*
X0027812Y0219017D01*
X0027341Y0218954D01*
X0026871Y0218880D01*
X0026403Y0218794D01*
X0025937Y0218697D01*
X0025474Y0218589D01*
X0025014Y0218470D01*
X0024556Y0218339D01*
X0024102Y0218198D01*
X0023651Y0218045D01*
X0023205Y0217882D01*
X0022762Y0217708D01*
X0022324Y0217523D01*
X0021890Y0217328D01*
X0021461Y0217122D01*
X0021037Y0216906D01*
X0020618Y0216680D01*
X0020205Y0216444D01*
X0019798Y0216198D01*
X0019397Y0215942D01*
X0019003Y0215676D01*
X0018614Y0215401D01*
X0018233Y0215117D01*
X0017859Y0214824D01*
X0017491Y0214522D01*
X0017131Y0214210D01*
X0016779Y0213891D01*
X0016435Y0213563D01*
X0016098Y0213226D01*
X0015770Y0212882D01*
X0015451Y0212530D01*
X0015139Y0212170D01*
X0014837Y0211802D01*
X0014544Y0211428D01*
X0014260Y0211047D01*
X0013985Y0210658D01*
X0013719Y0210264D01*
X0013463Y0209863D01*
X0013217Y0209456D01*
X0012981Y0209043D01*
X0012755Y0208624D01*
X0012539Y0208200D01*
X0012333Y0207771D01*
X0012138Y0207337D01*
X0011953Y0206899D01*
X0011779Y0206456D01*
X0011616Y0206010D01*
X0011463Y0205559D01*
X0011322Y0205105D01*
X0011191Y0204647D01*
X0011072Y0204187D01*
X0010964Y0203724D01*
X0010867Y0203258D01*
X0010781Y0202790D01*
X0010707Y0202320D01*
X0010644Y0201849D01*
X0010592Y0201376D01*
X0010552Y0200902D01*
X0010523Y0200427D01*
X0010506Y0199952D01*
X0010500Y0199476D01*
X0010500Y0030185D01*
X0010506Y0029709D01*
X0010523Y0029234D01*
X0010552Y0028759D01*
X0010592Y0028285D01*
X0010644Y0027812D01*
X0010707Y0027341D01*
X0010781Y0026871D01*
X0010867Y0026403D01*
X0010964Y0025937D01*
X0011072Y0025474D01*
X0011191Y0025014D01*
X0011322Y0024556D01*
X0011463Y0024102D01*
X0011616Y0023651D01*
X0011779Y0023205D01*
X0011953Y0022762D01*
X0012138Y0022324D01*
X0012333Y0021890D01*
X0012539Y0021461D01*
X0012755Y0021037D01*
X0012981Y0020618D01*
X0013217Y0020205D01*
X0013463Y0019798D01*
X0013719Y0019397D01*
X0013985Y0019003D01*
X0014260Y0018614D01*
X0014544Y0018233D01*
X0014837Y0017859D01*
X0015139Y0017491D01*
X0015451Y0017131D01*
X0015770Y0016779D01*
X0016098Y0016435D01*
X0016435Y0016098D01*
X0016779Y0015770D01*
X0017131Y0015451D01*
X0017491Y0015139D01*
X0017859Y0014837D01*
X0018233Y0014544D01*
X0018614Y0014260D01*
X0019003Y0013985D01*
X0019397Y0013719D01*
X0019798Y0013463D01*
X0020205Y0013217D01*
X0020618Y0012981D01*
X0021037Y0012755D01*
X0021461Y0012539D01*
X0021890Y0012333D01*
X0022324Y0012138D01*
X0022762Y0011953D01*
X0023205Y0011779D01*
X0023651Y0011616D01*
X0024102Y0011463D01*
X0024556Y0011322D01*
X0025014Y0011191D01*
X0025474Y0011072D01*
X0025937Y0010964D01*
X0026403Y0010867D01*
X0026871Y0010781D01*
X0027341Y0010707D01*
X0027812Y0010644D01*
X0028285Y0010592D01*
X0028759Y0010552D01*
X0029234Y0010523D01*
X0029709Y0010506D01*
X0030185Y0010500D01*
D11*
X0100500Y0020031D02*
X0100500Y0025969D01*
X0110500Y0025969D02*
X0110500Y0020031D01*
X0178000Y0020031D02*
X0178000Y0025969D01*
X0188000Y0025969D02*
X0188000Y0020031D01*
X0210500Y0020031D02*
X0210500Y0025969D01*
X0220500Y0025969D02*
X0220500Y0020031D01*
X0025969Y0105500D02*
X0020031Y0105500D01*
X0020031Y0115500D02*
X0025969Y0115500D01*
X0025969Y0125500D02*
X0020031Y0125500D01*
X0020031Y0135500D02*
X0025969Y0135500D01*
X0025969Y0145500D02*
X0020031Y0145500D01*
D12*
X0140638Y0165799D02*
X0140638Y0170161D01*
X0145638Y0170161D02*
X0145638Y0165799D01*
X0150638Y0165799D02*
X0150638Y0170161D01*
X0155638Y0170161D02*
X0155638Y0165799D01*
X0160638Y0165799D02*
X0160638Y0170161D01*
X0165638Y0170161D02*
X0165638Y0165799D01*
X0170638Y0165799D02*
X0170638Y0170161D01*
X0175638Y0170161D02*
X0175638Y0165799D01*
D13*
X0266209Y0178807D02*
X0266209Y0190618D01*
X0266209Y0218177D02*
X0266209Y0229988D01*
D14*
X0265500Y0160500D03*
X0245500Y0105500D03*
X0254250Y0095500D03*
X0233000Y0088000D03*
X0233000Y0063000D03*
X0220500Y0035500D03*
X0210500Y0035500D03*
X0188000Y0035500D03*
X0178000Y0035500D03*
X0133354Y0059142D03*
X0100500Y0049250D03*
X0123000Y0023000D03*
X0148000Y0093000D03*
X0148000Y0118000D03*
X0148000Y0125500D03*
X0128000Y0150500D03*
X0140500Y0160500D03*
X0155500Y0160500D03*
X0160500Y0160500D03*
X0165500Y0160500D03*
X0170500Y0160500D03*
X0175500Y0160500D03*
X0196750Y0144250D03*
X0198000Y0125500D03*
X0049250Y0180500D03*
X0035500Y0145500D03*
X0035500Y0135500D03*
X0035500Y0125500D03*
X0035500Y0115500D03*
X0035500Y0105500D03*
D15*
X0035500Y0145500D02*
X0023000Y0145500D01*
X0140500Y0160500D02*
X0140500Y0167843D01*
X0140502Y0167865D01*
X0140507Y0167886D01*
X0140515Y0167906D01*
X0140526Y0167924D01*
X0140540Y0167941D01*
X0140557Y0167955D01*
X0140575Y0167966D01*
X0140595Y0167974D01*
X0140616Y0167979D01*
X0140638Y0167981D01*
X0155500Y0167843D02*
X0155500Y0160500D01*
X0155500Y0167843D02*
X0155502Y0167865D01*
X0155507Y0167886D01*
X0155515Y0167906D01*
X0155526Y0167924D01*
X0155540Y0167941D01*
X0155557Y0167955D01*
X0155575Y0167966D01*
X0155595Y0167974D01*
X0155616Y0167979D01*
X0155638Y0167981D01*
X0233000Y0095500D02*
X0254250Y0095500D01*
X0233000Y0095500D02*
X0233000Y0088000D01*
X0233000Y0063000D01*
X0188000Y0035500D02*
X0188000Y0023000D01*
D16*
X0020761Y0015187D02*
X0017660Y0017660D01*
X0015187Y0020761D01*
X0013466Y0024335D01*
X0012583Y0028202D01*
X0012472Y0030185D01*
X0012472Y0199476D01*
X0012583Y0201460D01*
X0013466Y0205327D01*
X0015187Y0208900D01*
X0017660Y0212002D01*
X0020761Y0214475D01*
X0024335Y0216196D01*
X0028202Y0217078D01*
X0030185Y0217190D01*
X0035681Y0217190D01*
X0038648Y0218154D01*
X0041171Y0219987D01*
X0043004Y0222510D01*
X0043968Y0225476D01*
X0043968Y0238846D01*
X0044040Y0239770D01*
X0044611Y0241526D01*
X0045696Y0243020D01*
X0047190Y0244105D01*
X0048947Y0244676D01*
X0049870Y0244749D01*
X0266406Y0244749D01*
X0267329Y0244676D01*
X0269085Y0244105D01*
X0270579Y0243020D01*
X0271665Y0241526D01*
X0272235Y0239770D01*
X0272308Y0238846D01*
X0272308Y0225476D01*
X0273272Y0222510D01*
X0273272Y0222510D01*
X0275105Y0219987D01*
X0277628Y0218154D01*
X0280594Y0217190D01*
X0286091Y0217190D01*
X0288074Y0217078D01*
X0291941Y0216196D01*
X0295515Y0214475D01*
X0298616Y0212002D01*
X0301089Y0208900D01*
X0302810Y0205327D01*
X0303693Y0201460D01*
X0303804Y0199476D01*
X0303804Y0030185D01*
X0303693Y0028202D01*
X0302810Y0024335D01*
X0301089Y0020761D01*
X0298616Y0017660D01*
X0295515Y0015187D01*
X0291941Y0013466D01*
X0288074Y0012583D01*
X0286091Y0012472D01*
X0030185Y0012472D01*
X0028202Y0012583D01*
X0024335Y0013466D01*
X0020761Y0015187D01*
X0020641Y0015282D02*
X0295634Y0015282D01*
X0296134Y0015681D02*
X0222391Y0015681D01*
X0223187Y0016010D02*
X0224521Y0017345D01*
X0225243Y0019088D01*
X0225243Y0026912D01*
X0224521Y0028655D01*
X0223187Y0029990D01*
X0223075Y0030036D01*
X0223075Y0033046D01*
X0223515Y0033486D01*
X0224056Y0034793D01*
X0224056Y0036207D01*
X0223515Y0037514D01*
X0222514Y0038515D01*
X0221207Y0039056D01*
X0219793Y0039056D01*
X0218486Y0038515D01*
X0217485Y0037514D01*
X0216944Y0036207D01*
X0216944Y0034793D01*
X0217485Y0033486D01*
X0217925Y0033046D01*
X0217925Y0030036D01*
X0217813Y0029990D01*
X0216479Y0028655D01*
X0215757Y0026912D01*
X0215757Y0019088D01*
X0216479Y0017345D01*
X0217813Y0016010D01*
X0219556Y0015288D01*
X0221444Y0015288D01*
X0223187Y0016010D01*
X0223256Y0016079D02*
X0296634Y0016079D01*
X0297133Y0016478D02*
X0223654Y0016478D01*
X0224053Y0016876D02*
X0297633Y0016876D01*
X0298133Y0017275D02*
X0224451Y0017275D01*
X0224657Y0017673D02*
X0298627Y0017673D01*
X0298944Y0018072D02*
X0224822Y0018072D01*
X0224987Y0018470D02*
X0299262Y0018470D01*
X0299580Y0018869D02*
X0225152Y0018869D01*
X0225243Y0019267D02*
X0299898Y0019267D01*
X0300216Y0019666D02*
X0225243Y0019666D01*
X0225243Y0020064D02*
X0300533Y0020064D01*
X0300851Y0020463D02*
X0225243Y0020463D01*
X0225243Y0020861D02*
X0301137Y0020861D01*
X0301329Y0021260D02*
X0225243Y0021260D01*
X0225243Y0021658D02*
X0301521Y0021658D01*
X0301713Y0022057D02*
X0225243Y0022057D01*
X0225243Y0022455D02*
X0301905Y0022455D01*
X0302097Y0022854D02*
X0225243Y0022854D01*
X0225243Y0023252D02*
X0302289Y0023252D01*
X0302481Y0023651D02*
X0225243Y0023651D01*
X0225243Y0024049D02*
X0302673Y0024049D01*
X0302836Y0024448D02*
X0225243Y0024448D01*
X0225243Y0024846D02*
X0302927Y0024846D01*
X0303018Y0025245D02*
X0225243Y0025245D01*
X0225243Y0025643D02*
X0303109Y0025643D01*
X0303200Y0026042D02*
X0225243Y0026042D01*
X0225243Y0026440D02*
X0303291Y0026440D01*
X0303382Y0026839D02*
X0225243Y0026839D01*
X0225108Y0027237D02*
X0303472Y0027237D01*
X0303563Y0027636D02*
X0224943Y0027636D01*
X0224778Y0028034D02*
X0303654Y0028034D01*
X0303706Y0028433D02*
X0224613Y0028433D01*
X0224345Y0028832D02*
X0303728Y0028832D01*
X0303750Y0029230D02*
X0223947Y0029230D01*
X0223548Y0029629D02*
X0303773Y0029629D01*
X0303795Y0030027D02*
X0223097Y0030027D01*
X0223075Y0030426D02*
X0303804Y0030426D01*
X0303804Y0030824D02*
X0223075Y0030824D01*
X0223075Y0031223D02*
X0303804Y0031223D01*
X0303804Y0031621D02*
X0223075Y0031621D01*
X0223075Y0032020D02*
X0303804Y0032020D01*
X0303804Y0032418D02*
X0223075Y0032418D01*
X0223075Y0032817D02*
X0303804Y0032817D01*
X0303804Y0033215D02*
X0223244Y0033215D01*
X0223568Y0033614D02*
X0303804Y0033614D01*
X0303804Y0034012D02*
X0223733Y0034012D01*
X0223898Y0034411D02*
X0303804Y0034411D01*
X0303804Y0034809D02*
X0224056Y0034809D01*
X0224056Y0035208D02*
X0303804Y0035208D01*
X0303804Y0035606D02*
X0224056Y0035606D01*
X0224056Y0036005D02*
X0303804Y0036005D01*
X0303804Y0036403D02*
X0223975Y0036403D01*
X0223810Y0036802D02*
X0303804Y0036802D01*
X0303804Y0037200D02*
X0223645Y0037200D01*
X0223430Y0037599D02*
X0303804Y0037599D01*
X0303804Y0037997D02*
X0223032Y0037997D01*
X0222633Y0038396D02*
X0303804Y0038396D01*
X0303804Y0038794D02*
X0221839Y0038794D01*
X0219161Y0038794D02*
X0211839Y0038794D01*
X0211207Y0039056D02*
X0212514Y0038515D01*
X0213515Y0037514D01*
X0214056Y0036207D01*
X0214056Y0034793D01*
X0213515Y0033486D01*
X0213075Y0033046D01*
X0213075Y0030036D01*
X0213187Y0029990D01*
X0214521Y0028655D01*
X0215243Y0026912D01*
X0215243Y0019088D01*
X0214521Y0017345D01*
X0213187Y0016010D01*
X0211444Y0015288D01*
X0209556Y0015288D01*
X0207813Y0016010D01*
X0206479Y0017345D01*
X0205757Y0019088D01*
X0205757Y0026912D01*
X0206479Y0028655D01*
X0207813Y0029990D01*
X0207925Y0030036D01*
X0207925Y0033046D01*
X0207485Y0033486D01*
X0206944Y0034793D01*
X0206944Y0036207D01*
X0207485Y0037514D01*
X0208486Y0038515D01*
X0209793Y0039056D01*
X0211207Y0039056D01*
X0212633Y0038396D02*
X0218367Y0038396D01*
X0217968Y0037997D02*
X0213032Y0037997D01*
X0213430Y0037599D02*
X0217570Y0037599D01*
X0217355Y0037200D02*
X0213645Y0037200D01*
X0213810Y0036802D02*
X0217190Y0036802D01*
X0217025Y0036403D02*
X0213975Y0036403D01*
X0214056Y0036005D02*
X0216944Y0036005D01*
X0216944Y0035606D02*
X0214056Y0035606D01*
X0214056Y0035208D02*
X0216944Y0035208D01*
X0216944Y0034809D02*
X0214056Y0034809D01*
X0213898Y0034411D02*
X0217102Y0034411D01*
X0217267Y0034012D02*
X0213733Y0034012D01*
X0213568Y0033614D02*
X0217432Y0033614D01*
X0217756Y0033215D02*
X0213244Y0033215D01*
X0213075Y0032817D02*
X0217925Y0032817D01*
X0217925Y0032418D02*
X0213075Y0032418D01*
X0213075Y0032020D02*
X0217925Y0032020D01*
X0217925Y0031621D02*
X0213075Y0031621D01*
X0213075Y0031223D02*
X0217925Y0031223D01*
X0217925Y0030824D02*
X0213075Y0030824D01*
X0213075Y0030426D02*
X0217925Y0030426D01*
X0217903Y0030027D02*
X0213097Y0030027D01*
X0213548Y0029629D02*
X0217452Y0029629D01*
X0217053Y0029230D02*
X0213947Y0029230D01*
X0214345Y0028832D02*
X0216655Y0028832D01*
X0216387Y0028433D02*
X0214613Y0028433D01*
X0214778Y0028034D02*
X0216222Y0028034D01*
X0216057Y0027636D02*
X0214943Y0027636D01*
X0215108Y0027237D02*
X0215892Y0027237D01*
X0215757Y0026839D02*
X0215243Y0026839D01*
X0215243Y0026440D02*
X0215757Y0026440D01*
X0215757Y0026042D02*
X0215243Y0026042D01*
X0215243Y0025643D02*
X0215757Y0025643D01*
X0215757Y0025245D02*
X0215243Y0025245D01*
X0215243Y0024846D02*
X0215757Y0024846D01*
X0215757Y0024448D02*
X0215243Y0024448D01*
X0215243Y0024049D02*
X0215757Y0024049D01*
X0215757Y0023651D02*
X0215243Y0023651D01*
X0215243Y0023252D02*
X0215757Y0023252D01*
X0215757Y0022854D02*
X0215243Y0022854D01*
X0215243Y0022455D02*
X0215757Y0022455D01*
X0215757Y0022057D02*
X0215243Y0022057D01*
X0215243Y0021658D02*
X0215757Y0021658D01*
X0215757Y0021260D02*
X0215243Y0021260D01*
X0215243Y0020861D02*
X0215757Y0020861D01*
X0215757Y0020463D02*
X0215243Y0020463D01*
X0215243Y0020064D02*
X0215757Y0020064D01*
X0215757Y0019666D02*
X0215243Y0019666D01*
X0215243Y0019267D02*
X0215757Y0019267D01*
X0215848Y0018869D02*
X0215152Y0018869D01*
X0214987Y0018470D02*
X0216013Y0018470D01*
X0216178Y0018072D02*
X0214822Y0018072D01*
X0214657Y0017673D02*
X0216343Y0017673D01*
X0216549Y0017275D02*
X0214451Y0017275D01*
X0214053Y0016876D02*
X0216947Y0016876D01*
X0217346Y0016478D02*
X0213654Y0016478D01*
X0213256Y0016079D02*
X0217744Y0016079D01*
X0218609Y0015681D02*
X0212391Y0015681D01*
X0208609Y0015681D02*
X0189891Y0015681D01*
X0190687Y0016010D02*
X0188944Y0015288D01*
X0187056Y0015288D01*
X0185313Y0016010D01*
X0183979Y0017345D01*
X0183257Y0019088D01*
X0183257Y0026912D01*
X0183979Y0028655D01*
X0185025Y0029702D01*
X0185025Y0033446D01*
X0184985Y0033486D01*
X0184444Y0034793D01*
X0184444Y0036207D01*
X0184985Y0037514D01*
X0185986Y0038515D01*
X0187293Y0039056D01*
X0188707Y0039056D01*
X0190014Y0038515D01*
X0191015Y0037514D01*
X0191556Y0036207D01*
X0191556Y0034793D01*
X0191015Y0033486D01*
X0190975Y0033446D01*
X0190975Y0029702D01*
X0192021Y0028655D01*
X0192743Y0026912D01*
X0192743Y0019088D01*
X0192021Y0017345D01*
X0190687Y0016010D01*
X0190756Y0016079D02*
X0207744Y0016079D01*
X0207346Y0016478D02*
X0191154Y0016478D01*
X0191553Y0016876D02*
X0206947Y0016876D01*
X0206549Y0017275D02*
X0191951Y0017275D01*
X0192157Y0017673D02*
X0206343Y0017673D01*
X0206178Y0018072D02*
X0192322Y0018072D01*
X0192487Y0018470D02*
X0206013Y0018470D01*
X0205848Y0018869D02*
X0192652Y0018869D01*
X0192743Y0019267D02*
X0205757Y0019267D01*
X0205757Y0019666D02*
X0192743Y0019666D01*
X0192743Y0020064D02*
X0205757Y0020064D01*
X0205757Y0020463D02*
X0192743Y0020463D01*
X0192743Y0020861D02*
X0205757Y0020861D01*
X0205757Y0021260D02*
X0192743Y0021260D01*
X0192743Y0021658D02*
X0205757Y0021658D01*
X0205757Y0022057D02*
X0192743Y0022057D01*
X0192743Y0022455D02*
X0205757Y0022455D01*
X0205757Y0022854D02*
X0192743Y0022854D01*
X0192743Y0023252D02*
X0205757Y0023252D01*
X0205757Y0023651D02*
X0192743Y0023651D01*
X0192743Y0024049D02*
X0205757Y0024049D01*
X0205757Y0024448D02*
X0192743Y0024448D01*
X0192743Y0024846D02*
X0205757Y0024846D01*
X0205757Y0025245D02*
X0192743Y0025245D01*
X0192743Y0025643D02*
X0205757Y0025643D01*
X0205757Y0026042D02*
X0192743Y0026042D01*
X0192743Y0026440D02*
X0205757Y0026440D01*
X0205757Y0026839D02*
X0192743Y0026839D01*
X0192608Y0027237D02*
X0205892Y0027237D01*
X0206057Y0027636D02*
X0192443Y0027636D01*
X0192278Y0028034D02*
X0206222Y0028034D01*
X0206387Y0028433D02*
X0192113Y0028433D01*
X0191845Y0028832D02*
X0206655Y0028832D01*
X0207053Y0029230D02*
X0191447Y0029230D01*
X0191048Y0029629D02*
X0207452Y0029629D01*
X0207903Y0030027D02*
X0190975Y0030027D01*
X0190975Y0030426D02*
X0207925Y0030426D01*
X0207925Y0030824D02*
X0190975Y0030824D01*
X0190975Y0031223D02*
X0207925Y0031223D01*
X0207925Y0031621D02*
X0190975Y0031621D01*
X0190975Y0032020D02*
X0207925Y0032020D01*
X0207925Y0032418D02*
X0190975Y0032418D01*
X0190975Y0032817D02*
X0207925Y0032817D01*
X0207756Y0033215D02*
X0190975Y0033215D01*
X0191068Y0033614D02*
X0207432Y0033614D01*
X0207267Y0034012D02*
X0191233Y0034012D01*
X0191398Y0034411D02*
X0207102Y0034411D01*
X0206944Y0034809D02*
X0191556Y0034809D01*
X0191556Y0035208D02*
X0206944Y0035208D01*
X0206944Y0035606D02*
X0191556Y0035606D01*
X0191556Y0036005D02*
X0206944Y0036005D01*
X0207025Y0036403D02*
X0191475Y0036403D01*
X0191310Y0036802D02*
X0207190Y0036802D01*
X0207355Y0037200D02*
X0191145Y0037200D01*
X0190930Y0037599D02*
X0207570Y0037599D01*
X0207968Y0037997D02*
X0190532Y0037997D01*
X0190133Y0038396D02*
X0208367Y0038396D01*
X0209161Y0038794D02*
X0189339Y0038794D01*
X0186661Y0038794D02*
X0012472Y0038794D01*
X0012472Y0038396D02*
X0185867Y0038396D01*
X0185468Y0037997D02*
X0012472Y0037997D01*
X0012472Y0037599D02*
X0185070Y0037599D01*
X0184855Y0037200D02*
X0012472Y0037200D01*
X0012472Y0036802D02*
X0184690Y0036802D01*
X0184525Y0036403D02*
X0012472Y0036403D01*
X0012472Y0036005D02*
X0184444Y0036005D01*
X0184444Y0035606D02*
X0012472Y0035606D01*
X0012472Y0035208D02*
X0184444Y0035208D01*
X0184444Y0034809D02*
X0012472Y0034809D01*
X0012472Y0034411D02*
X0184602Y0034411D01*
X0184767Y0034012D02*
X0012472Y0034012D01*
X0012472Y0033614D02*
X0184932Y0033614D01*
X0185025Y0033215D02*
X0012472Y0033215D01*
X0012472Y0032817D02*
X0185025Y0032817D01*
X0185025Y0032418D02*
X0012472Y0032418D01*
X0012472Y0032020D02*
X0185025Y0032020D01*
X0185025Y0031621D02*
X0012472Y0031621D01*
X0012472Y0031223D02*
X0185025Y0031223D01*
X0185025Y0030824D02*
X0012472Y0030824D01*
X0012472Y0030426D02*
X0108865Y0030426D01*
X0109556Y0030712D02*
X0107813Y0029990D01*
X0106479Y0028655D01*
X0105757Y0026912D01*
X0105757Y0019088D01*
X0106479Y0017345D01*
X0107813Y0016010D01*
X0109556Y0015288D01*
X0111444Y0015288D01*
X0113187Y0016010D01*
X0114521Y0017345D01*
X0115243Y0019088D01*
X0115243Y0020425D01*
X0120546Y0020425D01*
X0120986Y0019985D01*
X0122293Y0019444D01*
X0123707Y0019444D01*
X0125014Y0019985D01*
X0126015Y0020986D01*
X0126556Y0022293D01*
X0126556Y0023707D01*
X0126015Y0025014D01*
X0125014Y0026015D01*
X0123707Y0026556D01*
X0122293Y0026556D01*
X0120986Y0026015D01*
X0120546Y0025575D01*
X0115243Y0025575D01*
X0115243Y0026912D01*
X0114521Y0028655D01*
X0113187Y0029990D01*
X0111444Y0030712D01*
X0109556Y0030712D01*
X0107903Y0030027D02*
X0012481Y0030027D01*
X0012503Y0029629D02*
X0107452Y0029629D01*
X0107053Y0029230D02*
X0012525Y0029230D01*
X0012548Y0028832D02*
X0106655Y0028832D01*
X0106387Y0028433D02*
X0012570Y0028433D01*
X0012621Y0028034D02*
X0106222Y0028034D01*
X0106057Y0027636D02*
X0012712Y0027636D01*
X0012803Y0027237D02*
X0105892Y0027237D01*
X0105757Y0026839D02*
X0012894Y0026839D01*
X0012985Y0026440D02*
X0105757Y0026440D01*
X0105757Y0026042D02*
X0013076Y0026042D01*
X0013167Y0025643D02*
X0105757Y0025643D01*
X0105757Y0025245D02*
X0013258Y0025245D01*
X0013349Y0024846D02*
X0105757Y0024846D01*
X0105757Y0024448D02*
X0013440Y0024448D01*
X0013603Y0024049D02*
X0105757Y0024049D01*
X0105757Y0023651D02*
X0013795Y0023651D01*
X0013987Y0023252D02*
X0105757Y0023252D01*
X0105757Y0022854D02*
X0014179Y0022854D01*
X0014371Y0022455D02*
X0105757Y0022455D01*
X0105757Y0022057D02*
X0014563Y0022057D01*
X0014755Y0021658D02*
X0105757Y0021658D01*
X0105757Y0021260D02*
X0014946Y0021260D01*
X0015138Y0020861D02*
X0105757Y0020861D01*
X0105757Y0020463D02*
X0015424Y0020463D01*
X0015742Y0020064D02*
X0105757Y0020064D01*
X0105757Y0019666D02*
X0016060Y0019666D01*
X0016378Y0019267D02*
X0105757Y0019267D01*
X0105848Y0018869D02*
X0016696Y0018869D01*
X0017013Y0018470D02*
X0106013Y0018470D01*
X0106178Y0018072D02*
X0017331Y0018072D01*
X0017649Y0017673D02*
X0106343Y0017673D01*
X0106549Y0017275D02*
X0018143Y0017275D01*
X0018642Y0016876D02*
X0106947Y0016876D01*
X0107346Y0016478D02*
X0019142Y0016478D01*
X0019642Y0016079D02*
X0107744Y0016079D01*
X0108609Y0015681D02*
X0020142Y0015681D01*
X0021390Y0014884D02*
X0294885Y0014884D01*
X0294058Y0014485D02*
X0022218Y0014485D01*
X0023045Y0014087D02*
X0293230Y0014087D01*
X0292403Y0013688D02*
X0023873Y0013688D01*
X0025106Y0013290D02*
X0291169Y0013290D01*
X0289423Y0012891D02*
X0026852Y0012891D01*
X0029813Y0012493D02*
X0286463Y0012493D01*
X0303804Y0039193D02*
X0012472Y0039193D01*
X0012472Y0039591D02*
X0303804Y0039591D01*
X0303804Y0039990D02*
X0012472Y0039990D01*
X0012472Y0040388D02*
X0303804Y0040388D01*
X0303804Y0040787D02*
X0012472Y0040787D01*
X0012472Y0041185D02*
X0303804Y0041185D01*
X0303804Y0041584D02*
X0012472Y0041584D01*
X0012472Y0041982D02*
X0303804Y0041982D01*
X0303804Y0042381D02*
X0012472Y0042381D01*
X0012472Y0042779D02*
X0303804Y0042779D01*
X0303804Y0043178D02*
X0012472Y0043178D01*
X0012472Y0043576D02*
X0303804Y0043576D01*
X0303804Y0043975D02*
X0012472Y0043975D01*
X0012472Y0044373D02*
X0303804Y0044373D01*
X0303804Y0044772D02*
X0012472Y0044772D01*
X0012472Y0045170D02*
X0303804Y0045170D01*
X0303804Y0045569D02*
X0012472Y0045569D01*
X0012472Y0045968D02*
X0303804Y0045968D01*
X0303804Y0046366D02*
X0012472Y0046366D01*
X0012472Y0046765D02*
X0303804Y0046765D01*
X0303804Y0047163D02*
X0012472Y0047163D01*
X0012472Y0047562D02*
X0303804Y0047562D01*
X0303804Y0047960D02*
X0012472Y0047960D01*
X0012472Y0048359D02*
X0303804Y0048359D01*
X0303804Y0048757D02*
X0012472Y0048757D01*
X0012472Y0049156D02*
X0303804Y0049156D01*
X0303804Y0049554D02*
X0012472Y0049554D01*
X0012472Y0049953D02*
X0303804Y0049953D01*
X0303804Y0050351D02*
X0012472Y0050351D01*
X0012472Y0050750D02*
X0303804Y0050750D01*
X0303804Y0051148D02*
X0012472Y0051148D01*
X0012472Y0051547D02*
X0303804Y0051547D01*
X0303804Y0051945D02*
X0012472Y0051945D01*
X0012472Y0052344D02*
X0303804Y0052344D01*
X0303804Y0052742D02*
X0012472Y0052742D01*
X0012472Y0053141D02*
X0303804Y0053141D01*
X0303804Y0053539D02*
X0012472Y0053539D01*
X0012472Y0053938D02*
X0303804Y0053938D01*
X0303804Y0054336D02*
X0012472Y0054336D01*
X0012472Y0054735D02*
X0303804Y0054735D01*
X0303804Y0055133D02*
X0012472Y0055133D01*
X0012472Y0055532D02*
X0303804Y0055532D01*
X0303804Y0055930D02*
X0012472Y0055930D01*
X0012472Y0056329D02*
X0303804Y0056329D01*
X0303804Y0056727D02*
X0012472Y0056727D01*
X0012472Y0057126D02*
X0303804Y0057126D01*
X0303804Y0057524D02*
X0012472Y0057524D01*
X0012472Y0057923D02*
X0303804Y0057923D01*
X0303804Y0058321D02*
X0012472Y0058321D01*
X0012472Y0058720D02*
X0303804Y0058720D01*
X0303804Y0059118D02*
X0012472Y0059118D01*
X0012472Y0059517D02*
X0232117Y0059517D01*
X0232293Y0059444D02*
X0230986Y0059985D01*
X0229985Y0060986D01*
X0229444Y0062293D01*
X0229444Y0063707D01*
X0229985Y0065014D01*
X0230025Y0065054D01*
X0230025Y0085946D01*
X0229985Y0085986D01*
X0229444Y0087293D01*
X0229444Y0088707D01*
X0229985Y0090014D01*
X0230025Y0090054D01*
X0230025Y0096092D01*
X0230478Y0097185D01*
X0231315Y0098022D01*
X0232408Y0098475D01*
X0252196Y0098475D01*
X0252236Y0098515D01*
X0253543Y0099056D01*
X0254957Y0099056D01*
X0256264Y0098515D01*
X0257265Y0097514D01*
X0257806Y0096207D01*
X0257806Y0094793D01*
X0257265Y0093486D01*
X0256264Y0092485D01*
X0254957Y0091944D01*
X0253543Y0091944D01*
X0252236Y0092485D01*
X0252196Y0092525D01*
X0235975Y0092525D01*
X0235975Y0090054D01*
X0236015Y0090014D01*
X0236556Y0088707D01*
X0236556Y0087293D01*
X0236015Y0085986D01*
X0235975Y0085946D01*
X0235975Y0065054D01*
X0236015Y0065014D01*
X0236556Y0063707D01*
X0236556Y0062293D01*
X0236015Y0060986D01*
X0235014Y0059985D01*
X0233707Y0059444D01*
X0232293Y0059444D01*
X0231155Y0059915D02*
X0012472Y0059915D01*
X0012472Y0060314D02*
X0230657Y0060314D01*
X0230259Y0060712D02*
X0012472Y0060712D01*
X0012472Y0061111D02*
X0229934Y0061111D01*
X0229769Y0061509D02*
X0012472Y0061509D01*
X0012472Y0061908D02*
X0229603Y0061908D01*
X0229444Y0062306D02*
X0012472Y0062306D01*
X0012472Y0062705D02*
X0229444Y0062705D01*
X0229444Y0063103D02*
X0012472Y0063103D01*
X0012472Y0063502D02*
X0229444Y0063502D01*
X0229524Y0063901D02*
X0012472Y0063901D01*
X0012472Y0064299D02*
X0229689Y0064299D01*
X0229854Y0064698D02*
X0012472Y0064698D01*
X0012472Y0065096D02*
X0230025Y0065096D01*
X0230025Y0065495D02*
X0012472Y0065495D01*
X0012472Y0065893D02*
X0230025Y0065893D01*
X0230025Y0066292D02*
X0012472Y0066292D01*
X0012472Y0066690D02*
X0230025Y0066690D01*
X0230025Y0067089D02*
X0012472Y0067089D01*
X0012472Y0067487D02*
X0230025Y0067487D01*
X0230025Y0067886D02*
X0012472Y0067886D01*
X0012472Y0068284D02*
X0230025Y0068284D01*
X0230025Y0068683D02*
X0012472Y0068683D01*
X0012472Y0069081D02*
X0230025Y0069081D01*
X0230025Y0069480D02*
X0012472Y0069480D01*
X0012472Y0069878D02*
X0230025Y0069878D01*
X0230025Y0070277D02*
X0012472Y0070277D01*
X0012472Y0070675D02*
X0230025Y0070675D01*
X0230025Y0071074D02*
X0012472Y0071074D01*
X0012472Y0071472D02*
X0230025Y0071472D01*
X0230025Y0071871D02*
X0012472Y0071871D01*
X0012472Y0072269D02*
X0230025Y0072269D01*
X0230025Y0072668D02*
X0012472Y0072668D01*
X0012472Y0073066D02*
X0230025Y0073066D01*
X0230025Y0073465D02*
X0012472Y0073465D01*
X0012472Y0073863D02*
X0230025Y0073863D01*
X0230025Y0074262D02*
X0012472Y0074262D01*
X0012472Y0074660D02*
X0230025Y0074660D01*
X0230025Y0075059D02*
X0012472Y0075059D01*
X0012472Y0075457D02*
X0230025Y0075457D01*
X0230025Y0075856D02*
X0012472Y0075856D01*
X0012472Y0076254D02*
X0230025Y0076254D01*
X0230025Y0076653D02*
X0012472Y0076653D01*
X0012472Y0077051D02*
X0230025Y0077051D01*
X0230025Y0077450D02*
X0012472Y0077450D01*
X0012472Y0077848D02*
X0230025Y0077848D01*
X0230025Y0078247D02*
X0012472Y0078247D01*
X0012472Y0078645D02*
X0230025Y0078645D01*
X0230025Y0079044D02*
X0012472Y0079044D01*
X0012472Y0079442D02*
X0230025Y0079442D01*
X0230025Y0079841D02*
X0012472Y0079841D01*
X0012472Y0080239D02*
X0230025Y0080239D01*
X0230025Y0080638D02*
X0012472Y0080638D01*
X0012472Y0081037D02*
X0230025Y0081037D01*
X0230025Y0081435D02*
X0012472Y0081435D01*
X0012472Y0081834D02*
X0230025Y0081834D01*
X0230025Y0082232D02*
X0012472Y0082232D01*
X0012472Y0082631D02*
X0230025Y0082631D01*
X0230025Y0083029D02*
X0012472Y0083029D01*
X0012472Y0083428D02*
X0230025Y0083428D01*
X0230025Y0083826D02*
X0012472Y0083826D01*
X0012472Y0084225D02*
X0230025Y0084225D01*
X0230025Y0084623D02*
X0012472Y0084623D01*
X0012472Y0085022D02*
X0230025Y0085022D01*
X0230025Y0085420D02*
X0012472Y0085420D01*
X0012472Y0085819D02*
X0230025Y0085819D01*
X0229890Y0086217D02*
X0012472Y0086217D01*
X0012472Y0086616D02*
X0229725Y0086616D01*
X0229559Y0087014D02*
X0012472Y0087014D01*
X0012472Y0087413D02*
X0229444Y0087413D01*
X0229444Y0087811D02*
X0012472Y0087811D01*
X0012472Y0088210D02*
X0229444Y0088210D01*
X0229444Y0088608D02*
X0012472Y0088608D01*
X0012472Y0089007D02*
X0229568Y0089007D01*
X0229733Y0089405D02*
X0012472Y0089405D01*
X0012472Y0089804D02*
X0146424Y0089804D01*
X0145986Y0089985D02*
X0147293Y0089444D01*
X0148707Y0089444D01*
X0150014Y0089985D01*
X0151015Y0090986D01*
X0151556Y0092293D01*
X0151556Y0093707D01*
X0151015Y0095014D01*
X0150575Y0095454D01*
X0150575Y0115546D01*
X0151015Y0115986D01*
X0151556Y0117293D01*
X0151556Y0118707D01*
X0151015Y0120014D01*
X0150014Y0121015D01*
X0148707Y0121556D01*
X0147293Y0121556D01*
X0145986Y0121015D01*
X0144985Y0120014D01*
X0144444Y0118707D01*
X0144444Y0117293D01*
X0144985Y0115986D01*
X0145425Y0115546D01*
X0145425Y0095454D01*
X0144985Y0095014D01*
X0144444Y0093707D01*
X0144444Y0092293D01*
X0144985Y0090986D01*
X0145986Y0089985D01*
X0145769Y0090202D02*
X0012472Y0090202D01*
X0012472Y0090601D02*
X0145370Y0090601D01*
X0144980Y0090999D02*
X0012472Y0090999D01*
X0012472Y0091398D02*
X0144815Y0091398D01*
X0144650Y0091796D02*
X0012472Y0091796D01*
X0012472Y0092195D02*
X0144485Y0092195D01*
X0144444Y0092593D02*
X0012472Y0092593D01*
X0012472Y0092992D02*
X0144444Y0092992D01*
X0144444Y0093390D02*
X0012472Y0093390D01*
X0012472Y0093789D02*
X0144478Y0093789D01*
X0144643Y0094187D02*
X0012472Y0094187D01*
X0012472Y0094586D02*
X0144808Y0094586D01*
X0144973Y0094984D02*
X0012472Y0094984D01*
X0012472Y0095383D02*
X0145354Y0095383D01*
X0145425Y0095781D02*
X0012472Y0095781D01*
X0012472Y0096180D02*
X0145425Y0096180D01*
X0145425Y0096578D02*
X0012472Y0096578D01*
X0012472Y0096977D02*
X0145425Y0096977D01*
X0145425Y0097375D02*
X0012472Y0097375D01*
X0012472Y0097774D02*
X0145425Y0097774D01*
X0145425Y0098172D02*
X0012472Y0098172D01*
X0012472Y0098571D02*
X0145425Y0098571D01*
X0145425Y0098970D02*
X0012472Y0098970D01*
X0012472Y0099368D02*
X0145425Y0099368D01*
X0145425Y0099767D02*
X0012472Y0099767D01*
X0012472Y0100165D02*
X0145425Y0100165D01*
X0145425Y0100564D02*
X0012472Y0100564D01*
X0012472Y0100962D02*
X0145425Y0100962D01*
X0145425Y0101361D02*
X0012472Y0101361D01*
X0012472Y0101759D02*
X0145425Y0101759D01*
X0145425Y0102158D02*
X0012472Y0102158D01*
X0012472Y0102556D02*
X0145425Y0102556D01*
X0145425Y0102955D02*
X0012472Y0102955D01*
X0012472Y0103353D02*
X0145425Y0103353D01*
X0145425Y0103752D02*
X0012472Y0103752D01*
X0012472Y0104150D02*
X0145425Y0104150D01*
X0145425Y0104549D02*
X0012472Y0104549D01*
X0012472Y0104947D02*
X0145425Y0104947D01*
X0145425Y0105346D02*
X0012472Y0105346D01*
X0012472Y0105744D02*
X0145425Y0105744D01*
X0145425Y0106143D02*
X0012472Y0106143D01*
X0012472Y0106541D02*
X0145425Y0106541D01*
X0145425Y0106940D02*
X0012472Y0106940D01*
X0012472Y0107338D02*
X0145425Y0107338D01*
X0145425Y0107737D02*
X0012472Y0107737D01*
X0012472Y0108135D02*
X0145425Y0108135D01*
X0145425Y0108534D02*
X0012472Y0108534D01*
X0012472Y0108932D02*
X0145425Y0108932D01*
X0145425Y0109331D02*
X0012472Y0109331D01*
X0012472Y0109729D02*
X0145425Y0109729D01*
X0145425Y0110128D02*
X0012472Y0110128D01*
X0012472Y0110526D02*
X0145425Y0110526D01*
X0145425Y0110925D02*
X0027318Y0110925D01*
X0026912Y0110757D02*
X0028655Y0111479D01*
X0029990Y0112813D01*
X0030036Y0112925D01*
X0033046Y0112925D01*
X0033486Y0112485D01*
X0034793Y0111944D01*
X0036207Y0111944D01*
X0037514Y0112485D01*
X0038515Y0113486D01*
X0039056Y0114793D01*
X0039056Y0116207D01*
X0038515Y0117514D01*
X0037514Y0118515D01*
X0036207Y0119056D01*
X0034793Y0119056D01*
X0033486Y0118515D01*
X0033046Y0118075D01*
X0030036Y0118075D01*
X0029990Y0118187D01*
X0028655Y0119521D01*
X0026912Y0120243D01*
X0019088Y0120243D01*
X0017345Y0119521D01*
X0016010Y0118187D01*
X0015288Y0116444D01*
X0015288Y0114556D01*
X0016010Y0112813D01*
X0017345Y0111479D01*
X0019088Y0110757D01*
X0026912Y0110757D01*
X0028280Y0111323D02*
X0145425Y0111323D01*
X0145425Y0111722D02*
X0028898Y0111722D01*
X0029297Y0112120D02*
X0034367Y0112120D01*
X0033452Y0112519D02*
X0029695Y0112519D01*
X0030033Y0112917D02*
X0033054Y0112917D01*
X0036633Y0112120D02*
X0145425Y0112120D01*
X0145425Y0112519D02*
X0037548Y0112519D01*
X0037946Y0112917D02*
X0145425Y0112917D01*
X0145425Y0113316D02*
X0038345Y0113316D01*
X0038609Y0113714D02*
X0145425Y0113714D01*
X0145425Y0114113D02*
X0038774Y0114113D01*
X0038939Y0114511D02*
X0145425Y0114511D01*
X0145425Y0114910D02*
X0039056Y0114910D01*
X0039056Y0115308D02*
X0145425Y0115308D01*
X0145264Y0115707D02*
X0039056Y0115707D01*
X0039056Y0116105D02*
X0144936Y0116105D01*
X0144771Y0116504D02*
X0038933Y0116504D01*
X0038768Y0116903D02*
X0144606Y0116903D01*
X0144444Y0117301D02*
X0038603Y0117301D01*
X0038329Y0117700D02*
X0144444Y0117700D01*
X0144444Y0118098D02*
X0037931Y0118098D01*
X0037532Y0118497D02*
X0144444Y0118497D01*
X0144522Y0118895D02*
X0036596Y0118895D01*
X0034404Y0118895D02*
X0029281Y0118895D01*
X0028883Y0119294D02*
X0144687Y0119294D01*
X0144852Y0119692D02*
X0028243Y0119692D01*
X0027281Y0120091D02*
X0145062Y0120091D01*
X0145460Y0120489D02*
X0012472Y0120489D01*
X0012472Y0120091D02*
X0018719Y0120091D01*
X0019088Y0120757D02*
X0026912Y0120757D01*
X0028655Y0121479D01*
X0029990Y0122813D01*
X0030036Y0122925D01*
X0033046Y0122925D01*
X0033486Y0122485D01*
X0034793Y0121944D01*
X0036207Y0121944D01*
X0037514Y0122485D01*
X0038515Y0123486D01*
X0039056Y0124793D01*
X0039056Y0126207D01*
X0038515Y0127514D01*
X0037514Y0128515D01*
X0036207Y0129056D01*
X0034793Y0129056D01*
X0033486Y0128515D01*
X0033046Y0128075D01*
X0030036Y0128075D01*
X0029990Y0128187D01*
X0028655Y0129521D01*
X0026912Y0130243D01*
X0019088Y0130243D01*
X0017345Y0129521D01*
X0016010Y0128187D01*
X0015288Y0126444D01*
X0015288Y0124556D01*
X0016010Y0122813D01*
X0017345Y0121479D01*
X0019088Y0120757D01*
X0018772Y0120888D02*
X0012472Y0120888D01*
X0012472Y0121286D02*
X0017810Y0121286D01*
X0017139Y0121685D02*
X0012472Y0121685D01*
X0012472Y0122083D02*
X0016740Y0122083D01*
X0016342Y0122482D02*
X0012472Y0122482D01*
X0012472Y0122880D02*
X0015983Y0122880D01*
X0015817Y0123279D02*
X0012472Y0123279D01*
X0012472Y0123677D02*
X0015652Y0123677D01*
X0015487Y0124076D02*
X0012472Y0124076D01*
X0012472Y0124474D02*
X0015322Y0124474D01*
X0015288Y0124873D02*
X0012472Y0124873D01*
X0012472Y0125271D02*
X0015288Y0125271D01*
X0015288Y0125670D02*
X0012472Y0125670D01*
X0012472Y0126068D02*
X0015288Y0126068D01*
X0015298Y0126467D02*
X0012472Y0126467D01*
X0012472Y0126865D02*
X0015463Y0126865D01*
X0015628Y0127264D02*
X0012472Y0127264D01*
X0012472Y0127662D02*
X0015793Y0127662D01*
X0015958Y0128061D02*
X0012472Y0128061D01*
X0012472Y0128459D02*
X0016283Y0128459D01*
X0016681Y0128858D02*
X0012472Y0128858D01*
X0012472Y0129256D02*
X0017080Y0129256D01*
X0017667Y0129655D02*
X0012472Y0129655D01*
X0012472Y0130053D02*
X0018630Y0130053D01*
X0018862Y0130850D02*
X0012472Y0130850D01*
X0012472Y0130452D02*
X0303804Y0130452D01*
X0303804Y0130850D02*
X0027138Y0130850D01*
X0026912Y0130757D02*
X0028655Y0131479D01*
X0029990Y0132813D01*
X0030036Y0132925D01*
X0033046Y0132925D01*
X0033486Y0132485D01*
X0034793Y0131944D01*
X0036207Y0131944D01*
X0037514Y0132485D01*
X0038515Y0133486D01*
X0039056Y0134793D01*
X0039056Y0136207D01*
X0038515Y0137514D01*
X0037514Y0138515D01*
X0036207Y0139056D01*
X0034793Y0139056D01*
X0033486Y0138515D01*
X0033046Y0138075D01*
X0030036Y0138075D01*
X0029990Y0138187D01*
X0028655Y0139521D01*
X0026912Y0140243D01*
X0019088Y0140243D01*
X0017345Y0139521D01*
X0016010Y0138187D01*
X0015288Y0136444D01*
X0015288Y0134556D01*
X0016010Y0132813D01*
X0017345Y0131479D01*
X0019088Y0130757D01*
X0026912Y0130757D01*
X0027370Y0130053D02*
X0303804Y0130053D01*
X0303804Y0129655D02*
X0028333Y0129655D01*
X0028920Y0129256D02*
X0303804Y0129256D01*
X0303804Y0128858D02*
X0199185Y0128858D01*
X0198707Y0129056D02*
X0197293Y0129056D01*
X0195986Y0128515D01*
X0195546Y0128075D01*
X0150454Y0128075D01*
X0150014Y0128515D01*
X0148707Y0129056D01*
X0147293Y0129056D01*
X0145986Y0128515D01*
X0144985Y0127514D01*
X0144444Y0126207D01*
X0144444Y0124793D01*
X0144985Y0123486D01*
X0145986Y0122485D01*
X0147293Y0121944D01*
X0148707Y0121944D01*
X0150014Y0122485D01*
X0150454Y0122925D01*
X0195546Y0122925D01*
X0195986Y0122485D01*
X0197293Y0121944D01*
X0198707Y0121944D01*
X0200014Y0122485D01*
X0201015Y0123486D01*
X0201556Y0124793D01*
X0201556Y0126207D01*
X0201015Y0127514D01*
X0200014Y0128515D01*
X0198707Y0129056D01*
X0200069Y0128459D02*
X0303804Y0128459D01*
X0303804Y0128061D02*
X0200468Y0128061D01*
X0200866Y0127662D02*
X0303804Y0127662D01*
X0303804Y0127264D02*
X0201118Y0127264D01*
X0201283Y0126865D02*
X0303804Y0126865D01*
X0303804Y0126467D02*
X0201448Y0126467D01*
X0201556Y0126068D02*
X0303804Y0126068D01*
X0303804Y0125670D02*
X0201556Y0125670D01*
X0201556Y0125271D02*
X0303804Y0125271D01*
X0303804Y0124873D02*
X0201556Y0124873D01*
X0201424Y0124474D02*
X0303804Y0124474D01*
X0303804Y0124076D02*
X0201259Y0124076D01*
X0201094Y0123677D02*
X0303804Y0123677D01*
X0303804Y0123279D02*
X0200808Y0123279D01*
X0200409Y0122880D02*
X0303804Y0122880D01*
X0303804Y0122482D02*
X0200005Y0122482D01*
X0199043Y0122083D02*
X0303804Y0122083D01*
X0303804Y0121685D02*
X0028861Y0121685D01*
X0029260Y0122083D02*
X0034457Y0122083D01*
X0033495Y0122482D02*
X0029658Y0122482D01*
X0030017Y0122880D02*
X0033091Y0122880D01*
X0036543Y0122083D02*
X0146957Y0122083D01*
X0146641Y0121286D02*
X0028190Y0121286D01*
X0027228Y0120888D02*
X0145859Y0120888D01*
X0145995Y0122482D02*
X0037505Y0122482D01*
X0037909Y0122880D02*
X0145591Y0122880D01*
X0145192Y0123279D02*
X0038308Y0123279D01*
X0038594Y0123677D02*
X0144906Y0123677D01*
X0144741Y0124076D02*
X0038759Y0124076D01*
X0038924Y0124474D02*
X0144576Y0124474D01*
X0144444Y0124873D02*
X0039056Y0124873D01*
X0039056Y0125271D02*
X0144444Y0125271D01*
X0144444Y0125670D02*
X0039056Y0125670D01*
X0039056Y0126068D02*
X0144444Y0126068D01*
X0144552Y0126467D02*
X0038948Y0126467D01*
X0038783Y0126865D02*
X0144717Y0126865D01*
X0144882Y0127264D02*
X0038618Y0127264D01*
X0038366Y0127662D02*
X0145134Y0127662D01*
X0145532Y0128061D02*
X0037968Y0128061D01*
X0037569Y0128459D02*
X0145931Y0128459D01*
X0146815Y0128858D02*
X0036685Y0128858D01*
X0034315Y0128858D02*
X0029319Y0128858D01*
X0029717Y0128459D02*
X0033431Y0128459D01*
X0028100Y0131249D02*
X0303804Y0131249D01*
X0303804Y0131647D02*
X0028824Y0131647D01*
X0029223Y0132046D02*
X0034547Y0132046D01*
X0033585Y0132444D02*
X0029621Y0132444D01*
X0030002Y0132843D02*
X0033128Y0132843D01*
X0036453Y0132046D02*
X0303804Y0132046D01*
X0303804Y0132444D02*
X0037415Y0132444D01*
X0037872Y0132843D02*
X0303804Y0132843D01*
X0303804Y0133241D02*
X0038270Y0133241D01*
X0038578Y0133640D02*
X0303804Y0133640D01*
X0303804Y0134039D02*
X0038744Y0134039D01*
X0038909Y0134437D02*
X0303804Y0134437D01*
X0303804Y0134836D02*
X0039056Y0134836D01*
X0039056Y0135234D02*
X0303804Y0135234D01*
X0303804Y0135633D02*
X0039056Y0135633D01*
X0039056Y0136031D02*
X0303804Y0136031D01*
X0303804Y0136430D02*
X0038964Y0136430D01*
X0038799Y0136828D02*
X0303804Y0136828D01*
X0303804Y0137227D02*
X0038634Y0137227D01*
X0038404Y0137625D02*
X0303804Y0137625D01*
X0303804Y0138024D02*
X0038005Y0138024D01*
X0037607Y0138422D02*
X0303804Y0138422D01*
X0303804Y0138821D02*
X0036775Y0138821D01*
X0034225Y0138821D02*
X0029356Y0138821D01*
X0028957Y0139219D02*
X0303804Y0139219D01*
X0303804Y0139618D02*
X0028422Y0139618D01*
X0027460Y0140016D02*
X0303804Y0140016D01*
X0303804Y0140415D02*
X0012472Y0140415D01*
X0012472Y0140813D02*
X0018952Y0140813D01*
X0019088Y0140757D02*
X0026912Y0140757D01*
X0028655Y0141479D01*
X0029702Y0142525D01*
X0033446Y0142525D01*
X0033486Y0142485D01*
X0034793Y0141944D01*
X0036207Y0141944D01*
X0037514Y0142485D01*
X0038515Y0143486D01*
X0039056Y0144793D01*
X0039056Y0146207D01*
X0038515Y0147514D01*
X0037514Y0148515D01*
X0036207Y0149056D01*
X0034793Y0149056D01*
X0033486Y0148515D01*
X0033446Y0148475D01*
X0029702Y0148475D01*
X0028655Y0149521D01*
X0026912Y0150243D01*
X0019088Y0150243D01*
X0017345Y0149521D01*
X0016010Y0148187D01*
X0015288Y0146444D01*
X0015288Y0144556D01*
X0016010Y0142813D01*
X0017345Y0141479D01*
X0019088Y0140757D01*
X0018540Y0140016D02*
X0012472Y0140016D01*
X0012472Y0139618D02*
X0017578Y0139618D01*
X0017043Y0139219D02*
X0012472Y0139219D01*
X0012472Y0138821D02*
X0016644Y0138821D01*
X0016246Y0138422D02*
X0012472Y0138422D01*
X0012472Y0138024D02*
X0015943Y0138024D01*
X0015778Y0137625D02*
X0012472Y0137625D01*
X0012472Y0137227D02*
X0015613Y0137227D01*
X0015447Y0136828D02*
X0012472Y0136828D01*
X0012472Y0136430D02*
X0015288Y0136430D01*
X0015288Y0136031D02*
X0012472Y0136031D01*
X0012472Y0135633D02*
X0015288Y0135633D01*
X0015288Y0135234D02*
X0012472Y0135234D01*
X0012472Y0134836D02*
X0015288Y0134836D01*
X0015338Y0134437D02*
X0012472Y0134437D01*
X0012472Y0134039D02*
X0015503Y0134039D01*
X0015668Y0133640D02*
X0012472Y0133640D01*
X0012472Y0133241D02*
X0015833Y0133241D01*
X0015998Y0132843D02*
X0012472Y0132843D01*
X0012472Y0132444D02*
X0016379Y0132444D01*
X0016777Y0132046D02*
X0012472Y0132046D01*
X0012472Y0131647D02*
X0017176Y0131647D01*
X0017900Y0131249D02*
X0012472Y0131249D01*
X0012472Y0141212D02*
X0017989Y0141212D01*
X0017213Y0141610D02*
X0012472Y0141610D01*
X0012472Y0142009D02*
X0016815Y0142009D01*
X0016416Y0142407D02*
X0012472Y0142407D01*
X0012472Y0142806D02*
X0016018Y0142806D01*
X0015848Y0143204D02*
X0012472Y0143204D01*
X0012472Y0143603D02*
X0015683Y0143603D01*
X0015518Y0144001D02*
X0012472Y0144001D01*
X0012472Y0144400D02*
X0015353Y0144400D01*
X0015288Y0144798D02*
X0012472Y0144798D01*
X0012472Y0145197D02*
X0015288Y0145197D01*
X0015288Y0145595D02*
X0012472Y0145595D01*
X0012472Y0145994D02*
X0015288Y0145994D01*
X0015288Y0146392D02*
X0012472Y0146392D01*
X0012472Y0146791D02*
X0015432Y0146791D01*
X0015597Y0147189D02*
X0012472Y0147189D01*
X0012472Y0147588D02*
X0015762Y0147588D01*
X0015927Y0147986D02*
X0012472Y0147986D01*
X0012472Y0148385D02*
X0016208Y0148385D01*
X0016607Y0148783D02*
X0012472Y0148783D01*
X0012472Y0149182D02*
X0017005Y0149182D01*
X0017488Y0149580D02*
X0012472Y0149580D01*
X0012472Y0149979D02*
X0018450Y0149979D01*
X0012472Y0150377D02*
X0303804Y0150377D01*
X0303804Y0149979D02*
X0027550Y0149979D01*
X0028512Y0149580D02*
X0303804Y0149580D01*
X0303804Y0149182D02*
X0028995Y0149182D01*
X0029393Y0148783D02*
X0034135Y0148783D01*
X0036865Y0148783D02*
X0303804Y0148783D01*
X0303804Y0148385D02*
X0037644Y0148385D01*
X0038042Y0147986D02*
X0303804Y0147986D01*
X0303804Y0147588D02*
X0038441Y0147588D01*
X0038649Y0147189D02*
X0303804Y0147189D01*
X0303804Y0146791D02*
X0038814Y0146791D01*
X0038979Y0146392D02*
X0303804Y0146392D01*
X0303804Y0145994D02*
X0039056Y0145994D01*
X0039056Y0145595D02*
X0303804Y0145595D01*
X0303804Y0145197D02*
X0039056Y0145197D01*
X0039056Y0144798D02*
X0303804Y0144798D01*
X0303804Y0144400D02*
X0038893Y0144400D01*
X0038728Y0144001D02*
X0303804Y0144001D01*
X0303804Y0143603D02*
X0038563Y0143603D01*
X0038233Y0143204D02*
X0303804Y0143204D01*
X0303804Y0142806D02*
X0037835Y0142806D01*
X0037325Y0142407D02*
X0303804Y0142407D01*
X0303804Y0142009D02*
X0036363Y0142009D01*
X0034637Y0142009D02*
X0029185Y0142009D01*
X0028787Y0141610D02*
X0303804Y0141610D01*
X0303804Y0141212D02*
X0028011Y0141212D01*
X0027048Y0140813D02*
X0303804Y0140813D01*
X0303804Y0150776D02*
X0012472Y0150776D01*
X0012472Y0151174D02*
X0303804Y0151174D01*
X0303804Y0151573D02*
X0012472Y0151573D01*
X0012472Y0151972D02*
X0303804Y0151972D01*
X0303804Y0152370D02*
X0012472Y0152370D01*
X0012472Y0152769D02*
X0303804Y0152769D01*
X0303804Y0153167D02*
X0012472Y0153167D01*
X0012472Y0153566D02*
X0303804Y0153566D01*
X0303804Y0153964D02*
X0012472Y0153964D01*
X0012472Y0154363D02*
X0303804Y0154363D01*
X0303804Y0154761D02*
X0012472Y0154761D01*
X0012472Y0155160D02*
X0303804Y0155160D01*
X0303804Y0155558D02*
X0012472Y0155558D01*
X0012472Y0155957D02*
X0303804Y0155957D01*
X0303804Y0156355D02*
X0012472Y0156355D01*
X0012472Y0156754D02*
X0303804Y0156754D01*
X0303804Y0157152D02*
X0266710Y0157152D01*
X0266207Y0156944D02*
X0267514Y0157485D01*
X0268515Y0158486D01*
X0269056Y0159793D01*
X0269056Y0161207D01*
X0268515Y0162514D01*
X0268075Y0162954D01*
X0268075Y0171267D01*
X0270559Y0172296D01*
X0272720Y0174457D01*
X0273889Y0177279D01*
X0273889Y0192146D01*
X0272720Y0194969D01*
X0270559Y0197129D01*
X0267736Y0198298D01*
X0264681Y0198298D01*
X0261858Y0197129D01*
X0259698Y0194969D01*
X0258528Y0192146D01*
X0258528Y0177279D01*
X0259698Y0174457D01*
X0261858Y0172296D01*
X0262925Y0171854D01*
X0262925Y0162954D01*
X0262485Y0162514D01*
X0261944Y0161207D01*
X0261944Y0159793D01*
X0262485Y0158486D01*
X0263486Y0157485D01*
X0264793Y0156944D01*
X0266207Y0156944D01*
X0267579Y0157551D02*
X0303804Y0157551D01*
X0303804Y0157949D02*
X0267978Y0157949D01*
X0268377Y0158348D02*
X0303804Y0158348D01*
X0303804Y0158746D02*
X0268622Y0158746D01*
X0268788Y0159145D02*
X0303804Y0159145D01*
X0303804Y0159543D02*
X0268953Y0159543D01*
X0269056Y0159942D02*
X0303804Y0159942D01*
X0303804Y0160340D02*
X0269056Y0160340D01*
X0269056Y0160739D02*
X0303804Y0160739D01*
X0303804Y0161137D02*
X0269056Y0161137D01*
X0268920Y0161536D02*
X0303804Y0161536D01*
X0303804Y0161934D02*
X0268755Y0161934D01*
X0268590Y0162333D02*
X0303804Y0162333D01*
X0303804Y0162731D02*
X0268297Y0162731D01*
X0268075Y0163130D02*
X0303804Y0163130D01*
X0303804Y0163528D02*
X0268075Y0163528D01*
X0268075Y0163927D02*
X0303804Y0163927D01*
X0303804Y0164325D02*
X0268075Y0164325D01*
X0268075Y0164724D02*
X0303804Y0164724D01*
X0303804Y0165122D02*
X0268075Y0165122D01*
X0268075Y0165521D02*
X0303804Y0165521D01*
X0303804Y0165919D02*
X0268075Y0165919D01*
X0268075Y0166318D02*
X0303804Y0166318D01*
X0303804Y0166716D02*
X0268075Y0166716D01*
X0268075Y0167115D02*
X0303804Y0167115D01*
X0303804Y0167513D02*
X0268075Y0167513D01*
X0268075Y0167912D02*
X0303804Y0167912D01*
X0303804Y0168310D02*
X0268075Y0168310D01*
X0268075Y0168709D02*
X0303804Y0168709D01*
X0303804Y0169108D02*
X0268075Y0169108D01*
X0268075Y0169506D02*
X0303804Y0169506D01*
X0303804Y0169905D02*
X0268075Y0169905D01*
X0268075Y0170303D02*
X0303804Y0170303D01*
X0303804Y0170702D02*
X0268075Y0170702D01*
X0268075Y0171100D02*
X0303804Y0171100D01*
X0303804Y0171499D02*
X0268634Y0171499D01*
X0269596Y0171897D02*
X0303804Y0171897D01*
X0303804Y0172296D02*
X0270558Y0172296D01*
X0270957Y0172694D02*
X0303804Y0172694D01*
X0303804Y0173093D02*
X0271356Y0173093D01*
X0271754Y0173491D02*
X0303804Y0173491D01*
X0303804Y0173890D02*
X0272153Y0173890D01*
X0272551Y0174288D02*
X0303804Y0174288D01*
X0303804Y0174687D02*
X0272815Y0174687D01*
X0272980Y0175085D02*
X0303804Y0175085D01*
X0303804Y0175484D02*
X0273145Y0175484D01*
X0273310Y0175882D02*
X0303804Y0175882D01*
X0303804Y0176281D02*
X0273475Y0176281D01*
X0273640Y0176679D02*
X0303804Y0176679D01*
X0303804Y0177078D02*
X0273805Y0177078D01*
X0273889Y0177476D02*
X0303804Y0177476D01*
X0303804Y0177875D02*
X0273889Y0177875D01*
X0273889Y0178273D02*
X0303804Y0178273D01*
X0303804Y0178672D02*
X0273889Y0178672D01*
X0273889Y0179070D02*
X0303804Y0179070D01*
X0303804Y0179469D02*
X0273889Y0179469D01*
X0273889Y0179867D02*
X0303804Y0179867D01*
X0303804Y0180266D02*
X0273889Y0180266D01*
X0273889Y0180664D02*
X0303804Y0180664D01*
X0303804Y0181063D02*
X0273889Y0181063D01*
X0273889Y0181461D02*
X0303804Y0181461D01*
X0303804Y0181860D02*
X0273889Y0181860D01*
X0273889Y0182258D02*
X0303804Y0182258D01*
X0303804Y0182657D02*
X0273889Y0182657D01*
X0273889Y0183055D02*
X0303804Y0183055D01*
X0303804Y0183454D02*
X0273889Y0183454D01*
X0273889Y0183852D02*
X0303804Y0183852D01*
X0303804Y0184251D02*
X0273889Y0184251D01*
X0273889Y0184649D02*
X0303804Y0184649D01*
X0303804Y0185048D02*
X0273889Y0185048D01*
X0273889Y0185446D02*
X0303804Y0185446D01*
X0303804Y0185845D02*
X0273889Y0185845D01*
X0273889Y0186243D02*
X0303804Y0186243D01*
X0303804Y0186642D02*
X0273889Y0186642D01*
X0273889Y0187041D02*
X0303804Y0187041D01*
X0303804Y0187439D02*
X0273889Y0187439D01*
X0273889Y0187838D02*
X0303804Y0187838D01*
X0303804Y0188236D02*
X0273889Y0188236D01*
X0273889Y0188635D02*
X0303804Y0188635D01*
X0303804Y0189033D02*
X0273889Y0189033D01*
X0273889Y0189432D02*
X0303804Y0189432D01*
X0303804Y0189830D02*
X0273889Y0189830D01*
X0273889Y0190229D02*
X0303804Y0190229D01*
X0303804Y0190627D02*
X0273889Y0190627D01*
X0273889Y0191026D02*
X0303804Y0191026D01*
X0303804Y0191424D02*
X0273889Y0191424D01*
X0273889Y0191823D02*
X0303804Y0191823D01*
X0303804Y0192221D02*
X0273858Y0192221D01*
X0273693Y0192620D02*
X0303804Y0192620D01*
X0303804Y0193018D02*
X0273528Y0193018D01*
X0273363Y0193417D02*
X0303804Y0193417D01*
X0303804Y0193815D02*
X0273197Y0193815D01*
X0273032Y0194214D02*
X0303804Y0194214D01*
X0303804Y0194612D02*
X0272867Y0194612D01*
X0272678Y0195011D02*
X0303804Y0195011D01*
X0303804Y0195409D02*
X0272279Y0195409D01*
X0271881Y0195808D02*
X0303804Y0195808D01*
X0303804Y0196206D02*
X0271482Y0196206D01*
X0271084Y0196605D02*
X0303804Y0196605D01*
X0303804Y0197003D02*
X0270685Y0197003D01*
X0269901Y0197402D02*
X0303804Y0197402D01*
X0303804Y0197800D02*
X0268939Y0197800D01*
X0267977Y0198199D02*
X0303804Y0198199D01*
X0303804Y0198597D02*
X0012472Y0198597D01*
X0012472Y0198199D02*
X0264441Y0198199D01*
X0263478Y0197800D02*
X0012472Y0197800D01*
X0012472Y0197402D02*
X0262516Y0197402D01*
X0261732Y0197003D02*
X0012472Y0197003D01*
X0012472Y0196605D02*
X0261334Y0196605D01*
X0260935Y0196206D02*
X0012472Y0196206D01*
X0012472Y0195808D02*
X0260537Y0195808D01*
X0260138Y0195409D02*
X0012472Y0195409D01*
X0012472Y0195011D02*
X0259740Y0195011D01*
X0259550Y0194612D02*
X0012472Y0194612D01*
X0012472Y0194214D02*
X0259385Y0194214D01*
X0259220Y0193815D02*
X0012472Y0193815D01*
X0012472Y0193417D02*
X0259055Y0193417D01*
X0258890Y0193018D02*
X0012472Y0193018D01*
X0012472Y0192620D02*
X0258725Y0192620D01*
X0258560Y0192221D02*
X0012472Y0192221D01*
X0012472Y0191823D02*
X0258528Y0191823D01*
X0258528Y0191424D02*
X0012472Y0191424D01*
X0012472Y0191026D02*
X0258528Y0191026D01*
X0258528Y0190627D02*
X0012472Y0190627D01*
X0012472Y0190229D02*
X0258528Y0190229D01*
X0258528Y0189830D02*
X0012472Y0189830D01*
X0012472Y0189432D02*
X0258528Y0189432D01*
X0258528Y0189033D02*
X0012472Y0189033D01*
X0012472Y0188635D02*
X0258528Y0188635D01*
X0258528Y0188236D02*
X0012472Y0188236D01*
X0012472Y0187838D02*
X0258528Y0187838D01*
X0258528Y0187439D02*
X0012472Y0187439D01*
X0012472Y0187041D02*
X0258528Y0187041D01*
X0258528Y0186642D02*
X0012472Y0186642D01*
X0012472Y0186243D02*
X0258528Y0186243D01*
X0258528Y0185845D02*
X0012472Y0185845D01*
X0012472Y0185446D02*
X0258528Y0185446D01*
X0258528Y0185048D02*
X0012472Y0185048D01*
X0012472Y0184649D02*
X0258528Y0184649D01*
X0258528Y0184251D02*
X0012472Y0184251D01*
X0012472Y0183852D02*
X0258528Y0183852D01*
X0258528Y0183454D02*
X0012472Y0183454D01*
X0012472Y0183055D02*
X0258528Y0183055D01*
X0258528Y0182657D02*
X0012472Y0182657D01*
X0012472Y0182258D02*
X0258528Y0182258D01*
X0258528Y0181860D02*
X0012472Y0181860D01*
X0012472Y0181461D02*
X0258528Y0181461D01*
X0258528Y0181063D02*
X0012472Y0181063D01*
X0012472Y0180664D02*
X0258528Y0180664D01*
X0258528Y0180266D02*
X0012472Y0180266D01*
X0012472Y0179867D02*
X0258528Y0179867D01*
X0258528Y0179469D02*
X0012472Y0179469D01*
X0012472Y0179070D02*
X0258528Y0179070D01*
X0258528Y0178672D02*
X0012472Y0178672D01*
X0012472Y0178273D02*
X0258528Y0178273D01*
X0258528Y0177875D02*
X0012472Y0177875D01*
X0012472Y0177476D02*
X0258528Y0177476D01*
X0258612Y0177078D02*
X0012472Y0177078D01*
X0012472Y0176679D02*
X0258777Y0176679D01*
X0258942Y0176281D02*
X0012472Y0176281D01*
X0012472Y0175882D02*
X0259107Y0175882D01*
X0259272Y0175484D02*
X0012472Y0175484D01*
X0012472Y0175085D02*
X0259437Y0175085D01*
X0259602Y0174687D02*
X0012472Y0174687D01*
X0012472Y0174288D02*
X0259866Y0174288D01*
X0260264Y0173890D02*
X0176974Y0173890D01*
X0176425Y0174117D02*
X0174851Y0174117D01*
X0173397Y0173515D01*
X0173138Y0173256D01*
X0172879Y0173515D01*
X0171425Y0174117D01*
X0169851Y0174117D01*
X0168397Y0173515D01*
X0168138Y0173256D01*
X0167879Y0173515D01*
X0166425Y0174117D01*
X0164851Y0174117D01*
X0163397Y0173515D01*
X0162284Y0172402D01*
X0161682Y0170948D01*
X0161682Y0165012D01*
X0162284Y0163558D01*
X0162907Y0162936D01*
X0162485Y0162514D01*
X0161944Y0161207D01*
X0161944Y0159793D01*
X0162485Y0158486D01*
X0163486Y0157485D01*
X0164793Y0156944D01*
X0166207Y0156944D01*
X0167514Y0157485D01*
X0168000Y0157971D01*
X0168486Y0157485D01*
X0169793Y0156944D01*
X0171207Y0156944D01*
X0172514Y0157485D01*
X0173000Y0157971D01*
X0173486Y0157485D01*
X0174793Y0156944D01*
X0176207Y0156944D01*
X0177514Y0157485D01*
X0178515Y0158486D01*
X0179056Y0159793D01*
X0179056Y0161207D01*
X0178515Y0162514D01*
X0178231Y0162798D01*
X0178991Y0163558D01*
X0179594Y0165012D01*
X0179594Y0170948D01*
X0178991Y0172402D01*
X0177879Y0173515D01*
X0176425Y0174117D01*
X0177903Y0173491D02*
X0260663Y0173491D01*
X0261062Y0173093D02*
X0178301Y0173093D01*
X0178700Y0172694D02*
X0261460Y0172694D01*
X0261859Y0172296D02*
X0179036Y0172296D01*
X0179201Y0171897D02*
X0262821Y0171897D01*
X0262925Y0171499D02*
X0179366Y0171499D01*
X0179531Y0171100D02*
X0262925Y0171100D01*
X0262925Y0170702D02*
X0179594Y0170702D01*
X0179594Y0170303D02*
X0262925Y0170303D01*
X0262925Y0169905D02*
X0179594Y0169905D01*
X0179594Y0169506D02*
X0262925Y0169506D01*
X0262925Y0169108D02*
X0179594Y0169108D01*
X0179594Y0168709D02*
X0262925Y0168709D01*
X0262925Y0168310D02*
X0179594Y0168310D01*
X0179594Y0167912D02*
X0262925Y0167912D01*
X0262925Y0167513D02*
X0179594Y0167513D01*
X0179594Y0167115D02*
X0262925Y0167115D01*
X0262925Y0166716D02*
X0179594Y0166716D01*
X0179594Y0166318D02*
X0262925Y0166318D01*
X0262925Y0165919D02*
X0179594Y0165919D01*
X0179594Y0165521D02*
X0262925Y0165521D01*
X0262925Y0165122D02*
X0179594Y0165122D01*
X0179474Y0164724D02*
X0262925Y0164724D01*
X0262925Y0164325D02*
X0179309Y0164325D01*
X0179144Y0163927D02*
X0262925Y0163927D01*
X0262925Y0163528D02*
X0178961Y0163528D01*
X0178563Y0163130D02*
X0262925Y0163130D01*
X0262703Y0162731D02*
X0178297Y0162731D01*
X0178590Y0162333D02*
X0262410Y0162333D01*
X0262245Y0161934D02*
X0178755Y0161934D01*
X0178920Y0161536D02*
X0262080Y0161536D01*
X0261944Y0161137D02*
X0179056Y0161137D01*
X0179056Y0160739D02*
X0261944Y0160739D01*
X0261944Y0160340D02*
X0179056Y0160340D01*
X0179056Y0159942D02*
X0261944Y0159942D01*
X0262047Y0159543D02*
X0178953Y0159543D01*
X0178787Y0159145D02*
X0262212Y0159145D01*
X0262378Y0158746D02*
X0178622Y0158746D01*
X0178377Y0158348D02*
X0262623Y0158348D01*
X0263022Y0157949D02*
X0177978Y0157949D01*
X0177579Y0157551D02*
X0263421Y0157551D01*
X0264290Y0157152D02*
X0176710Y0157152D01*
X0174290Y0157152D02*
X0171710Y0157152D01*
X0172579Y0157551D02*
X0173421Y0157551D01*
X0173022Y0157949D02*
X0172978Y0157949D01*
X0169290Y0157152D02*
X0166710Y0157152D01*
X0167579Y0157551D02*
X0168421Y0157551D01*
X0168022Y0157949D02*
X0167978Y0157949D01*
X0164290Y0157152D02*
X0156710Y0157152D01*
X0156207Y0156944D02*
X0157514Y0157485D01*
X0158515Y0158486D01*
X0159056Y0159793D01*
X0159056Y0161207D01*
X0158515Y0162514D01*
X0158475Y0162554D01*
X0158475Y0163042D01*
X0158991Y0163558D01*
X0159594Y0165012D01*
X0159594Y0170948D01*
X0158991Y0172402D01*
X0157879Y0173515D01*
X0156425Y0174117D01*
X0154851Y0174117D01*
X0153397Y0173515D01*
X0153138Y0173256D01*
X0152879Y0173515D01*
X0151425Y0174117D01*
X0149851Y0174117D01*
X0148397Y0173515D01*
X0148138Y0173256D01*
X0147879Y0173515D01*
X0146425Y0174117D01*
X0144851Y0174117D01*
X0143397Y0173515D01*
X0143138Y0173256D01*
X0142879Y0173515D01*
X0141425Y0174117D01*
X0139851Y0174117D01*
X0138397Y0173515D01*
X0137284Y0172402D01*
X0136682Y0170948D01*
X0136682Y0165012D01*
X0137284Y0163558D01*
X0137525Y0163317D01*
X0137525Y0162554D01*
X0137485Y0162514D01*
X0136944Y0161207D01*
X0136944Y0159793D01*
X0137485Y0158486D01*
X0138486Y0157485D01*
X0139793Y0156944D01*
X0141207Y0156944D01*
X0142514Y0157485D01*
X0143515Y0158486D01*
X0144056Y0159793D01*
X0144056Y0161207D01*
X0143573Y0162373D01*
X0144851Y0161843D01*
X0146425Y0161843D01*
X0147879Y0162446D01*
X0148138Y0162705D01*
X0148397Y0162446D01*
X0149851Y0161843D01*
X0151425Y0161843D01*
X0152370Y0162235D01*
X0151944Y0161207D01*
X0151944Y0159793D01*
X0152485Y0158486D01*
X0153486Y0157485D01*
X0154793Y0156944D01*
X0156207Y0156944D01*
X0157579Y0157551D02*
X0163421Y0157551D01*
X0163022Y0157949D02*
X0157978Y0157949D01*
X0158377Y0158348D02*
X0162623Y0158348D01*
X0162378Y0158746D02*
X0158622Y0158746D01*
X0158788Y0159145D02*
X0162212Y0159145D01*
X0162047Y0159543D02*
X0158953Y0159543D01*
X0159056Y0159942D02*
X0161944Y0159942D01*
X0161944Y0160340D02*
X0159056Y0160340D01*
X0159056Y0160739D02*
X0161944Y0160739D01*
X0161944Y0161137D02*
X0159056Y0161137D01*
X0158920Y0161536D02*
X0162080Y0161536D01*
X0162245Y0161934D02*
X0158755Y0161934D01*
X0158590Y0162333D02*
X0162410Y0162333D01*
X0162703Y0162731D02*
X0158475Y0162731D01*
X0158563Y0163130D02*
X0162713Y0163130D01*
X0162314Y0163528D02*
X0158961Y0163528D01*
X0159144Y0163927D02*
X0162131Y0163927D01*
X0161966Y0164325D02*
X0159309Y0164325D01*
X0159474Y0164724D02*
X0161801Y0164724D01*
X0161682Y0165122D02*
X0159594Y0165122D01*
X0159594Y0165521D02*
X0161682Y0165521D01*
X0161682Y0165919D02*
X0159594Y0165919D01*
X0159594Y0166318D02*
X0161682Y0166318D01*
X0161682Y0166716D02*
X0159594Y0166716D01*
X0159594Y0167115D02*
X0161682Y0167115D01*
X0161682Y0167513D02*
X0159594Y0167513D01*
X0159594Y0167912D02*
X0161682Y0167912D01*
X0161682Y0168310D02*
X0159594Y0168310D01*
X0159594Y0168709D02*
X0161682Y0168709D01*
X0161682Y0169108D02*
X0159594Y0169108D01*
X0159594Y0169506D02*
X0161682Y0169506D01*
X0161682Y0169905D02*
X0159594Y0169905D01*
X0159594Y0170303D02*
X0161682Y0170303D01*
X0161682Y0170702D02*
X0159594Y0170702D01*
X0159531Y0171100D02*
X0161745Y0171100D01*
X0161910Y0171499D02*
X0159366Y0171499D01*
X0159201Y0171897D02*
X0162075Y0171897D01*
X0162240Y0172296D02*
X0159036Y0172296D01*
X0158700Y0172694D02*
X0162576Y0172694D01*
X0162975Y0173093D02*
X0158301Y0173093D01*
X0157903Y0173491D02*
X0163373Y0173491D01*
X0164301Y0173890D02*
X0156974Y0173890D01*
X0154301Y0173890D02*
X0151974Y0173890D01*
X0152903Y0173491D02*
X0153373Y0173491D01*
X0149301Y0173890D02*
X0146974Y0173890D01*
X0147903Y0173491D02*
X0148373Y0173491D01*
X0144301Y0173890D02*
X0141974Y0173890D01*
X0142903Y0173491D02*
X0143373Y0173491D01*
X0139301Y0173890D02*
X0012472Y0173890D01*
X0012472Y0173491D02*
X0138373Y0173491D01*
X0137975Y0173093D02*
X0012472Y0173093D01*
X0012472Y0172694D02*
X0137576Y0172694D01*
X0137240Y0172296D02*
X0012472Y0172296D01*
X0012472Y0171897D02*
X0137075Y0171897D01*
X0136910Y0171499D02*
X0012472Y0171499D01*
X0012472Y0171100D02*
X0136745Y0171100D01*
X0136682Y0170702D02*
X0012472Y0170702D01*
X0012472Y0170303D02*
X0136682Y0170303D01*
X0136682Y0169905D02*
X0012472Y0169905D01*
X0012472Y0169506D02*
X0136682Y0169506D01*
X0136682Y0169108D02*
X0012472Y0169108D01*
X0012472Y0168709D02*
X0136682Y0168709D01*
X0136682Y0168310D02*
X0012472Y0168310D01*
X0012472Y0167912D02*
X0136682Y0167912D01*
X0136682Y0167513D02*
X0012472Y0167513D01*
X0012472Y0167115D02*
X0136682Y0167115D01*
X0136682Y0166716D02*
X0012472Y0166716D01*
X0012472Y0166318D02*
X0136682Y0166318D01*
X0136682Y0165919D02*
X0012472Y0165919D01*
X0012472Y0165521D02*
X0136682Y0165521D01*
X0136682Y0165122D02*
X0012472Y0165122D01*
X0012472Y0164724D02*
X0136801Y0164724D01*
X0136966Y0164325D02*
X0012472Y0164325D01*
X0012472Y0163927D02*
X0137131Y0163927D01*
X0137314Y0163528D02*
X0012472Y0163528D01*
X0012472Y0163130D02*
X0137525Y0163130D01*
X0137525Y0162731D02*
X0012472Y0162731D01*
X0012472Y0162333D02*
X0137410Y0162333D01*
X0137245Y0161934D02*
X0012472Y0161934D01*
X0012472Y0161536D02*
X0137080Y0161536D01*
X0136944Y0161137D02*
X0012472Y0161137D01*
X0012472Y0160739D02*
X0136944Y0160739D01*
X0136944Y0160340D02*
X0012472Y0160340D01*
X0012472Y0159942D02*
X0136944Y0159942D01*
X0137047Y0159543D02*
X0012472Y0159543D01*
X0012472Y0159145D02*
X0137212Y0159145D01*
X0137378Y0158746D02*
X0012472Y0158746D01*
X0012472Y0158348D02*
X0137623Y0158348D01*
X0138022Y0157949D02*
X0012472Y0157949D01*
X0012472Y0157551D02*
X0138421Y0157551D01*
X0139290Y0157152D02*
X0012472Y0157152D01*
X0029584Y0142407D02*
X0033675Y0142407D01*
X0033393Y0138422D02*
X0029754Y0138422D01*
X0017757Y0119692D02*
X0012472Y0119692D01*
X0012472Y0119294D02*
X0017117Y0119294D01*
X0016719Y0118895D02*
X0012472Y0118895D01*
X0012472Y0118497D02*
X0016320Y0118497D01*
X0015974Y0118098D02*
X0012472Y0118098D01*
X0012472Y0117700D02*
X0015808Y0117700D01*
X0015643Y0117301D02*
X0012472Y0117301D01*
X0012472Y0116903D02*
X0015478Y0116903D01*
X0015313Y0116504D02*
X0012472Y0116504D01*
X0012472Y0116105D02*
X0015288Y0116105D01*
X0015288Y0115707D02*
X0012472Y0115707D01*
X0012472Y0115308D02*
X0015288Y0115308D01*
X0015288Y0114910D02*
X0012472Y0114910D01*
X0012472Y0114511D02*
X0015307Y0114511D01*
X0015472Y0114113D02*
X0012472Y0114113D01*
X0012472Y0113714D02*
X0015637Y0113714D01*
X0015802Y0113316D02*
X0012472Y0113316D01*
X0012472Y0112917D02*
X0015967Y0112917D01*
X0016305Y0112519D02*
X0012472Y0112519D01*
X0012472Y0112120D02*
X0016703Y0112120D01*
X0017102Y0111722D02*
X0012472Y0111722D01*
X0012472Y0111323D02*
X0017720Y0111323D01*
X0018682Y0110925D02*
X0012472Y0110925D01*
X0029680Y0118497D02*
X0033468Y0118497D01*
X0033069Y0118098D02*
X0030026Y0118098D01*
X0012472Y0198996D02*
X0303804Y0198996D01*
X0303804Y0199394D02*
X0012472Y0199394D01*
X0012489Y0199793D02*
X0303786Y0199793D01*
X0303764Y0200191D02*
X0012512Y0200191D01*
X0012534Y0200590D02*
X0303741Y0200590D01*
X0303719Y0200988D02*
X0012557Y0200988D01*
X0012579Y0201387D02*
X0303697Y0201387D01*
X0303618Y0201785D02*
X0012657Y0201785D01*
X0012748Y0202184D02*
X0303527Y0202184D01*
X0303436Y0202582D02*
X0012839Y0202582D01*
X0012930Y0202981D02*
X0303345Y0202981D01*
X0303254Y0203379D02*
X0013021Y0203379D01*
X0013112Y0203778D02*
X0303163Y0203778D01*
X0303072Y0204177D02*
X0013203Y0204177D01*
X0013294Y0204575D02*
X0302981Y0204575D01*
X0302891Y0204974D02*
X0013385Y0204974D01*
X0013487Y0205372D02*
X0302788Y0205372D01*
X0302596Y0205771D02*
X0013679Y0205771D01*
X0013871Y0206169D02*
X0302404Y0206169D01*
X0302212Y0206568D02*
X0014063Y0206568D01*
X0014255Y0206966D02*
X0302020Y0206966D01*
X0301829Y0207365D02*
X0014447Y0207365D01*
X0014639Y0207763D02*
X0301637Y0207763D01*
X0301445Y0208162D02*
X0014831Y0208162D01*
X0015023Y0208560D02*
X0301253Y0208560D01*
X0301043Y0208959D02*
X0015233Y0208959D01*
X0015551Y0209357D02*
X0300725Y0209357D01*
X0300407Y0209756D02*
X0015869Y0209756D01*
X0016186Y0210154D02*
X0300089Y0210154D01*
X0299771Y0210553D02*
X0016504Y0210553D01*
X0016822Y0210951D02*
X0299453Y0210951D01*
X0299136Y0211350D02*
X0017140Y0211350D01*
X0017458Y0211748D02*
X0298818Y0211748D01*
X0298434Y0212147D02*
X0017842Y0212147D01*
X0018341Y0212545D02*
X0297934Y0212545D01*
X0297434Y0212944D02*
X0018841Y0212944D01*
X0019341Y0213342D02*
X0296935Y0213342D01*
X0296435Y0213741D02*
X0019841Y0213741D01*
X0020340Y0214139D02*
X0295935Y0214139D01*
X0295384Y0214538D02*
X0020892Y0214538D01*
X0021719Y0214936D02*
X0294556Y0214936D01*
X0293729Y0215335D02*
X0022547Y0215335D01*
X0023374Y0215733D02*
X0292901Y0215733D01*
X0292074Y0216132D02*
X0024202Y0216132D01*
X0025801Y0216530D02*
X0290475Y0216530D01*
X0288729Y0216929D02*
X0027547Y0216929D01*
X0036105Y0217327D02*
X0280171Y0217327D01*
X0278944Y0217726D02*
X0037331Y0217726D01*
X0038558Y0218124D02*
X0277718Y0218124D01*
X0277628Y0218154D02*
X0277628Y0218154D01*
X0277120Y0218523D02*
X0039156Y0218523D01*
X0038648Y0218154D02*
X0038648Y0218154D01*
X0039704Y0218921D02*
X0276571Y0218921D01*
X0276023Y0219320D02*
X0040253Y0219320D01*
X0040802Y0219718D02*
X0275474Y0219718D01*
X0275105Y0219987D02*
X0275105Y0219987D01*
X0275010Y0220117D02*
X0041265Y0220117D01*
X0041171Y0219987D02*
X0041171Y0219987D01*
X0041171Y0219987D01*
X0041555Y0220515D02*
X0274721Y0220515D01*
X0274431Y0220914D02*
X0041844Y0220914D01*
X0042134Y0221312D02*
X0274142Y0221312D01*
X0273852Y0221711D02*
X0042424Y0221711D01*
X0042713Y0222110D02*
X0273563Y0222110D01*
X0273273Y0222508D02*
X0043003Y0222508D01*
X0043004Y0222510D02*
X0043004Y0222510D01*
X0043133Y0222907D02*
X0273143Y0222907D01*
X0273013Y0223305D02*
X0043262Y0223305D01*
X0043392Y0223704D02*
X0272884Y0223704D01*
X0272754Y0224102D02*
X0043521Y0224102D01*
X0043651Y0224501D02*
X0272625Y0224501D01*
X0272495Y0224899D02*
X0043780Y0224899D01*
X0043910Y0225298D02*
X0272366Y0225298D01*
X0272308Y0225696D02*
X0043968Y0225696D01*
X0043968Y0226095D02*
X0272308Y0226095D01*
X0272308Y0226493D02*
X0043968Y0226493D01*
X0043968Y0226892D02*
X0272308Y0226892D01*
X0272308Y0227290D02*
X0043968Y0227290D01*
X0043968Y0227689D02*
X0272308Y0227689D01*
X0272308Y0228087D02*
X0043968Y0228087D01*
X0043968Y0228486D02*
X0272308Y0228486D01*
X0272308Y0228884D02*
X0043968Y0228884D01*
X0043968Y0229283D02*
X0272308Y0229283D01*
X0272308Y0229681D02*
X0043968Y0229681D01*
X0043968Y0230080D02*
X0272308Y0230080D01*
X0272308Y0230478D02*
X0043968Y0230478D01*
X0043968Y0230877D02*
X0272308Y0230877D01*
X0272308Y0231275D02*
X0043968Y0231275D01*
X0043968Y0231674D02*
X0272308Y0231674D01*
X0272308Y0232072D02*
X0043968Y0232072D01*
X0043968Y0232471D02*
X0272308Y0232471D01*
X0272308Y0232869D02*
X0043968Y0232869D01*
X0043968Y0233268D02*
X0272308Y0233268D01*
X0272308Y0233666D02*
X0043968Y0233666D01*
X0043968Y0234065D02*
X0272308Y0234065D01*
X0272308Y0234463D02*
X0043968Y0234463D01*
X0043968Y0234862D02*
X0272308Y0234862D01*
X0272308Y0235260D02*
X0043968Y0235260D01*
X0043968Y0235659D02*
X0272308Y0235659D01*
X0272308Y0236057D02*
X0043968Y0236057D01*
X0043968Y0236456D02*
X0272308Y0236456D01*
X0272308Y0236854D02*
X0043968Y0236854D01*
X0043968Y0237253D02*
X0272308Y0237253D01*
X0272308Y0237651D02*
X0043968Y0237651D01*
X0043968Y0238050D02*
X0272308Y0238050D01*
X0272308Y0238448D02*
X0043968Y0238448D01*
X0043968Y0238847D02*
X0272308Y0238847D01*
X0272276Y0239245D02*
X0043999Y0239245D01*
X0044030Y0239644D02*
X0272245Y0239644D01*
X0272147Y0240043D02*
X0044129Y0240043D01*
X0044258Y0240441D02*
X0272017Y0240441D01*
X0271888Y0240840D02*
X0044388Y0240840D01*
X0044517Y0241238D02*
X0271758Y0241238D01*
X0271584Y0241637D02*
X0044691Y0241637D01*
X0044981Y0242035D02*
X0271295Y0242035D01*
X0271005Y0242434D02*
X0045270Y0242434D01*
X0045560Y0242832D02*
X0270716Y0242832D01*
X0270289Y0243231D02*
X0045986Y0243231D01*
X0046535Y0243629D02*
X0269741Y0243629D01*
X0269192Y0244028D02*
X0047083Y0244028D01*
X0048177Y0244426D02*
X0268098Y0244426D01*
X0174301Y0173890D02*
X0171974Y0173890D01*
X0172903Y0173491D02*
X0173373Y0173491D01*
X0169301Y0173890D02*
X0166974Y0173890D01*
X0167903Y0173491D02*
X0168373Y0173491D01*
X0152245Y0161934D02*
X0151644Y0161934D01*
X0152080Y0161536D02*
X0143920Y0161536D01*
X0144056Y0161137D02*
X0151944Y0161137D01*
X0151944Y0160739D02*
X0144056Y0160739D01*
X0144056Y0160340D02*
X0151944Y0160340D01*
X0151944Y0159942D02*
X0144056Y0159942D01*
X0143953Y0159543D02*
X0152047Y0159543D01*
X0152212Y0159145D02*
X0143788Y0159145D01*
X0143622Y0158746D02*
X0152378Y0158746D01*
X0152623Y0158348D02*
X0143377Y0158348D01*
X0142978Y0157949D02*
X0153022Y0157949D01*
X0153421Y0157551D02*
X0142579Y0157551D01*
X0141710Y0157152D02*
X0154290Y0157152D01*
X0149631Y0161934D02*
X0146644Y0161934D01*
X0147606Y0162333D02*
X0148669Y0162333D01*
X0144631Y0161934D02*
X0143755Y0161934D01*
X0143669Y0162333D02*
X0143590Y0162333D01*
X0149185Y0128858D02*
X0196815Y0128858D01*
X0195931Y0128459D02*
X0150069Y0128459D01*
X0150409Y0122880D02*
X0195591Y0122880D01*
X0195995Y0122482D02*
X0150005Y0122482D01*
X0149043Y0122083D02*
X0196957Y0122083D01*
X0230668Y0097375D02*
X0150575Y0097375D01*
X0150575Y0096977D02*
X0230392Y0096977D01*
X0230227Y0096578D02*
X0150575Y0096578D01*
X0150575Y0096180D02*
X0230062Y0096180D01*
X0230025Y0095781D02*
X0150575Y0095781D01*
X0150646Y0095383D02*
X0230025Y0095383D01*
X0230025Y0094984D02*
X0151027Y0094984D01*
X0151192Y0094586D02*
X0230025Y0094586D01*
X0230025Y0094187D02*
X0151357Y0094187D01*
X0151522Y0093789D02*
X0230025Y0093789D01*
X0230025Y0093390D02*
X0151556Y0093390D01*
X0151556Y0092992D02*
X0230025Y0092992D01*
X0230025Y0092593D02*
X0151556Y0092593D01*
X0151515Y0092195D02*
X0230025Y0092195D01*
X0230025Y0091796D02*
X0151350Y0091796D01*
X0151185Y0091398D02*
X0230025Y0091398D01*
X0230025Y0090999D02*
X0151020Y0090999D01*
X0150630Y0090601D02*
X0230025Y0090601D01*
X0230025Y0090202D02*
X0150231Y0090202D01*
X0149576Y0089804D02*
X0229898Y0089804D01*
X0235975Y0090202D02*
X0303804Y0090202D01*
X0303804Y0089804D02*
X0236102Y0089804D01*
X0236267Y0089405D02*
X0303804Y0089405D01*
X0303804Y0089007D02*
X0236432Y0089007D01*
X0236556Y0088608D02*
X0303804Y0088608D01*
X0303804Y0088210D02*
X0236556Y0088210D01*
X0236556Y0087811D02*
X0303804Y0087811D01*
X0303804Y0087413D02*
X0236556Y0087413D01*
X0236441Y0087014D02*
X0303804Y0087014D01*
X0303804Y0086616D02*
X0236275Y0086616D01*
X0236110Y0086217D02*
X0303804Y0086217D01*
X0303804Y0085819D02*
X0235975Y0085819D01*
X0235975Y0085420D02*
X0303804Y0085420D01*
X0303804Y0085022D02*
X0235975Y0085022D01*
X0235975Y0084623D02*
X0303804Y0084623D01*
X0303804Y0084225D02*
X0235975Y0084225D01*
X0235975Y0083826D02*
X0303804Y0083826D01*
X0303804Y0083428D02*
X0235975Y0083428D01*
X0235975Y0083029D02*
X0303804Y0083029D01*
X0303804Y0082631D02*
X0235975Y0082631D01*
X0235975Y0082232D02*
X0303804Y0082232D01*
X0303804Y0081834D02*
X0235975Y0081834D01*
X0235975Y0081435D02*
X0303804Y0081435D01*
X0303804Y0081037D02*
X0235975Y0081037D01*
X0235975Y0080638D02*
X0303804Y0080638D01*
X0303804Y0080239D02*
X0235975Y0080239D01*
X0235975Y0079841D02*
X0303804Y0079841D01*
X0303804Y0079442D02*
X0235975Y0079442D01*
X0235975Y0079044D02*
X0303804Y0079044D01*
X0303804Y0078645D02*
X0235975Y0078645D01*
X0235975Y0078247D02*
X0303804Y0078247D01*
X0303804Y0077848D02*
X0235975Y0077848D01*
X0235975Y0077450D02*
X0303804Y0077450D01*
X0303804Y0077051D02*
X0235975Y0077051D01*
X0235975Y0076653D02*
X0303804Y0076653D01*
X0303804Y0076254D02*
X0235975Y0076254D01*
X0235975Y0075856D02*
X0303804Y0075856D01*
X0303804Y0075457D02*
X0235975Y0075457D01*
X0235975Y0075059D02*
X0303804Y0075059D01*
X0303804Y0074660D02*
X0235975Y0074660D01*
X0235975Y0074262D02*
X0303804Y0074262D01*
X0303804Y0073863D02*
X0235975Y0073863D01*
X0235975Y0073465D02*
X0303804Y0073465D01*
X0303804Y0073066D02*
X0235975Y0073066D01*
X0235975Y0072668D02*
X0303804Y0072668D01*
X0303804Y0072269D02*
X0235975Y0072269D01*
X0235975Y0071871D02*
X0303804Y0071871D01*
X0303804Y0071472D02*
X0235975Y0071472D01*
X0235975Y0071074D02*
X0303804Y0071074D01*
X0303804Y0070675D02*
X0235975Y0070675D01*
X0235975Y0070277D02*
X0303804Y0070277D01*
X0303804Y0069878D02*
X0235975Y0069878D01*
X0235975Y0069480D02*
X0303804Y0069480D01*
X0303804Y0069081D02*
X0235975Y0069081D01*
X0235975Y0068683D02*
X0303804Y0068683D01*
X0303804Y0068284D02*
X0235975Y0068284D01*
X0235975Y0067886D02*
X0303804Y0067886D01*
X0303804Y0067487D02*
X0235975Y0067487D01*
X0235975Y0067089D02*
X0303804Y0067089D01*
X0303804Y0066690D02*
X0235975Y0066690D01*
X0235975Y0066292D02*
X0303804Y0066292D01*
X0303804Y0065893D02*
X0235975Y0065893D01*
X0235975Y0065495D02*
X0303804Y0065495D01*
X0303804Y0065096D02*
X0235975Y0065096D01*
X0236146Y0064698D02*
X0303804Y0064698D01*
X0303804Y0064299D02*
X0236311Y0064299D01*
X0236476Y0063901D02*
X0303804Y0063901D01*
X0303804Y0063502D02*
X0236556Y0063502D01*
X0236556Y0063103D02*
X0303804Y0063103D01*
X0303804Y0062705D02*
X0236556Y0062705D01*
X0236556Y0062306D02*
X0303804Y0062306D01*
X0303804Y0061908D02*
X0236397Y0061908D01*
X0236231Y0061509D02*
X0303804Y0061509D01*
X0303804Y0061111D02*
X0236066Y0061111D01*
X0235741Y0060712D02*
X0303804Y0060712D01*
X0303804Y0060314D02*
X0235343Y0060314D01*
X0234845Y0059915D02*
X0303804Y0059915D01*
X0303804Y0059517D02*
X0233883Y0059517D01*
X0235975Y0090601D02*
X0303804Y0090601D01*
X0303804Y0090999D02*
X0235975Y0090999D01*
X0235975Y0091398D02*
X0303804Y0091398D01*
X0303804Y0091796D02*
X0235975Y0091796D01*
X0235975Y0092195D02*
X0252937Y0092195D01*
X0255563Y0092195D02*
X0303804Y0092195D01*
X0303804Y0092593D02*
X0256372Y0092593D01*
X0256771Y0092992D02*
X0303804Y0092992D01*
X0303804Y0093390D02*
X0257169Y0093390D01*
X0257390Y0093789D02*
X0303804Y0093789D01*
X0303804Y0094187D02*
X0257555Y0094187D01*
X0257720Y0094586D02*
X0303804Y0094586D01*
X0303804Y0094984D02*
X0257806Y0094984D01*
X0257806Y0095383D02*
X0303804Y0095383D01*
X0303804Y0095781D02*
X0257806Y0095781D01*
X0257806Y0096180D02*
X0303804Y0096180D01*
X0303804Y0096578D02*
X0257652Y0096578D01*
X0257487Y0096977D02*
X0303804Y0096977D01*
X0303804Y0097375D02*
X0257322Y0097375D01*
X0257005Y0097774D02*
X0303804Y0097774D01*
X0303804Y0098172D02*
X0256606Y0098172D01*
X0256128Y0098571D02*
X0303804Y0098571D01*
X0303804Y0098970D02*
X0255166Y0098970D01*
X0253334Y0098970D02*
X0150575Y0098970D01*
X0150575Y0099368D02*
X0303804Y0099368D01*
X0303804Y0099767D02*
X0150575Y0099767D01*
X0150575Y0100165D02*
X0303804Y0100165D01*
X0303804Y0100564D02*
X0150575Y0100564D01*
X0150575Y0100962D02*
X0303804Y0100962D01*
X0303804Y0101361D02*
X0150575Y0101361D01*
X0150575Y0101759D02*
X0303804Y0101759D01*
X0303804Y0102158D02*
X0150575Y0102158D01*
X0150575Y0102556D02*
X0303804Y0102556D01*
X0303804Y0102955D02*
X0150575Y0102955D01*
X0150575Y0103353D02*
X0303804Y0103353D01*
X0303804Y0103752D02*
X0150575Y0103752D01*
X0150575Y0104150D02*
X0303804Y0104150D01*
X0303804Y0104549D02*
X0150575Y0104549D01*
X0150575Y0104947D02*
X0303804Y0104947D01*
X0303804Y0105346D02*
X0150575Y0105346D01*
X0150575Y0105744D02*
X0303804Y0105744D01*
X0303804Y0106143D02*
X0150575Y0106143D01*
X0150575Y0106541D02*
X0303804Y0106541D01*
X0303804Y0106940D02*
X0150575Y0106940D01*
X0150575Y0107338D02*
X0303804Y0107338D01*
X0303804Y0107737D02*
X0150575Y0107737D01*
X0150575Y0108135D02*
X0303804Y0108135D01*
X0303804Y0108534D02*
X0150575Y0108534D01*
X0150575Y0108932D02*
X0303804Y0108932D01*
X0303804Y0109331D02*
X0150575Y0109331D01*
X0150575Y0109729D02*
X0303804Y0109729D01*
X0303804Y0110128D02*
X0150575Y0110128D01*
X0150575Y0110526D02*
X0303804Y0110526D01*
X0303804Y0110925D02*
X0150575Y0110925D01*
X0150575Y0111323D02*
X0303804Y0111323D01*
X0303804Y0111722D02*
X0150575Y0111722D01*
X0150575Y0112120D02*
X0303804Y0112120D01*
X0303804Y0112519D02*
X0150575Y0112519D01*
X0150575Y0112917D02*
X0303804Y0112917D01*
X0303804Y0113316D02*
X0150575Y0113316D01*
X0150575Y0113714D02*
X0303804Y0113714D01*
X0303804Y0114113D02*
X0150575Y0114113D01*
X0150575Y0114511D02*
X0303804Y0114511D01*
X0303804Y0114910D02*
X0150575Y0114910D01*
X0150575Y0115308D02*
X0303804Y0115308D01*
X0303804Y0115707D02*
X0150736Y0115707D01*
X0151064Y0116105D02*
X0303804Y0116105D01*
X0303804Y0116504D02*
X0151229Y0116504D01*
X0151394Y0116903D02*
X0303804Y0116903D01*
X0303804Y0117301D02*
X0151556Y0117301D01*
X0151556Y0117700D02*
X0303804Y0117700D01*
X0303804Y0118098D02*
X0151556Y0118098D01*
X0151556Y0118497D02*
X0303804Y0118497D01*
X0303804Y0118895D02*
X0151478Y0118895D01*
X0151313Y0119294D02*
X0303804Y0119294D01*
X0303804Y0119692D02*
X0151148Y0119692D01*
X0150938Y0120091D02*
X0303804Y0120091D01*
X0303804Y0120489D02*
X0150540Y0120489D01*
X0150141Y0120888D02*
X0303804Y0120888D01*
X0303804Y0121286D02*
X0149359Y0121286D01*
X0150575Y0098571D02*
X0252372Y0098571D01*
X0231678Y0098172D02*
X0150575Y0098172D01*
X0150575Y0097774D02*
X0231067Y0097774D01*
X0185025Y0030426D02*
X0112135Y0030426D01*
X0113097Y0030027D02*
X0185025Y0030027D01*
X0184952Y0029629D02*
X0113548Y0029629D01*
X0113947Y0029230D02*
X0184553Y0029230D01*
X0184155Y0028832D02*
X0114345Y0028832D01*
X0114613Y0028433D02*
X0183887Y0028433D01*
X0183722Y0028034D02*
X0114778Y0028034D01*
X0114943Y0027636D02*
X0183557Y0027636D01*
X0183392Y0027237D02*
X0115108Y0027237D01*
X0115243Y0026839D02*
X0183257Y0026839D01*
X0183257Y0026440D02*
X0123986Y0026440D01*
X0124948Y0026042D02*
X0183257Y0026042D01*
X0183257Y0025643D02*
X0125385Y0025643D01*
X0125784Y0025245D02*
X0183257Y0025245D01*
X0183257Y0024846D02*
X0126084Y0024846D01*
X0126249Y0024448D02*
X0183257Y0024448D01*
X0183257Y0024049D02*
X0126414Y0024049D01*
X0126556Y0023651D02*
X0183257Y0023651D01*
X0183257Y0023252D02*
X0126556Y0023252D01*
X0126556Y0022854D02*
X0183257Y0022854D01*
X0183257Y0022455D02*
X0126556Y0022455D01*
X0126458Y0022057D02*
X0183257Y0022057D01*
X0183257Y0021658D02*
X0126293Y0021658D01*
X0126128Y0021260D02*
X0183257Y0021260D01*
X0183257Y0020861D02*
X0125890Y0020861D01*
X0125492Y0020463D02*
X0183257Y0020463D01*
X0183257Y0020064D02*
X0125093Y0020064D01*
X0124242Y0019666D02*
X0183257Y0019666D01*
X0183257Y0019267D02*
X0115243Y0019267D01*
X0115243Y0019666D02*
X0121758Y0019666D01*
X0120907Y0020064D02*
X0115243Y0020064D01*
X0115152Y0018869D02*
X0183348Y0018869D01*
X0183513Y0018470D02*
X0114987Y0018470D01*
X0114822Y0018072D02*
X0183678Y0018072D01*
X0183843Y0017673D02*
X0114657Y0017673D01*
X0114451Y0017275D02*
X0184049Y0017275D01*
X0184447Y0016876D02*
X0114053Y0016876D01*
X0113654Y0016478D02*
X0184846Y0016478D01*
X0185244Y0016079D02*
X0113256Y0016079D01*
X0112391Y0015681D02*
X0186109Y0015681D01*
X0122014Y0026440D02*
X0115243Y0026440D01*
X0115243Y0026042D02*
X0121052Y0026042D01*
X0120615Y0025643D02*
X0115243Y0025643D01*
D17*
X0030185Y0030185D03*
X0030185Y0199476D03*
X0286091Y0199476D03*
X0286091Y0030185D03*
D18*
X0220500Y0035500D02*
X0220500Y0023000D01*
X0210500Y0023000D02*
X0210500Y0035500D01*
X0148000Y0093000D02*
X0148000Y0118000D01*
X0148000Y0125500D02*
X0198000Y0125500D01*
X0175500Y0160500D02*
X0175500Y0167843D01*
X0175502Y0167865D01*
X0175507Y0167886D01*
X0175515Y0167906D01*
X0175526Y0167924D01*
X0175540Y0167941D01*
X0175557Y0167955D01*
X0175575Y0167966D01*
X0175595Y0167974D01*
X0175616Y0167979D01*
X0175638Y0167981D01*
X0170638Y0167981D02*
X0170616Y0167979D01*
X0170595Y0167974D01*
X0170575Y0167966D01*
X0170557Y0167955D01*
X0170540Y0167941D01*
X0170526Y0167924D01*
X0170515Y0167906D01*
X0170507Y0167886D01*
X0170502Y0167865D01*
X0170500Y0167843D01*
X0170500Y0160500D01*
X0165500Y0160500D02*
X0165500Y0167843D01*
X0165502Y0167865D01*
X0165507Y0167886D01*
X0165515Y0167906D01*
X0165526Y0167924D01*
X0165540Y0167941D01*
X0165557Y0167955D01*
X0165575Y0167966D01*
X0165595Y0167974D01*
X0165616Y0167979D01*
X0165638Y0167981D01*
X0265500Y0160500D02*
X0265500Y0184004D01*
X0266209Y0184713D01*
X0123000Y0023000D02*
X0110500Y0023000D01*
X0035500Y0115500D02*
X0023000Y0115500D01*
X0023000Y0125500D02*
X0035500Y0125500D01*
X0035500Y0135500D02*
X0023000Y0135500D01*
M02*
