G75*
%MOIN*%
%OFA0B0*%
%FSLAX24Y24*%
%IPPOS*%
%LPD*%
%AMOC8*
5,1,8,0,0,1.08239X$1,22.5*
%
%ADD10C,0.0594*%
%ADD11R,0.0591X0.0512*%
%ADD12R,0.0945X0.0945*%
%ADD13R,0.0551X0.0394*%
%ADD14R,0.1181X0.0709*%
%ADD15C,0.0315*%
%ADD16C,0.0157*%
%ADD17C,0.0396*%
%ADD18C,0.0000*%
%ADD19C,0.0001*%
D10*
X000953Y003500D02*
X001547Y003500D01*
X001547Y004500D02*
X000953Y004500D01*
X009953Y004250D02*
X010547Y004250D01*
X010547Y005250D02*
X009953Y005250D01*
X009953Y002750D02*
X010547Y002750D01*
X010547Y001750D02*
X009953Y001750D01*
D11*
X008000Y001874D03*
X008000Y002626D03*
X008000Y003374D03*
X005250Y004376D03*
X005250Y005124D03*
X005250Y001874D03*
X004500Y001874D03*
X004500Y001126D03*
X005250Y001126D03*
X006250Y001126D03*
X006250Y001874D03*
X008000Y001126D03*
D12*
X003250Y003016D03*
X003250Y004984D03*
D13*
X006317Y003624D03*
X007183Y003250D03*
X006317Y002876D03*
D14*
X008000Y004331D03*
X008000Y005669D03*
D15*
X009250Y005669D01*
X009250Y005250D01*
X010250Y005250D01*
X010250Y004250D02*
X009250Y004250D01*
X009250Y002750D01*
X010250Y002750D01*
X008000Y002626D02*
X008000Y001874D01*
X008000Y002626D02*
X006317Y002626D01*
X006250Y002876D02*
X006250Y001874D01*
X005250Y001874D02*
X004500Y001874D01*
X005250Y001874D02*
X005250Y003624D01*
X005250Y003750D01*
X005250Y004376D01*
X005250Y003624D02*
X006317Y003624D01*
X007183Y003250D02*
X008000Y003250D01*
X008000Y003374D02*
X008000Y004331D01*
X008000Y004250D02*
X009250Y004250D01*
X008000Y005669D02*
X005250Y005669D01*
X005250Y005124D01*
X003250Y005124D01*
X003250Y004984D01*
X003250Y005000D01*
X002250Y005000D01*
X002250Y004500D01*
X001250Y004500D01*
D16*
X006250Y002876D02*
X006317Y002876D01*
X006317Y002626D01*
X008000Y003250D02*
X008000Y003374D01*
X008000Y004250D02*
X008000Y004331D01*
D17*
X009250Y004250D03*
X009250Y005250D03*
X009250Y002750D03*
X009250Y001750D03*
X002250Y003500D03*
X002250Y004500D03*
D18*
X003740Y003937D02*
X000000Y003937D01*
X000000Y000000D01*
X011417Y000000D01*
X011417Y002165D01*
X008661Y002165D01*
X008661Y001181D01*
X003740Y001181D01*
X003740Y003937D01*
D19*
X000000Y000000D02*
X011417Y000000D01*
X011417Y000001D02*
X000000Y000001D01*
X000000Y000002D02*
X011417Y000002D01*
X011417Y000003D02*
X000000Y000003D01*
X000000Y000004D02*
X011417Y000004D01*
X011417Y000005D02*
X000000Y000005D01*
X000000Y000006D02*
X011417Y000006D01*
X011417Y000007D02*
X000000Y000007D01*
X000000Y000008D02*
X011417Y000008D01*
X011417Y000009D02*
X000000Y000009D01*
X000000Y000010D02*
X011417Y000010D01*
X011417Y000011D02*
X000000Y000011D01*
X000000Y000012D02*
X011417Y000012D01*
X011417Y000013D02*
X000000Y000013D01*
X000000Y000014D02*
X011417Y000014D01*
X011417Y000015D02*
X000000Y000015D01*
X000000Y000016D02*
X011417Y000016D01*
X011417Y000017D02*
X000000Y000017D01*
X000000Y000018D02*
X011417Y000018D01*
X011417Y000019D02*
X000000Y000019D01*
X000000Y000020D02*
X011417Y000020D01*
X011417Y000021D02*
X000000Y000021D01*
X000000Y000022D02*
X011417Y000022D01*
X011417Y000023D02*
X000000Y000023D01*
X000000Y000024D02*
X011417Y000024D01*
X011417Y000025D02*
X000000Y000025D01*
X000000Y000026D02*
X011417Y000026D01*
X011417Y000027D02*
X000000Y000027D01*
X000000Y000028D02*
X011417Y000028D01*
X011417Y000029D02*
X000000Y000029D01*
X000000Y000030D02*
X011417Y000030D01*
X011417Y000031D02*
X000000Y000031D01*
X000000Y000032D02*
X011417Y000032D01*
X011417Y000033D02*
X000000Y000033D01*
X000000Y000034D02*
X011417Y000034D01*
X011417Y000035D02*
X000000Y000035D01*
X000000Y000036D02*
X011417Y000036D01*
X011417Y000037D02*
X000000Y000037D01*
X000000Y000038D02*
X011417Y000038D01*
X011417Y000039D02*
X000000Y000039D01*
X000000Y000040D02*
X011417Y000040D01*
X011417Y000041D02*
X000000Y000041D01*
X000000Y000042D02*
X011417Y000042D01*
X011417Y000043D02*
X000000Y000043D01*
X000000Y000044D02*
X011417Y000044D01*
X011417Y000045D02*
X000000Y000045D01*
X000000Y000046D02*
X011417Y000046D01*
X011417Y000047D02*
X000000Y000047D01*
X000000Y000048D02*
X011417Y000048D01*
X011417Y000049D02*
X000000Y000049D01*
X000000Y000050D02*
X011417Y000050D01*
X011417Y000051D02*
X000000Y000051D01*
X000000Y000052D02*
X011417Y000052D01*
X011417Y000053D02*
X000000Y000053D01*
X000000Y000054D02*
X011417Y000054D01*
X011417Y000055D02*
X000000Y000055D01*
X000000Y000056D02*
X011417Y000056D01*
X011417Y000057D02*
X000000Y000057D01*
X000000Y000058D02*
X011417Y000058D01*
X011417Y000059D02*
X000000Y000059D01*
X000000Y000060D02*
X011417Y000060D01*
X011417Y000061D02*
X000000Y000061D01*
X000000Y000062D02*
X011417Y000062D01*
X011417Y000063D02*
X000000Y000063D01*
X000000Y000064D02*
X011417Y000064D01*
X011417Y000065D02*
X000000Y000065D01*
X000000Y000066D02*
X011417Y000066D01*
X011417Y000067D02*
X000000Y000067D01*
X000000Y000068D02*
X011417Y000068D01*
X011417Y000069D02*
X000000Y000069D01*
X000000Y000070D02*
X011417Y000070D01*
X011417Y000071D02*
X000000Y000071D01*
X000000Y000072D02*
X011417Y000072D01*
X011417Y000073D02*
X000000Y000073D01*
X000000Y000074D02*
X011417Y000074D01*
X011417Y000075D02*
X000000Y000075D01*
X000000Y000076D02*
X011417Y000076D01*
X011417Y000077D02*
X000000Y000077D01*
X000000Y000078D02*
X011417Y000078D01*
X011417Y000079D02*
X000000Y000079D01*
X000000Y000080D02*
X011417Y000080D01*
X011417Y000081D02*
X000000Y000081D01*
X000000Y000082D02*
X011417Y000082D01*
X011417Y000083D02*
X000000Y000083D01*
X000000Y000084D02*
X011417Y000084D01*
X011417Y000085D02*
X000000Y000085D01*
X000000Y000086D02*
X011417Y000086D01*
X011417Y000087D02*
X000000Y000087D01*
X000000Y000088D02*
X011417Y000088D01*
X011417Y000089D02*
X000000Y000089D01*
X000000Y000090D02*
X011417Y000090D01*
X011417Y000091D02*
X000000Y000091D01*
X000000Y000092D02*
X011417Y000092D01*
X011417Y000093D02*
X000000Y000093D01*
X000000Y000094D02*
X011417Y000094D01*
X011417Y000095D02*
X000000Y000095D01*
X000000Y000096D02*
X011417Y000096D01*
X011417Y000097D02*
X000000Y000097D01*
X000000Y000098D02*
X011417Y000098D01*
X011417Y000099D02*
X000000Y000099D01*
X000000Y000100D02*
X011417Y000100D01*
X011417Y000101D02*
X000000Y000101D01*
X000000Y000102D02*
X011417Y000102D01*
X011417Y000103D02*
X000000Y000103D01*
X000000Y000104D02*
X011417Y000104D01*
X011417Y000105D02*
X000000Y000105D01*
X000000Y000106D02*
X011417Y000106D01*
X011417Y000107D02*
X000000Y000107D01*
X000000Y000108D02*
X011417Y000108D01*
X011417Y000109D02*
X000000Y000109D01*
X000000Y000110D02*
X011417Y000110D01*
X011417Y000111D02*
X000000Y000111D01*
X000000Y000112D02*
X011417Y000112D01*
X011417Y000113D02*
X000000Y000113D01*
X000000Y000114D02*
X011417Y000114D01*
X011417Y000115D02*
X000000Y000115D01*
X000000Y000116D02*
X011417Y000116D01*
X011417Y000117D02*
X000000Y000117D01*
X000000Y000118D02*
X011417Y000118D01*
X011417Y000119D02*
X000000Y000119D01*
X000000Y000120D02*
X011417Y000120D01*
X011417Y000121D02*
X000000Y000121D01*
X000000Y000122D02*
X011417Y000122D01*
X011417Y000123D02*
X000000Y000123D01*
X000000Y000124D02*
X011417Y000124D01*
X011417Y000125D02*
X000000Y000125D01*
X000000Y000126D02*
X011417Y000126D01*
X011417Y000127D02*
X000000Y000127D01*
X000000Y000128D02*
X011417Y000128D01*
X011417Y000129D02*
X000000Y000129D01*
X000000Y000130D02*
X011417Y000130D01*
X011417Y000131D02*
X000000Y000131D01*
X000000Y000132D02*
X011417Y000132D01*
X011417Y000133D02*
X000000Y000133D01*
X000000Y000134D02*
X011417Y000134D01*
X011417Y000135D02*
X000000Y000135D01*
X000000Y000136D02*
X011417Y000136D01*
X011417Y000137D02*
X000000Y000137D01*
X000000Y000138D02*
X011417Y000138D01*
X011417Y000139D02*
X000000Y000139D01*
X000000Y000140D02*
X011417Y000140D01*
X011417Y000141D02*
X000000Y000141D01*
X000000Y000142D02*
X011417Y000142D01*
X011417Y000143D02*
X000000Y000143D01*
X000000Y000144D02*
X011417Y000144D01*
X011417Y000145D02*
X000000Y000145D01*
X000000Y000146D02*
X011417Y000146D01*
X011417Y000147D02*
X000000Y000147D01*
X000000Y000148D02*
X011417Y000148D01*
X011417Y000149D02*
X000000Y000149D01*
X000000Y000150D02*
X011417Y000150D01*
X011417Y000151D02*
X000000Y000151D01*
X000000Y000152D02*
X011417Y000152D01*
X011417Y000153D02*
X000000Y000153D01*
X000000Y000154D02*
X011417Y000154D01*
X011417Y000155D02*
X000000Y000155D01*
X000000Y000156D02*
X011417Y000156D01*
X011417Y000157D02*
X000000Y000157D01*
X000000Y000158D02*
X011417Y000158D01*
X011417Y000159D02*
X000000Y000159D01*
X000000Y000160D02*
X011417Y000160D01*
X011417Y000161D02*
X000000Y000161D01*
X000000Y000162D02*
X011417Y000162D01*
X011417Y000163D02*
X000000Y000163D01*
X000000Y000164D02*
X011417Y000164D01*
X011417Y000165D02*
X000000Y000165D01*
X000000Y000166D02*
X011417Y000166D01*
X011417Y000167D02*
X000000Y000167D01*
X000000Y000168D02*
X011417Y000168D01*
X011417Y000169D02*
X000000Y000169D01*
X000000Y000170D02*
X011417Y000170D01*
X011417Y000171D02*
X000000Y000171D01*
X000000Y000172D02*
X011417Y000172D01*
X011417Y000173D02*
X000000Y000173D01*
X000000Y000174D02*
X011417Y000174D01*
X011417Y000175D02*
X000000Y000175D01*
X000000Y000176D02*
X011417Y000176D01*
X011417Y000177D02*
X000000Y000177D01*
X000000Y000178D02*
X011417Y000178D01*
X011417Y000179D02*
X000000Y000179D01*
X000000Y000180D02*
X011417Y000180D01*
X011417Y000181D02*
X000000Y000181D01*
X000000Y000182D02*
X011417Y000182D01*
X011417Y000183D02*
X000000Y000183D01*
X000000Y000184D02*
X011417Y000184D01*
X011417Y000185D02*
X000000Y000185D01*
X000000Y000186D02*
X011417Y000186D01*
X011417Y000187D02*
X000000Y000187D01*
X000000Y000188D02*
X011417Y000188D01*
X011417Y000189D02*
X000000Y000189D01*
X000000Y000190D02*
X011417Y000190D01*
X011417Y000191D02*
X000000Y000191D01*
X000000Y000192D02*
X011417Y000192D01*
X011417Y000193D02*
X000000Y000193D01*
X000000Y000194D02*
X011417Y000194D01*
X011417Y000195D02*
X000000Y000195D01*
X000000Y000196D02*
X011417Y000196D01*
X011417Y000197D02*
X000000Y000197D01*
X000000Y000198D02*
X011417Y000198D01*
X011417Y000199D02*
X000000Y000199D01*
X000000Y000200D02*
X011417Y000200D01*
X011417Y000201D02*
X000000Y000201D01*
X000000Y000202D02*
X011417Y000202D01*
X011417Y000203D02*
X000000Y000203D01*
X000000Y000204D02*
X011417Y000204D01*
X011417Y000205D02*
X000000Y000205D01*
X000000Y000206D02*
X011417Y000206D01*
X011417Y000207D02*
X000000Y000207D01*
X000000Y000208D02*
X011417Y000208D01*
X011417Y000209D02*
X000000Y000209D01*
X000000Y000210D02*
X011417Y000210D01*
X011417Y000211D02*
X000000Y000211D01*
X000000Y000212D02*
X011417Y000212D01*
X011417Y000213D02*
X000000Y000213D01*
X000000Y000214D02*
X011417Y000214D01*
X011417Y000215D02*
X000000Y000215D01*
X000000Y000216D02*
X011417Y000216D01*
X011417Y000217D02*
X000000Y000217D01*
X000000Y000218D02*
X011417Y000218D01*
X011417Y000219D02*
X000000Y000219D01*
X000000Y000220D02*
X011417Y000220D01*
X011417Y000221D02*
X000000Y000221D01*
X000000Y000222D02*
X011417Y000222D01*
X011417Y000223D02*
X000000Y000223D01*
X000000Y000224D02*
X011417Y000224D01*
X011417Y000225D02*
X000000Y000225D01*
X000000Y000226D02*
X011417Y000226D01*
X011417Y000227D02*
X000000Y000227D01*
X000000Y000228D02*
X011417Y000228D01*
X011417Y000229D02*
X000000Y000229D01*
X000000Y000230D02*
X011417Y000230D01*
X011417Y000231D02*
X000000Y000231D01*
X000000Y000232D02*
X011417Y000232D01*
X011417Y000233D02*
X000000Y000233D01*
X000000Y000234D02*
X011417Y000234D01*
X011417Y000235D02*
X000000Y000235D01*
X000000Y000236D02*
X011417Y000236D01*
X011417Y000237D02*
X000000Y000237D01*
X000000Y000238D02*
X011417Y000238D01*
X011417Y000239D02*
X000000Y000239D01*
X000000Y000240D02*
X011417Y000240D01*
X011417Y000241D02*
X000000Y000241D01*
X000000Y000242D02*
X011417Y000242D01*
X011417Y000243D02*
X000000Y000243D01*
X000000Y000244D02*
X011417Y000244D01*
X011417Y000245D02*
X000000Y000245D01*
X000000Y000246D02*
X011417Y000246D01*
X011417Y000247D02*
X000000Y000247D01*
X000000Y000248D02*
X011417Y000248D01*
X011417Y000249D02*
X000000Y000249D01*
X000000Y000250D02*
X011417Y000250D01*
X011417Y000251D02*
X000000Y000251D01*
X000000Y000252D02*
X011417Y000252D01*
X011417Y000253D02*
X000000Y000253D01*
X000000Y000254D02*
X011417Y000254D01*
X011417Y000255D02*
X000000Y000255D01*
X000000Y000256D02*
X011417Y000256D01*
X011417Y000257D02*
X000000Y000257D01*
X000000Y000258D02*
X011417Y000258D01*
X011417Y000259D02*
X000000Y000259D01*
X000000Y000260D02*
X011417Y000260D01*
X011417Y000261D02*
X000000Y000261D01*
X000000Y000262D02*
X011417Y000262D01*
X011417Y000263D02*
X000000Y000263D01*
X000000Y000264D02*
X011417Y000264D01*
X011417Y000265D02*
X000000Y000265D01*
X000000Y000266D02*
X011417Y000266D01*
X011417Y000267D02*
X000000Y000267D01*
X000000Y000268D02*
X011417Y000268D01*
X011417Y000269D02*
X000000Y000269D01*
X000000Y000270D02*
X011417Y000270D01*
X011417Y000271D02*
X000000Y000271D01*
X000000Y000272D02*
X011417Y000272D01*
X011417Y000273D02*
X000000Y000273D01*
X000000Y000274D02*
X011417Y000274D01*
X011417Y000275D02*
X000000Y000275D01*
X000000Y000276D02*
X011417Y000276D01*
X011417Y000277D02*
X000000Y000277D01*
X000000Y000278D02*
X011417Y000278D01*
X011417Y000279D02*
X000000Y000279D01*
X000000Y000280D02*
X011417Y000280D01*
X011417Y000281D02*
X000000Y000281D01*
X000000Y000282D02*
X011417Y000282D01*
X011417Y000283D02*
X000000Y000283D01*
X000000Y000284D02*
X011417Y000284D01*
X011417Y000285D02*
X000000Y000285D01*
X000000Y000286D02*
X011417Y000286D01*
X011417Y000287D02*
X000000Y000287D01*
X000000Y000288D02*
X011417Y000288D01*
X011417Y000289D02*
X000000Y000289D01*
X000000Y000290D02*
X011417Y000290D01*
X011417Y000291D02*
X000000Y000291D01*
X000000Y000292D02*
X011417Y000292D01*
X011417Y000293D02*
X000000Y000293D01*
X000000Y000294D02*
X011417Y000294D01*
X011417Y000295D02*
X000000Y000295D01*
X000000Y000296D02*
X011417Y000296D01*
X011417Y000297D02*
X000000Y000297D01*
X000000Y000298D02*
X011417Y000298D01*
X011417Y000299D02*
X000000Y000299D01*
X000000Y000300D02*
X011417Y000300D01*
X011417Y000301D02*
X000000Y000301D01*
X000000Y000302D02*
X011417Y000302D01*
X011417Y000303D02*
X000000Y000303D01*
X000000Y000304D02*
X011417Y000304D01*
X011417Y000305D02*
X000000Y000305D01*
X000000Y000306D02*
X011417Y000306D01*
X011417Y000307D02*
X000000Y000307D01*
X000000Y000308D02*
X011417Y000308D01*
X011417Y000309D02*
X000000Y000309D01*
X000000Y000310D02*
X011417Y000310D01*
X011417Y000311D02*
X000000Y000311D01*
X000000Y000312D02*
X011417Y000312D01*
X011417Y000313D02*
X000000Y000313D01*
X000000Y000314D02*
X011417Y000314D01*
X011417Y000315D02*
X000000Y000315D01*
X000000Y000316D02*
X011417Y000316D01*
X011417Y000317D02*
X000000Y000317D01*
X000000Y000318D02*
X011417Y000318D01*
X011417Y000319D02*
X000000Y000319D01*
X000000Y000320D02*
X011417Y000320D01*
X011417Y000321D02*
X000000Y000321D01*
X000000Y000322D02*
X011417Y000322D01*
X011417Y000323D02*
X000000Y000323D01*
X000000Y000324D02*
X011417Y000324D01*
X011417Y000325D02*
X000000Y000325D01*
X000000Y000326D02*
X011417Y000326D01*
X011417Y000327D02*
X000000Y000327D01*
X000000Y000328D02*
X011417Y000328D01*
X011417Y000329D02*
X000000Y000329D01*
X000000Y000330D02*
X011417Y000330D01*
X011417Y000331D02*
X000000Y000331D01*
X000000Y000332D02*
X011417Y000332D01*
X011417Y000333D02*
X000000Y000333D01*
X000000Y000334D02*
X011417Y000334D01*
X011417Y000335D02*
X000000Y000335D01*
X000000Y000336D02*
X011417Y000336D01*
X011417Y000337D02*
X000000Y000337D01*
X000000Y000338D02*
X011417Y000338D01*
X011417Y000339D02*
X000000Y000339D01*
X000000Y000340D02*
X011417Y000340D01*
X011417Y000341D02*
X000000Y000341D01*
X000000Y000342D02*
X011417Y000342D01*
X011417Y000343D02*
X000000Y000343D01*
X000000Y000344D02*
X011417Y000344D01*
X011417Y000345D02*
X000000Y000345D01*
X000000Y000346D02*
X011417Y000346D01*
X011417Y000347D02*
X000000Y000347D01*
X000000Y000348D02*
X011417Y000348D01*
X011417Y000349D02*
X000000Y000349D01*
X000000Y000350D02*
X011417Y000350D01*
X011417Y000351D02*
X000000Y000351D01*
X000000Y000352D02*
X011417Y000352D01*
X011417Y000353D02*
X000000Y000353D01*
X000000Y000354D02*
X011417Y000354D01*
X011417Y000355D02*
X000000Y000355D01*
X000000Y000356D02*
X011417Y000356D01*
X011417Y000357D02*
X000000Y000357D01*
X000000Y000358D02*
X011417Y000358D01*
X011417Y000359D02*
X000000Y000359D01*
X000000Y000360D02*
X011417Y000360D01*
X011417Y000361D02*
X000000Y000361D01*
X000000Y000362D02*
X011417Y000362D01*
X011417Y000363D02*
X000000Y000363D01*
X000000Y000364D02*
X011417Y000364D01*
X011417Y000365D02*
X000000Y000365D01*
X000000Y000366D02*
X011417Y000366D01*
X011417Y000367D02*
X000000Y000367D01*
X000000Y000368D02*
X011417Y000368D01*
X011417Y000369D02*
X000000Y000369D01*
X000000Y000370D02*
X011417Y000370D01*
X011417Y000371D02*
X000000Y000371D01*
X000000Y000372D02*
X011417Y000372D01*
X011417Y000373D02*
X000000Y000373D01*
X000000Y000374D02*
X011417Y000374D01*
X011417Y000375D02*
X000000Y000375D01*
X000000Y000376D02*
X011417Y000376D01*
X011417Y000377D02*
X000000Y000377D01*
X000000Y000378D02*
X011417Y000378D01*
X011417Y000379D02*
X000000Y000379D01*
X000000Y000380D02*
X011417Y000380D01*
X011417Y000381D02*
X000000Y000381D01*
X000000Y000382D02*
X011417Y000382D01*
X011417Y000383D02*
X000000Y000383D01*
X000000Y000384D02*
X011417Y000384D01*
X011417Y000385D02*
X000000Y000385D01*
X000000Y000386D02*
X011417Y000386D01*
X011417Y000387D02*
X000000Y000387D01*
X000000Y000388D02*
X011417Y000388D01*
X011417Y000389D02*
X000000Y000389D01*
X000000Y000390D02*
X011417Y000390D01*
X011417Y000391D02*
X000000Y000391D01*
X000000Y000392D02*
X011417Y000392D01*
X011417Y000393D02*
X000000Y000393D01*
X000000Y000394D02*
X011417Y000394D01*
X011417Y000395D02*
X000000Y000395D01*
X000000Y000396D02*
X011417Y000396D01*
X011417Y000397D02*
X000000Y000397D01*
X000000Y000398D02*
X011417Y000398D01*
X011417Y000399D02*
X000000Y000399D01*
X000000Y000400D02*
X011417Y000400D01*
X011417Y000401D02*
X000000Y000401D01*
X000000Y000402D02*
X011417Y000402D01*
X011417Y000403D02*
X000000Y000403D01*
X000000Y000404D02*
X011417Y000404D01*
X011417Y000405D02*
X000000Y000405D01*
X000000Y000406D02*
X011417Y000406D01*
X011417Y000407D02*
X000000Y000407D01*
X000000Y000408D02*
X011417Y000408D01*
X011417Y000409D02*
X000000Y000409D01*
X000000Y000410D02*
X011417Y000410D01*
X011417Y000411D02*
X000000Y000411D01*
X000000Y000412D02*
X011417Y000412D01*
X011417Y000413D02*
X000000Y000413D01*
X000000Y000414D02*
X011417Y000414D01*
X011417Y000415D02*
X000000Y000415D01*
X000000Y000416D02*
X011417Y000416D01*
X011417Y000417D02*
X000000Y000417D01*
X000000Y000418D02*
X011417Y000418D01*
X011417Y000419D02*
X000000Y000419D01*
X000000Y000420D02*
X011417Y000420D01*
X011417Y000421D02*
X000000Y000421D01*
X000000Y000422D02*
X011417Y000422D01*
X011417Y000423D02*
X000000Y000423D01*
X000000Y000424D02*
X011417Y000424D01*
X011417Y000425D02*
X000000Y000425D01*
X000000Y000426D02*
X011417Y000426D01*
X011417Y000427D02*
X000000Y000427D01*
X000000Y000428D02*
X011417Y000428D01*
X011417Y000429D02*
X000000Y000429D01*
X000000Y000430D02*
X011417Y000430D01*
X011417Y000431D02*
X000000Y000431D01*
X000000Y000432D02*
X011417Y000432D01*
X011417Y000433D02*
X000000Y000433D01*
X000000Y000434D02*
X011417Y000434D01*
X011417Y000435D02*
X000000Y000435D01*
X000000Y000436D02*
X011417Y000436D01*
X011417Y000437D02*
X000000Y000437D01*
X000000Y000438D02*
X011417Y000438D01*
X011417Y000439D02*
X000000Y000439D01*
X000000Y000440D02*
X011417Y000440D01*
X011417Y000441D02*
X000000Y000441D01*
X000000Y000442D02*
X011417Y000442D01*
X011417Y000443D02*
X000000Y000443D01*
X000000Y000444D02*
X011417Y000444D01*
X011417Y000445D02*
X000000Y000445D01*
X000000Y000446D02*
X011417Y000446D01*
X011417Y000447D02*
X000000Y000447D01*
X000000Y000448D02*
X011417Y000448D01*
X011417Y000449D02*
X000000Y000449D01*
X000000Y000450D02*
X011417Y000450D01*
X011417Y000451D02*
X000000Y000451D01*
X000000Y000452D02*
X011417Y000452D01*
X011417Y000453D02*
X000000Y000453D01*
X000000Y000454D02*
X011417Y000454D01*
X011417Y000455D02*
X000000Y000455D01*
X000000Y000456D02*
X011417Y000456D01*
X011417Y000457D02*
X000000Y000457D01*
X000000Y000458D02*
X011417Y000458D01*
X011417Y000459D02*
X000000Y000459D01*
X000000Y000460D02*
X011417Y000460D01*
X011417Y000461D02*
X000000Y000461D01*
X000000Y000462D02*
X011417Y000462D01*
X011417Y000463D02*
X000000Y000463D01*
X000000Y000464D02*
X011417Y000464D01*
X011417Y000465D02*
X000000Y000465D01*
X000000Y000466D02*
X011417Y000466D01*
X011417Y000467D02*
X000000Y000467D01*
X000000Y000468D02*
X011417Y000468D01*
X011417Y000469D02*
X000000Y000469D01*
X000000Y000470D02*
X011417Y000470D01*
X011417Y000471D02*
X000000Y000471D01*
X000000Y000472D02*
X011417Y000472D01*
X011417Y000473D02*
X000000Y000473D01*
X000000Y000474D02*
X011417Y000474D01*
X011417Y000475D02*
X000000Y000475D01*
X000000Y000476D02*
X011417Y000476D01*
X011417Y000477D02*
X000000Y000477D01*
X000000Y000478D02*
X011417Y000478D01*
X011417Y000479D02*
X000000Y000479D01*
X000000Y000480D02*
X011417Y000480D01*
X011417Y000481D02*
X000000Y000481D01*
X000000Y000482D02*
X011417Y000482D01*
X011417Y000483D02*
X000000Y000483D01*
X000000Y000484D02*
X011417Y000484D01*
X011417Y000485D02*
X000000Y000485D01*
X000000Y000486D02*
X011417Y000486D01*
X011417Y000487D02*
X000000Y000487D01*
X000000Y000488D02*
X011417Y000488D01*
X011417Y000489D02*
X000000Y000489D01*
X000000Y000490D02*
X011417Y000490D01*
X011417Y000491D02*
X000000Y000491D01*
X000000Y000492D02*
X011417Y000492D01*
X011417Y000493D02*
X000000Y000493D01*
X000000Y000494D02*
X011417Y000494D01*
X011417Y000495D02*
X000000Y000495D01*
X000000Y000496D02*
X011417Y000496D01*
X011417Y000497D02*
X000000Y000497D01*
X000000Y000498D02*
X011417Y000498D01*
X011417Y000499D02*
X000000Y000499D01*
X000000Y000500D02*
X011417Y000500D01*
X011417Y000501D02*
X000000Y000501D01*
X000000Y000502D02*
X011417Y000502D01*
X011417Y000503D02*
X000000Y000503D01*
X000000Y000504D02*
X011417Y000504D01*
X011417Y000505D02*
X000000Y000505D01*
X000000Y000506D02*
X011417Y000506D01*
X011417Y000507D02*
X000000Y000507D01*
X000000Y000508D02*
X011417Y000508D01*
X000000Y000508D01*
X000000Y000509D02*
X011417Y000509D01*
X011417Y000510D02*
X000000Y000510D01*
X000000Y000511D02*
X011417Y000511D01*
X011417Y000512D02*
X000000Y000512D01*
X000000Y000513D02*
X011417Y000513D01*
X011417Y000514D02*
X000000Y000514D01*
X000000Y000515D02*
X011417Y000515D01*
X011417Y000516D02*
X000000Y000516D01*
X000000Y000517D02*
X011417Y000517D01*
X011417Y000518D02*
X000000Y000518D01*
X000000Y000519D02*
X011417Y000519D01*
X011417Y000520D02*
X000000Y000520D01*
X000000Y000521D02*
X011417Y000521D01*
X011417Y000522D02*
X000000Y000522D01*
X000000Y000523D02*
X011417Y000523D01*
X011417Y000524D02*
X000000Y000524D01*
X000000Y000525D02*
X011417Y000525D01*
X011417Y000526D02*
X000000Y000526D01*
X000000Y000527D02*
X011417Y000527D01*
X011417Y000528D02*
X000000Y000528D01*
X000000Y000529D02*
X011417Y000529D01*
X011417Y000530D02*
X000000Y000530D01*
X000000Y000531D02*
X011417Y000531D01*
X011417Y000532D02*
X000000Y000532D01*
X000000Y000533D02*
X011417Y000533D01*
X011417Y000534D02*
X000000Y000534D01*
X000000Y000535D02*
X011417Y000535D01*
X011417Y000536D02*
X000000Y000536D01*
X000000Y000537D02*
X011417Y000537D01*
X011417Y000538D02*
X000000Y000538D01*
X000000Y000539D02*
X011417Y000539D01*
X011417Y000540D02*
X000000Y000540D01*
X000000Y000541D02*
X011417Y000541D01*
X011417Y000542D02*
X000000Y000542D01*
X000000Y000543D02*
X011417Y000543D01*
X011417Y000544D02*
X000000Y000544D01*
X000000Y000545D02*
X011417Y000545D01*
X011417Y000546D02*
X000000Y000546D01*
X000000Y000547D02*
X011417Y000547D01*
X011417Y000548D02*
X000000Y000548D01*
X000000Y000549D02*
X011417Y000549D01*
X011417Y000550D02*
X000000Y000550D01*
X000000Y000551D02*
X011417Y000551D01*
X011417Y000552D02*
X000000Y000552D01*
X000000Y000553D02*
X011417Y000553D01*
X011417Y000554D02*
X000000Y000554D01*
X000000Y000555D02*
X011417Y000555D01*
X011417Y000556D02*
X000000Y000556D01*
X000000Y000557D02*
X011417Y000557D01*
X011417Y000558D02*
X000000Y000558D01*
X000000Y000559D02*
X011417Y000559D01*
X011417Y000560D02*
X000000Y000560D01*
X000000Y000561D02*
X011417Y000561D01*
X011417Y000562D02*
X000000Y000562D01*
X000000Y000563D02*
X011417Y000563D01*
X011417Y000564D02*
X000000Y000564D01*
X000000Y000565D02*
X011417Y000565D01*
X011417Y000566D02*
X000000Y000566D01*
X000000Y000567D02*
X011417Y000567D01*
X011417Y000568D02*
X000000Y000568D01*
X000000Y000569D02*
X011417Y000569D01*
X011417Y000570D02*
X000000Y000570D01*
X000000Y000571D02*
X011417Y000571D01*
X011417Y000572D02*
X000000Y000572D01*
X000000Y000573D02*
X011417Y000573D01*
X011417Y000574D02*
X000000Y000574D01*
X000000Y000575D02*
X011417Y000575D01*
X011417Y000576D02*
X000000Y000576D01*
X000000Y000577D02*
X011417Y000577D01*
X011417Y000578D02*
X000000Y000578D01*
X000000Y000579D02*
X011417Y000579D01*
X011417Y000580D02*
X000000Y000580D01*
X000000Y000581D02*
X011417Y000581D01*
X011417Y000582D02*
X000000Y000582D01*
X000000Y000583D02*
X011417Y000583D01*
X011417Y000584D02*
X000000Y000584D01*
X000000Y000585D02*
X011417Y000585D01*
X011417Y000586D02*
X000000Y000586D01*
X000000Y000587D02*
X011417Y000587D01*
X011417Y000588D02*
X000000Y000588D01*
X000000Y000589D02*
X011417Y000589D01*
X011417Y000590D02*
X000000Y000590D01*
X000000Y000591D02*
X011417Y000591D01*
X011417Y000592D02*
X000000Y000592D01*
X000000Y000593D02*
X011417Y000593D01*
X011417Y000594D02*
X000000Y000594D01*
X000000Y000595D02*
X011417Y000595D01*
X011417Y000596D02*
X000000Y000596D01*
X000000Y000597D02*
X011417Y000597D01*
X011417Y000598D02*
X000000Y000598D01*
X000000Y000599D02*
X011417Y000599D01*
X011417Y000600D02*
X000000Y000600D01*
X000000Y000601D02*
X011417Y000601D01*
X011417Y000602D02*
X000000Y000602D01*
X000000Y000603D02*
X011417Y000603D01*
X011417Y000604D02*
X000000Y000604D01*
X000000Y000605D02*
X011417Y000605D01*
X011417Y000606D02*
X000000Y000606D01*
X000000Y000607D02*
X011417Y000607D01*
X011417Y000608D02*
X000000Y000608D01*
X000000Y000609D02*
X011417Y000609D01*
X011417Y000610D02*
X000000Y000610D01*
X000000Y000611D02*
X011417Y000611D01*
X011417Y000612D02*
X000000Y000612D01*
X000000Y000613D02*
X011417Y000613D01*
X011417Y000614D02*
X000000Y000614D01*
X000000Y000615D02*
X011417Y000615D01*
X011417Y000616D02*
X000000Y000616D01*
X000000Y000617D02*
X011417Y000617D01*
X011417Y000618D02*
X000000Y000618D01*
X000000Y000619D02*
X011417Y000619D01*
X011417Y000620D02*
X000000Y000620D01*
X000000Y000621D02*
X011417Y000621D01*
X011417Y000622D02*
X000000Y000622D01*
X000000Y000623D02*
X011417Y000623D01*
X011417Y000624D02*
X000000Y000624D01*
X000000Y000625D02*
X011417Y000625D01*
X011417Y000626D02*
X000000Y000626D01*
X000000Y000627D02*
X011417Y000627D01*
X011417Y000628D02*
X000000Y000628D01*
X000000Y000629D02*
X011417Y000629D01*
X011417Y000630D02*
X000000Y000630D01*
X000000Y000631D02*
X011417Y000631D01*
X011417Y000632D02*
X000000Y000632D01*
X000000Y000633D02*
X011417Y000633D01*
X011417Y000634D02*
X000000Y000634D01*
X000000Y000635D02*
X011417Y000635D01*
X011417Y000636D02*
X000000Y000636D01*
X000000Y000637D02*
X011417Y000637D01*
X011417Y000638D02*
X000000Y000638D01*
X000000Y000639D02*
X011417Y000639D01*
X011417Y000640D02*
X000000Y000640D01*
X000000Y000641D02*
X011417Y000641D01*
X011417Y000642D02*
X000000Y000642D01*
X000000Y000643D02*
X011417Y000643D01*
X011417Y000644D02*
X000000Y000644D01*
X000000Y000645D02*
X011417Y000645D01*
X011417Y000646D02*
X000000Y000646D01*
X000000Y000647D02*
X011417Y000647D01*
X011417Y000648D02*
X000000Y000648D01*
X000000Y000649D02*
X011417Y000649D01*
X011417Y000650D02*
X000000Y000650D01*
X000000Y000651D02*
X011417Y000651D01*
X011417Y000652D02*
X000000Y000652D01*
X000000Y000653D02*
X011417Y000653D01*
X011417Y000654D02*
X000000Y000654D01*
X000000Y000655D02*
X011417Y000655D01*
X011417Y000656D02*
X000000Y000656D01*
X000000Y000657D02*
X011417Y000657D01*
X011417Y000658D02*
X000000Y000658D01*
X000000Y000659D02*
X011417Y000659D01*
X011417Y000660D02*
X000000Y000660D01*
X000000Y000661D02*
X011417Y000661D01*
X011417Y000662D02*
X000000Y000662D01*
X000000Y000663D02*
X011417Y000663D01*
X011417Y000664D02*
X000000Y000664D01*
X000000Y000665D02*
X011417Y000665D01*
X011417Y000666D02*
X000000Y000666D01*
X000000Y000667D02*
X011417Y000667D01*
X011417Y000668D02*
X000000Y000668D01*
X000000Y000669D02*
X011417Y000669D01*
X011417Y000670D02*
X000000Y000670D01*
X000000Y000671D02*
X011417Y000671D01*
X011417Y000672D02*
X000000Y000672D01*
X000000Y000673D02*
X011417Y000673D01*
X011417Y000674D02*
X000000Y000674D01*
X000000Y000675D02*
X011417Y000675D01*
X011417Y000676D02*
X000000Y000676D01*
X000000Y000677D02*
X011417Y000677D01*
X011417Y000678D02*
X000000Y000678D01*
X000000Y000679D02*
X011417Y000679D01*
X011417Y000680D02*
X000000Y000680D01*
X000000Y000681D02*
X011417Y000681D01*
X011417Y000682D02*
X000000Y000682D01*
X000000Y000683D02*
X011417Y000683D01*
X011417Y000684D02*
X000000Y000684D01*
X000000Y000685D02*
X011417Y000685D01*
X011417Y000686D02*
X000000Y000686D01*
X000000Y000687D02*
X011417Y000687D01*
X011417Y000688D02*
X000000Y000688D01*
X000000Y000689D02*
X011417Y000689D01*
X011417Y000690D02*
X000000Y000690D01*
X000000Y000691D02*
X011417Y000691D01*
X011417Y000692D02*
X000000Y000692D01*
X000000Y000693D02*
X011417Y000693D01*
X011417Y000694D02*
X000000Y000694D01*
X000000Y000695D02*
X011417Y000695D01*
X011417Y000696D02*
X000000Y000696D01*
X000000Y000697D02*
X011417Y000697D01*
X011417Y000698D02*
X000000Y000698D01*
X000000Y000699D02*
X011417Y000699D01*
X011417Y000700D02*
X000000Y000700D01*
X000000Y000701D02*
X011417Y000701D01*
X011417Y000702D02*
X000000Y000702D01*
X000000Y000703D02*
X011417Y000703D01*
X011417Y000704D02*
X000000Y000704D01*
X000000Y000705D02*
X011417Y000705D01*
X011417Y000706D02*
X000000Y000706D01*
X000000Y000707D02*
X011417Y000707D01*
X011417Y000708D02*
X000000Y000708D01*
X000000Y000709D02*
X011417Y000709D01*
X011417Y000710D02*
X000000Y000710D01*
X000000Y000711D02*
X011417Y000711D01*
X011417Y000712D02*
X000000Y000712D01*
X000000Y000713D02*
X011417Y000713D01*
X011417Y000714D02*
X000000Y000714D01*
X000000Y000715D02*
X011417Y000715D01*
X011417Y000716D02*
X000000Y000716D01*
X000000Y000717D02*
X011417Y000717D01*
X011417Y000718D02*
X000000Y000718D01*
X000000Y000719D02*
X011417Y000719D01*
X011417Y000720D02*
X000000Y000720D01*
X000000Y000721D02*
X011417Y000721D01*
X011417Y000722D02*
X000000Y000722D01*
X000000Y000723D02*
X011417Y000723D01*
X011417Y000724D02*
X000000Y000724D01*
X000000Y000725D02*
X011417Y000725D01*
X011417Y000726D02*
X000000Y000726D01*
X000000Y000727D02*
X011417Y000727D01*
X011417Y000728D02*
X000000Y000728D01*
X000000Y000729D02*
X011417Y000729D01*
X011417Y000730D02*
X000000Y000730D01*
X000000Y000731D02*
X011417Y000731D01*
X011417Y000732D02*
X000000Y000732D01*
X000000Y000733D02*
X011417Y000733D01*
X011417Y000734D02*
X000000Y000734D01*
X000000Y000735D02*
X011417Y000735D01*
X011417Y000736D02*
X000000Y000736D01*
X000000Y000737D02*
X011417Y000737D01*
X011417Y000738D02*
X000000Y000738D01*
X000000Y000739D02*
X011417Y000739D01*
X011417Y000740D02*
X000000Y000740D01*
X000000Y000741D02*
X011417Y000741D01*
X011417Y000742D02*
X000000Y000742D01*
X000000Y000743D02*
X011417Y000743D01*
X011417Y000744D02*
X000000Y000744D01*
X000000Y000745D02*
X011417Y000745D01*
X011417Y000746D02*
X000000Y000746D01*
X000000Y000747D02*
X011417Y000747D01*
X011417Y000748D02*
X000000Y000748D01*
X000000Y000749D02*
X011417Y000749D01*
X011417Y000750D02*
X000000Y000750D01*
X000000Y000751D02*
X011417Y000751D01*
X011417Y000752D02*
X000000Y000752D01*
X000000Y000753D02*
X011417Y000753D01*
X011417Y000754D02*
X000000Y000754D01*
X000000Y000755D02*
X011417Y000755D01*
X011417Y000756D02*
X000000Y000756D01*
X000000Y000757D02*
X011417Y000757D01*
X011417Y000758D02*
X000000Y000758D01*
X000000Y000759D02*
X011417Y000759D01*
X011417Y000760D02*
X000000Y000760D01*
X000000Y000761D02*
X011417Y000761D01*
X011417Y000762D02*
X000000Y000762D01*
X000000Y000763D02*
X011417Y000763D01*
X011417Y000764D02*
X000000Y000764D01*
X000000Y000765D02*
X011417Y000765D01*
X011417Y000766D02*
X000000Y000766D01*
X000000Y000767D02*
X011417Y000767D01*
X011417Y000768D02*
X000000Y000768D01*
X000000Y000769D02*
X011417Y000769D01*
X011417Y000770D02*
X000000Y000770D01*
X000000Y000771D02*
X011417Y000771D01*
X011417Y000772D02*
X000000Y000772D01*
X000000Y000773D02*
X011417Y000773D01*
X011417Y000774D02*
X000000Y000774D01*
X000000Y000775D02*
X011417Y000775D01*
X011417Y000776D02*
X000000Y000776D01*
X000000Y000777D02*
X011417Y000777D01*
X011417Y000778D02*
X000000Y000778D01*
X000000Y000779D02*
X011417Y000779D01*
X011417Y000780D02*
X000000Y000780D01*
X000000Y000781D02*
X011417Y000781D01*
X011417Y000782D02*
X000000Y000782D01*
X000000Y000783D02*
X011417Y000783D01*
X011417Y000784D02*
X000000Y000784D01*
X000000Y000785D02*
X011417Y000785D01*
X011417Y000786D02*
X000000Y000786D01*
X000000Y000787D02*
X011417Y000787D01*
X011417Y000788D02*
X000000Y000788D01*
X000000Y000789D02*
X011417Y000789D01*
X011417Y000790D02*
X000000Y000790D01*
X000000Y000791D02*
X011417Y000791D01*
X011417Y000792D02*
X000000Y000792D01*
X000000Y000793D02*
X011417Y000793D01*
X011417Y000794D02*
X000000Y000794D01*
X000000Y000795D02*
X011417Y000795D01*
X011417Y000796D02*
X000000Y000796D01*
X000000Y000797D02*
X011417Y000797D01*
X011417Y000798D02*
X000000Y000798D01*
X000000Y000799D02*
X011417Y000799D01*
X011417Y000800D02*
X000000Y000800D01*
X000000Y000801D02*
X011417Y000801D01*
X011417Y000802D02*
X000000Y000802D01*
X000000Y000803D02*
X011417Y000803D01*
X011417Y000804D02*
X000000Y000804D01*
X000000Y000805D02*
X011417Y000805D01*
X011417Y000806D02*
X000000Y000806D01*
X000000Y000807D02*
X011417Y000807D01*
X011417Y000808D02*
X000000Y000808D01*
X000000Y000809D02*
X011417Y000809D01*
X011417Y000810D02*
X000000Y000810D01*
X000000Y000811D02*
X011417Y000811D01*
X011417Y000812D02*
X000000Y000812D01*
X000000Y000813D02*
X011417Y000813D01*
X011417Y000814D02*
X000000Y000814D01*
X000000Y000815D02*
X011417Y000815D01*
X011417Y000816D02*
X000000Y000816D01*
X000000Y000817D02*
X011417Y000817D01*
X011417Y000818D02*
X000000Y000818D01*
X000000Y000819D02*
X011417Y000819D01*
X011417Y000820D02*
X000000Y000820D01*
X000000Y000821D02*
X011417Y000821D01*
X011417Y000822D02*
X000000Y000822D01*
X000000Y000823D02*
X011417Y000823D01*
X011417Y000824D02*
X000000Y000824D01*
X000000Y000825D02*
X011417Y000825D01*
X011417Y000826D02*
X000000Y000826D01*
X000000Y000827D02*
X011417Y000827D01*
X011417Y000828D02*
X000000Y000828D01*
X000000Y000829D02*
X011417Y000829D01*
X011417Y000830D02*
X000000Y000830D01*
X000000Y000831D02*
X011417Y000831D01*
X011417Y000832D02*
X000000Y000832D01*
X000000Y000833D02*
X011417Y000833D01*
X011417Y000834D02*
X000000Y000834D01*
X000000Y000835D02*
X011417Y000835D01*
X011417Y000836D02*
X000000Y000836D01*
X000000Y000837D02*
X011417Y000837D01*
X011417Y000838D02*
X000000Y000838D01*
X000000Y000839D02*
X011417Y000839D01*
X011417Y000840D02*
X000000Y000840D01*
X000000Y000841D02*
X011417Y000841D01*
X011417Y000842D02*
X000000Y000842D01*
X000000Y000843D02*
X011417Y000843D01*
X011417Y000844D02*
X000000Y000844D01*
X000000Y000845D02*
X011417Y000845D01*
X011417Y000846D02*
X000000Y000846D01*
X000000Y000847D02*
X011417Y000847D01*
X011417Y000848D02*
X000000Y000848D01*
X000000Y000849D02*
X011417Y000849D01*
X011417Y000850D02*
X000000Y000850D01*
X000000Y000851D02*
X011417Y000851D01*
X011417Y000852D02*
X000000Y000852D01*
X000000Y000853D02*
X011417Y000853D01*
X011417Y000854D02*
X000000Y000854D01*
X000000Y000855D02*
X011417Y000855D01*
X011417Y000856D02*
X000000Y000856D01*
X000000Y000857D02*
X011417Y000857D01*
X011417Y000858D02*
X000000Y000858D01*
X000000Y000859D02*
X011417Y000859D01*
X011417Y000860D02*
X000000Y000860D01*
X000000Y000861D02*
X011417Y000861D01*
X011417Y000862D02*
X000000Y000862D01*
X000000Y000863D02*
X011417Y000863D01*
X011417Y000864D02*
X000000Y000864D01*
X000000Y000865D02*
X011417Y000865D01*
X011417Y000866D02*
X000000Y000866D01*
X000000Y000867D02*
X011417Y000867D01*
X011417Y000868D02*
X000000Y000868D01*
X000000Y000869D02*
X011417Y000869D01*
X011417Y000870D02*
X000000Y000870D01*
X000000Y000871D02*
X011417Y000871D01*
X011417Y000872D02*
X000000Y000872D01*
X000000Y000873D02*
X011417Y000873D01*
X011417Y000874D02*
X000000Y000874D01*
X000000Y000875D02*
X011417Y000875D01*
X011417Y000876D02*
X000000Y000876D01*
X000000Y000877D02*
X011417Y000877D01*
X011417Y000878D02*
X000000Y000878D01*
X000000Y000879D02*
X011417Y000879D01*
X011417Y000880D02*
X000000Y000880D01*
X000000Y000881D02*
X011417Y000881D01*
X011417Y000882D02*
X000000Y000882D01*
X000000Y000883D02*
X011417Y000883D01*
X011417Y000884D02*
X000000Y000884D01*
X000000Y000885D02*
X011417Y000885D01*
X011417Y000886D02*
X000000Y000886D01*
X000000Y000887D02*
X011417Y000887D01*
X011417Y000888D02*
X000000Y000888D01*
X000000Y000889D02*
X011417Y000889D01*
X011417Y000890D02*
X000000Y000890D01*
X000000Y000891D02*
X011417Y000891D01*
X011417Y000892D02*
X000000Y000892D01*
X000000Y000893D02*
X011417Y000893D01*
X011417Y000894D02*
X000000Y000894D01*
X000000Y000895D02*
X011417Y000895D01*
X011417Y000896D02*
X000000Y000896D01*
X000000Y000897D02*
X011417Y000897D01*
X011417Y000898D02*
X000000Y000898D01*
X000000Y000899D02*
X011417Y000899D01*
X011417Y000900D02*
X000000Y000900D01*
X000000Y000901D02*
X011417Y000901D01*
X011417Y000902D02*
X000000Y000902D01*
X000000Y000903D02*
X011417Y000903D01*
X011417Y000904D02*
X000000Y000904D01*
X000000Y000905D02*
X011417Y000905D01*
X011417Y000906D02*
X000000Y000906D01*
X000000Y000907D02*
X011417Y000907D01*
X011417Y000908D02*
X000000Y000908D01*
X000000Y000909D02*
X011417Y000909D01*
X011417Y000910D02*
X000000Y000910D01*
X000000Y000911D02*
X011417Y000911D01*
X011417Y000912D02*
X000000Y000912D01*
X000000Y000913D02*
X011417Y000913D01*
X011417Y000914D02*
X000000Y000914D01*
X000000Y000915D02*
X011417Y000915D01*
X011417Y000916D02*
X000000Y000916D01*
X000000Y000917D02*
X011417Y000917D01*
X011417Y000918D02*
X000000Y000918D01*
X000000Y000919D02*
X011417Y000919D01*
X011417Y000920D02*
X000000Y000920D01*
X000000Y000921D02*
X011417Y000921D01*
X011417Y000922D02*
X000000Y000922D01*
X000000Y000923D02*
X011417Y000923D01*
X011417Y000924D02*
X000000Y000924D01*
X000000Y000925D02*
X011417Y000925D01*
X011417Y000926D02*
X000000Y000926D01*
X000000Y000927D02*
X011417Y000927D01*
X011417Y000928D02*
X000000Y000928D01*
X000000Y000929D02*
X011417Y000929D01*
X011417Y000930D02*
X000000Y000930D01*
X000000Y000931D02*
X011417Y000931D01*
X011417Y000932D02*
X000000Y000932D01*
X000000Y000933D02*
X011417Y000933D01*
X011417Y000934D02*
X000000Y000934D01*
X000000Y000935D02*
X011417Y000935D01*
X011417Y000936D02*
X000000Y000936D01*
X000000Y000937D02*
X011417Y000937D01*
X011417Y000938D02*
X000000Y000938D01*
X000000Y000939D02*
X011417Y000939D01*
X011417Y000940D02*
X000000Y000940D01*
X000000Y000941D02*
X011417Y000941D01*
X011417Y000942D02*
X000000Y000942D01*
X000000Y000943D02*
X011417Y000943D01*
X011417Y000944D02*
X000000Y000944D01*
X000000Y000945D02*
X011417Y000945D01*
X011417Y000946D02*
X000000Y000946D01*
X000000Y000947D02*
X011417Y000947D01*
X011417Y000948D02*
X000000Y000948D01*
X000000Y000949D02*
X011417Y000949D01*
X011417Y000950D02*
X000000Y000950D01*
X000000Y000951D02*
X011417Y000951D01*
X011417Y000952D02*
X000000Y000952D01*
X000000Y000953D02*
X011417Y000953D01*
X011417Y000954D02*
X000000Y000954D01*
X000000Y000955D02*
X011417Y000955D01*
X011417Y000956D02*
X000000Y000956D01*
X000000Y000957D02*
X011417Y000957D01*
X011417Y000958D02*
X000000Y000958D01*
X000000Y000959D02*
X011417Y000959D01*
X011417Y000960D02*
X000000Y000960D01*
X000000Y000961D02*
X011417Y000961D01*
X011417Y000962D02*
X000000Y000962D01*
X000000Y000963D02*
X011417Y000963D01*
X011417Y000964D02*
X000000Y000964D01*
X000000Y000965D02*
X011417Y000965D01*
X011417Y000966D02*
X000000Y000966D01*
X000000Y000967D02*
X011417Y000967D01*
X011417Y000968D02*
X000000Y000968D01*
X000000Y000969D02*
X011417Y000969D01*
X011417Y000970D02*
X000000Y000970D01*
X000000Y000971D02*
X011417Y000971D01*
X011417Y000972D02*
X000000Y000972D01*
X000000Y000973D02*
X011417Y000973D01*
X011417Y000974D02*
X000000Y000974D01*
X000000Y000975D02*
X011417Y000975D01*
X011417Y000976D02*
X000000Y000976D01*
X000000Y000977D02*
X011417Y000977D01*
X011417Y000978D02*
X000000Y000978D01*
X000000Y000979D02*
X011417Y000979D01*
X011417Y000980D02*
X000000Y000980D01*
X000000Y000981D02*
X011417Y000981D01*
X011417Y000982D02*
X000000Y000982D01*
X000000Y000983D02*
X011417Y000983D01*
X011417Y000984D02*
X000000Y000984D01*
X000000Y000985D02*
X011417Y000985D01*
X011417Y000986D02*
X000000Y000986D01*
X000000Y000987D02*
X011417Y000987D01*
X011417Y000988D02*
X000000Y000988D01*
X000000Y000989D02*
X011417Y000989D01*
X011417Y000990D02*
X000000Y000990D01*
X000000Y000991D02*
X011417Y000991D01*
X011417Y000992D02*
X000000Y000992D01*
X000000Y000993D02*
X011417Y000993D01*
X011417Y000994D02*
X000000Y000994D01*
X000000Y000995D02*
X011417Y000995D01*
X011417Y000996D02*
X000000Y000996D01*
X000000Y000997D02*
X011417Y000997D01*
X011417Y000998D02*
X000000Y000998D01*
X000000Y000999D02*
X011417Y000999D01*
X011417Y001000D02*
X000000Y001000D01*
X000000Y001001D02*
X011417Y001001D01*
X011417Y001002D02*
X000000Y001002D01*
X000000Y001003D02*
X011417Y001003D01*
X011417Y001004D02*
X000000Y001004D01*
X000000Y001005D02*
X011417Y001005D01*
X011417Y001006D02*
X000000Y001006D01*
X000000Y001007D02*
X011417Y001007D01*
X011417Y001008D02*
X000000Y001008D01*
X000000Y001009D02*
X011417Y001009D01*
X011417Y001010D02*
X000000Y001010D01*
X000000Y001011D02*
X011417Y001011D01*
X011417Y001012D02*
X000000Y001012D01*
X000000Y001013D02*
X011417Y001013D01*
X011417Y001014D02*
X000000Y001014D01*
X000000Y001015D02*
X011417Y001015D01*
X011417Y001016D02*
X000000Y001016D01*
X000000Y001017D02*
X011417Y001017D01*
X011417Y001018D02*
X000000Y001018D01*
X000000Y001019D02*
X011417Y001019D01*
X011417Y001020D02*
X000000Y001020D01*
X000000Y001021D02*
X011417Y001021D01*
X011417Y001022D02*
X000000Y001022D01*
X000000Y001023D02*
X011417Y001023D01*
X011417Y001024D02*
X000000Y001024D01*
X000000Y001025D02*
X011417Y001025D01*
X011417Y001026D02*
X000000Y001026D01*
X000000Y001027D02*
X011417Y001027D01*
X011417Y001028D02*
X000000Y001028D01*
X000000Y001029D02*
X011417Y001029D01*
X011417Y001030D02*
X000000Y001030D01*
X000000Y001031D02*
X011417Y001031D01*
X011417Y001032D02*
X000000Y001032D01*
X000000Y001033D02*
X011417Y001033D01*
X011417Y001034D02*
X000000Y001034D01*
X000000Y001035D02*
X011417Y001035D01*
X011417Y001036D02*
X000000Y001036D01*
X000000Y001037D02*
X011417Y001037D01*
X011417Y001038D02*
X000000Y001038D01*
X000000Y001039D02*
X011417Y001039D01*
X011417Y001040D02*
X000000Y001040D01*
X000000Y001041D02*
X011417Y001041D01*
X011417Y001042D02*
X000000Y001042D01*
X000000Y001043D02*
X011417Y001043D01*
X011417Y001044D02*
X000000Y001044D01*
X000000Y001045D02*
X011417Y001045D01*
X011417Y001046D02*
X000000Y001046D01*
X000000Y001047D02*
X011417Y001047D01*
X011417Y001048D02*
X000000Y001048D01*
X000000Y001049D02*
X011417Y001049D01*
X011417Y001050D02*
X000000Y001050D01*
X000000Y001051D02*
X011417Y001051D01*
X011417Y001052D02*
X000000Y001052D01*
X000000Y001053D02*
X011417Y001053D01*
X011417Y001054D02*
X000000Y001054D01*
X000000Y001055D02*
X011417Y001055D01*
X011417Y001056D02*
X000000Y001056D01*
X000000Y001057D02*
X011417Y001057D01*
X011417Y001058D02*
X000000Y001058D01*
X000000Y001059D02*
X011417Y001059D01*
X011417Y001060D02*
X000000Y001060D01*
X000000Y001061D02*
X011417Y001061D01*
X011417Y001062D02*
X000000Y001062D01*
X000000Y001063D02*
X011417Y001063D01*
X011417Y001064D02*
X000000Y001064D01*
X000000Y001065D02*
X011417Y001065D01*
X011417Y001066D02*
X000000Y001066D01*
X000000Y001067D02*
X011417Y001067D01*
X011417Y001068D02*
X000000Y001068D01*
X000000Y001069D02*
X011417Y001069D01*
X011417Y001070D02*
X000000Y001070D01*
X000000Y001071D02*
X011417Y001071D01*
X011417Y001072D02*
X000000Y001072D01*
X000000Y001073D02*
X011417Y001073D01*
X011417Y001074D02*
X000000Y001074D01*
X000000Y001075D02*
X011417Y001075D01*
X011417Y001076D02*
X000000Y001076D01*
X000000Y001077D02*
X011417Y001077D01*
X011417Y001078D02*
X000000Y001078D01*
X000000Y001079D02*
X011417Y001079D01*
X011417Y001080D02*
X000000Y001080D01*
X000000Y001081D02*
X011417Y001081D01*
X011417Y001082D02*
X000000Y001082D01*
X000000Y001083D02*
X011417Y001083D01*
X011417Y001084D02*
X000000Y001084D01*
X000000Y001085D02*
X011417Y001085D01*
X011417Y001086D02*
X000000Y001086D01*
X000000Y001087D02*
X011417Y001087D01*
X011417Y001088D02*
X000000Y001088D01*
X000000Y001089D02*
X011417Y001089D01*
X011417Y001090D02*
X000000Y001090D01*
X000000Y001091D02*
X011417Y001091D01*
X011417Y001092D02*
X000000Y001092D01*
X000000Y001093D02*
X011417Y001093D01*
X011417Y001094D02*
X000000Y001094D01*
X000000Y001095D02*
X011417Y001095D01*
X011417Y001096D02*
X000000Y001096D01*
X000000Y001097D02*
X011417Y001097D01*
X011417Y001098D02*
X000000Y001098D01*
X000000Y001099D02*
X011417Y001099D01*
X011417Y001100D02*
X000000Y001100D01*
X000000Y001101D02*
X011417Y001101D01*
X011417Y001102D02*
X000000Y001102D01*
X000000Y001103D02*
X011417Y001103D01*
X011417Y001104D02*
X000000Y001104D01*
X000000Y001105D02*
X011417Y001105D01*
X011417Y001106D02*
X000000Y001106D01*
X000000Y001107D02*
X011417Y001107D01*
X011417Y001108D02*
X000000Y001108D01*
X000000Y001109D02*
X011417Y001109D01*
X011417Y001110D02*
X000000Y001110D01*
X000000Y001111D02*
X011417Y001111D01*
X011417Y001112D02*
X000000Y001112D01*
X000000Y001113D02*
X011417Y001113D01*
X011417Y001114D02*
X000000Y001114D01*
X000000Y001115D02*
X011417Y001115D01*
X011417Y001116D02*
X000000Y001116D01*
X000000Y001117D02*
X011417Y001117D01*
X011417Y001118D02*
X000000Y001118D01*
X000000Y001119D02*
X011417Y001119D01*
X011417Y001120D02*
X000000Y001120D01*
X000000Y001121D02*
X011417Y001121D01*
X011417Y001122D02*
X000000Y001122D01*
X000000Y001123D02*
X011417Y001123D01*
X011417Y001124D02*
X000000Y001124D01*
X000000Y001125D02*
X011417Y001125D01*
X011417Y001126D02*
X000000Y001126D01*
X000000Y001127D02*
X011417Y001127D01*
X011417Y001128D02*
X000000Y001128D01*
X000000Y001129D02*
X011417Y001129D01*
X011417Y001130D02*
X000000Y001130D01*
X000000Y001131D02*
X011417Y001131D01*
X011417Y001132D02*
X000000Y001132D01*
X000000Y001133D02*
X011417Y001133D01*
X011417Y001134D02*
X000000Y001134D01*
X000000Y001135D02*
X011417Y001135D01*
X011417Y001136D02*
X000000Y001136D01*
X000000Y001137D02*
X011417Y001137D01*
X011417Y001138D02*
X000000Y001138D01*
X000000Y001139D02*
X011417Y001139D01*
X011417Y001140D02*
X000000Y001140D01*
X000000Y001141D02*
X011417Y001141D01*
X011417Y001142D02*
X000000Y001142D01*
X000000Y001143D02*
X011417Y001143D01*
X011417Y001144D02*
X000000Y001144D01*
X000000Y001145D02*
X011417Y001145D01*
X011417Y001146D02*
X000000Y001146D01*
X000000Y001147D02*
X011417Y001147D01*
X011417Y001148D02*
X000000Y001148D01*
X000000Y001149D02*
X011417Y001149D01*
X011417Y001150D02*
X000000Y001150D01*
X000000Y001151D02*
X011417Y001151D01*
X011417Y001152D02*
X000000Y001152D01*
X000000Y001153D02*
X011417Y001153D01*
X011417Y001154D02*
X000000Y001154D01*
X000000Y001155D02*
X011417Y001155D01*
X011417Y001156D02*
X000000Y001156D01*
X000000Y001157D02*
X011417Y001157D01*
X011417Y001158D02*
X000000Y001158D01*
X000000Y001159D02*
X011417Y001159D01*
X011417Y001160D02*
X000000Y001160D01*
X000000Y001161D02*
X011417Y001161D01*
X011417Y001162D02*
X000000Y001162D01*
X000000Y001163D02*
X011417Y001163D01*
X011417Y001164D02*
X000000Y001164D01*
X000000Y001165D02*
X011417Y001165D01*
X011417Y001166D02*
X000000Y001166D01*
X000000Y001167D02*
X011417Y001167D01*
X011417Y001168D02*
X000000Y001168D01*
X000000Y001169D02*
X011417Y001169D01*
X011417Y001170D02*
X000000Y001170D01*
X000000Y001171D02*
X011417Y001171D01*
X011417Y001172D02*
X000000Y001172D01*
X000000Y001173D02*
X011417Y001173D01*
X011417Y001174D02*
X000000Y001174D01*
X000000Y001175D02*
X011417Y001175D01*
X011417Y001176D02*
X000000Y001176D01*
X000000Y001177D02*
X011417Y001177D01*
X011417Y001178D02*
X000000Y001178D01*
X000000Y001179D02*
X011417Y001179D01*
X011417Y001180D02*
X000000Y001180D01*
X000000Y001181D02*
X011417Y001181D01*
X011417Y001182D02*
X008661Y001182D01*
X008661Y001183D02*
X011417Y001183D01*
X011417Y001184D02*
X008661Y001184D01*
X008661Y001185D02*
X011417Y001185D01*
X011417Y001186D02*
X008661Y001186D01*
X008661Y001187D02*
X011417Y001187D01*
X011417Y001188D02*
X008661Y001188D01*
X008661Y001189D02*
X011417Y001189D01*
X011417Y001190D02*
X008661Y001190D01*
X008661Y001191D02*
X011417Y001191D01*
X011417Y001192D02*
X008661Y001192D01*
X008661Y001193D02*
X011417Y001193D01*
X011417Y001194D02*
X008661Y001194D01*
X008661Y001195D02*
X011417Y001195D01*
X011417Y001196D02*
X008661Y001196D01*
X008661Y001197D02*
X011417Y001197D01*
X011417Y001198D02*
X008661Y001198D01*
X008661Y001199D02*
X011417Y001199D01*
X011417Y001200D02*
X008661Y001200D01*
X008661Y001201D02*
X011417Y001201D01*
X011417Y001202D02*
X008661Y001202D01*
X008661Y001203D02*
X011417Y001203D01*
X011417Y001204D02*
X008661Y001204D01*
X008661Y001205D02*
X011417Y001205D01*
X011417Y001206D02*
X008661Y001206D01*
X008661Y001207D02*
X011417Y001207D01*
X011417Y001208D02*
X008661Y001208D01*
X008661Y001209D02*
X011417Y001209D01*
X011417Y001210D02*
X008661Y001210D01*
X008661Y001211D02*
X011417Y001211D01*
X011417Y001212D02*
X008661Y001212D01*
X008661Y001213D02*
X011417Y001213D01*
X011417Y001214D02*
X008661Y001214D01*
X008661Y001215D02*
X011417Y001215D01*
X011417Y001216D02*
X008661Y001216D01*
X008661Y001217D02*
X011417Y001217D01*
X011417Y001218D02*
X008661Y001218D01*
X008661Y001219D02*
X011417Y001219D01*
X011417Y001220D02*
X008661Y001220D01*
X008661Y001221D02*
X011417Y001221D01*
X011417Y001222D02*
X008661Y001222D01*
X008661Y001223D02*
X011417Y001223D01*
X011417Y001224D02*
X008661Y001224D01*
X008661Y001225D02*
X011417Y001225D01*
X011417Y001226D02*
X008661Y001226D01*
X008661Y001227D02*
X011417Y001227D01*
X011417Y001228D02*
X008661Y001228D01*
X008661Y001229D02*
X011417Y001229D01*
X011417Y001230D02*
X008661Y001230D01*
X008661Y001231D02*
X011417Y001231D01*
X011417Y001232D02*
X008661Y001232D01*
X008661Y001233D02*
X011417Y001233D01*
X011417Y001234D02*
X008661Y001234D01*
X008661Y001235D02*
X011417Y001235D01*
X011417Y001236D02*
X008661Y001236D01*
X008661Y001237D02*
X011417Y001237D01*
X011417Y001238D02*
X008661Y001238D01*
X008661Y001239D02*
X011417Y001239D01*
X011417Y001240D02*
X008661Y001240D01*
X008661Y001241D02*
X011417Y001241D01*
X011417Y001242D02*
X008661Y001242D01*
X008661Y001243D02*
X011417Y001243D01*
X011417Y001244D02*
X008661Y001244D01*
X008661Y001245D02*
X011417Y001245D01*
X011417Y001246D02*
X008661Y001246D01*
X008661Y001247D02*
X011417Y001247D01*
X011417Y001248D02*
X008661Y001248D01*
X008661Y001249D02*
X011417Y001249D01*
X011417Y001250D02*
X008661Y001250D01*
X008661Y001251D02*
X011417Y001251D01*
X011417Y001252D02*
X008661Y001252D01*
X008661Y001253D02*
X011417Y001253D01*
X011417Y001254D02*
X008661Y001254D01*
X008661Y001255D02*
X011417Y001255D01*
X011417Y001256D02*
X008661Y001256D01*
X008661Y001257D02*
X011417Y001257D01*
X011417Y001258D02*
X008661Y001258D01*
X008661Y001259D02*
X011417Y001259D01*
X011417Y001260D02*
X008661Y001260D01*
X008661Y001261D02*
X011417Y001261D01*
X011417Y001262D02*
X008661Y001262D01*
X008661Y001263D02*
X011417Y001263D01*
X011417Y001264D02*
X008661Y001264D01*
X008661Y001265D02*
X011417Y001265D01*
X011417Y001266D02*
X008661Y001266D01*
X008661Y001267D02*
X011417Y001267D01*
X011417Y001268D02*
X008661Y001268D01*
X008661Y001269D02*
X011417Y001269D01*
X011417Y001270D02*
X008661Y001270D01*
X008661Y001271D02*
X011417Y001271D01*
X011417Y001272D02*
X008661Y001272D01*
X008661Y001273D02*
X011417Y001273D01*
X011417Y001274D02*
X008661Y001274D01*
X008661Y001275D02*
X011417Y001275D01*
X011417Y001276D02*
X008661Y001276D01*
X008661Y001277D02*
X011417Y001277D01*
X011417Y001278D02*
X008661Y001278D01*
X008661Y001279D02*
X011417Y001279D01*
X011417Y001280D02*
X008661Y001280D01*
X008661Y001281D02*
X011417Y001281D01*
X011417Y001282D02*
X008661Y001282D01*
X008661Y001283D02*
X011417Y001283D01*
X011417Y001284D02*
X008661Y001284D01*
X008661Y001285D02*
X011417Y001285D01*
X011417Y001286D02*
X008661Y001286D01*
X008661Y001287D02*
X011417Y001287D01*
X011417Y001288D02*
X008661Y001288D01*
X008661Y001289D02*
X011417Y001289D01*
X011417Y001290D02*
X008661Y001290D01*
X008661Y001291D02*
X011417Y001291D01*
X011417Y001292D02*
X008661Y001292D01*
X008661Y001293D02*
X011417Y001293D01*
X011417Y001294D02*
X008661Y001294D01*
X008661Y001295D02*
X011417Y001295D01*
X011417Y001296D02*
X008661Y001296D01*
X008661Y001297D02*
X011417Y001297D01*
X011417Y001298D02*
X008661Y001298D01*
X008661Y001299D02*
X011417Y001299D01*
X011417Y001300D02*
X008661Y001300D01*
X008661Y001301D02*
X011417Y001301D01*
X011417Y001302D02*
X008661Y001302D01*
X008661Y001303D02*
X011417Y001303D01*
X011417Y001304D02*
X008661Y001304D01*
X008661Y001305D02*
X011417Y001305D01*
X011417Y001306D02*
X008661Y001306D01*
X008661Y001307D02*
X011417Y001307D01*
X011417Y001308D02*
X008661Y001308D01*
X008661Y001309D02*
X011417Y001309D01*
X011417Y001310D02*
X008661Y001310D01*
X008661Y001311D02*
X011417Y001311D01*
X011417Y001312D02*
X008661Y001312D01*
X008661Y001313D02*
X011417Y001313D01*
X011417Y001314D02*
X008661Y001314D01*
X008661Y001315D02*
X011417Y001315D01*
X011417Y001316D02*
X008661Y001316D01*
X008661Y001317D02*
X011417Y001317D01*
X011417Y001318D02*
X008661Y001318D01*
X008661Y001319D02*
X011417Y001319D01*
X011417Y001320D02*
X008661Y001320D01*
X008661Y001321D02*
X011417Y001321D01*
X011417Y001322D02*
X008661Y001322D01*
X008661Y001323D02*
X011417Y001323D01*
X011417Y001324D02*
X008661Y001324D01*
X008661Y001325D02*
X011417Y001325D01*
X011417Y001326D02*
X008661Y001326D01*
X008661Y001327D02*
X011417Y001327D01*
X011417Y001328D02*
X008661Y001328D01*
X008661Y001329D02*
X011417Y001329D01*
X011417Y001330D02*
X008661Y001330D01*
X008661Y001331D02*
X011417Y001331D01*
X011417Y001332D02*
X008661Y001332D01*
X008661Y001333D02*
X011417Y001333D01*
X011417Y001334D02*
X008661Y001334D01*
X008661Y001335D02*
X011417Y001335D01*
X011417Y001336D02*
X008661Y001336D01*
X008661Y001337D02*
X011417Y001337D01*
X011417Y001338D02*
X008661Y001338D01*
X008661Y001339D02*
X011417Y001339D01*
X011417Y001340D02*
X008661Y001340D01*
X008661Y001341D02*
X011417Y001341D01*
X011417Y001342D02*
X008661Y001342D01*
X008661Y001343D02*
X011417Y001343D01*
X011417Y001344D02*
X008661Y001344D01*
X008661Y001345D02*
X011417Y001345D01*
X011417Y001346D02*
X008661Y001346D01*
X008661Y001347D02*
X011417Y001347D01*
X011417Y001348D02*
X008661Y001348D01*
X008661Y001349D02*
X011417Y001349D01*
X011417Y001350D02*
X008661Y001350D01*
X008661Y001351D02*
X011417Y001351D01*
X011417Y001352D02*
X008661Y001352D01*
X008661Y001353D02*
X011417Y001353D01*
X011417Y001354D02*
X008661Y001354D01*
X008661Y001355D02*
X011417Y001355D01*
X011417Y001356D02*
X008661Y001356D01*
X008661Y001357D02*
X011417Y001357D01*
X011417Y001358D02*
X008661Y001358D01*
X008661Y001359D02*
X011417Y001359D01*
X011417Y001360D02*
X008661Y001360D01*
X008661Y001361D02*
X011417Y001361D01*
X011417Y001362D02*
X008661Y001362D01*
X008661Y001363D02*
X011417Y001363D01*
X011417Y001364D02*
X008661Y001364D01*
X008661Y001365D02*
X011417Y001365D01*
X011417Y001366D02*
X008661Y001366D01*
X008661Y001367D02*
X011417Y001367D01*
X011417Y001368D02*
X008661Y001368D01*
X008661Y001369D02*
X011417Y001369D01*
X011417Y001370D02*
X008661Y001370D01*
X008661Y001371D02*
X011417Y001371D01*
X011417Y001372D02*
X008661Y001372D01*
X008661Y001373D02*
X011417Y001373D01*
X011417Y001374D02*
X008661Y001374D01*
X008661Y001375D02*
X011417Y001375D01*
X011417Y001376D02*
X008661Y001376D01*
X008661Y001377D02*
X011417Y001377D01*
X011417Y001378D02*
X008661Y001378D01*
X008661Y001379D02*
X011417Y001379D01*
X011417Y001380D02*
X008661Y001380D01*
X008661Y001381D02*
X011417Y001381D01*
X011417Y001382D02*
X008661Y001382D01*
X008661Y001383D02*
X011417Y001383D01*
X011417Y001384D02*
X008661Y001384D01*
X008661Y001385D02*
X011417Y001385D01*
X011417Y001386D02*
X008661Y001386D01*
X008661Y001387D02*
X011417Y001387D01*
X011417Y001388D02*
X008661Y001388D01*
X008661Y001389D02*
X011417Y001389D01*
X011417Y001390D02*
X008661Y001390D01*
X008661Y001391D02*
X011417Y001391D01*
X011417Y001392D02*
X008661Y001392D01*
X008661Y001393D02*
X011417Y001393D01*
X011417Y001394D02*
X008661Y001394D01*
X008661Y001395D02*
X011417Y001395D01*
X011417Y001396D02*
X008661Y001396D01*
X008661Y001397D02*
X011417Y001397D01*
X011417Y001398D02*
X008661Y001398D01*
X008661Y001399D02*
X011417Y001399D01*
X011417Y001400D02*
X008661Y001400D01*
X008661Y001401D02*
X011417Y001401D01*
X011417Y001402D02*
X008661Y001402D01*
X008661Y001403D02*
X011417Y001403D01*
X011417Y001404D02*
X008661Y001404D01*
X008661Y001405D02*
X011417Y001405D01*
X011417Y001406D02*
X008661Y001406D01*
X008661Y001407D02*
X011417Y001407D01*
X011417Y001408D02*
X008661Y001408D01*
X008661Y001409D02*
X011417Y001409D01*
X011417Y001410D02*
X008661Y001410D01*
X008661Y001411D02*
X011417Y001411D01*
X011417Y001412D02*
X008661Y001412D01*
X008661Y001413D02*
X011417Y001413D01*
X011417Y001414D02*
X008661Y001414D01*
X008661Y001415D02*
X011417Y001415D01*
X011417Y001416D02*
X008661Y001416D01*
X008661Y001417D02*
X011417Y001417D01*
X011417Y001418D02*
X008661Y001418D01*
X008661Y001419D02*
X011417Y001419D01*
X011417Y001420D02*
X008661Y001420D01*
X008661Y001421D02*
X011417Y001421D01*
X011417Y001422D02*
X008661Y001422D01*
X008661Y001423D02*
X011417Y001423D01*
X011417Y001424D02*
X008661Y001424D01*
X008661Y001425D02*
X011417Y001425D01*
X011417Y001426D02*
X008661Y001426D01*
X008661Y001427D02*
X011417Y001427D01*
X011417Y001428D02*
X008661Y001428D01*
X008661Y001429D02*
X011417Y001429D01*
X011417Y001430D02*
X008661Y001430D01*
X008661Y001431D02*
X011417Y001431D01*
X011417Y001432D02*
X008661Y001432D01*
X008661Y001433D02*
X011417Y001433D01*
X011417Y001434D02*
X008661Y001434D01*
X008661Y001435D02*
X011417Y001435D01*
X011417Y001436D02*
X008661Y001436D01*
X008661Y001437D02*
X011417Y001437D01*
X011417Y001438D02*
X008661Y001438D01*
X008661Y001439D02*
X011417Y001439D01*
X011417Y001440D02*
X008661Y001440D01*
X008661Y001441D02*
X011417Y001441D01*
X011417Y001442D02*
X008661Y001442D01*
X008661Y001443D02*
X011417Y001443D01*
X011417Y001444D02*
X008661Y001444D01*
X008661Y001445D02*
X011417Y001445D01*
X011417Y001446D02*
X008661Y001446D01*
X008661Y001447D02*
X011417Y001447D01*
X011417Y001448D02*
X008661Y001448D01*
X008661Y001449D02*
X011417Y001449D01*
X011417Y001450D02*
X008661Y001450D01*
X008661Y001451D02*
X011417Y001451D01*
X011417Y001452D02*
X008661Y001452D01*
X008661Y001453D02*
X011417Y001453D01*
X011417Y001454D02*
X008661Y001454D01*
X008661Y001455D02*
X011417Y001455D01*
X011417Y001456D02*
X008661Y001456D01*
X008661Y001457D02*
X011417Y001457D01*
X011417Y001458D02*
X008661Y001458D01*
X008661Y001459D02*
X011417Y001459D01*
X011417Y001460D02*
X008661Y001460D01*
X008661Y001461D02*
X011417Y001461D01*
X011417Y001462D02*
X008661Y001462D01*
X008661Y001463D02*
X011417Y001463D01*
X011417Y001464D02*
X008661Y001464D01*
X008661Y001465D02*
X011417Y001465D01*
X011417Y001466D02*
X008661Y001466D01*
X008661Y001467D02*
X011417Y001467D01*
X011417Y001468D02*
X008661Y001468D01*
X008661Y001469D02*
X011417Y001469D01*
X011417Y001470D02*
X008661Y001470D01*
X008661Y001471D02*
X011417Y001471D01*
X011417Y001472D02*
X008661Y001472D01*
X008661Y001473D02*
X011417Y001473D01*
X011417Y001474D02*
X008661Y001474D01*
X008661Y001475D02*
X011417Y001475D01*
X011417Y001476D02*
X008661Y001476D01*
X008661Y001477D02*
X011417Y001477D01*
X011417Y001478D02*
X008661Y001478D01*
X008661Y001479D02*
X011417Y001479D01*
X011417Y001480D02*
X008661Y001480D01*
X008661Y001481D02*
X011417Y001481D01*
X011417Y001482D02*
X008661Y001482D01*
X008661Y001483D02*
X011417Y001483D01*
X011417Y001484D02*
X008661Y001484D01*
X008661Y001485D02*
X011417Y001485D01*
X011417Y001486D02*
X008661Y001486D01*
X008661Y001487D02*
X011417Y001487D01*
X011417Y001488D02*
X008661Y001488D01*
X008661Y001489D02*
X011417Y001489D01*
X011417Y001490D02*
X008661Y001490D01*
X008661Y001491D02*
X011417Y001491D01*
X011417Y001492D02*
X008661Y001492D01*
X008661Y001493D02*
X011417Y001493D01*
X011417Y001494D02*
X008661Y001494D01*
X008661Y001495D02*
X011417Y001495D01*
X011417Y001496D02*
X008661Y001496D01*
X008661Y001497D02*
X011417Y001497D01*
X011417Y001498D02*
X008661Y001498D01*
X008661Y001499D02*
X011417Y001499D01*
X011417Y001500D02*
X008661Y001500D01*
X008661Y001501D02*
X011417Y001501D01*
X011417Y001502D02*
X008661Y001502D01*
X008661Y001503D02*
X011417Y001503D01*
X011417Y001504D02*
X008661Y001504D01*
X008661Y001505D02*
X011417Y001505D01*
X011417Y001506D02*
X008661Y001506D01*
X008661Y001507D02*
X011417Y001507D01*
X011417Y001508D02*
X008661Y001508D01*
X008661Y001509D02*
X011417Y001509D01*
X011417Y001510D02*
X008661Y001510D01*
X008661Y001511D02*
X011417Y001511D01*
X011417Y001512D02*
X008661Y001512D01*
X008661Y001513D02*
X011417Y001513D01*
X011417Y001514D02*
X008661Y001514D01*
X008661Y001515D02*
X011417Y001515D01*
X011417Y001516D02*
X008661Y001516D01*
X008661Y001517D02*
X011417Y001517D01*
X011417Y001518D02*
X008661Y001518D01*
X008661Y001519D02*
X011417Y001519D01*
X011417Y001520D02*
X008661Y001520D01*
X008661Y001521D02*
X011417Y001521D01*
X011417Y001522D02*
X008661Y001522D01*
X008661Y001523D02*
X011417Y001523D01*
X008661Y001523D01*
X008661Y001524D02*
X011417Y001524D01*
X011417Y001525D02*
X008661Y001525D01*
X008661Y001526D02*
X011417Y001526D01*
X011417Y001527D02*
X008661Y001527D01*
X008661Y001528D02*
X011417Y001528D01*
X011417Y001529D02*
X008661Y001529D01*
X008661Y001530D02*
X011417Y001530D01*
X011417Y001531D02*
X008661Y001531D01*
X008661Y001532D02*
X011417Y001532D01*
X011417Y001533D02*
X008661Y001533D01*
X008661Y001534D02*
X011417Y001534D01*
X011417Y001535D02*
X008661Y001535D01*
X008661Y001536D02*
X011417Y001536D01*
X011417Y001537D02*
X008661Y001537D01*
X008661Y001538D02*
X011417Y001538D01*
X011417Y001539D02*
X008661Y001539D01*
X008661Y001540D02*
X011417Y001540D01*
X011417Y001541D02*
X008661Y001541D01*
X008661Y001542D02*
X011417Y001542D01*
X011417Y001543D02*
X008661Y001543D01*
X008661Y001544D02*
X011417Y001544D01*
X011417Y001545D02*
X008661Y001545D01*
X008661Y001546D02*
X011417Y001546D01*
X011417Y001547D02*
X008661Y001547D01*
X008661Y001548D02*
X011417Y001548D01*
X011417Y001549D02*
X008661Y001549D01*
X008661Y001550D02*
X011417Y001550D01*
X011417Y001551D02*
X008661Y001551D01*
X008661Y001552D02*
X011417Y001552D01*
X011417Y001553D02*
X008661Y001553D01*
X008661Y001554D02*
X011417Y001554D01*
X011417Y001555D02*
X008661Y001555D01*
X008661Y001556D02*
X011417Y001556D01*
X011417Y001557D02*
X008661Y001557D01*
X008661Y001558D02*
X011417Y001558D01*
X011417Y001559D02*
X008661Y001559D01*
X008661Y001560D02*
X011417Y001560D01*
X011417Y001561D02*
X008661Y001561D01*
X008661Y001562D02*
X011417Y001562D01*
X011417Y001563D02*
X008661Y001563D01*
X008661Y001564D02*
X011417Y001564D01*
X011417Y001565D02*
X008661Y001565D01*
X008661Y001566D02*
X011417Y001566D01*
X011417Y001567D02*
X008661Y001567D01*
X008661Y001568D02*
X011417Y001568D01*
X011417Y001569D02*
X008661Y001569D01*
X008661Y001570D02*
X011417Y001570D01*
X011417Y001571D02*
X008661Y001571D01*
X008661Y001572D02*
X011417Y001572D01*
X011417Y001573D02*
X008661Y001573D01*
X008661Y001574D02*
X011417Y001574D01*
X011417Y001575D02*
X008661Y001575D01*
X008661Y001576D02*
X011417Y001576D01*
X011417Y001577D02*
X008661Y001577D01*
X008661Y001578D02*
X011417Y001578D01*
X011417Y001579D02*
X008661Y001579D01*
X008661Y001580D02*
X011417Y001580D01*
X011417Y001581D02*
X008661Y001581D01*
X008661Y001582D02*
X011417Y001582D01*
X011417Y001583D02*
X008661Y001583D01*
X008661Y001584D02*
X011417Y001584D01*
X011417Y001585D02*
X008661Y001585D01*
X008661Y001586D02*
X011417Y001586D01*
X011417Y001587D02*
X008661Y001587D01*
X008661Y001588D02*
X011417Y001588D01*
X011417Y001589D02*
X008661Y001589D01*
X008661Y001590D02*
X011417Y001590D01*
X011417Y001591D02*
X008661Y001591D01*
X008661Y001592D02*
X011417Y001592D01*
X011417Y001593D02*
X008661Y001593D01*
X008661Y001594D02*
X011417Y001594D01*
X011417Y001595D02*
X008661Y001595D01*
X008661Y001596D02*
X011417Y001596D01*
X011417Y001597D02*
X008661Y001597D01*
X008661Y001598D02*
X011417Y001598D01*
X011417Y001599D02*
X008661Y001599D01*
X008661Y001600D02*
X011417Y001600D01*
X011417Y001601D02*
X008661Y001601D01*
X008661Y001602D02*
X011417Y001602D01*
X011417Y001603D02*
X008661Y001603D01*
X008661Y001604D02*
X011417Y001604D01*
X011417Y001605D02*
X008661Y001605D01*
X008661Y001606D02*
X011417Y001606D01*
X011417Y001607D02*
X008661Y001607D01*
X008661Y001608D02*
X011417Y001608D01*
X011417Y001609D02*
X008661Y001609D01*
X008661Y001610D02*
X011417Y001610D01*
X011417Y001611D02*
X008661Y001611D01*
X008661Y001612D02*
X011417Y001612D01*
X011417Y001613D02*
X008661Y001613D01*
X008661Y001614D02*
X011417Y001614D01*
X011417Y001615D02*
X008661Y001615D01*
X008661Y001616D02*
X011417Y001616D01*
X011417Y001617D02*
X008661Y001617D01*
X008661Y001618D02*
X011417Y001618D01*
X011417Y001619D02*
X008661Y001619D01*
X008661Y001620D02*
X011417Y001620D01*
X011417Y001621D02*
X008661Y001621D01*
X008661Y001622D02*
X011417Y001622D01*
X011417Y001623D02*
X008661Y001623D01*
X008661Y001624D02*
X011417Y001624D01*
X011417Y001625D02*
X008661Y001625D01*
X008661Y001626D02*
X011417Y001626D01*
X011417Y001627D02*
X008661Y001627D01*
X008661Y001628D02*
X011417Y001628D01*
X011417Y001629D02*
X008661Y001629D01*
X008661Y001630D02*
X011417Y001630D01*
X011417Y001631D02*
X008661Y001631D01*
X008661Y001632D02*
X011417Y001632D01*
X011417Y001633D02*
X008661Y001633D01*
X008661Y001634D02*
X011417Y001634D01*
X011417Y001635D02*
X008661Y001635D01*
X008661Y001636D02*
X011417Y001636D01*
X011417Y001637D02*
X008661Y001637D01*
X008661Y001638D02*
X011417Y001638D01*
X011417Y001639D02*
X008661Y001639D01*
X008661Y001640D02*
X011417Y001640D01*
X011417Y001641D02*
X008661Y001641D01*
X008661Y001642D02*
X011417Y001642D01*
X011417Y001643D02*
X008661Y001643D01*
X008661Y001644D02*
X011417Y001644D01*
X011417Y001645D02*
X008661Y001645D01*
X008661Y001646D02*
X011417Y001646D01*
X011417Y001647D02*
X008661Y001647D01*
X008661Y001648D02*
X011417Y001648D01*
X011417Y001649D02*
X008661Y001649D01*
X008661Y001650D02*
X011417Y001650D01*
X011417Y001651D02*
X008661Y001651D01*
X008661Y001652D02*
X011417Y001652D01*
X011417Y001653D02*
X008661Y001653D01*
X008661Y001654D02*
X011417Y001654D01*
X011417Y001655D02*
X008661Y001655D01*
X008661Y001656D02*
X011417Y001656D01*
X011417Y001657D02*
X008661Y001657D01*
X008661Y001658D02*
X011417Y001658D01*
X011417Y001659D02*
X008661Y001659D01*
X008661Y001660D02*
X011417Y001660D01*
X011417Y001661D02*
X008661Y001661D01*
X008661Y001662D02*
X011417Y001662D01*
X011417Y001663D02*
X008661Y001663D01*
X008661Y001664D02*
X011417Y001664D01*
X011417Y001665D02*
X008661Y001665D01*
X008661Y001666D02*
X011417Y001666D01*
X011417Y001667D02*
X008661Y001667D01*
X008661Y001668D02*
X011417Y001668D01*
X011417Y001669D02*
X008661Y001669D01*
X008661Y001670D02*
X011417Y001670D01*
X011417Y001671D02*
X008661Y001671D01*
X008661Y001672D02*
X011417Y001672D01*
X011417Y001673D02*
X008661Y001673D01*
X008661Y001674D02*
X011417Y001674D01*
X011417Y001675D02*
X008661Y001675D01*
X008661Y001676D02*
X011417Y001676D01*
X011417Y001677D02*
X008661Y001677D01*
X008661Y001678D02*
X011417Y001678D01*
X011417Y001679D02*
X008661Y001679D01*
X008661Y001680D02*
X011417Y001680D01*
X011417Y001681D02*
X008661Y001681D01*
X008661Y001682D02*
X011417Y001682D01*
X011417Y001683D02*
X008661Y001683D01*
X008661Y001684D02*
X011417Y001684D01*
X011417Y001685D02*
X008661Y001685D01*
X008661Y001686D02*
X011417Y001686D01*
X011417Y001687D02*
X008661Y001687D01*
X008661Y001688D02*
X011417Y001688D01*
X011417Y001689D02*
X008661Y001689D01*
X008661Y001690D02*
X011417Y001690D01*
X011417Y001691D02*
X008661Y001691D01*
X008661Y001692D02*
X011417Y001692D01*
X011417Y001693D02*
X008661Y001693D01*
X008661Y001694D02*
X011417Y001694D01*
X011417Y001695D02*
X008661Y001695D01*
X008661Y001696D02*
X011417Y001696D01*
X011417Y001697D02*
X008661Y001697D01*
X008661Y001698D02*
X011417Y001698D01*
X011417Y001699D02*
X008661Y001699D01*
X008661Y001700D02*
X011417Y001700D01*
X011417Y001701D02*
X008661Y001701D01*
X008661Y001702D02*
X011417Y001702D01*
X011417Y001703D02*
X008661Y001703D01*
X008661Y001704D02*
X011417Y001704D01*
X011417Y001705D02*
X008661Y001705D01*
X008661Y001706D02*
X011417Y001706D01*
X011417Y001707D02*
X008661Y001707D01*
X008661Y001708D02*
X011417Y001708D01*
X011417Y001709D02*
X008661Y001709D01*
X008661Y001710D02*
X011417Y001710D01*
X011417Y001711D02*
X008661Y001711D01*
X008661Y001712D02*
X011417Y001712D01*
X011417Y001713D02*
X008661Y001713D01*
X008661Y001714D02*
X011417Y001714D01*
X011417Y001715D02*
X008661Y001715D01*
X008661Y001716D02*
X011417Y001716D01*
X011417Y001717D02*
X008661Y001717D01*
X008661Y001718D02*
X011417Y001718D01*
X011417Y001719D02*
X008661Y001719D01*
X008661Y001720D02*
X011417Y001720D01*
X011417Y001721D02*
X008661Y001721D01*
X008661Y001722D02*
X011417Y001722D01*
X011417Y001723D02*
X008661Y001723D01*
X008661Y001724D02*
X011417Y001724D01*
X011417Y001725D02*
X008661Y001725D01*
X008661Y001726D02*
X011417Y001726D01*
X011417Y001727D02*
X008661Y001727D01*
X008661Y001728D02*
X011417Y001728D01*
X011417Y001729D02*
X008661Y001729D01*
X008661Y001730D02*
X011417Y001730D01*
X011417Y001731D02*
X008661Y001731D01*
X008661Y001732D02*
X011417Y001732D01*
X011417Y001733D02*
X008661Y001733D01*
X008661Y001734D02*
X011417Y001734D01*
X011417Y001735D02*
X008661Y001735D01*
X008661Y001736D02*
X011417Y001736D01*
X011417Y001737D02*
X008661Y001737D01*
X008661Y001738D02*
X011417Y001738D01*
X011417Y001739D02*
X008661Y001739D01*
X008661Y001740D02*
X011417Y001740D01*
X011417Y001741D02*
X008661Y001741D01*
X008661Y001742D02*
X011417Y001742D01*
X011417Y001743D02*
X008661Y001743D01*
X008661Y001744D02*
X011417Y001744D01*
X011417Y001745D02*
X008661Y001745D01*
X008661Y001746D02*
X011417Y001746D01*
X011417Y001747D02*
X008661Y001747D01*
X008661Y001748D02*
X011417Y001748D01*
X011417Y001749D02*
X008661Y001749D01*
X008661Y001750D02*
X011417Y001750D01*
X011417Y001751D02*
X008661Y001751D01*
X008661Y001752D02*
X011417Y001752D01*
X011417Y001753D02*
X008661Y001753D01*
X008661Y001754D02*
X011417Y001754D01*
X011417Y001755D02*
X008661Y001755D01*
X008661Y001756D02*
X011417Y001756D01*
X011417Y001757D02*
X008661Y001757D01*
X008661Y001758D02*
X011417Y001758D01*
X011417Y001759D02*
X008661Y001759D01*
X008661Y001760D02*
X011417Y001760D01*
X011417Y001761D02*
X008661Y001761D01*
X008661Y001762D02*
X011417Y001762D01*
X011417Y001763D02*
X008661Y001763D01*
X008661Y001764D02*
X011417Y001764D01*
X011417Y001765D02*
X008661Y001765D01*
X008661Y001766D02*
X011417Y001766D01*
X011417Y001767D02*
X008661Y001767D01*
X008661Y001768D02*
X011417Y001768D01*
X011417Y001769D02*
X008661Y001769D01*
X008661Y001770D02*
X011417Y001770D01*
X011417Y001771D02*
X008661Y001771D01*
X008661Y001772D02*
X011417Y001772D01*
X011417Y001773D02*
X008661Y001773D01*
X008661Y001774D02*
X011417Y001774D01*
X011417Y001775D02*
X008661Y001775D01*
X008661Y001776D02*
X011417Y001776D01*
X011417Y001777D02*
X008661Y001777D01*
X008661Y001778D02*
X011417Y001778D01*
X011417Y001779D02*
X008661Y001779D01*
X008661Y001780D02*
X011417Y001780D01*
X011417Y001781D02*
X008661Y001781D01*
X008661Y001782D02*
X011417Y001782D01*
X011417Y001783D02*
X008661Y001783D01*
X008661Y001784D02*
X011417Y001784D01*
X011417Y001785D02*
X008661Y001785D01*
X008661Y001786D02*
X011417Y001786D01*
X011417Y001787D02*
X008661Y001787D01*
X008661Y001788D02*
X011417Y001788D01*
X011417Y001789D02*
X008661Y001789D01*
X008661Y001790D02*
X011417Y001790D01*
X011417Y001791D02*
X008661Y001791D01*
X008661Y001792D02*
X011417Y001792D01*
X011417Y001793D02*
X008661Y001793D01*
X008661Y001794D02*
X011417Y001794D01*
X011417Y001795D02*
X008661Y001795D01*
X008661Y001796D02*
X011417Y001796D01*
X011417Y001797D02*
X008661Y001797D01*
X008661Y001798D02*
X011417Y001798D01*
X011417Y001799D02*
X008661Y001799D01*
X008661Y001800D02*
X011417Y001800D01*
X011417Y001801D02*
X008661Y001801D01*
X008661Y001802D02*
X011417Y001802D01*
X011417Y001803D02*
X008661Y001803D01*
X008661Y001804D02*
X011417Y001804D01*
X011417Y001805D02*
X008661Y001805D01*
X008661Y001806D02*
X011417Y001806D01*
X011417Y001807D02*
X008661Y001807D01*
X008661Y001808D02*
X011417Y001808D01*
X011417Y001809D02*
X008661Y001809D01*
X008661Y001810D02*
X011417Y001810D01*
X011417Y001811D02*
X008661Y001811D01*
X008661Y001812D02*
X011417Y001812D01*
X011417Y001813D02*
X008661Y001813D01*
X008661Y001814D02*
X011417Y001814D01*
X011417Y001815D02*
X008661Y001815D01*
X008661Y001816D02*
X011417Y001816D01*
X011417Y001817D02*
X008661Y001817D01*
X008661Y001818D02*
X011417Y001818D01*
X011417Y001819D02*
X008661Y001819D01*
X008661Y001820D02*
X011417Y001820D01*
X011417Y001821D02*
X008661Y001821D01*
X008661Y001822D02*
X011417Y001822D01*
X011417Y001823D02*
X008661Y001823D01*
X008661Y001824D02*
X011417Y001824D01*
X011417Y001825D02*
X008661Y001825D01*
X008661Y001826D02*
X011417Y001826D01*
X011417Y001827D02*
X008661Y001827D01*
X008661Y001828D02*
X011417Y001828D01*
X011417Y001829D02*
X008661Y001829D01*
X008661Y001830D02*
X011417Y001830D01*
X011417Y001831D02*
X008661Y001831D01*
X008661Y001832D02*
X011417Y001832D01*
X011417Y001833D02*
X008661Y001833D01*
X008661Y001834D02*
X011417Y001834D01*
X011417Y001835D02*
X008661Y001835D01*
X008661Y001836D02*
X011417Y001836D01*
X011417Y001837D02*
X008661Y001837D01*
X008661Y001838D02*
X011417Y001838D01*
X011417Y001839D02*
X008661Y001839D01*
X008661Y001840D02*
X011417Y001840D01*
X011417Y001841D02*
X008661Y001841D01*
X008661Y001842D02*
X011417Y001842D01*
X011417Y001843D02*
X008661Y001843D01*
X008661Y001844D02*
X011417Y001844D01*
X011417Y001845D02*
X008661Y001845D01*
X008661Y001846D02*
X011417Y001846D01*
X011417Y001847D02*
X008661Y001847D01*
X008661Y001848D02*
X011417Y001848D01*
X011417Y001849D02*
X008661Y001849D01*
X008661Y001850D02*
X011417Y001850D01*
X011417Y001851D02*
X008661Y001851D01*
X008661Y001852D02*
X011417Y001852D01*
X011417Y001853D02*
X008661Y001853D01*
X008661Y001854D02*
X011417Y001854D01*
X011417Y001855D02*
X008661Y001855D01*
X008661Y001856D02*
X011417Y001856D01*
X011417Y001857D02*
X008661Y001857D01*
X008661Y001858D02*
X011417Y001858D01*
X011417Y001859D02*
X008661Y001859D01*
X008661Y001860D02*
X011417Y001860D01*
X011417Y001861D02*
X008661Y001861D01*
X008661Y001862D02*
X011417Y001862D01*
X011417Y001863D02*
X008661Y001863D01*
X008661Y001864D02*
X011417Y001864D01*
X011417Y001865D02*
X008661Y001865D01*
X008661Y001866D02*
X011417Y001866D01*
X011417Y001867D02*
X008661Y001867D01*
X008661Y001868D02*
X011417Y001868D01*
X011417Y001869D02*
X008661Y001869D01*
X008661Y001870D02*
X011417Y001870D01*
X011417Y001871D02*
X008661Y001871D01*
X008661Y001872D02*
X011417Y001872D01*
X011417Y001873D02*
X008661Y001873D01*
X008661Y001874D02*
X011417Y001874D01*
X011417Y001875D02*
X008661Y001875D01*
X008661Y001876D02*
X011417Y001876D01*
X011417Y001877D02*
X008661Y001877D01*
X008661Y001878D02*
X011417Y001878D01*
X011417Y001879D02*
X008661Y001879D01*
X008661Y001880D02*
X011417Y001880D01*
X011417Y001881D02*
X008661Y001881D01*
X008661Y001882D02*
X011417Y001882D01*
X011417Y001883D02*
X008661Y001883D01*
X008661Y001884D02*
X011417Y001884D01*
X011417Y001885D02*
X008661Y001885D01*
X008661Y001886D02*
X011417Y001886D01*
X011417Y001887D02*
X008661Y001887D01*
X008661Y001888D02*
X011417Y001888D01*
X011417Y001889D02*
X008661Y001889D01*
X008661Y001890D02*
X011417Y001890D01*
X011417Y001891D02*
X008661Y001891D01*
X008661Y001892D02*
X011417Y001892D01*
X011417Y001893D02*
X008661Y001893D01*
X008661Y001894D02*
X011417Y001894D01*
X011417Y001895D02*
X008661Y001895D01*
X008661Y001896D02*
X011417Y001896D01*
X011417Y001897D02*
X008661Y001897D01*
X008661Y001898D02*
X011417Y001898D01*
X011417Y001899D02*
X008661Y001899D01*
X008661Y001900D02*
X011417Y001900D01*
X011417Y001901D02*
X008661Y001901D01*
X008661Y001902D02*
X011417Y001902D01*
X011417Y001903D02*
X008661Y001903D01*
X008661Y001904D02*
X011417Y001904D01*
X011417Y001905D02*
X008661Y001905D01*
X008661Y001906D02*
X011417Y001906D01*
X011417Y001907D02*
X008661Y001907D01*
X008661Y001908D02*
X011417Y001908D01*
X011417Y001909D02*
X008661Y001909D01*
X008661Y001910D02*
X011417Y001910D01*
X011417Y001911D02*
X008661Y001911D01*
X008661Y001912D02*
X011417Y001912D01*
X011417Y001913D02*
X008661Y001913D01*
X008661Y001914D02*
X011417Y001914D01*
X011417Y001915D02*
X008661Y001915D01*
X008661Y001916D02*
X011417Y001916D01*
X011417Y001917D02*
X008661Y001917D01*
X008661Y001918D02*
X011417Y001918D01*
X011417Y001919D02*
X008661Y001919D01*
X008661Y001920D02*
X011417Y001920D01*
X011417Y001921D02*
X008661Y001921D01*
X008661Y001922D02*
X011417Y001922D01*
X011417Y001923D02*
X008661Y001923D01*
X008661Y001924D02*
X011417Y001924D01*
X011417Y001925D02*
X008661Y001925D01*
X008661Y001926D02*
X011417Y001926D01*
X011417Y001927D02*
X008661Y001927D01*
X008661Y001928D02*
X011417Y001928D01*
X011417Y001929D02*
X008661Y001929D01*
X008661Y001930D02*
X011417Y001930D01*
X011417Y001931D02*
X008661Y001931D01*
X008661Y001932D02*
X011417Y001932D01*
X011417Y001933D02*
X008661Y001933D01*
X008661Y001934D02*
X011417Y001934D01*
X011417Y001935D02*
X008661Y001935D01*
X008661Y001936D02*
X011417Y001936D01*
X011417Y001937D02*
X008661Y001937D01*
X008661Y001938D02*
X011417Y001938D01*
X011417Y001939D02*
X008661Y001939D01*
X008661Y001940D02*
X011417Y001940D01*
X011417Y001941D02*
X008661Y001941D01*
X008661Y001942D02*
X011417Y001942D01*
X011417Y001943D02*
X008661Y001943D01*
X008661Y001944D02*
X011417Y001944D01*
X011417Y001945D02*
X008661Y001945D01*
X008661Y001946D02*
X011417Y001946D01*
X011417Y001947D02*
X008661Y001947D01*
X008661Y001948D02*
X011417Y001948D01*
X011417Y001949D02*
X008661Y001949D01*
X008661Y001950D02*
X011417Y001950D01*
X011417Y001951D02*
X008661Y001951D01*
X008661Y001952D02*
X011417Y001952D01*
X011417Y001953D02*
X008661Y001953D01*
X008661Y001954D02*
X011417Y001954D01*
X011417Y001955D02*
X008661Y001955D01*
X008661Y001956D02*
X011417Y001956D01*
X011417Y001957D02*
X008661Y001957D01*
X008661Y001958D02*
X011417Y001958D01*
X011417Y001959D02*
X008661Y001959D01*
X008661Y001960D02*
X011417Y001960D01*
X011417Y001961D02*
X008661Y001961D01*
X008661Y001962D02*
X011417Y001962D01*
X011417Y001963D02*
X008661Y001963D01*
X008661Y001964D02*
X011417Y001964D01*
X011417Y001965D02*
X008661Y001965D01*
X008661Y001966D02*
X011417Y001966D01*
X011417Y001967D02*
X008661Y001967D01*
X008661Y001968D02*
X011417Y001968D01*
X011417Y001969D02*
X008661Y001969D01*
X008661Y001970D02*
X011417Y001970D01*
X011417Y001971D02*
X008661Y001971D01*
X008661Y001972D02*
X011417Y001972D01*
X011417Y001973D02*
X008661Y001973D01*
X008661Y001974D02*
X011417Y001974D01*
X011417Y001975D02*
X008661Y001975D01*
X008661Y001976D02*
X011417Y001976D01*
X011417Y001977D02*
X008661Y001977D01*
X008661Y001978D02*
X011417Y001978D01*
X011417Y001979D02*
X008661Y001979D01*
X008661Y001980D02*
X011417Y001980D01*
X011417Y001981D02*
X008661Y001981D01*
X008661Y001982D02*
X011417Y001982D01*
X011417Y001983D02*
X008661Y001983D01*
X008661Y001984D02*
X011417Y001984D01*
X011417Y001985D02*
X008661Y001985D01*
X008661Y001986D02*
X011417Y001986D01*
X011417Y001987D02*
X008661Y001987D01*
X008661Y001988D02*
X011417Y001988D01*
X011417Y001989D02*
X008661Y001989D01*
X008661Y001990D02*
X011417Y001990D01*
X011417Y001991D02*
X008661Y001991D01*
X008661Y001992D02*
X011417Y001992D01*
X011417Y001993D02*
X008661Y001993D01*
X008661Y001994D02*
X011417Y001994D01*
X011417Y001995D02*
X008661Y001995D01*
X008661Y001996D02*
X011417Y001996D01*
X011417Y001997D02*
X008661Y001997D01*
X008661Y001998D02*
X011417Y001998D01*
X011417Y001999D02*
X008661Y001999D01*
X008661Y002000D02*
X011417Y002000D01*
X011417Y002001D02*
X008661Y002001D01*
X008661Y002002D02*
X011417Y002002D01*
X011417Y002003D02*
X008661Y002003D01*
X008661Y002004D02*
X011417Y002004D01*
X011417Y002005D02*
X008661Y002005D01*
X008661Y002006D02*
X011417Y002006D01*
X011417Y002007D02*
X008661Y002007D01*
X008661Y002008D02*
X011417Y002008D01*
X011417Y002009D02*
X008661Y002009D01*
X008661Y002010D02*
X011417Y002010D01*
X011417Y002011D02*
X008661Y002011D01*
X008661Y002012D02*
X011417Y002012D01*
X011417Y002013D02*
X008661Y002013D01*
X008661Y002014D02*
X011417Y002014D01*
X011417Y002015D02*
X008661Y002015D01*
X008661Y002016D02*
X011417Y002016D01*
X011417Y002017D02*
X008661Y002017D01*
X008661Y002018D02*
X011417Y002018D01*
X011417Y002019D02*
X008661Y002019D01*
X008661Y002020D02*
X011417Y002020D01*
X011417Y002021D02*
X008661Y002021D01*
X008661Y002022D02*
X011417Y002022D01*
X011417Y002023D02*
X008661Y002023D01*
X008661Y002024D02*
X011417Y002024D01*
X011417Y002025D02*
X008661Y002025D01*
X008661Y002026D02*
X011417Y002026D01*
X011417Y002027D02*
X008661Y002027D01*
X008661Y002028D02*
X011417Y002028D01*
X011417Y002029D02*
X008661Y002029D01*
X008661Y002030D02*
X011417Y002030D01*
X011417Y002031D02*
X008661Y002031D01*
X008661Y002032D02*
X011417Y002032D01*
X011417Y002033D02*
X008661Y002033D01*
X008661Y002034D02*
X011417Y002034D01*
X011417Y002035D02*
X008661Y002035D01*
X008661Y002036D02*
X011417Y002036D01*
X011417Y002037D02*
X008661Y002037D01*
X008661Y002038D02*
X011417Y002038D01*
X011417Y002039D02*
X008661Y002039D01*
X008661Y002040D02*
X011417Y002040D01*
X011417Y002041D02*
X008661Y002041D01*
X008661Y002042D02*
X011417Y002042D01*
X011417Y002043D02*
X008661Y002043D01*
X008661Y002044D02*
X011417Y002044D01*
X011417Y002045D02*
X008661Y002045D01*
X008661Y002046D02*
X011417Y002046D01*
X011417Y002047D02*
X008661Y002047D01*
X008661Y002048D02*
X011417Y002048D01*
X011417Y002049D02*
X008661Y002049D01*
X008661Y002050D02*
X011417Y002050D01*
X011417Y002051D02*
X008661Y002051D01*
X008661Y002052D02*
X011417Y002052D01*
X011417Y002053D02*
X008661Y002053D01*
X008661Y002054D02*
X011417Y002054D01*
X011417Y002055D02*
X008661Y002055D01*
X008661Y002056D02*
X011417Y002056D01*
X011417Y002057D02*
X008661Y002057D01*
X008661Y002058D02*
X011417Y002058D01*
X011417Y002059D02*
X008661Y002059D01*
X008661Y002060D02*
X011417Y002060D01*
X011417Y002061D02*
X008661Y002061D01*
X008661Y002062D02*
X011417Y002062D01*
X011417Y002063D02*
X008661Y002063D01*
X008661Y002064D02*
X011417Y002064D01*
X011417Y002065D02*
X008661Y002065D01*
X008661Y002066D02*
X011417Y002066D01*
X011417Y002067D02*
X008661Y002067D01*
X008661Y002068D02*
X011417Y002068D01*
X011417Y002069D02*
X008661Y002069D01*
X008661Y002070D02*
X011417Y002070D01*
X011417Y002071D02*
X008661Y002071D01*
X008661Y002072D02*
X011417Y002072D01*
X011417Y002073D02*
X008661Y002073D01*
X008661Y002074D02*
X011417Y002074D01*
X011417Y002075D02*
X008661Y002075D01*
X008661Y002076D02*
X011417Y002076D01*
X011417Y002077D02*
X008661Y002077D01*
X008661Y002078D02*
X011417Y002078D01*
X011417Y002079D02*
X008661Y002079D01*
X008661Y002080D02*
X011417Y002080D01*
X011417Y002081D02*
X008661Y002081D01*
X008661Y002082D02*
X011417Y002082D01*
X011417Y002083D02*
X008661Y002083D01*
X008661Y002084D02*
X011417Y002084D01*
X011417Y002085D02*
X008661Y002085D01*
X008661Y002086D02*
X011417Y002086D01*
X011417Y002087D02*
X008661Y002087D01*
X008661Y002088D02*
X011417Y002088D01*
X011417Y002089D02*
X008661Y002089D01*
X008661Y002090D02*
X011417Y002090D01*
X011417Y002091D02*
X008661Y002091D01*
X008661Y002092D02*
X011417Y002092D01*
X011417Y002093D02*
X008661Y002093D01*
X008661Y002094D02*
X011417Y002094D01*
X011417Y002095D02*
X008661Y002095D01*
X008661Y002096D02*
X011417Y002096D01*
X011417Y002097D02*
X008661Y002097D01*
X008661Y002098D02*
X011417Y002098D01*
X011417Y002099D02*
X008661Y002099D01*
X008661Y002100D02*
X011417Y002100D01*
X011417Y002101D02*
X008661Y002101D01*
X008661Y002102D02*
X011417Y002102D01*
X011417Y002103D02*
X008661Y002103D01*
X008661Y002104D02*
X011417Y002104D01*
X011417Y002105D02*
X008661Y002105D01*
X008661Y002106D02*
X011417Y002106D01*
X011417Y002107D02*
X008661Y002107D01*
X008661Y002108D02*
X011417Y002108D01*
X011417Y002109D02*
X008661Y002109D01*
X008661Y002110D02*
X011417Y002110D01*
X011417Y002111D02*
X008661Y002111D01*
X008661Y002112D02*
X011417Y002112D01*
X011417Y002113D02*
X008661Y002113D01*
X008661Y002114D02*
X011417Y002114D01*
X011417Y002115D02*
X008661Y002115D01*
X008661Y002116D02*
X011417Y002116D01*
X011417Y002117D02*
X008661Y002117D01*
X008661Y002118D02*
X011417Y002118D01*
X011417Y002119D02*
X008661Y002119D01*
X008661Y002120D02*
X011417Y002120D01*
X011417Y002121D02*
X008661Y002121D01*
X008661Y002122D02*
X011417Y002122D01*
X011417Y002123D02*
X008661Y002123D01*
X008661Y002124D02*
X011417Y002124D01*
X011417Y002125D02*
X008661Y002125D01*
X008661Y002126D02*
X011417Y002126D01*
X011417Y002127D02*
X008661Y002127D01*
X008661Y002128D02*
X011417Y002128D01*
X011417Y002129D02*
X008661Y002129D01*
X008661Y002130D02*
X011417Y002130D01*
X011417Y002131D02*
X008661Y002131D01*
X008661Y002132D02*
X011417Y002132D01*
X011417Y002133D02*
X008661Y002133D01*
X008661Y002134D02*
X011417Y002134D01*
X011417Y002135D02*
X008661Y002135D01*
X008661Y002136D02*
X011417Y002136D01*
X011417Y002137D02*
X008661Y002137D01*
X008661Y002138D02*
X011417Y002138D01*
X011417Y002139D02*
X008661Y002139D01*
X008661Y002140D02*
X011417Y002140D01*
X011417Y002141D02*
X008661Y002141D01*
X008661Y002142D02*
X011417Y002142D01*
X011417Y002143D02*
X008661Y002143D01*
X008661Y002144D02*
X011417Y002144D01*
X011417Y002145D02*
X008661Y002145D01*
X008661Y002146D02*
X011417Y002146D01*
X011417Y002147D02*
X008661Y002147D01*
X008661Y002148D02*
X011417Y002148D01*
X011417Y002149D02*
X008661Y002149D01*
X008661Y002150D02*
X011417Y002150D01*
X011417Y002151D02*
X008661Y002151D01*
X008661Y002152D02*
X011417Y002152D01*
X011417Y002153D02*
X008661Y002153D01*
X008661Y002154D02*
X011417Y002154D01*
X011417Y002155D02*
X008661Y002155D01*
X008661Y002156D02*
X011417Y002156D01*
X011417Y002157D02*
X008661Y002157D01*
X008661Y002158D02*
X011417Y002158D01*
X011417Y002159D02*
X008661Y002159D01*
X008661Y002160D02*
X011417Y002160D01*
X011417Y002161D02*
X008661Y002161D01*
X008661Y002162D02*
X011417Y002162D01*
X011417Y002163D02*
X008661Y002163D01*
X008661Y002164D02*
X011417Y002164D01*
X011417Y002165D02*
X008661Y002165D01*
X003740Y002168D02*
X000000Y002168D01*
X000000Y002169D02*
X003740Y002169D01*
X003740Y002170D02*
X000000Y002170D01*
X000000Y002171D02*
X003740Y002171D01*
X003740Y002172D02*
X000000Y002172D01*
X000000Y002173D02*
X003740Y002173D01*
X003740Y002174D02*
X000000Y002174D01*
X000000Y002175D02*
X003740Y002175D01*
X003740Y002176D02*
X000000Y002176D01*
X000000Y002177D02*
X003740Y002177D01*
X003740Y002178D02*
X000000Y002178D01*
X000000Y002179D02*
X003740Y002179D01*
X003740Y002180D02*
X000000Y002180D01*
X000000Y002181D02*
X003740Y002181D01*
X003740Y002182D02*
X000000Y002182D01*
X000000Y002183D02*
X003740Y002183D01*
X003740Y002184D02*
X000000Y002184D01*
X000000Y002185D02*
X003740Y002185D01*
X003740Y002186D02*
X000000Y002186D01*
X000000Y002187D02*
X003740Y002187D01*
X003740Y002188D02*
X000000Y002188D01*
X000000Y002189D02*
X003740Y002189D01*
X003740Y002190D02*
X000000Y002190D01*
X000000Y002191D02*
X003740Y002191D01*
X003740Y002192D02*
X000000Y002192D01*
X000000Y002193D02*
X003740Y002193D01*
X003740Y002194D02*
X000000Y002194D01*
X000000Y002195D02*
X003740Y002195D01*
X003740Y002196D02*
X000000Y002196D01*
X000000Y002197D02*
X003740Y002197D01*
X003740Y002198D02*
X000000Y002198D01*
X000000Y002199D02*
X003740Y002199D01*
X003740Y002200D02*
X000000Y002200D01*
X000000Y002201D02*
X003740Y002201D01*
X003740Y002202D02*
X000000Y002202D01*
X000000Y002203D02*
X003740Y002203D01*
X003740Y002204D02*
X000000Y002204D01*
X000000Y002205D02*
X003740Y002205D01*
X003740Y002206D02*
X000000Y002206D01*
X000000Y002207D02*
X003740Y002207D01*
X003740Y002208D02*
X000000Y002208D01*
X000000Y002209D02*
X003740Y002209D01*
X003740Y002210D02*
X000000Y002210D01*
X000000Y002211D02*
X003740Y002211D01*
X003740Y002212D02*
X000000Y002212D01*
X000000Y002213D02*
X003740Y002213D01*
X003740Y002214D02*
X000000Y002214D01*
X000000Y002215D02*
X003740Y002215D01*
X003740Y002216D02*
X000000Y002216D01*
X000000Y002217D02*
X003740Y002217D01*
X003740Y002218D02*
X000000Y002218D01*
X000000Y002219D02*
X003740Y002219D01*
X003740Y002220D02*
X000000Y002220D01*
X000000Y002221D02*
X003740Y002221D01*
X003740Y002222D02*
X000000Y002222D01*
X000000Y002223D02*
X003740Y002223D01*
X003740Y002224D02*
X000000Y002224D01*
X000000Y002225D02*
X003740Y002225D01*
X003740Y002226D02*
X000000Y002226D01*
X000000Y002227D02*
X003740Y002227D01*
X003740Y002228D02*
X000000Y002228D01*
X000000Y002229D02*
X003740Y002229D01*
X003740Y002230D02*
X000000Y002230D01*
X000000Y002231D02*
X003740Y002231D01*
X003740Y002232D02*
X000000Y002232D01*
X000000Y002233D02*
X003740Y002233D01*
X003740Y002234D02*
X000000Y002234D01*
X000000Y002235D02*
X003740Y002235D01*
X003740Y002236D02*
X000000Y002236D01*
X000000Y002237D02*
X003740Y002237D01*
X003740Y002238D02*
X000000Y002238D01*
X000000Y002239D02*
X003740Y002239D01*
X003740Y002240D02*
X000000Y002240D01*
X000000Y002241D02*
X003740Y002241D01*
X003740Y002242D02*
X000000Y002242D01*
X000000Y002243D02*
X003740Y002243D01*
X003740Y002244D02*
X000000Y002244D01*
X000000Y002245D02*
X003740Y002245D01*
X003740Y002246D02*
X000000Y002246D01*
X000000Y002247D02*
X003740Y002247D01*
X003740Y002248D02*
X000000Y002248D01*
X000000Y002249D02*
X003740Y002249D01*
X003740Y002250D02*
X000000Y002250D01*
X000000Y002251D02*
X003740Y002251D01*
X003740Y002252D02*
X000000Y002252D01*
X000000Y002253D02*
X003740Y002253D01*
X003740Y002254D02*
X000000Y002254D01*
X000000Y002255D02*
X003740Y002255D01*
X003740Y002256D02*
X000000Y002256D01*
X000000Y002257D02*
X003740Y002257D01*
X003740Y002258D02*
X000000Y002258D01*
X000000Y002259D02*
X003740Y002259D01*
X003740Y002260D02*
X000000Y002260D01*
X000000Y002261D02*
X003740Y002261D01*
X003740Y002262D02*
X000000Y002262D01*
X000000Y002263D02*
X003740Y002263D01*
X003740Y002264D02*
X000000Y002264D01*
X000000Y002265D02*
X003740Y002265D01*
X003740Y002266D02*
X000000Y002266D01*
X000000Y002267D02*
X003740Y002267D01*
X003740Y002268D02*
X000000Y002268D01*
X000000Y002269D02*
X003740Y002269D01*
X003740Y002270D02*
X000000Y002270D01*
X000000Y002271D02*
X003740Y002271D01*
X003740Y002272D02*
X000000Y002272D01*
X000000Y002273D02*
X003740Y002273D01*
X003740Y002274D02*
X000000Y002274D01*
X000000Y002275D02*
X003740Y002275D01*
X003740Y002276D02*
X000000Y002276D01*
X000000Y002277D02*
X003740Y002277D01*
X003740Y002278D02*
X000000Y002278D01*
X000000Y002279D02*
X003740Y002279D01*
X003740Y002280D02*
X000000Y002280D01*
X000000Y002281D02*
X003740Y002281D01*
X003740Y002282D02*
X000000Y002282D01*
X000000Y002283D02*
X003740Y002283D01*
X003740Y002284D02*
X000000Y002284D01*
X000000Y002285D02*
X003740Y002285D01*
X003740Y002286D02*
X000000Y002286D01*
X000000Y002287D02*
X003740Y002287D01*
X003740Y002288D02*
X000000Y002288D01*
X000000Y002289D02*
X003740Y002289D01*
X003740Y002290D02*
X000000Y002290D01*
X000000Y002291D02*
X003740Y002291D01*
X003740Y002292D02*
X000000Y002292D01*
X000000Y002293D02*
X003740Y002293D01*
X003740Y002294D02*
X000000Y002294D01*
X000000Y002295D02*
X003740Y002295D01*
X003740Y002296D02*
X000000Y002296D01*
X000000Y002297D02*
X003740Y002297D01*
X003740Y002298D02*
X000000Y002298D01*
X000000Y002299D02*
X003740Y002299D01*
X003740Y002300D02*
X000000Y002300D01*
X000000Y002301D02*
X003740Y002301D01*
X003740Y002302D02*
X000000Y002302D01*
X000000Y002303D02*
X003740Y002303D01*
X003740Y002304D02*
X000000Y002304D01*
X000000Y002305D02*
X003740Y002305D01*
X003740Y002306D02*
X000000Y002306D01*
X000000Y002307D02*
X003740Y002307D01*
X003740Y002308D02*
X000000Y002308D01*
X000000Y002309D02*
X003740Y002309D01*
X003740Y002310D02*
X000000Y002310D01*
X000000Y002311D02*
X003740Y002311D01*
X003740Y002312D02*
X000000Y002312D01*
X000000Y002313D02*
X003740Y002313D01*
X003740Y002314D02*
X000000Y002314D01*
X000000Y002315D02*
X003740Y002315D01*
X003740Y002316D02*
X000000Y002316D01*
X000000Y002317D02*
X003740Y002317D01*
X003740Y002318D02*
X000000Y002318D01*
X000000Y002319D02*
X003740Y002319D01*
X003740Y002320D02*
X000000Y002320D01*
X000000Y002321D02*
X003740Y002321D01*
X003740Y002322D02*
X000000Y002322D01*
X000000Y002323D02*
X003740Y002323D01*
X003740Y002324D02*
X000000Y002324D01*
X000000Y002325D02*
X003740Y002325D01*
X003740Y002326D02*
X000000Y002326D01*
X000000Y002327D02*
X003740Y002327D01*
X003740Y002328D02*
X000000Y002328D01*
X000000Y002329D02*
X003740Y002329D01*
X003740Y002330D02*
X000000Y002330D01*
X000000Y002331D02*
X003740Y002331D01*
X003740Y002332D02*
X000000Y002332D01*
X000000Y002333D02*
X003740Y002333D01*
X003740Y002334D02*
X000000Y002334D01*
X000000Y002335D02*
X003740Y002335D01*
X003740Y002336D02*
X000000Y002336D01*
X000000Y002337D02*
X003740Y002337D01*
X003740Y002338D02*
X000000Y002338D01*
X000000Y002339D02*
X003740Y002339D01*
X003740Y002340D02*
X000000Y002340D01*
X000000Y002341D02*
X003740Y002341D01*
X003740Y002342D02*
X000000Y002342D01*
X000000Y002343D02*
X003740Y002343D01*
X003740Y002344D02*
X000000Y002344D01*
X000000Y002345D02*
X003740Y002345D01*
X003740Y002346D02*
X000000Y002346D01*
X000000Y002347D02*
X003740Y002347D01*
X003740Y002348D02*
X000000Y002348D01*
X000000Y002349D02*
X003740Y002349D01*
X003740Y002350D02*
X000000Y002350D01*
X000000Y002351D02*
X003740Y002351D01*
X003740Y002352D02*
X000000Y002352D01*
X000000Y002353D02*
X003740Y002353D01*
X003740Y002354D02*
X000000Y002354D01*
X000000Y002355D02*
X003740Y002355D01*
X003740Y002356D02*
X000000Y002356D01*
X000000Y002357D02*
X003740Y002357D01*
X003740Y002358D02*
X000000Y002358D01*
X000000Y002359D02*
X003740Y002359D01*
X003740Y002360D02*
X000000Y002360D01*
X000000Y002361D02*
X003740Y002361D01*
X003740Y002362D02*
X000000Y002362D01*
X000000Y002363D02*
X003740Y002363D01*
X003740Y002364D02*
X000000Y002364D01*
X000000Y002365D02*
X003740Y002365D01*
X003740Y002366D02*
X000000Y002366D01*
X000000Y002367D02*
X003740Y002367D01*
X003740Y002368D02*
X000000Y002368D01*
X000000Y002369D02*
X003740Y002369D01*
X003740Y002370D02*
X000000Y002370D01*
X000000Y002371D02*
X003740Y002371D01*
X003740Y002372D02*
X000000Y002372D01*
X000000Y002373D02*
X003740Y002373D01*
X003740Y002374D02*
X000000Y002374D01*
X000000Y002375D02*
X003740Y002375D01*
X003740Y002376D02*
X000000Y002376D01*
X000000Y002377D02*
X003740Y002377D01*
X003740Y002378D02*
X000000Y002378D01*
X000000Y002379D02*
X003740Y002379D01*
X003740Y002380D02*
X000000Y002380D01*
X000000Y002381D02*
X003740Y002381D01*
X003740Y002382D02*
X000000Y002382D01*
X000000Y002383D02*
X003740Y002383D01*
X003740Y002384D02*
X000000Y002384D01*
X000000Y002385D02*
X003740Y002385D01*
X003740Y002386D02*
X000000Y002386D01*
X000000Y002387D02*
X003740Y002387D01*
X003740Y002388D02*
X000000Y002388D01*
X000000Y002389D02*
X003740Y002389D01*
X003740Y002390D02*
X000000Y002390D01*
X000000Y002391D02*
X003740Y002391D01*
X003740Y002392D02*
X000000Y002392D01*
X000000Y002393D02*
X003740Y002393D01*
X003740Y002394D02*
X000000Y002394D01*
X000000Y002395D02*
X003740Y002395D01*
X003740Y002396D02*
X000000Y002396D01*
X000000Y002397D02*
X003740Y002397D01*
X003740Y002398D02*
X000000Y002398D01*
X000000Y002399D02*
X003740Y002399D01*
X003740Y002400D02*
X000000Y002400D01*
X000000Y002401D02*
X003740Y002401D01*
X003740Y002402D02*
X000000Y002402D01*
X000000Y002403D02*
X003740Y002403D01*
X003740Y002404D02*
X000000Y002404D01*
X000000Y002405D02*
X003740Y002405D01*
X003740Y002406D02*
X000000Y002406D01*
X000000Y002407D02*
X003740Y002407D01*
X003740Y002408D02*
X000000Y002408D01*
X000000Y002409D02*
X003740Y002409D01*
X003740Y002410D02*
X000000Y002410D01*
X000000Y002411D02*
X003740Y002411D01*
X003740Y002412D02*
X000000Y002412D01*
X000000Y002413D02*
X003740Y002413D01*
X003740Y002414D02*
X000000Y002414D01*
X000000Y002415D02*
X003740Y002415D01*
X003740Y002416D02*
X000000Y002416D01*
X000000Y002417D02*
X003740Y002417D01*
X003740Y002418D02*
X000000Y002418D01*
X000000Y002419D02*
X003740Y002419D01*
X003740Y002420D02*
X000000Y002420D01*
X000000Y002421D02*
X003740Y002421D01*
X003740Y002422D02*
X000000Y002422D01*
X000000Y002423D02*
X003740Y002423D01*
X003740Y002424D02*
X000000Y002424D01*
X000000Y002425D02*
X003740Y002425D01*
X003740Y002426D02*
X000000Y002426D01*
X000000Y002427D02*
X003740Y002427D01*
X003740Y002428D02*
X000000Y002428D01*
X000000Y002429D02*
X003740Y002429D01*
X003740Y002430D02*
X000000Y002430D01*
X000000Y002431D02*
X003740Y002431D01*
X003740Y002432D02*
X000000Y002432D01*
X000000Y002433D02*
X003740Y002433D01*
X003740Y002434D02*
X000000Y002434D01*
X000000Y002435D02*
X003740Y002435D01*
X003740Y002436D02*
X000000Y002436D01*
X000000Y002437D02*
X003740Y002437D01*
X003740Y002438D02*
X000000Y002438D01*
X000000Y002439D02*
X003740Y002439D01*
X003740Y002440D02*
X000000Y002440D01*
X000000Y002441D02*
X003740Y002441D01*
X003740Y002442D02*
X000000Y002442D01*
X000000Y002443D02*
X003740Y002443D01*
X003740Y002444D02*
X000000Y002444D01*
X000000Y002445D02*
X003740Y002445D01*
X003740Y002446D02*
X000000Y002446D01*
X000000Y002447D02*
X003740Y002447D01*
X003740Y002448D02*
X000000Y002448D01*
X000000Y002449D02*
X003740Y002449D01*
X003740Y002450D02*
X000000Y002450D01*
X000000Y002451D02*
X003740Y002451D01*
X003740Y002452D02*
X000000Y002452D01*
X000000Y002453D02*
X003740Y002453D01*
X003740Y002454D02*
X000000Y002454D01*
X000000Y002455D02*
X003740Y002455D01*
X003740Y002456D02*
X000000Y002456D01*
X000000Y002457D02*
X003740Y002457D01*
X003740Y002458D02*
X000000Y002458D01*
X000000Y002459D02*
X003740Y002459D01*
X003740Y002460D02*
X000000Y002460D01*
X000000Y002461D02*
X003740Y002461D01*
X003740Y002462D02*
X000000Y002462D01*
X000000Y002463D02*
X003740Y002463D01*
X003740Y002464D02*
X000000Y002464D01*
X000000Y002465D02*
X003740Y002465D01*
X003740Y002466D02*
X000000Y002466D01*
X000000Y002467D02*
X003740Y002467D01*
X003740Y002468D02*
X000000Y002468D01*
X000000Y002469D02*
X003740Y002469D01*
X003740Y002470D02*
X000000Y002470D01*
X000000Y002471D02*
X003740Y002471D01*
X003740Y002472D02*
X000000Y002472D01*
X000000Y002473D02*
X003740Y002473D01*
X003740Y002474D02*
X000000Y002474D01*
X000000Y002475D02*
X003740Y002475D01*
X003740Y002476D02*
X000000Y002476D01*
X000000Y002477D02*
X003740Y002477D01*
X003740Y002478D02*
X000000Y002478D01*
X000000Y002479D02*
X003740Y002479D01*
X003740Y002480D02*
X000000Y002480D01*
X000000Y002481D02*
X003740Y002481D01*
X003740Y002482D02*
X000000Y002482D01*
X000000Y002483D02*
X003740Y002483D01*
X003740Y002484D02*
X000000Y002484D01*
X000000Y002485D02*
X003740Y002485D01*
X003740Y002486D02*
X000000Y002486D01*
X000000Y002487D02*
X003740Y002487D01*
X003740Y002488D02*
X000000Y002488D01*
X000000Y002489D02*
X003740Y002489D01*
X003740Y002490D02*
X000000Y002490D01*
X000000Y002491D02*
X003740Y002491D01*
X003740Y002492D02*
X000000Y002492D01*
X000000Y002493D02*
X003740Y002493D01*
X003740Y002494D02*
X000000Y002494D01*
X000000Y002495D02*
X003740Y002495D01*
X003740Y002496D02*
X000000Y002496D01*
X000000Y002497D02*
X003740Y002497D01*
X003740Y002498D02*
X000000Y002498D01*
X000000Y002499D02*
X003740Y002499D01*
X003740Y002500D02*
X000000Y002500D01*
X000000Y002501D02*
X003740Y002501D01*
X003740Y002502D02*
X000000Y002502D01*
X000000Y002503D02*
X003740Y002503D01*
X003740Y002504D02*
X000000Y002504D01*
X000000Y002505D02*
X003740Y002505D01*
X003740Y002506D02*
X000000Y002506D01*
X000000Y002507D02*
X003740Y002507D01*
X003740Y002508D02*
X000000Y002508D01*
X000000Y002509D02*
X003740Y002509D01*
X003740Y002510D02*
X000000Y002510D01*
X000000Y002511D02*
X003740Y002511D01*
X003740Y002512D02*
X000000Y002512D01*
X000000Y002513D02*
X003740Y002513D01*
X003740Y002514D02*
X000000Y002514D01*
X000000Y002515D02*
X003740Y002515D01*
X003740Y002516D02*
X000000Y002516D01*
X000000Y002517D02*
X003740Y002517D01*
X003740Y002518D02*
X000000Y002518D01*
X000000Y002519D02*
X003740Y002519D01*
X003740Y002520D02*
X000000Y002520D01*
X000000Y002521D02*
X003740Y002521D01*
X003740Y002522D02*
X000000Y002522D01*
X000000Y002523D02*
X003740Y002523D01*
X003740Y002524D02*
X000000Y002524D01*
X000000Y002525D02*
X003740Y002525D01*
X003740Y002526D02*
X000000Y002526D01*
X000000Y002527D02*
X003740Y002527D01*
X003740Y002528D02*
X000000Y002528D01*
X000000Y002529D02*
X003740Y002529D01*
X003740Y002530D02*
X000000Y002530D01*
X000000Y002531D02*
X003740Y002531D01*
X003740Y002532D02*
X000000Y002532D01*
X000000Y002533D02*
X003740Y002533D01*
X003740Y002534D02*
X000000Y002534D01*
X000000Y002535D02*
X003740Y002535D01*
X003740Y002536D02*
X000000Y002536D01*
X000000Y002537D02*
X003740Y002537D01*
X003740Y002538D02*
X000000Y002538D01*
X003740Y002538D01*
X003740Y002539D02*
X000000Y002539D01*
X000000Y002540D02*
X003740Y002540D01*
X003740Y002541D02*
X000000Y002541D01*
X000000Y002542D02*
X003740Y002542D01*
X003740Y002543D02*
X000000Y002543D01*
X000000Y002544D02*
X003740Y002544D01*
X003740Y002545D02*
X000000Y002545D01*
X000000Y002546D02*
X003740Y002546D01*
X003740Y002547D02*
X000000Y002547D01*
X000000Y002548D02*
X003740Y002548D01*
X003740Y002549D02*
X000000Y002549D01*
X000000Y002550D02*
X003740Y002550D01*
X003740Y002551D02*
X000000Y002551D01*
X000000Y002552D02*
X003740Y002552D01*
X003740Y002553D02*
X000000Y002553D01*
X000000Y002554D02*
X003740Y002554D01*
X003740Y002555D02*
X000000Y002555D01*
X000000Y002556D02*
X003740Y002556D01*
X003740Y002557D02*
X000000Y002557D01*
X000000Y002558D02*
X003740Y002558D01*
X003740Y002559D02*
X000000Y002559D01*
X000000Y002560D02*
X003740Y002560D01*
X003740Y002561D02*
X000000Y002561D01*
X000000Y002562D02*
X003740Y002562D01*
X003740Y002563D02*
X000000Y002563D01*
X000000Y002564D02*
X003740Y002564D01*
X003740Y002565D02*
X000000Y002565D01*
X000000Y002566D02*
X003740Y002566D01*
X003740Y002567D02*
X000000Y002567D01*
X000000Y002568D02*
X003740Y002568D01*
X003740Y002569D02*
X000000Y002569D01*
X000000Y002570D02*
X003740Y002570D01*
X003740Y002571D02*
X000000Y002571D01*
X000000Y002572D02*
X003740Y002572D01*
X003740Y002573D02*
X000000Y002573D01*
X000000Y002574D02*
X003740Y002574D01*
X003740Y002575D02*
X000000Y002575D01*
X000000Y002576D02*
X003740Y002576D01*
X003740Y002577D02*
X000000Y002577D01*
X000000Y002578D02*
X003740Y002578D01*
X003740Y002579D02*
X000000Y002579D01*
X000000Y002580D02*
X003740Y002580D01*
X003740Y002581D02*
X000000Y002581D01*
X000000Y002582D02*
X003740Y002582D01*
X003740Y002583D02*
X000000Y002583D01*
X000000Y002584D02*
X003740Y002584D01*
X003740Y002585D02*
X000000Y002585D01*
X000000Y002586D02*
X003740Y002586D01*
X003740Y002587D02*
X000000Y002587D01*
X000000Y002588D02*
X003740Y002588D01*
X003740Y002589D02*
X000000Y002589D01*
X000000Y002590D02*
X003740Y002590D01*
X003740Y002591D02*
X000000Y002591D01*
X000000Y002592D02*
X003740Y002592D01*
X003740Y002593D02*
X000000Y002593D01*
X000000Y002594D02*
X003740Y002594D01*
X003740Y002595D02*
X000000Y002595D01*
X000000Y002596D02*
X003740Y002596D01*
X003740Y002597D02*
X000000Y002597D01*
X000000Y002598D02*
X003740Y002598D01*
X003740Y002599D02*
X000000Y002599D01*
X000000Y002600D02*
X003740Y002600D01*
X003740Y002601D02*
X000000Y002601D01*
X000000Y002602D02*
X003740Y002602D01*
X003740Y002603D02*
X000000Y002603D01*
X000000Y002604D02*
X003740Y002604D01*
X003740Y002605D02*
X000000Y002605D01*
X000000Y002606D02*
X003740Y002606D01*
X003740Y002607D02*
X000000Y002607D01*
X000000Y002608D02*
X003740Y002608D01*
X003740Y002609D02*
X000000Y002609D01*
X000000Y002610D02*
X003740Y002610D01*
X003740Y002611D02*
X000000Y002611D01*
X000000Y002612D02*
X003740Y002612D01*
X003740Y002613D02*
X000000Y002613D01*
X000000Y002614D02*
X003740Y002614D01*
X003740Y002615D02*
X000000Y002615D01*
X000000Y002616D02*
X003740Y002616D01*
X003740Y002617D02*
X000000Y002617D01*
X000000Y002618D02*
X003740Y002618D01*
X003740Y002619D02*
X000000Y002619D01*
X000000Y002620D02*
X003740Y002620D01*
X003740Y002621D02*
X000000Y002621D01*
X000000Y002622D02*
X003740Y002622D01*
X003740Y002623D02*
X000000Y002623D01*
X000000Y002624D02*
X003740Y002624D01*
X003740Y002625D02*
X000000Y002625D01*
X000000Y002626D02*
X003740Y002626D01*
X003740Y002627D02*
X000000Y002627D01*
X000000Y002628D02*
X003740Y002628D01*
X003740Y002629D02*
X000000Y002629D01*
X000000Y002630D02*
X003740Y002630D01*
X003740Y002631D02*
X000000Y002631D01*
X000000Y002632D02*
X003740Y002632D01*
X003740Y002633D02*
X000000Y002633D01*
X000000Y002634D02*
X003740Y002634D01*
X003740Y002635D02*
X000000Y002635D01*
X000000Y002636D02*
X003740Y002636D01*
X003740Y002637D02*
X000000Y002637D01*
X000000Y002638D02*
X003740Y002638D01*
X003740Y002639D02*
X000000Y002639D01*
X000000Y002640D02*
X003740Y002640D01*
X003740Y002641D02*
X000000Y002641D01*
X000000Y002642D02*
X003740Y002642D01*
X003740Y002643D02*
X000000Y002643D01*
X000000Y002644D02*
X003740Y002644D01*
X003740Y002645D02*
X000000Y002645D01*
X000000Y002646D02*
X003740Y002646D01*
X003740Y002647D02*
X000000Y002647D01*
X000000Y002648D02*
X003740Y002648D01*
X003740Y002649D02*
X000000Y002649D01*
X000000Y002650D02*
X003740Y002650D01*
X003740Y002651D02*
X000000Y002651D01*
X000000Y002652D02*
X003740Y002652D01*
X003740Y002653D02*
X000000Y002653D01*
X000000Y002654D02*
X003740Y002654D01*
X003740Y002655D02*
X000000Y002655D01*
X000000Y002656D02*
X003740Y002656D01*
X003740Y002657D02*
X000000Y002657D01*
X000000Y002658D02*
X003740Y002658D01*
X003740Y002659D02*
X000000Y002659D01*
X000000Y002660D02*
X003740Y002660D01*
X003740Y002661D02*
X000000Y002661D01*
X000000Y002662D02*
X003740Y002662D01*
X003740Y002663D02*
X000000Y002663D01*
X000000Y002664D02*
X003740Y002664D01*
X003740Y002665D02*
X000000Y002665D01*
X000000Y002666D02*
X003740Y002666D01*
X003740Y002667D02*
X000000Y002667D01*
X000000Y002668D02*
X003740Y002668D01*
X003740Y002669D02*
X000000Y002669D01*
X000000Y002670D02*
X003740Y002670D01*
X003740Y002671D02*
X000000Y002671D01*
X000000Y002672D02*
X003740Y002672D01*
X003740Y002673D02*
X000000Y002673D01*
X000000Y002674D02*
X003740Y002674D01*
X003740Y002675D02*
X000000Y002675D01*
X000000Y002676D02*
X003740Y002676D01*
X003740Y002677D02*
X000000Y002677D01*
X000000Y002678D02*
X003740Y002678D01*
X003740Y002679D02*
X000000Y002679D01*
X000000Y002680D02*
X003740Y002680D01*
X003740Y002681D02*
X000000Y002681D01*
X000000Y002682D02*
X003740Y002682D01*
X003740Y002683D02*
X000000Y002683D01*
X000000Y002684D02*
X003740Y002684D01*
X003740Y002685D02*
X000000Y002685D01*
X000000Y002686D02*
X003740Y002686D01*
X003740Y002687D02*
X000000Y002687D01*
X000000Y002688D02*
X003740Y002688D01*
X003740Y002689D02*
X000000Y002689D01*
X000000Y002690D02*
X003740Y002690D01*
X003740Y002691D02*
X000000Y002691D01*
X000000Y002692D02*
X003740Y002692D01*
X003740Y002693D02*
X000000Y002693D01*
X000000Y002694D02*
X003740Y002694D01*
X003740Y002695D02*
X000000Y002695D01*
X000000Y002696D02*
X003740Y002696D01*
X003740Y002697D02*
X000000Y002697D01*
X000000Y002698D02*
X003740Y002698D01*
X003740Y002699D02*
X000000Y002699D01*
X000000Y002700D02*
X003740Y002700D01*
X003740Y002701D02*
X000000Y002701D01*
X000000Y002702D02*
X003740Y002702D01*
X003740Y002703D02*
X000000Y002703D01*
X000000Y002704D02*
X003740Y002704D01*
X003740Y002705D02*
X000000Y002705D01*
X000000Y002706D02*
X003740Y002706D01*
X003740Y002707D02*
X000000Y002707D01*
X000000Y002708D02*
X003740Y002708D01*
X003740Y002709D02*
X000000Y002709D01*
X000000Y002710D02*
X003740Y002710D01*
X003740Y002711D02*
X000000Y002711D01*
X000000Y002712D02*
X003740Y002712D01*
X003740Y002713D02*
X000000Y002713D01*
X000000Y002714D02*
X003740Y002714D01*
X003740Y002715D02*
X000000Y002715D01*
X000000Y002716D02*
X003740Y002716D01*
X003740Y002717D02*
X000000Y002717D01*
X000000Y002718D02*
X003740Y002718D01*
X003740Y002719D02*
X000000Y002719D01*
X000000Y002720D02*
X003740Y002720D01*
X003740Y002721D02*
X000000Y002721D01*
X000000Y002722D02*
X003740Y002722D01*
X003740Y002723D02*
X000000Y002723D01*
X000000Y002724D02*
X003740Y002724D01*
X003740Y002725D02*
X000000Y002725D01*
X000000Y002726D02*
X003740Y002726D01*
X003740Y002727D02*
X000000Y002727D01*
X000000Y002728D02*
X003740Y002728D01*
X003740Y002729D02*
X000000Y002729D01*
X000000Y002730D02*
X003740Y002730D01*
X003740Y002731D02*
X000000Y002731D01*
X000000Y002732D02*
X003740Y002732D01*
X003740Y002733D02*
X000000Y002733D01*
X000000Y002734D02*
X003740Y002734D01*
X003740Y002735D02*
X000000Y002735D01*
X000000Y002736D02*
X003740Y002736D01*
X003740Y002737D02*
X000000Y002737D01*
X000000Y002738D02*
X003740Y002738D01*
X003740Y002739D02*
X000000Y002739D01*
X000000Y002740D02*
X003740Y002740D01*
X003740Y002741D02*
X000000Y002741D01*
X000000Y002742D02*
X003740Y002742D01*
X003740Y002743D02*
X000000Y002743D01*
X000000Y002744D02*
X003740Y002744D01*
X003740Y002745D02*
X000000Y002745D01*
X000000Y002746D02*
X003740Y002746D01*
X003740Y002747D02*
X000000Y002747D01*
X000000Y002748D02*
X003740Y002748D01*
X003740Y002749D02*
X000000Y002749D01*
X000000Y002750D02*
X003740Y002750D01*
X003740Y002751D02*
X000000Y002751D01*
X000000Y002752D02*
X003740Y002752D01*
X003740Y002753D02*
X000000Y002753D01*
X000000Y002754D02*
X003740Y002754D01*
X003740Y002755D02*
X000000Y002755D01*
X000000Y002756D02*
X003740Y002756D01*
X003740Y002757D02*
X000000Y002757D01*
X000000Y002758D02*
X003740Y002758D01*
X003740Y002759D02*
X000000Y002759D01*
X000000Y002760D02*
X003740Y002760D01*
X003740Y002761D02*
X000000Y002761D01*
X000000Y002762D02*
X003740Y002762D01*
X003740Y002763D02*
X000000Y002763D01*
X000000Y002764D02*
X003740Y002764D01*
X003740Y002765D02*
X000000Y002765D01*
X000000Y002766D02*
X003740Y002766D01*
X003740Y002767D02*
X000000Y002767D01*
X000000Y002768D02*
X003740Y002768D01*
X003740Y002769D02*
X000000Y002769D01*
X000000Y002770D02*
X003740Y002770D01*
X003740Y002771D02*
X000000Y002771D01*
X000000Y002772D02*
X003740Y002772D01*
X003740Y002773D02*
X000000Y002773D01*
X000000Y002774D02*
X003740Y002774D01*
X003740Y002775D02*
X000000Y002775D01*
X000000Y002776D02*
X003740Y002776D01*
X003740Y002777D02*
X000000Y002777D01*
X000000Y002778D02*
X003740Y002778D01*
X003740Y002779D02*
X000000Y002779D01*
X000000Y002780D02*
X003740Y002780D01*
X003740Y002781D02*
X000000Y002781D01*
X000000Y002782D02*
X003740Y002782D01*
X003740Y002783D02*
X000000Y002783D01*
X000000Y002784D02*
X003740Y002784D01*
X003740Y002785D02*
X000000Y002785D01*
X000000Y002786D02*
X003740Y002786D01*
X003740Y002787D02*
X000000Y002787D01*
X000000Y002788D02*
X003740Y002788D01*
X003740Y002789D02*
X000000Y002789D01*
X000000Y002790D02*
X003740Y002790D01*
X003740Y002791D02*
X000000Y002791D01*
X000000Y002792D02*
X003740Y002792D01*
X003740Y002793D02*
X000000Y002793D01*
X000000Y002794D02*
X003740Y002794D01*
X003740Y002795D02*
X000000Y002795D01*
X000000Y002796D02*
X003740Y002796D01*
X003740Y002797D02*
X000000Y002797D01*
X000000Y002798D02*
X003740Y002798D01*
X003740Y002799D02*
X000000Y002799D01*
X000000Y002800D02*
X003740Y002800D01*
X003740Y002801D02*
X000000Y002801D01*
X000000Y002802D02*
X003740Y002802D01*
X003740Y002803D02*
X000000Y002803D01*
X000000Y002804D02*
X003740Y002804D01*
X003740Y002805D02*
X000000Y002805D01*
X000000Y002806D02*
X003740Y002806D01*
X003740Y002807D02*
X000000Y002807D01*
X000000Y002808D02*
X003740Y002808D01*
X003740Y002809D02*
X000000Y002809D01*
X000000Y002810D02*
X003740Y002810D01*
X003740Y002811D02*
X000000Y002811D01*
X000000Y002812D02*
X003740Y002812D01*
X003740Y002813D02*
X000000Y002813D01*
X000000Y002814D02*
X003740Y002814D01*
X003740Y002815D02*
X000000Y002815D01*
X000000Y002816D02*
X003740Y002816D01*
X003740Y002817D02*
X000000Y002817D01*
X000000Y002818D02*
X003740Y002818D01*
X003740Y002819D02*
X000000Y002819D01*
X000000Y002820D02*
X003740Y002820D01*
X003740Y002821D02*
X000000Y002821D01*
X000000Y002822D02*
X003740Y002822D01*
X003740Y002823D02*
X000000Y002823D01*
X000000Y002824D02*
X003740Y002824D01*
X003740Y002825D02*
X000000Y002825D01*
X000000Y002826D02*
X003740Y002826D01*
X003740Y002827D02*
X000000Y002827D01*
X000000Y002828D02*
X003740Y002828D01*
X003740Y002829D02*
X000000Y002829D01*
X000000Y002830D02*
X003740Y002830D01*
X003740Y002831D02*
X000000Y002831D01*
X000000Y002832D02*
X003740Y002832D01*
X003740Y002833D02*
X000000Y002833D01*
X000000Y002834D02*
X003740Y002834D01*
X003740Y002835D02*
X000000Y002835D01*
X000000Y002836D02*
X003740Y002836D01*
X003740Y002837D02*
X000000Y002837D01*
X000000Y002838D02*
X003740Y002838D01*
X003740Y002839D02*
X000000Y002839D01*
X000000Y002840D02*
X003740Y002840D01*
X003740Y002841D02*
X000000Y002841D01*
X000000Y002842D02*
X003740Y002842D01*
X003740Y002843D02*
X000000Y002843D01*
X000000Y002844D02*
X003740Y002844D01*
X003740Y002845D02*
X000000Y002845D01*
X000000Y002846D02*
X003740Y002846D01*
X003740Y002847D02*
X000000Y002847D01*
X000000Y002848D02*
X003740Y002848D01*
X003740Y002849D02*
X000000Y002849D01*
X000000Y002850D02*
X003740Y002850D01*
X003740Y002851D02*
X000000Y002851D01*
X000000Y002852D02*
X003740Y002852D01*
X003740Y002853D02*
X000000Y002853D01*
X000000Y002854D02*
X003740Y002854D01*
X003740Y002855D02*
X000000Y002855D01*
X000000Y002856D02*
X003740Y002856D01*
X003740Y002857D02*
X000000Y002857D01*
X000000Y002858D02*
X003740Y002858D01*
X003740Y002859D02*
X000000Y002859D01*
X000000Y002860D02*
X003740Y002860D01*
X003740Y002861D02*
X000000Y002861D01*
X000000Y002862D02*
X003740Y002862D01*
X003740Y002863D02*
X000000Y002863D01*
X000000Y002864D02*
X003740Y002864D01*
X003740Y002865D02*
X000000Y002865D01*
X000000Y002866D02*
X003740Y002866D01*
X003740Y002867D02*
X000000Y002867D01*
X000000Y002868D02*
X003740Y002868D01*
X003740Y002869D02*
X000000Y002869D01*
X000000Y002870D02*
X003740Y002870D01*
X003740Y002871D02*
X000000Y002871D01*
X000000Y002872D02*
X003740Y002872D01*
X003740Y002873D02*
X000000Y002873D01*
X000000Y002874D02*
X003740Y002874D01*
X003740Y002875D02*
X000000Y002875D01*
X000000Y002876D02*
X003740Y002876D01*
X003740Y002877D02*
X000000Y002877D01*
X000000Y002878D02*
X003740Y002878D01*
X003740Y002879D02*
X000000Y002879D01*
X000000Y002880D02*
X003740Y002880D01*
X003740Y002881D02*
X000000Y002881D01*
X000000Y002882D02*
X003740Y002882D01*
X003740Y002883D02*
X000000Y002883D01*
X000000Y002884D02*
X003740Y002884D01*
X003740Y002885D02*
X000000Y002885D01*
X000000Y002886D02*
X003740Y002886D01*
X003740Y002887D02*
X000000Y002887D01*
X000000Y002888D02*
X003740Y002888D01*
X003740Y002889D02*
X000000Y002889D01*
X000000Y002890D02*
X003740Y002890D01*
X003740Y002891D02*
X000000Y002891D01*
X000000Y002892D02*
X003740Y002892D01*
X003740Y002893D02*
X000000Y002893D01*
X000000Y002894D02*
X003740Y002894D01*
X003740Y002895D02*
X000000Y002895D01*
X000000Y002896D02*
X003740Y002896D01*
X003740Y002897D02*
X000000Y002897D01*
X000000Y002898D02*
X003740Y002898D01*
X003740Y002899D02*
X000000Y002899D01*
X000000Y002900D02*
X003740Y002900D01*
X003740Y002901D02*
X000000Y002901D01*
X000000Y002902D02*
X003740Y002902D01*
X003740Y002903D02*
X000000Y002903D01*
X000000Y002904D02*
X003740Y002904D01*
X003740Y002905D02*
X000000Y002905D01*
X000000Y002906D02*
X003740Y002906D01*
X003740Y002907D02*
X000000Y002907D01*
X000000Y002908D02*
X003740Y002908D01*
X003740Y002909D02*
X000000Y002909D01*
X000000Y002910D02*
X003740Y002910D01*
X003740Y002911D02*
X000000Y002911D01*
X000000Y002912D02*
X003740Y002912D01*
X003740Y002913D02*
X000000Y002913D01*
X000000Y002914D02*
X003740Y002914D01*
X003740Y002915D02*
X000000Y002915D01*
X000000Y002916D02*
X003740Y002916D01*
X003740Y002917D02*
X000000Y002917D01*
X000000Y002918D02*
X003740Y002918D01*
X003740Y002919D02*
X000000Y002919D01*
X000000Y002920D02*
X003740Y002920D01*
X003740Y002921D02*
X000000Y002921D01*
X000000Y002922D02*
X003740Y002922D01*
X003740Y002923D02*
X000000Y002923D01*
X000000Y002924D02*
X003740Y002924D01*
X003740Y002925D02*
X000000Y002925D01*
X000000Y002926D02*
X003740Y002926D01*
X003740Y002927D02*
X000000Y002927D01*
X000000Y002928D02*
X003740Y002928D01*
X003740Y002929D02*
X000000Y002929D01*
X000000Y002930D02*
X003740Y002930D01*
X003740Y002931D02*
X000000Y002931D01*
X000000Y002932D02*
X003740Y002932D01*
X003740Y002933D02*
X000000Y002933D01*
X000000Y002934D02*
X003740Y002934D01*
X003740Y002935D02*
X000000Y002935D01*
X000000Y002936D02*
X003740Y002936D01*
X003740Y002937D02*
X000000Y002937D01*
X000000Y002938D02*
X003740Y002938D01*
X003740Y002939D02*
X000000Y002939D01*
X000000Y002940D02*
X003740Y002940D01*
X003740Y002941D02*
X000000Y002941D01*
X000000Y002942D02*
X003740Y002942D01*
X003740Y002943D02*
X000000Y002943D01*
X000000Y002944D02*
X003740Y002944D01*
X003740Y002945D02*
X000000Y002945D01*
X000000Y002946D02*
X003740Y002946D01*
X003740Y002947D02*
X000000Y002947D01*
X000000Y002948D02*
X003740Y002948D01*
X003740Y002949D02*
X000000Y002949D01*
X000000Y002950D02*
X003740Y002950D01*
X003740Y002951D02*
X000000Y002951D01*
X000000Y002952D02*
X003740Y002952D01*
X003740Y002953D02*
X000000Y002953D01*
X000000Y002954D02*
X003740Y002954D01*
X003740Y002955D02*
X000000Y002955D01*
X000000Y002956D02*
X003740Y002956D01*
X003740Y002957D02*
X000000Y002957D01*
X000000Y002958D02*
X003740Y002958D01*
X003740Y002959D02*
X000000Y002959D01*
X000000Y002960D02*
X003740Y002960D01*
X003740Y002961D02*
X000000Y002961D01*
X000000Y002962D02*
X003740Y002962D01*
X003740Y002963D02*
X000000Y002963D01*
X000000Y002964D02*
X003740Y002964D01*
X003740Y002965D02*
X000000Y002965D01*
X000000Y002966D02*
X003740Y002966D01*
X003740Y002967D02*
X000000Y002967D01*
X000000Y002968D02*
X003740Y002968D01*
X003740Y002969D02*
X000000Y002969D01*
X000000Y002970D02*
X003740Y002970D01*
X003740Y002971D02*
X000000Y002971D01*
X000000Y002972D02*
X003740Y002972D01*
X003740Y002973D02*
X000000Y002973D01*
X000000Y002974D02*
X003740Y002974D01*
X003740Y002975D02*
X000000Y002975D01*
X000000Y002976D02*
X003740Y002976D01*
X003740Y002977D02*
X000000Y002977D01*
X000000Y002978D02*
X003740Y002978D01*
X003740Y002979D02*
X000000Y002979D01*
X000000Y002980D02*
X003740Y002980D01*
X003740Y002981D02*
X000000Y002981D01*
X000000Y002982D02*
X003740Y002982D01*
X003740Y002983D02*
X000000Y002983D01*
X000000Y002984D02*
X003740Y002984D01*
X003740Y002985D02*
X000000Y002985D01*
X000000Y002986D02*
X003740Y002986D01*
X003740Y002987D02*
X000000Y002987D01*
X000000Y002988D02*
X003740Y002988D01*
X003740Y002989D02*
X000000Y002989D01*
X000000Y002990D02*
X003740Y002990D01*
X003740Y002991D02*
X000000Y002991D01*
X000000Y002992D02*
X003740Y002992D01*
X003740Y002993D02*
X000000Y002993D01*
X000000Y002994D02*
X003740Y002994D01*
X003740Y002995D02*
X000000Y002995D01*
X000000Y002996D02*
X003740Y002996D01*
X003740Y002997D02*
X000000Y002997D01*
X000000Y002998D02*
X003740Y002998D01*
X003740Y002999D02*
X000000Y002999D01*
X000000Y003000D02*
X003740Y003000D01*
X003740Y003001D02*
X000000Y003001D01*
X000000Y003002D02*
X003740Y003002D01*
X003740Y003003D02*
X000000Y003003D01*
X000000Y003004D02*
X003740Y003004D01*
X003740Y003005D02*
X000000Y003005D01*
X000000Y003006D02*
X003740Y003006D01*
X003740Y003007D02*
X000000Y003007D01*
X000000Y003008D02*
X003740Y003008D01*
X003740Y003009D02*
X000000Y003009D01*
X000000Y003010D02*
X003740Y003010D01*
X003740Y003011D02*
X000000Y003011D01*
X000000Y003012D02*
X003740Y003012D01*
X003740Y003013D02*
X000000Y003013D01*
X000000Y003014D02*
X003740Y003014D01*
X003740Y003015D02*
X000000Y003015D01*
X000000Y003016D02*
X003740Y003016D01*
X003740Y003017D02*
X000000Y003017D01*
X000000Y003018D02*
X003740Y003018D01*
X003740Y003019D02*
X000000Y003019D01*
X000000Y003020D02*
X003740Y003020D01*
X003740Y003021D02*
X000000Y003021D01*
X000000Y003022D02*
X003740Y003022D01*
X003740Y003023D02*
X000000Y003023D01*
X000000Y003024D02*
X003740Y003024D01*
X003740Y003025D02*
X000000Y003025D01*
X000000Y003026D02*
X003740Y003026D01*
X003740Y003027D02*
X000000Y003027D01*
X000000Y003028D02*
X003740Y003028D01*
X003740Y003029D02*
X000000Y003029D01*
X000000Y003030D02*
X003740Y003030D01*
X003740Y003031D02*
X000000Y003031D01*
X000000Y003032D02*
X003740Y003032D01*
X003740Y003033D02*
X000000Y003033D01*
X000000Y003034D02*
X003740Y003034D01*
X003740Y003035D02*
X000000Y003035D01*
X000000Y003036D02*
X003740Y003036D01*
X003740Y003037D02*
X000000Y003037D01*
X000000Y003038D02*
X003740Y003038D01*
X003740Y003039D02*
X000000Y003039D01*
X000000Y003040D02*
X003740Y003040D01*
X003740Y003041D02*
X000000Y003041D01*
X000000Y003042D02*
X003740Y003042D01*
X003740Y003043D02*
X000000Y003043D01*
X000000Y003044D02*
X003740Y003044D01*
X003740Y003045D02*
X000000Y003045D01*
X000000Y003046D02*
X003740Y003046D01*
X003740Y003047D02*
X000000Y003047D01*
X000000Y003048D02*
X003740Y003048D01*
X003740Y003049D02*
X000000Y003049D01*
X000000Y003050D02*
X003740Y003050D01*
X003740Y003051D02*
X000000Y003051D01*
X000000Y003052D02*
X003740Y003052D01*
X003740Y003053D02*
X000000Y003053D01*
X000000Y003054D02*
X003740Y003054D01*
X003740Y003055D02*
X000000Y003055D01*
X000000Y003056D02*
X003740Y003056D01*
X003740Y003057D02*
X000000Y003057D01*
X000000Y003058D02*
X003740Y003058D01*
X003740Y003059D02*
X000000Y003059D01*
X000000Y003060D02*
X003740Y003060D01*
X003740Y003061D02*
X000000Y003061D01*
X000000Y003062D02*
X003740Y003062D01*
X003740Y003063D02*
X000000Y003063D01*
X000000Y003064D02*
X003740Y003064D01*
X003740Y003065D02*
X000000Y003065D01*
X000000Y003066D02*
X003740Y003066D01*
X003740Y003067D02*
X000000Y003067D01*
X000000Y003068D02*
X003740Y003068D01*
X003740Y003069D02*
X000000Y003069D01*
X000000Y003070D02*
X003740Y003070D01*
X003740Y003071D02*
X000000Y003071D01*
X000000Y003072D02*
X003740Y003072D01*
X003740Y003073D02*
X000000Y003073D01*
X000000Y003074D02*
X003740Y003074D01*
X003740Y003075D02*
X000000Y003075D01*
X000000Y003076D02*
X003740Y003076D01*
X003740Y003077D02*
X000000Y003077D01*
X000000Y003078D02*
X003740Y003078D01*
X003740Y003079D02*
X000000Y003079D01*
X000000Y003080D02*
X003740Y003080D01*
X003740Y003081D02*
X000000Y003081D01*
X000000Y003082D02*
X003740Y003082D01*
X003740Y003083D02*
X000000Y003083D01*
X000000Y003084D02*
X003740Y003084D01*
X003740Y003085D02*
X000000Y003085D01*
X000000Y003086D02*
X003740Y003086D01*
X003740Y003087D02*
X000000Y003087D01*
X000000Y003088D02*
X003740Y003088D01*
X003740Y003089D02*
X000000Y003089D01*
X000000Y003090D02*
X003740Y003090D01*
X003740Y003091D02*
X000000Y003091D01*
X000000Y003092D02*
X003740Y003092D01*
X003740Y003093D02*
X000000Y003093D01*
X000000Y003094D02*
X003740Y003094D01*
X003740Y003095D02*
X000000Y003095D01*
X000000Y003096D02*
X003740Y003096D01*
X003740Y003097D02*
X000000Y003097D01*
X000000Y003098D02*
X003740Y003098D01*
X003740Y003099D02*
X000000Y003099D01*
X000000Y003100D02*
X003740Y003100D01*
X003740Y003101D02*
X000000Y003101D01*
X000000Y003102D02*
X003740Y003102D01*
X003740Y003103D02*
X000000Y003103D01*
X000000Y003104D02*
X003740Y003104D01*
X003740Y003105D02*
X000000Y003105D01*
X000000Y003106D02*
X003740Y003106D01*
X003740Y003107D02*
X000000Y003107D01*
X000000Y003108D02*
X003740Y003108D01*
X003740Y003109D02*
X000000Y003109D01*
X000000Y003110D02*
X003740Y003110D01*
X003740Y003111D02*
X000000Y003111D01*
X000000Y003112D02*
X003740Y003112D01*
X003740Y003113D02*
X000000Y003113D01*
X000000Y003114D02*
X003740Y003114D01*
X003740Y003115D02*
X000000Y003115D01*
X000000Y003116D02*
X003740Y003116D01*
X003740Y003117D02*
X000000Y003117D01*
X000000Y003118D02*
X003740Y003118D01*
X003740Y003119D02*
X000000Y003119D01*
X000000Y003120D02*
X003740Y003120D01*
X003740Y003121D02*
X000000Y003121D01*
X000000Y003122D02*
X003740Y003122D01*
X003740Y003123D02*
X000000Y003123D01*
X000000Y003124D02*
X003740Y003124D01*
X003740Y003125D02*
X000000Y003125D01*
X000000Y003126D02*
X003740Y003126D01*
X003740Y003127D02*
X000000Y003127D01*
X000000Y003128D02*
X003740Y003128D01*
X003740Y003129D02*
X000000Y003129D01*
X000000Y003130D02*
X003740Y003130D01*
X003740Y003131D02*
X000000Y003131D01*
X000000Y003132D02*
X003740Y003132D01*
X003740Y003133D02*
X000000Y003133D01*
X000000Y003134D02*
X003740Y003134D01*
X003740Y003135D02*
X000000Y003135D01*
X000000Y003136D02*
X003740Y003136D01*
X003740Y003137D02*
X000000Y003137D01*
X000000Y003138D02*
X003740Y003138D01*
X003740Y003139D02*
X000000Y003139D01*
X000000Y003140D02*
X003740Y003140D01*
X003740Y003141D02*
X000000Y003141D01*
X000000Y003142D02*
X003740Y003142D01*
X003740Y003143D02*
X000000Y003143D01*
X000000Y003144D02*
X003740Y003144D01*
X003740Y003145D02*
X000000Y003145D01*
X000000Y003146D02*
X003740Y003146D01*
X003740Y003147D02*
X000000Y003147D01*
X000000Y003148D02*
X003740Y003148D01*
X003740Y003149D02*
X000000Y003149D01*
X000000Y003150D02*
X003740Y003150D01*
X003740Y003151D02*
X000000Y003151D01*
X000000Y003152D02*
X003740Y003152D01*
X003740Y003153D02*
X000000Y003153D01*
X000000Y003154D02*
X003740Y003154D01*
X003740Y003155D02*
X000000Y003155D01*
X000000Y003156D02*
X003740Y003156D01*
X003740Y003157D02*
X000000Y003157D01*
X000000Y003158D02*
X003740Y003158D01*
X003740Y003159D02*
X000000Y003159D01*
X000000Y003160D02*
X003740Y003160D01*
X003740Y003161D02*
X000000Y003161D01*
X000000Y003162D02*
X003740Y003162D01*
X003740Y003163D02*
X000000Y003163D01*
X000000Y003164D02*
X003740Y003164D01*
X003740Y003165D02*
X000000Y003165D01*
X000000Y003166D02*
X003740Y003166D01*
X003740Y003167D02*
X000000Y003167D01*
X000000Y003168D02*
X003740Y003168D01*
X003740Y003169D02*
X000000Y003169D01*
X000000Y003170D02*
X003740Y003170D01*
X003740Y003171D02*
X000000Y003171D01*
X000000Y003172D02*
X003740Y003172D01*
X003740Y003173D02*
X000000Y003173D01*
X000000Y003174D02*
X003740Y003174D01*
X003740Y003175D02*
X000000Y003175D01*
X000000Y003176D02*
X003740Y003176D01*
X003740Y003177D02*
X000000Y003177D01*
X000000Y003178D02*
X003740Y003178D01*
X003740Y003179D02*
X000000Y003179D01*
X000000Y003180D02*
X003740Y003180D01*
X003740Y003181D02*
X000000Y003181D01*
X000000Y003182D02*
X003740Y003182D01*
X003740Y003183D02*
X000000Y003183D01*
X000000Y003184D02*
X003740Y003184D01*
X003740Y003185D02*
X000000Y003185D01*
X000000Y003186D02*
X003740Y003186D01*
X003740Y003187D02*
X000000Y003187D01*
X000000Y003188D02*
X003740Y003188D01*
X003740Y003189D02*
X000000Y003189D01*
X000000Y003190D02*
X003740Y003190D01*
X003740Y003191D02*
X000000Y003191D01*
X000000Y003192D02*
X003740Y003192D01*
X003740Y003193D02*
X000000Y003193D01*
X000000Y003194D02*
X003740Y003194D01*
X003740Y003195D02*
X000000Y003195D01*
X000000Y003196D02*
X003740Y003196D01*
X003740Y003197D02*
X000000Y003197D01*
X000000Y003198D02*
X003740Y003198D01*
X003740Y003199D02*
X000000Y003199D01*
X000000Y003200D02*
X003740Y003200D01*
X003740Y003201D02*
X000000Y003201D01*
X000000Y003202D02*
X003740Y003202D01*
X003740Y003203D02*
X000000Y003203D01*
X000000Y003204D02*
X003740Y003204D01*
X003740Y003205D02*
X000000Y003205D01*
X000000Y003206D02*
X003740Y003206D01*
X003740Y003207D02*
X000000Y003207D01*
X000000Y003208D02*
X003740Y003208D01*
X003740Y003209D02*
X000000Y003209D01*
X000000Y003210D02*
X003740Y003210D01*
X003740Y003211D02*
X000000Y003211D01*
X000000Y003212D02*
X003740Y003212D01*
X003740Y003213D02*
X000000Y003213D01*
X000000Y003214D02*
X003740Y003214D01*
X003740Y003215D02*
X000000Y003215D01*
X000000Y003216D02*
X003740Y003216D01*
X003740Y003217D02*
X000000Y003217D01*
X000000Y003218D02*
X003740Y003218D01*
X003740Y003219D02*
X000000Y003219D01*
X000000Y003220D02*
X003740Y003220D01*
X003740Y003221D02*
X000000Y003221D01*
X000000Y003222D02*
X003740Y003222D01*
X003740Y003223D02*
X000000Y003223D01*
X000000Y003224D02*
X003740Y003224D01*
X003740Y003225D02*
X000000Y003225D01*
X000000Y003226D02*
X003740Y003226D01*
X003740Y003227D02*
X000000Y003227D01*
X000000Y003228D02*
X003740Y003228D01*
X003740Y003229D02*
X000000Y003229D01*
X000000Y003230D02*
X003740Y003230D01*
X003740Y003231D02*
X000000Y003231D01*
X000000Y003232D02*
X003740Y003232D01*
X003740Y003233D02*
X000000Y003233D01*
X000000Y003234D02*
X003740Y003234D01*
X003740Y003235D02*
X000000Y003235D01*
X000000Y003236D02*
X003740Y003236D01*
X003740Y003237D02*
X000000Y003237D01*
X000000Y003238D02*
X003740Y003238D01*
X003740Y003239D02*
X000000Y003239D01*
X000000Y003240D02*
X003740Y003240D01*
X003740Y003241D02*
X000000Y003241D01*
X000000Y003242D02*
X003740Y003242D01*
X003740Y003243D02*
X000000Y003243D01*
X000000Y003244D02*
X003740Y003244D01*
X003740Y003245D02*
X000000Y003245D01*
X000000Y003246D02*
X003740Y003246D01*
X003740Y003247D02*
X000000Y003247D01*
X000000Y003248D02*
X003740Y003248D01*
X003740Y003249D02*
X000000Y003249D01*
X000000Y003250D02*
X003740Y003250D01*
X003740Y003251D02*
X000000Y003251D01*
X000000Y003252D02*
X003740Y003252D01*
X003740Y003253D02*
X000000Y003253D01*
X000000Y003254D02*
X003740Y003254D01*
X003740Y003255D02*
X000000Y003255D01*
X000000Y003256D02*
X003740Y003256D01*
X003740Y003257D02*
X000000Y003257D01*
X000000Y003258D02*
X003740Y003258D01*
X003740Y003259D02*
X000000Y003259D01*
X000000Y003260D02*
X003740Y003260D01*
X003740Y003261D02*
X000000Y003261D01*
X000000Y003262D02*
X003740Y003262D01*
X003740Y003263D02*
X000000Y003263D01*
X000000Y003264D02*
X003740Y003264D01*
X003740Y003265D02*
X000000Y003265D01*
X000000Y003266D02*
X003740Y003266D01*
X003740Y003267D02*
X000000Y003267D01*
X000000Y003268D02*
X003740Y003268D01*
X003740Y003269D02*
X000000Y003269D01*
X000000Y003270D02*
X003740Y003270D01*
X003740Y003271D02*
X000000Y003271D01*
X000000Y003272D02*
X003740Y003272D01*
X003740Y003273D02*
X000000Y003273D01*
X000000Y003274D02*
X003740Y003274D01*
X003740Y003275D02*
X000000Y003275D01*
X000000Y003276D02*
X003740Y003276D01*
X003740Y003277D02*
X000000Y003277D01*
X000000Y003278D02*
X003740Y003278D01*
X003740Y003279D02*
X000000Y003279D01*
X000000Y003280D02*
X003740Y003280D01*
X003740Y003281D02*
X000000Y003281D01*
X000000Y003282D02*
X003740Y003282D01*
X003740Y003283D02*
X000000Y003283D01*
X000000Y003284D02*
X003740Y003284D01*
X003740Y003285D02*
X000000Y003285D01*
X000000Y003286D02*
X003740Y003286D01*
X003740Y003287D02*
X000000Y003287D01*
X000000Y003288D02*
X003740Y003288D01*
X003740Y003289D02*
X000000Y003289D01*
X000000Y003290D02*
X003740Y003290D01*
X003740Y003291D02*
X000000Y003291D01*
X000000Y003292D02*
X003740Y003292D01*
X003740Y003293D02*
X000000Y003293D01*
X000000Y003294D02*
X003740Y003294D01*
X003740Y003295D02*
X000000Y003295D01*
X000000Y003296D02*
X003740Y003296D01*
X003740Y003297D02*
X000000Y003297D01*
X000000Y003298D02*
X003740Y003298D01*
X003740Y003299D02*
X000000Y003299D01*
X000000Y003300D02*
X003740Y003300D01*
X003740Y003301D02*
X000000Y003301D01*
X000000Y003302D02*
X003740Y003302D01*
X003740Y003303D02*
X000000Y003303D01*
X000000Y003304D02*
X003740Y003304D01*
X003740Y003305D02*
X000000Y003305D01*
X000000Y003306D02*
X003740Y003306D01*
X003740Y003307D02*
X000000Y003307D01*
X000000Y003308D02*
X003740Y003308D01*
X003740Y003309D02*
X000000Y003309D01*
X000000Y003310D02*
X003740Y003310D01*
X003740Y003311D02*
X000000Y003311D01*
X000000Y003312D02*
X003740Y003312D01*
X003740Y003313D02*
X000000Y003313D01*
X000000Y003314D02*
X003740Y003314D01*
X003740Y003315D02*
X000000Y003315D01*
X000000Y003316D02*
X003740Y003316D01*
X003740Y003317D02*
X000000Y003317D01*
X000000Y003318D02*
X003740Y003318D01*
X003740Y003319D02*
X000000Y003319D01*
X000000Y003320D02*
X003740Y003320D01*
X003740Y003321D02*
X000000Y003321D01*
X000000Y003322D02*
X003740Y003322D01*
X003740Y003323D02*
X000000Y003323D01*
X000000Y003324D02*
X003740Y003324D01*
X003740Y003325D02*
X000000Y003325D01*
X000000Y003326D02*
X003740Y003326D01*
X003740Y003327D02*
X000000Y003327D01*
X000000Y003328D02*
X003740Y003328D01*
X003740Y003329D02*
X000000Y003329D01*
X000000Y003330D02*
X003740Y003330D01*
X003740Y003331D02*
X000000Y003331D01*
X000000Y003332D02*
X003740Y003332D01*
X003740Y003333D02*
X000000Y003333D01*
X000000Y003334D02*
X003740Y003334D01*
X003740Y003335D02*
X000000Y003335D01*
X000000Y003336D02*
X003740Y003336D01*
X003740Y003337D02*
X000000Y003337D01*
X000000Y003338D02*
X003740Y003338D01*
X003740Y003339D02*
X000000Y003339D01*
X000000Y003340D02*
X003740Y003340D01*
X003740Y003341D02*
X000000Y003341D01*
X000000Y003342D02*
X003740Y003342D01*
X003740Y003343D02*
X000000Y003343D01*
X000000Y003344D02*
X003740Y003344D01*
X003740Y003345D02*
X000000Y003345D01*
X000000Y003346D02*
X003740Y003346D01*
X003740Y003347D02*
X000000Y003347D01*
X000000Y003348D02*
X003740Y003348D01*
X003740Y003349D02*
X000000Y003349D01*
X000000Y003350D02*
X003740Y003350D01*
X003740Y003351D02*
X000000Y003351D01*
X000000Y003352D02*
X003740Y003352D01*
X003740Y003353D02*
X000000Y003353D01*
X000000Y003354D02*
X003740Y003354D01*
X003740Y003355D02*
X000000Y003355D01*
X000000Y003356D02*
X003740Y003356D01*
X003740Y003357D02*
X000000Y003357D01*
X000000Y003358D02*
X003740Y003358D01*
X003740Y003359D02*
X000000Y003359D01*
X000000Y003360D02*
X003740Y003360D01*
X003740Y003361D02*
X000000Y003361D01*
X000000Y003362D02*
X003740Y003362D01*
X003740Y003363D02*
X000000Y003363D01*
X000000Y003364D02*
X003740Y003364D01*
X003740Y003365D02*
X000000Y003365D01*
X000000Y003366D02*
X003740Y003366D01*
X003740Y003367D02*
X000000Y003367D01*
X000000Y003368D02*
X003740Y003368D01*
X003740Y003369D02*
X000000Y003369D01*
X000000Y003370D02*
X003740Y003370D01*
X003740Y003371D02*
X000000Y003371D01*
X000000Y003372D02*
X003740Y003372D01*
X003740Y003373D02*
X000000Y003373D01*
X000000Y003374D02*
X003740Y003374D01*
X003740Y003375D02*
X000000Y003375D01*
X000000Y003376D02*
X003740Y003376D01*
X003740Y003377D02*
X000000Y003377D01*
X000000Y003378D02*
X003740Y003378D01*
X003740Y003379D02*
X000000Y003379D01*
X000000Y003380D02*
X003740Y003380D01*
X003740Y003381D02*
X000000Y003381D01*
X000000Y003382D02*
X003740Y003382D01*
X003740Y003383D02*
X000000Y003383D01*
X000000Y003384D02*
X003740Y003384D01*
X003740Y003385D02*
X000000Y003385D01*
X000000Y003386D02*
X003740Y003386D01*
X003740Y003387D02*
X000000Y003387D01*
X000000Y003388D02*
X003740Y003388D01*
X003740Y003389D02*
X000000Y003389D01*
X000000Y003390D02*
X003740Y003390D01*
X003740Y003391D02*
X000000Y003391D01*
X000000Y003392D02*
X003740Y003392D01*
X003740Y003393D02*
X000000Y003393D01*
X000000Y003394D02*
X003740Y003394D01*
X003740Y003395D02*
X000000Y003395D01*
X000000Y003396D02*
X003740Y003396D01*
X003740Y003397D02*
X000000Y003397D01*
X000000Y003398D02*
X003740Y003398D01*
X003740Y003399D02*
X000000Y003399D01*
X000000Y003400D02*
X003740Y003400D01*
X003740Y003401D02*
X000000Y003401D01*
X000000Y003402D02*
X003740Y003402D01*
X003740Y003403D02*
X000000Y003403D01*
X000000Y003404D02*
X003740Y003404D01*
X003740Y003405D02*
X000000Y003405D01*
X000000Y003406D02*
X003740Y003406D01*
X003740Y003407D02*
X000000Y003407D01*
X000000Y003408D02*
X003740Y003408D01*
X003740Y003409D02*
X000000Y003409D01*
X000000Y003410D02*
X003740Y003410D01*
X003740Y003411D02*
X000000Y003411D01*
X000000Y003412D02*
X003740Y003412D01*
X003740Y003413D02*
X000000Y003413D01*
X000000Y003414D02*
X003740Y003414D01*
X003740Y003415D02*
X000000Y003415D01*
X000000Y003416D02*
X003740Y003416D01*
X003740Y003417D02*
X000000Y003417D01*
X000000Y003418D02*
X003740Y003418D01*
X003740Y003419D02*
X000000Y003419D01*
X000000Y003420D02*
X003740Y003420D01*
X003740Y003421D02*
X000000Y003421D01*
X000000Y003422D02*
X003740Y003422D01*
X003740Y003423D02*
X000000Y003423D01*
X000000Y003424D02*
X003740Y003424D01*
X003740Y003425D02*
X000000Y003425D01*
X000000Y003426D02*
X003740Y003426D01*
X003740Y003427D02*
X000000Y003427D01*
X000000Y003428D02*
X003740Y003428D01*
X003740Y003429D02*
X000000Y003429D01*
X000000Y003430D02*
X003740Y003430D01*
X003740Y003431D02*
X000000Y003431D01*
X000000Y003432D02*
X003740Y003432D01*
X003740Y003433D02*
X000000Y003433D01*
X000000Y003434D02*
X003740Y003434D01*
X003740Y003435D02*
X000000Y003435D01*
X000000Y003436D02*
X003740Y003436D01*
X003740Y003437D02*
X000000Y003437D01*
X000000Y003438D02*
X003740Y003438D01*
X003740Y003439D02*
X000000Y003439D01*
X000000Y003440D02*
X003740Y003440D01*
X003740Y003441D02*
X000000Y003441D01*
X000000Y003442D02*
X003740Y003442D01*
X003740Y003443D02*
X000000Y003443D01*
X000000Y003444D02*
X003740Y003444D01*
X003740Y003445D02*
X000000Y003445D01*
X000000Y003446D02*
X003740Y003446D01*
X003740Y003447D02*
X000000Y003447D01*
X000000Y003448D02*
X003740Y003448D01*
X003740Y003449D02*
X000000Y003449D01*
X000000Y003450D02*
X003740Y003450D01*
X003740Y003451D02*
X000000Y003451D01*
X000000Y003452D02*
X003740Y003452D01*
X003740Y003453D02*
X000000Y003453D01*
X000000Y003454D02*
X003740Y003454D01*
X003740Y003455D02*
X000000Y003455D01*
X000000Y003456D02*
X003740Y003456D01*
X003740Y003457D02*
X000000Y003457D01*
X000000Y003458D02*
X003740Y003458D01*
X003740Y003459D02*
X000000Y003459D01*
X000000Y003460D02*
X003740Y003460D01*
X003740Y003461D02*
X000000Y003461D01*
X000000Y003462D02*
X003740Y003462D01*
X003740Y003463D02*
X000000Y003463D01*
X000000Y003464D02*
X003740Y003464D01*
X003740Y003465D02*
X000000Y003465D01*
X000000Y003466D02*
X003740Y003466D01*
X003740Y003467D02*
X000000Y003467D01*
X000000Y003468D02*
X003740Y003468D01*
X003740Y003469D02*
X000000Y003469D01*
X000000Y003470D02*
X003740Y003470D01*
X003740Y003471D02*
X000000Y003471D01*
X000000Y003472D02*
X003740Y003472D01*
X003740Y003473D02*
X000000Y003473D01*
X000000Y003474D02*
X003740Y003474D01*
X003740Y003475D02*
X000000Y003475D01*
X000000Y003476D02*
X003740Y003476D01*
X003740Y003477D02*
X000000Y003477D01*
X000000Y003478D02*
X003740Y003478D01*
X003740Y003479D02*
X000000Y003479D01*
X000000Y003480D02*
X003740Y003480D01*
X003740Y003481D02*
X000000Y003481D01*
X000000Y003482D02*
X003740Y003482D01*
X003740Y003483D02*
X000000Y003483D01*
X000000Y003484D02*
X003740Y003484D01*
X003740Y003485D02*
X000000Y003485D01*
X000000Y003486D02*
X003740Y003486D01*
X003740Y003487D02*
X000000Y003487D01*
X000000Y003488D02*
X003740Y003488D01*
X003740Y003489D02*
X000000Y003489D01*
X000000Y003490D02*
X003740Y003490D01*
X003740Y003491D02*
X000000Y003491D01*
X000000Y003492D02*
X003740Y003492D01*
X003740Y003493D02*
X000000Y003493D01*
X000000Y003494D02*
X003740Y003494D01*
X003740Y003495D02*
X000000Y003495D01*
X000000Y003496D02*
X003740Y003496D01*
X003740Y003497D02*
X000000Y003497D01*
X000000Y003498D02*
X003740Y003498D01*
X003740Y003499D02*
X000000Y003499D01*
X000000Y003500D02*
X003740Y003500D01*
X003740Y003501D02*
X000000Y003501D01*
X000000Y003502D02*
X003740Y003502D01*
X003740Y003503D02*
X000000Y003503D01*
X000000Y003504D02*
X003740Y003504D01*
X003740Y003505D02*
X000000Y003505D01*
X000000Y003506D02*
X003740Y003506D01*
X003740Y003507D02*
X000000Y003507D01*
X000000Y003508D02*
X003740Y003508D01*
X003740Y003509D02*
X000000Y003509D01*
X000000Y003510D02*
X003740Y003510D01*
X003740Y003511D02*
X000000Y003511D01*
X000000Y003512D02*
X003740Y003512D01*
X003740Y003513D02*
X000000Y003513D01*
X000000Y003514D02*
X003740Y003514D01*
X003740Y003515D02*
X000000Y003515D01*
X000000Y003516D02*
X003740Y003516D01*
X003740Y003517D02*
X000000Y003517D01*
X000000Y003518D02*
X003740Y003518D01*
X003740Y003519D02*
X000000Y003519D01*
X000000Y003520D02*
X003740Y003520D01*
X003740Y003521D02*
X000000Y003521D01*
X000000Y003522D02*
X003740Y003522D01*
X003740Y003523D02*
X000000Y003523D01*
X000000Y003524D02*
X003740Y003524D01*
X003740Y003525D02*
X000000Y003525D01*
X000000Y003526D02*
X003740Y003526D01*
X003740Y003527D02*
X000000Y003527D01*
X000000Y003528D02*
X003740Y003528D01*
X003740Y003529D02*
X000000Y003529D01*
X000000Y003530D02*
X003740Y003530D01*
X003740Y003531D02*
X000000Y003531D01*
X000000Y003532D02*
X003740Y003532D01*
X003740Y003533D02*
X000000Y003533D01*
X000000Y003534D02*
X003740Y003534D01*
X003740Y003535D02*
X000000Y003535D01*
X000000Y003536D02*
X003740Y003536D01*
X003740Y003537D02*
X000000Y003537D01*
X000000Y003538D02*
X003740Y003538D01*
X003740Y003539D02*
X000000Y003539D01*
X000000Y003540D02*
X003740Y003540D01*
X003740Y003541D02*
X000000Y003541D01*
X000000Y003542D02*
X003740Y003542D01*
X003740Y003543D02*
X000000Y003543D01*
X000000Y003544D02*
X003740Y003544D01*
X003740Y003545D02*
X000000Y003545D01*
X000000Y003546D02*
X003740Y003546D01*
X003740Y003547D02*
X000000Y003547D01*
X000000Y003548D02*
X003740Y003548D01*
X003740Y003549D02*
X000000Y003549D01*
X000000Y003550D02*
X003740Y003550D01*
X003740Y003551D02*
X000000Y003551D01*
X000000Y003552D02*
X003740Y003552D01*
X003740Y003553D02*
X000000Y003553D01*
X003740Y003553D01*
X003740Y003554D02*
X000000Y003554D01*
X000000Y003555D02*
X003740Y003555D01*
X003740Y003556D02*
X000000Y003556D01*
X000000Y003557D02*
X003740Y003557D01*
X003740Y003558D02*
X000000Y003558D01*
X000000Y003559D02*
X003740Y003559D01*
X003740Y003560D02*
X000000Y003560D01*
X000000Y003561D02*
X003740Y003561D01*
X003740Y003562D02*
X000000Y003562D01*
X000000Y003563D02*
X003740Y003563D01*
X003740Y003564D02*
X000000Y003564D01*
X000000Y003565D02*
X003740Y003565D01*
X003740Y003566D02*
X000000Y003566D01*
X000000Y003567D02*
X003740Y003567D01*
X003740Y003568D02*
X000000Y003568D01*
X000000Y003569D02*
X003740Y003569D01*
X003740Y003570D02*
X000000Y003570D01*
X000000Y003571D02*
X003740Y003571D01*
X003740Y003572D02*
X000000Y003572D01*
X000000Y003573D02*
X003740Y003573D01*
X003740Y003574D02*
X000000Y003574D01*
X000000Y003575D02*
X003740Y003575D01*
X003740Y003576D02*
X000000Y003576D01*
X000000Y003577D02*
X003740Y003577D01*
X003740Y003578D02*
X000000Y003578D01*
X000000Y003579D02*
X003740Y003579D01*
X003740Y003580D02*
X000000Y003580D01*
X000000Y003581D02*
X003740Y003581D01*
X003740Y003582D02*
X000000Y003582D01*
X000000Y003583D02*
X003740Y003583D01*
X003740Y003584D02*
X000000Y003584D01*
X000000Y003585D02*
X003740Y003585D01*
X003740Y003586D02*
X000000Y003586D01*
X000000Y003587D02*
X003740Y003587D01*
X003740Y003588D02*
X000000Y003588D01*
X000000Y003589D02*
X003740Y003589D01*
X003740Y003590D02*
X000000Y003590D01*
X000000Y003591D02*
X003740Y003591D01*
X003740Y003592D02*
X000000Y003592D01*
X000000Y003593D02*
X003740Y003593D01*
X003740Y003594D02*
X000000Y003594D01*
X000000Y003595D02*
X003740Y003595D01*
X003740Y003596D02*
X000000Y003596D01*
X000000Y003597D02*
X003740Y003597D01*
X003740Y003598D02*
X000000Y003598D01*
X000000Y003599D02*
X003740Y003599D01*
X003740Y003600D02*
X000000Y003600D01*
X000000Y003601D02*
X003740Y003601D01*
X003740Y003602D02*
X000000Y003602D01*
X000000Y003603D02*
X003740Y003603D01*
X003740Y003604D02*
X000000Y003604D01*
X000000Y003605D02*
X003740Y003605D01*
X003740Y003606D02*
X000000Y003606D01*
X000000Y003607D02*
X003740Y003607D01*
X003740Y003608D02*
X000000Y003608D01*
X000000Y003609D02*
X003740Y003609D01*
X003740Y003610D02*
X000000Y003610D01*
X000000Y003611D02*
X003740Y003611D01*
X003740Y003612D02*
X000000Y003612D01*
X000000Y003613D02*
X003740Y003613D01*
X003740Y003614D02*
X000000Y003614D01*
X000000Y003615D02*
X003740Y003615D01*
X003740Y003616D02*
X000000Y003616D01*
X000000Y003617D02*
X003740Y003617D01*
X003740Y003618D02*
X000000Y003618D01*
X000000Y003619D02*
X003740Y003619D01*
X003740Y003620D02*
X000000Y003620D01*
X000000Y003621D02*
X003740Y003621D01*
X003740Y003622D02*
X000000Y003622D01*
X000000Y003623D02*
X003740Y003623D01*
X003740Y003624D02*
X000000Y003624D01*
X000000Y003625D02*
X003740Y003625D01*
X003740Y003626D02*
X000000Y003626D01*
X000000Y003627D02*
X003740Y003627D01*
X003740Y003628D02*
X000000Y003628D01*
X000000Y003629D02*
X003740Y003629D01*
X003740Y003630D02*
X000000Y003630D01*
X000000Y003631D02*
X003740Y003631D01*
X003740Y003632D02*
X000000Y003632D01*
X000000Y003633D02*
X003740Y003633D01*
X003740Y003634D02*
X000000Y003634D01*
X000000Y003635D02*
X003740Y003635D01*
X003740Y003636D02*
X000000Y003636D01*
X000000Y003637D02*
X003740Y003637D01*
X003740Y003638D02*
X000000Y003638D01*
X000000Y003639D02*
X003740Y003639D01*
X003740Y003640D02*
X000000Y003640D01*
X000000Y003641D02*
X003740Y003641D01*
X003740Y003642D02*
X000000Y003642D01*
X000000Y003643D02*
X003740Y003643D01*
X003740Y003644D02*
X000000Y003644D01*
X000000Y003645D02*
X003740Y003645D01*
X003740Y003646D02*
X000000Y003646D01*
X000000Y003647D02*
X003740Y003647D01*
X003740Y003648D02*
X000000Y003648D01*
X000000Y003649D02*
X003740Y003649D01*
X003740Y003650D02*
X000000Y003650D01*
X000000Y003651D02*
X003740Y003651D01*
X003740Y003652D02*
X000000Y003652D01*
X000000Y003653D02*
X003740Y003653D01*
X003740Y003654D02*
X000000Y003654D01*
X000000Y003655D02*
X003740Y003655D01*
X003740Y003656D02*
X000000Y003656D01*
X000000Y003657D02*
X003740Y003657D01*
X003740Y003658D02*
X000000Y003658D01*
X000000Y003659D02*
X003740Y003659D01*
X003740Y003660D02*
X000000Y003660D01*
X000000Y003661D02*
X003740Y003661D01*
X003740Y003662D02*
X000000Y003662D01*
X000000Y003663D02*
X003740Y003663D01*
X003740Y003664D02*
X000000Y003664D01*
X000000Y003665D02*
X003740Y003665D01*
X003740Y003666D02*
X000000Y003666D01*
X000000Y003667D02*
X003740Y003667D01*
X003740Y003668D02*
X000000Y003668D01*
X000000Y003669D02*
X003740Y003669D01*
X003740Y003670D02*
X000000Y003670D01*
X000000Y003671D02*
X003740Y003671D01*
X003740Y003672D02*
X000000Y003672D01*
X000000Y003673D02*
X003740Y003673D01*
X003740Y003674D02*
X000000Y003674D01*
X000000Y003675D02*
X003740Y003675D01*
X003740Y003676D02*
X000000Y003676D01*
X000000Y003677D02*
X003740Y003677D01*
X003740Y003678D02*
X000000Y003678D01*
X000000Y003679D02*
X003740Y003679D01*
X003740Y003680D02*
X000000Y003680D01*
X000000Y003681D02*
X003740Y003681D01*
X003740Y003682D02*
X000000Y003682D01*
X000000Y003683D02*
X003740Y003683D01*
X003740Y003684D02*
X000000Y003684D01*
X000000Y003685D02*
X003740Y003685D01*
X003740Y003686D02*
X000000Y003686D01*
X000000Y003687D02*
X003740Y003687D01*
X003740Y003688D02*
X000000Y003688D01*
X000000Y003689D02*
X003740Y003689D01*
X003740Y003690D02*
X000000Y003690D01*
X000000Y003691D02*
X003740Y003691D01*
X003740Y003692D02*
X000000Y003692D01*
X000000Y003693D02*
X003740Y003693D01*
X003740Y003694D02*
X000000Y003694D01*
X000000Y003695D02*
X003740Y003695D01*
X003740Y003696D02*
X000000Y003696D01*
X000000Y003697D02*
X003740Y003697D01*
X003740Y003698D02*
X000000Y003698D01*
X000000Y003699D02*
X003740Y003699D01*
X003740Y003700D02*
X000000Y003700D01*
X000000Y003701D02*
X003740Y003701D01*
X003740Y003702D02*
X000000Y003702D01*
X000000Y003703D02*
X003740Y003703D01*
X003740Y003704D02*
X000000Y003704D01*
X000000Y003705D02*
X003740Y003705D01*
X003740Y003706D02*
X000000Y003706D01*
X000000Y003707D02*
X003740Y003707D01*
X003740Y003708D02*
X000000Y003708D01*
X000000Y003709D02*
X003740Y003709D01*
X003740Y003710D02*
X000000Y003710D01*
X000000Y003711D02*
X003740Y003711D01*
X003740Y003712D02*
X000000Y003712D01*
X000000Y003713D02*
X003740Y003713D01*
X003740Y003714D02*
X000000Y003714D01*
X000000Y003715D02*
X003740Y003715D01*
X003740Y003716D02*
X000000Y003716D01*
X000000Y003717D02*
X003740Y003717D01*
X003740Y003718D02*
X000000Y003718D01*
X000000Y003719D02*
X003740Y003719D01*
X003740Y003720D02*
X000000Y003720D01*
X000000Y003721D02*
X003740Y003721D01*
X003740Y003722D02*
X000000Y003722D01*
X000000Y003723D02*
X003740Y003723D01*
X003740Y003724D02*
X000000Y003724D01*
X000000Y003725D02*
X003740Y003725D01*
X003740Y003726D02*
X000000Y003726D01*
X000000Y003727D02*
X003740Y003727D01*
X003740Y003728D02*
X000000Y003728D01*
X000000Y003729D02*
X003740Y003729D01*
X003740Y003730D02*
X000000Y003730D01*
X000000Y003731D02*
X003740Y003731D01*
X003740Y003732D02*
X000000Y003732D01*
X000000Y003733D02*
X003740Y003733D01*
X003740Y003734D02*
X000000Y003734D01*
X000000Y003735D02*
X003740Y003735D01*
X003740Y003736D02*
X000000Y003736D01*
X000000Y003737D02*
X003740Y003737D01*
X003740Y003738D02*
X000000Y003738D01*
X000000Y003739D02*
X003740Y003739D01*
X003740Y003740D02*
X000000Y003740D01*
X000000Y003741D02*
X003740Y003741D01*
X003740Y003742D02*
X000000Y003742D01*
X000000Y003743D02*
X003740Y003743D01*
X003740Y003744D02*
X000000Y003744D01*
X000000Y003745D02*
X003740Y003745D01*
X003740Y003746D02*
X000000Y003746D01*
X000000Y003747D02*
X003740Y003747D01*
X003740Y003748D02*
X000000Y003748D01*
X000000Y003749D02*
X003740Y003749D01*
X003740Y003750D02*
X000000Y003750D01*
X000000Y003751D02*
X003740Y003751D01*
X003740Y003752D02*
X000000Y003752D01*
X000000Y003753D02*
X003740Y003753D01*
X003740Y003754D02*
X000000Y003754D01*
X000000Y003755D02*
X003740Y003755D01*
X003740Y003756D02*
X000000Y003756D01*
X000000Y003757D02*
X003740Y003757D01*
X003740Y003758D02*
X000000Y003758D01*
X000000Y003759D02*
X003740Y003759D01*
X003740Y003760D02*
X000000Y003760D01*
X000000Y003761D02*
X003740Y003761D01*
X003740Y003762D02*
X000000Y003762D01*
X000000Y003763D02*
X003740Y003763D01*
X003740Y003764D02*
X000000Y003764D01*
X000000Y003765D02*
X003740Y003765D01*
X003740Y003766D02*
X000000Y003766D01*
X000000Y003767D02*
X003740Y003767D01*
X003740Y003768D02*
X000000Y003768D01*
X000000Y003769D02*
X003740Y003769D01*
X003740Y003770D02*
X000000Y003770D01*
X000000Y003771D02*
X003740Y003771D01*
X003740Y003772D02*
X000000Y003772D01*
X000000Y003773D02*
X003740Y003773D01*
X003740Y003774D02*
X000000Y003774D01*
X000000Y003775D02*
X003740Y003775D01*
X003740Y003776D02*
X000000Y003776D01*
X000000Y003777D02*
X003740Y003777D01*
X003740Y003778D02*
X000000Y003778D01*
X000000Y003779D02*
X003740Y003779D01*
X003740Y003780D02*
X000000Y003780D01*
X000000Y003781D02*
X003740Y003781D01*
X003740Y003782D02*
X000000Y003782D01*
X000000Y003783D02*
X003740Y003783D01*
X003740Y003784D02*
X000000Y003784D01*
X000000Y003785D02*
X003740Y003785D01*
X003740Y003786D02*
X000000Y003786D01*
X000000Y003787D02*
X003740Y003787D01*
X003740Y003788D02*
X000000Y003788D01*
X000000Y003789D02*
X003740Y003789D01*
X003740Y003790D02*
X000000Y003790D01*
X000000Y003791D02*
X003740Y003791D01*
X003740Y003792D02*
X000000Y003792D01*
X000000Y003793D02*
X003740Y003793D01*
X003740Y003794D02*
X000000Y003794D01*
X000000Y003795D02*
X003740Y003795D01*
X003740Y003796D02*
X000000Y003796D01*
X000000Y003797D02*
X003740Y003797D01*
X003740Y003798D02*
X000000Y003798D01*
X000000Y003799D02*
X003740Y003799D01*
X003740Y003800D02*
X000000Y003800D01*
X000000Y003801D02*
X003740Y003801D01*
X003740Y003802D02*
X000000Y003802D01*
X000000Y003803D02*
X003740Y003803D01*
X003740Y003804D02*
X000000Y003804D01*
X000000Y003805D02*
X003740Y003805D01*
X003740Y003806D02*
X000000Y003806D01*
X000000Y003807D02*
X003740Y003807D01*
X003740Y003808D02*
X000000Y003808D01*
X000000Y003809D02*
X003740Y003809D01*
X003740Y003810D02*
X000000Y003810D01*
X000000Y003811D02*
X003740Y003811D01*
X003740Y003812D02*
X000000Y003812D01*
X000000Y003813D02*
X003740Y003813D01*
X003740Y003814D02*
X000000Y003814D01*
X000000Y003815D02*
X003740Y003815D01*
X003740Y003816D02*
X000000Y003816D01*
X000000Y003817D02*
X003740Y003817D01*
X003740Y003818D02*
X000000Y003818D01*
X000000Y003819D02*
X003740Y003819D01*
X003740Y003820D02*
X000000Y003820D01*
X000000Y003821D02*
X003740Y003821D01*
X003740Y003822D02*
X000000Y003822D01*
X000000Y003823D02*
X003740Y003823D01*
X003740Y003824D02*
X000000Y003824D01*
X000000Y003825D02*
X003740Y003825D01*
X003740Y003826D02*
X000000Y003826D01*
X000000Y003827D02*
X003740Y003827D01*
X003740Y003828D02*
X000000Y003828D01*
X000000Y003829D02*
X003740Y003829D01*
X003740Y003830D02*
X000000Y003830D01*
X000000Y003831D02*
X003740Y003831D01*
X003740Y003832D02*
X000000Y003832D01*
X000000Y003833D02*
X003740Y003833D01*
X003740Y003834D02*
X000000Y003834D01*
X000000Y003835D02*
X003740Y003835D01*
X003740Y003836D02*
X000000Y003836D01*
X000000Y003837D02*
X003740Y003837D01*
X003740Y003838D02*
X000000Y003838D01*
X000000Y003839D02*
X003740Y003839D01*
X003740Y003840D02*
X000000Y003840D01*
X000000Y003841D02*
X003740Y003841D01*
X003740Y003842D02*
X000000Y003842D01*
X000000Y003843D02*
X003740Y003843D01*
X003740Y003844D02*
X000000Y003844D01*
X000000Y003845D02*
X003740Y003845D01*
X003740Y003846D02*
X000000Y003846D01*
X000000Y003847D02*
X003740Y003847D01*
X003740Y003848D02*
X000000Y003848D01*
X000000Y003849D02*
X003740Y003849D01*
X003740Y003850D02*
X000000Y003850D01*
X000000Y003851D02*
X003740Y003851D01*
X003740Y003852D02*
X000000Y003852D01*
X000000Y003853D02*
X003740Y003853D01*
X003740Y003854D02*
X000000Y003854D01*
X000000Y003855D02*
X003740Y003855D01*
X003740Y003856D02*
X000000Y003856D01*
X000000Y003857D02*
X003740Y003857D01*
X003740Y003858D02*
X000000Y003858D01*
X000000Y003859D02*
X003740Y003859D01*
X003740Y003860D02*
X000000Y003860D01*
X000000Y003861D02*
X003740Y003861D01*
X003740Y003862D02*
X000000Y003862D01*
X000000Y003863D02*
X003740Y003863D01*
X003740Y003864D02*
X000000Y003864D01*
X000000Y003865D02*
X003740Y003865D01*
X003740Y003866D02*
X000000Y003866D01*
X000000Y003867D02*
X003740Y003867D01*
X003740Y003868D02*
X000000Y003868D01*
X000000Y003869D02*
X003740Y003869D01*
X003740Y003870D02*
X000000Y003870D01*
X000000Y003871D02*
X003740Y003871D01*
X003740Y003872D02*
X000000Y003872D01*
X000000Y003873D02*
X003740Y003873D01*
X003740Y003874D02*
X000000Y003874D01*
X000000Y003875D02*
X003740Y003875D01*
X003740Y003876D02*
X000000Y003876D01*
X000000Y003877D02*
X003740Y003877D01*
X003740Y003878D02*
X000000Y003878D01*
X000000Y003879D02*
X003740Y003879D01*
X003740Y003880D02*
X000000Y003880D01*
X000000Y003881D02*
X003740Y003881D01*
X003740Y003882D02*
X000000Y003882D01*
X000000Y003883D02*
X003740Y003883D01*
X003740Y003884D02*
X000000Y003884D01*
X000000Y003885D02*
X003740Y003885D01*
X003740Y003886D02*
X000000Y003886D01*
X000000Y003887D02*
X003740Y003887D01*
X003740Y003888D02*
X000000Y003888D01*
X000000Y003889D02*
X003740Y003889D01*
X003740Y003890D02*
X000000Y003890D01*
X000000Y003891D02*
X003740Y003891D01*
X003740Y003892D02*
X000000Y003892D01*
X000000Y003893D02*
X003740Y003893D01*
X003740Y003894D02*
X000000Y003894D01*
X000000Y003895D02*
X003740Y003895D01*
X003740Y003896D02*
X000000Y003896D01*
X000000Y003897D02*
X003740Y003897D01*
X003740Y003898D02*
X000000Y003898D01*
X000000Y003899D02*
X003740Y003899D01*
X003740Y003900D02*
X000000Y003900D01*
X000000Y003901D02*
X003740Y003901D01*
X003740Y003902D02*
X000000Y003902D01*
X000000Y003903D02*
X003740Y003903D01*
X003740Y003904D02*
X000000Y003904D01*
X000000Y003905D02*
X003740Y003905D01*
X003740Y003906D02*
X000000Y003906D01*
X000000Y003907D02*
X003740Y003907D01*
X003740Y003908D02*
X000000Y003908D01*
X000000Y003909D02*
X003740Y003909D01*
X003740Y003910D02*
X000000Y003910D01*
X000000Y003911D02*
X003740Y003911D01*
X003740Y003912D02*
X000000Y003912D01*
X000000Y003913D02*
X003740Y003913D01*
X003740Y003914D02*
X000000Y003914D01*
X000000Y003915D02*
X003740Y003915D01*
X003740Y003916D02*
X000000Y003916D01*
X000000Y003917D02*
X003740Y003917D01*
X003740Y003918D02*
X000000Y003918D01*
X000000Y003919D02*
X003740Y003919D01*
X003740Y003920D02*
X000000Y003920D01*
X000000Y003921D02*
X003740Y003921D01*
X003740Y003922D02*
X000000Y003922D01*
X000000Y003923D02*
X003740Y003923D01*
X003740Y003924D02*
X000000Y003924D01*
X000000Y003925D02*
X003740Y003925D01*
X003740Y003926D02*
X000000Y003926D01*
X000000Y003927D02*
X003740Y003927D01*
X003740Y003928D02*
X000000Y003928D01*
X000000Y003929D02*
X003740Y003929D01*
X003740Y003930D02*
X000000Y003930D01*
X000000Y003931D02*
X003740Y003931D01*
X003740Y003932D02*
X000000Y003932D01*
X000000Y003933D02*
X003740Y003933D01*
X003740Y003934D02*
X000000Y003934D01*
X000000Y003935D02*
X003740Y003935D01*
X003740Y003936D02*
X000000Y003936D01*
X000000Y002167D02*
X003740Y002167D01*
X003740Y002166D02*
X000000Y002166D01*
X000000Y002165D02*
X003740Y002165D01*
X003740Y002164D02*
X000000Y002164D01*
X000000Y002163D02*
X003740Y002163D01*
X003740Y002162D02*
X000000Y002162D01*
X000000Y002161D02*
X003740Y002161D01*
X003740Y002160D02*
X000000Y002160D01*
X000000Y002159D02*
X003740Y002159D01*
X003740Y002158D02*
X000000Y002158D01*
X000000Y002157D02*
X003740Y002157D01*
X003740Y002156D02*
X000000Y002156D01*
X000000Y002155D02*
X003740Y002155D01*
X003740Y002154D02*
X000000Y002154D01*
X000000Y002153D02*
X003740Y002153D01*
X003740Y002152D02*
X000000Y002152D01*
X000000Y002151D02*
X003740Y002151D01*
X003740Y002150D02*
X000000Y002150D01*
X000000Y002149D02*
X003740Y002149D01*
X003740Y002148D02*
X000000Y002148D01*
X000000Y002147D02*
X003740Y002147D01*
X003740Y002146D02*
X000000Y002146D01*
X000000Y002145D02*
X003740Y002145D01*
X003740Y002144D02*
X000000Y002144D01*
X000000Y002143D02*
X003740Y002143D01*
X003740Y002142D02*
X000000Y002142D01*
X000000Y002141D02*
X003740Y002141D01*
X003740Y002140D02*
X000000Y002140D01*
X000000Y002139D02*
X003740Y002139D01*
X003740Y002138D02*
X000000Y002138D01*
X000000Y002137D02*
X003740Y002137D01*
X003740Y002136D02*
X000000Y002136D01*
X000000Y002135D02*
X003740Y002135D01*
X003740Y002134D02*
X000000Y002134D01*
X000000Y002133D02*
X003740Y002133D01*
X003740Y002132D02*
X000000Y002132D01*
X000000Y002131D02*
X003740Y002131D01*
X003740Y002130D02*
X000000Y002130D01*
X000000Y002129D02*
X003740Y002129D01*
X003740Y002128D02*
X000000Y002128D01*
X000000Y002127D02*
X003740Y002127D01*
X003740Y002126D02*
X000000Y002126D01*
X000000Y002125D02*
X003740Y002125D01*
X003740Y002124D02*
X000000Y002124D01*
X000000Y002123D02*
X003740Y002123D01*
X003740Y002122D02*
X000000Y002122D01*
X000000Y002121D02*
X003740Y002121D01*
X003740Y002120D02*
X000000Y002120D01*
X000000Y002119D02*
X003740Y002119D01*
X003740Y002118D02*
X000000Y002118D01*
X000000Y002117D02*
X003740Y002117D01*
X003740Y002116D02*
X000000Y002116D01*
X000000Y002115D02*
X003740Y002115D01*
X003740Y002114D02*
X000000Y002114D01*
X000000Y002113D02*
X003740Y002113D01*
X003740Y002112D02*
X000000Y002112D01*
X000000Y002111D02*
X003740Y002111D01*
X003740Y002110D02*
X000000Y002110D01*
X000000Y002109D02*
X003740Y002109D01*
X003740Y002108D02*
X000000Y002108D01*
X000000Y002107D02*
X003740Y002107D01*
X003740Y002106D02*
X000000Y002106D01*
X000000Y002105D02*
X003740Y002105D01*
X003740Y002104D02*
X000000Y002104D01*
X000000Y002103D02*
X003740Y002103D01*
X003740Y002102D02*
X000000Y002102D01*
X000000Y002101D02*
X003740Y002101D01*
X003740Y002100D02*
X000000Y002100D01*
X000000Y002099D02*
X003740Y002099D01*
X003740Y002098D02*
X000000Y002098D01*
X000000Y002097D02*
X003740Y002097D01*
X003740Y002096D02*
X000000Y002096D01*
X000000Y002095D02*
X003740Y002095D01*
X003740Y002094D02*
X000000Y002094D01*
X000000Y002093D02*
X003740Y002093D01*
X003740Y002092D02*
X000000Y002092D01*
X000000Y002091D02*
X003740Y002091D01*
X003740Y002090D02*
X000000Y002090D01*
X000000Y002089D02*
X003740Y002089D01*
X003740Y002088D02*
X000000Y002088D01*
X000000Y002087D02*
X003740Y002087D01*
X003740Y002086D02*
X000000Y002086D01*
X000000Y002085D02*
X003740Y002085D01*
X003740Y002084D02*
X000000Y002084D01*
X000000Y002083D02*
X003740Y002083D01*
X003740Y002082D02*
X000000Y002082D01*
X000000Y002081D02*
X003740Y002081D01*
X003740Y002080D02*
X000000Y002080D01*
X000000Y002079D02*
X003740Y002079D01*
X003740Y002078D02*
X000000Y002078D01*
X000000Y002077D02*
X003740Y002077D01*
X003740Y002076D02*
X000000Y002076D01*
X000000Y002075D02*
X003740Y002075D01*
X003740Y002074D02*
X000000Y002074D01*
X000000Y002073D02*
X003740Y002073D01*
X003740Y002072D02*
X000000Y002072D01*
X000000Y002071D02*
X003740Y002071D01*
X003740Y002070D02*
X000000Y002070D01*
X000000Y002069D02*
X003740Y002069D01*
X003740Y002068D02*
X000000Y002068D01*
X000000Y002067D02*
X003740Y002067D01*
X003740Y002066D02*
X000000Y002066D01*
X000000Y002065D02*
X003740Y002065D01*
X003740Y002064D02*
X000000Y002064D01*
X000000Y002063D02*
X003740Y002063D01*
X003740Y002062D02*
X000000Y002062D01*
X000000Y002061D02*
X003740Y002061D01*
X003740Y002060D02*
X000000Y002060D01*
X000000Y002059D02*
X003740Y002059D01*
X003740Y002058D02*
X000000Y002058D01*
X000000Y002057D02*
X003740Y002057D01*
X003740Y002056D02*
X000000Y002056D01*
X000000Y002055D02*
X003740Y002055D01*
X003740Y002054D02*
X000000Y002054D01*
X000000Y002053D02*
X003740Y002053D01*
X003740Y002052D02*
X000000Y002052D01*
X000000Y002051D02*
X003740Y002051D01*
X003740Y002050D02*
X000000Y002050D01*
X000000Y002049D02*
X003740Y002049D01*
X003740Y002048D02*
X000000Y002048D01*
X000000Y002047D02*
X003740Y002047D01*
X003740Y002046D02*
X000000Y002046D01*
X000000Y002045D02*
X003740Y002045D01*
X003740Y002044D02*
X000000Y002044D01*
X000000Y002043D02*
X003740Y002043D01*
X003740Y002042D02*
X000000Y002042D01*
X000000Y002041D02*
X003740Y002041D01*
X003740Y002040D02*
X000000Y002040D01*
X000000Y002039D02*
X003740Y002039D01*
X003740Y002038D02*
X000000Y002038D01*
X000000Y002037D02*
X003740Y002037D01*
X003740Y002036D02*
X000000Y002036D01*
X000000Y002035D02*
X003740Y002035D01*
X003740Y002034D02*
X000000Y002034D01*
X000000Y002033D02*
X003740Y002033D01*
X003740Y002032D02*
X000000Y002032D01*
X000000Y002031D02*
X003740Y002031D01*
X003740Y002030D02*
X000000Y002030D01*
X000000Y002029D02*
X003740Y002029D01*
X003740Y002028D02*
X000000Y002028D01*
X000000Y002027D02*
X003740Y002027D01*
X003740Y002026D02*
X000000Y002026D01*
X000000Y002025D02*
X003740Y002025D01*
X003740Y002024D02*
X000000Y002024D01*
X000000Y002023D02*
X003740Y002023D01*
X003740Y002022D02*
X000000Y002022D01*
X000000Y002021D02*
X003740Y002021D01*
X003740Y002020D02*
X000000Y002020D01*
X000000Y002019D02*
X003740Y002019D01*
X003740Y002018D02*
X000000Y002018D01*
X000000Y002017D02*
X003740Y002017D01*
X003740Y002016D02*
X000000Y002016D01*
X000000Y002015D02*
X003740Y002015D01*
X003740Y002014D02*
X000000Y002014D01*
X000000Y002013D02*
X003740Y002013D01*
X003740Y002012D02*
X000000Y002012D01*
X000000Y002011D02*
X003740Y002011D01*
X003740Y002010D02*
X000000Y002010D01*
X000000Y002009D02*
X003740Y002009D01*
X003740Y002008D02*
X000000Y002008D01*
X000000Y002007D02*
X003740Y002007D01*
X003740Y002006D02*
X000000Y002006D01*
X000000Y002005D02*
X003740Y002005D01*
X003740Y002004D02*
X000000Y002004D01*
X000000Y002003D02*
X003740Y002003D01*
X003740Y002002D02*
X000000Y002002D01*
X000000Y002001D02*
X003740Y002001D01*
X003740Y002000D02*
X000000Y002000D01*
X000000Y001999D02*
X003740Y001999D01*
X003740Y001998D02*
X000000Y001998D01*
X000000Y001997D02*
X003740Y001997D01*
X003740Y001996D02*
X000000Y001996D01*
X000000Y001995D02*
X003740Y001995D01*
X003740Y001994D02*
X000000Y001994D01*
X000000Y001993D02*
X003740Y001993D01*
X003740Y001992D02*
X000000Y001992D01*
X000000Y001991D02*
X003740Y001991D01*
X003740Y001990D02*
X000000Y001990D01*
X000000Y001989D02*
X003740Y001989D01*
X003740Y001988D02*
X000000Y001988D01*
X000000Y001987D02*
X003740Y001987D01*
X003740Y001986D02*
X000000Y001986D01*
X000000Y001985D02*
X003740Y001985D01*
X003740Y001984D02*
X000000Y001984D01*
X000000Y001983D02*
X003740Y001983D01*
X003740Y001982D02*
X000000Y001982D01*
X000000Y001981D02*
X003740Y001981D01*
X003740Y001980D02*
X000000Y001980D01*
X000000Y001979D02*
X003740Y001979D01*
X003740Y001978D02*
X000000Y001978D01*
X000000Y001977D02*
X003740Y001977D01*
X003740Y001976D02*
X000000Y001976D01*
X000000Y001975D02*
X003740Y001975D01*
X003740Y001974D02*
X000000Y001974D01*
X000000Y001973D02*
X003740Y001973D01*
X003740Y001972D02*
X000000Y001972D01*
X000000Y001971D02*
X003740Y001971D01*
X003740Y001970D02*
X000000Y001970D01*
X000000Y001969D02*
X003740Y001969D01*
X003740Y001968D02*
X000000Y001968D01*
X000000Y001967D02*
X003740Y001967D01*
X003740Y001966D02*
X000000Y001966D01*
X000000Y001965D02*
X003740Y001965D01*
X003740Y001964D02*
X000000Y001964D01*
X000000Y001963D02*
X003740Y001963D01*
X003740Y001962D02*
X000000Y001962D01*
X000000Y001961D02*
X003740Y001961D01*
X003740Y001960D02*
X000000Y001960D01*
X000000Y001959D02*
X003740Y001959D01*
X003740Y001958D02*
X000000Y001958D01*
X000000Y001957D02*
X003740Y001957D01*
X003740Y001956D02*
X000000Y001956D01*
X000000Y001955D02*
X003740Y001955D01*
X003740Y001954D02*
X000000Y001954D01*
X000000Y001953D02*
X003740Y001953D01*
X003740Y001952D02*
X000000Y001952D01*
X000000Y001951D02*
X003740Y001951D01*
X003740Y001950D02*
X000000Y001950D01*
X000000Y001949D02*
X003740Y001949D01*
X003740Y001948D02*
X000000Y001948D01*
X000000Y001947D02*
X003740Y001947D01*
X003740Y001946D02*
X000000Y001946D01*
X000000Y001945D02*
X003740Y001945D01*
X003740Y001944D02*
X000000Y001944D01*
X000000Y001943D02*
X003740Y001943D01*
X003740Y001942D02*
X000000Y001942D01*
X000000Y001941D02*
X003740Y001941D01*
X003740Y001940D02*
X000000Y001940D01*
X000000Y001939D02*
X003740Y001939D01*
X003740Y001938D02*
X000000Y001938D01*
X000000Y001937D02*
X003740Y001937D01*
X003740Y001936D02*
X000000Y001936D01*
X000000Y001935D02*
X003740Y001935D01*
X003740Y001934D02*
X000000Y001934D01*
X000000Y001933D02*
X003740Y001933D01*
X003740Y001932D02*
X000000Y001932D01*
X000000Y001931D02*
X003740Y001931D01*
X003740Y001930D02*
X000000Y001930D01*
X000000Y001929D02*
X003740Y001929D01*
X003740Y001928D02*
X000000Y001928D01*
X000000Y001927D02*
X003740Y001927D01*
X003740Y001926D02*
X000000Y001926D01*
X000000Y001925D02*
X003740Y001925D01*
X003740Y001924D02*
X000000Y001924D01*
X000000Y001923D02*
X003740Y001923D01*
X003740Y001922D02*
X000000Y001922D01*
X000000Y001921D02*
X003740Y001921D01*
X003740Y001920D02*
X000000Y001920D01*
X000000Y001919D02*
X003740Y001919D01*
X003740Y001918D02*
X000000Y001918D01*
X000000Y001917D02*
X003740Y001917D01*
X003740Y001916D02*
X000000Y001916D01*
X000000Y001915D02*
X003740Y001915D01*
X003740Y001914D02*
X000000Y001914D01*
X000000Y001913D02*
X003740Y001913D01*
X003740Y001912D02*
X000000Y001912D01*
X000000Y001911D02*
X003740Y001911D01*
X003740Y001910D02*
X000000Y001910D01*
X000000Y001909D02*
X003740Y001909D01*
X003740Y001908D02*
X000000Y001908D01*
X000000Y001907D02*
X003740Y001907D01*
X003740Y001906D02*
X000000Y001906D01*
X000000Y001905D02*
X003740Y001905D01*
X003740Y001904D02*
X000000Y001904D01*
X000000Y001903D02*
X003740Y001903D01*
X003740Y001902D02*
X000000Y001902D01*
X000000Y001901D02*
X003740Y001901D01*
X003740Y001900D02*
X000000Y001900D01*
X000000Y001899D02*
X003740Y001899D01*
X003740Y001898D02*
X000000Y001898D01*
X000000Y001897D02*
X003740Y001897D01*
X003740Y001896D02*
X000000Y001896D01*
X000000Y001895D02*
X003740Y001895D01*
X003740Y001894D02*
X000000Y001894D01*
X000000Y001893D02*
X003740Y001893D01*
X003740Y001892D02*
X000000Y001892D01*
X000000Y001891D02*
X003740Y001891D01*
X003740Y001890D02*
X000000Y001890D01*
X000000Y001889D02*
X003740Y001889D01*
X003740Y001888D02*
X000000Y001888D01*
X000000Y001887D02*
X003740Y001887D01*
X003740Y001886D02*
X000000Y001886D01*
X000000Y001885D02*
X003740Y001885D01*
X003740Y001884D02*
X000000Y001884D01*
X000000Y001883D02*
X003740Y001883D01*
X003740Y001882D02*
X000000Y001882D01*
X000000Y001881D02*
X003740Y001881D01*
X003740Y001880D02*
X000000Y001880D01*
X000000Y001879D02*
X003740Y001879D01*
X003740Y001878D02*
X000000Y001878D01*
X000000Y001877D02*
X003740Y001877D01*
X003740Y001876D02*
X000000Y001876D01*
X000000Y001875D02*
X003740Y001875D01*
X003740Y001874D02*
X000000Y001874D01*
X000000Y001873D02*
X003740Y001873D01*
X003740Y001872D02*
X000000Y001872D01*
X000000Y001871D02*
X003740Y001871D01*
X003740Y001870D02*
X000000Y001870D01*
X000000Y001869D02*
X003740Y001869D01*
X003740Y001868D02*
X000000Y001868D01*
X000000Y001867D02*
X003740Y001867D01*
X003740Y001866D02*
X000000Y001866D01*
X000000Y001865D02*
X003740Y001865D01*
X003740Y001864D02*
X000000Y001864D01*
X000000Y001863D02*
X003740Y001863D01*
X003740Y001862D02*
X000000Y001862D01*
X000000Y001861D02*
X003740Y001861D01*
X003740Y001860D02*
X000000Y001860D01*
X000000Y001859D02*
X003740Y001859D01*
X003740Y001858D02*
X000000Y001858D01*
X000000Y001857D02*
X003740Y001857D01*
X003740Y001856D02*
X000000Y001856D01*
X000000Y001855D02*
X003740Y001855D01*
X003740Y001854D02*
X000000Y001854D01*
X000000Y001853D02*
X003740Y001853D01*
X003740Y001852D02*
X000000Y001852D01*
X000000Y001851D02*
X003740Y001851D01*
X003740Y001850D02*
X000000Y001850D01*
X000000Y001849D02*
X003740Y001849D01*
X003740Y001848D02*
X000000Y001848D01*
X000000Y001847D02*
X003740Y001847D01*
X003740Y001846D02*
X000000Y001846D01*
X000000Y001845D02*
X003740Y001845D01*
X003740Y001844D02*
X000000Y001844D01*
X000000Y001843D02*
X003740Y001843D01*
X003740Y001842D02*
X000000Y001842D01*
X000000Y001841D02*
X003740Y001841D01*
X003740Y001840D02*
X000000Y001840D01*
X000000Y001839D02*
X003740Y001839D01*
X003740Y001838D02*
X000000Y001838D01*
X000000Y001837D02*
X003740Y001837D01*
X003740Y001836D02*
X000000Y001836D01*
X000000Y001835D02*
X003740Y001835D01*
X003740Y001834D02*
X000000Y001834D01*
X000000Y001833D02*
X003740Y001833D01*
X003740Y001832D02*
X000000Y001832D01*
X000000Y001831D02*
X003740Y001831D01*
X003740Y001830D02*
X000000Y001830D01*
X000000Y001829D02*
X003740Y001829D01*
X003740Y001828D02*
X000000Y001828D01*
X000000Y001827D02*
X003740Y001827D01*
X003740Y001826D02*
X000000Y001826D01*
X000000Y001825D02*
X003740Y001825D01*
X003740Y001824D02*
X000000Y001824D01*
X000000Y001823D02*
X003740Y001823D01*
X003740Y001822D02*
X000000Y001822D01*
X000000Y001821D02*
X003740Y001821D01*
X003740Y001820D02*
X000000Y001820D01*
X000000Y001819D02*
X003740Y001819D01*
X003740Y001818D02*
X000000Y001818D01*
X000000Y001817D02*
X003740Y001817D01*
X003740Y001816D02*
X000000Y001816D01*
X000000Y001815D02*
X003740Y001815D01*
X003740Y001814D02*
X000000Y001814D01*
X000000Y001813D02*
X003740Y001813D01*
X003740Y001812D02*
X000000Y001812D01*
X000000Y001811D02*
X003740Y001811D01*
X003740Y001810D02*
X000000Y001810D01*
X000000Y001809D02*
X003740Y001809D01*
X003740Y001808D02*
X000000Y001808D01*
X000000Y001807D02*
X003740Y001807D01*
X003740Y001806D02*
X000000Y001806D01*
X000000Y001805D02*
X003740Y001805D01*
X003740Y001804D02*
X000000Y001804D01*
X000000Y001803D02*
X003740Y001803D01*
X003740Y001802D02*
X000000Y001802D01*
X000000Y001801D02*
X003740Y001801D01*
X003740Y001800D02*
X000000Y001800D01*
X000000Y001799D02*
X003740Y001799D01*
X003740Y001798D02*
X000000Y001798D01*
X000000Y001797D02*
X003740Y001797D01*
X003740Y001796D02*
X000000Y001796D01*
X000000Y001795D02*
X003740Y001795D01*
X003740Y001794D02*
X000000Y001794D01*
X000000Y001793D02*
X003740Y001793D01*
X003740Y001792D02*
X000000Y001792D01*
X000000Y001791D02*
X003740Y001791D01*
X003740Y001790D02*
X000000Y001790D01*
X000000Y001789D02*
X003740Y001789D01*
X003740Y001788D02*
X000000Y001788D01*
X000000Y001787D02*
X003740Y001787D01*
X003740Y001786D02*
X000000Y001786D01*
X000000Y001785D02*
X003740Y001785D01*
X003740Y001784D02*
X000000Y001784D01*
X000000Y001783D02*
X003740Y001783D01*
X003740Y001782D02*
X000000Y001782D01*
X000000Y001781D02*
X003740Y001781D01*
X003740Y001780D02*
X000000Y001780D01*
X000000Y001779D02*
X003740Y001779D01*
X003740Y001778D02*
X000000Y001778D01*
X000000Y001777D02*
X003740Y001777D01*
X003740Y001776D02*
X000000Y001776D01*
X000000Y001775D02*
X003740Y001775D01*
X003740Y001774D02*
X000000Y001774D01*
X000000Y001773D02*
X003740Y001773D01*
X003740Y001772D02*
X000000Y001772D01*
X000000Y001771D02*
X003740Y001771D01*
X003740Y001770D02*
X000000Y001770D01*
X000000Y001769D02*
X003740Y001769D01*
X003740Y001768D02*
X000000Y001768D01*
X000000Y001767D02*
X003740Y001767D01*
X003740Y001766D02*
X000000Y001766D01*
X000000Y001765D02*
X003740Y001765D01*
X003740Y001764D02*
X000000Y001764D01*
X000000Y001763D02*
X003740Y001763D01*
X003740Y001762D02*
X000000Y001762D01*
X000000Y001761D02*
X003740Y001761D01*
X003740Y001760D02*
X000000Y001760D01*
X000000Y001759D02*
X003740Y001759D01*
X003740Y001758D02*
X000000Y001758D01*
X000000Y001757D02*
X003740Y001757D01*
X003740Y001756D02*
X000000Y001756D01*
X000000Y001755D02*
X003740Y001755D01*
X003740Y001754D02*
X000000Y001754D01*
X000000Y001753D02*
X003740Y001753D01*
X003740Y001752D02*
X000000Y001752D01*
X000000Y001751D02*
X003740Y001751D01*
X003740Y001750D02*
X000000Y001750D01*
X000000Y001749D02*
X003740Y001749D01*
X003740Y001748D02*
X000000Y001748D01*
X000000Y001747D02*
X003740Y001747D01*
X003740Y001746D02*
X000000Y001746D01*
X000000Y001745D02*
X003740Y001745D01*
X003740Y001744D02*
X000000Y001744D01*
X000000Y001743D02*
X003740Y001743D01*
X003740Y001742D02*
X000000Y001742D01*
X000000Y001741D02*
X003740Y001741D01*
X003740Y001740D02*
X000000Y001740D01*
X000000Y001739D02*
X003740Y001739D01*
X003740Y001738D02*
X000000Y001738D01*
X000000Y001737D02*
X003740Y001737D01*
X003740Y001736D02*
X000000Y001736D01*
X000000Y001735D02*
X003740Y001735D01*
X003740Y001734D02*
X000000Y001734D01*
X000000Y001733D02*
X003740Y001733D01*
X003740Y001732D02*
X000000Y001732D01*
X000000Y001731D02*
X003740Y001731D01*
X003740Y001730D02*
X000000Y001730D01*
X000000Y001729D02*
X003740Y001729D01*
X003740Y001728D02*
X000000Y001728D01*
X000000Y001727D02*
X003740Y001727D01*
X003740Y001726D02*
X000000Y001726D01*
X000000Y001725D02*
X003740Y001725D01*
X003740Y001724D02*
X000000Y001724D01*
X000000Y001723D02*
X003740Y001723D01*
X003740Y001722D02*
X000000Y001722D01*
X000000Y001721D02*
X003740Y001721D01*
X003740Y001720D02*
X000000Y001720D01*
X000000Y001719D02*
X003740Y001719D01*
X003740Y001718D02*
X000000Y001718D01*
X000000Y001717D02*
X003740Y001717D01*
X003740Y001716D02*
X000000Y001716D01*
X000000Y001715D02*
X003740Y001715D01*
X003740Y001714D02*
X000000Y001714D01*
X000000Y001713D02*
X003740Y001713D01*
X003740Y001712D02*
X000000Y001712D01*
X000000Y001711D02*
X003740Y001711D01*
X003740Y001710D02*
X000000Y001710D01*
X000000Y001709D02*
X003740Y001709D01*
X003740Y001708D02*
X000000Y001708D01*
X000000Y001707D02*
X003740Y001707D01*
X003740Y001706D02*
X000000Y001706D01*
X000000Y001705D02*
X003740Y001705D01*
X003740Y001704D02*
X000000Y001704D01*
X000000Y001703D02*
X003740Y001703D01*
X003740Y001702D02*
X000000Y001702D01*
X000000Y001701D02*
X003740Y001701D01*
X003740Y001700D02*
X000000Y001700D01*
X000000Y001699D02*
X003740Y001699D01*
X003740Y001698D02*
X000000Y001698D01*
X000000Y001697D02*
X003740Y001697D01*
X003740Y001696D02*
X000000Y001696D01*
X000000Y001695D02*
X003740Y001695D01*
X003740Y001694D02*
X000000Y001694D01*
X000000Y001693D02*
X003740Y001693D01*
X003740Y001692D02*
X000000Y001692D01*
X000000Y001691D02*
X003740Y001691D01*
X003740Y001690D02*
X000000Y001690D01*
X000000Y001689D02*
X003740Y001689D01*
X003740Y001688D02*
X000000Y001688D01*
X000000Y001687D02*
X003740Y001687D01*
X003740Y001686D02*
X000000Y001686D01*
X000000Y001685D02*
X003740Y001685D01*
X003740Y001684D02*
X000000Y001684D01*
X000000Y001683D02*
X003740Y001683D01*
X003740Y001682D02*
X000000Y001682D01*
X000000Y001681D02*
X003740Y001681D01*
X003740Y001680D02*
X000000Y001680D01*
X000000Y001679D02*
X003740Y001679D01*
X003740Y001678D02*
X000000Y001678D01*
X000000Y001677D02*
X003740Y001677D01*
X003740Y001676D02*
X000000Y001676D01*
X000000Y001675D02*
X003740Y001675D01*
X003740Y001674D02*
X000000Y001674D01*
X000000Y001673D02*
X003740Y001673D01*
X003740Y001672D02*
X000000Y001672D01*
X000000Y001671D02*
X003740Y001671D01*
X003740Y001670D02*
X000000Y001670D01*
X000000Y001669D02*
X003740Y001669D01*
X003740Y001668D02*
X000000Y001668D01*
X000000Y001667D02*
X003740Y001667D01*
X003740Y001666D02*
X000000Y001666D01*
X000000Y001665D02*
X003740Y001665D01*
X003740Y001664D02*
X000000Y001664D01*
X000000Y001663D02*
X003740Y001663D01*
X003740Y001662D02*
X000000Y001662D01*
X000000Y001661D02*
X003740Y001661D01*
X003740Y001660D02*
X000000Y001660D01*
X000000Y001659D02*
X003740Y001659D01*
X003740Y001658D02*
X000000Y001658D01*
X000000Y001657D02*
X003740Y001657D01*
X003740Y001656D02*
X000000Y001656D01*
X000000Y001655D02*
X003740Y001655D01*
X003740Y001654D02*
X000000Y001654D01*
X000000Y001653D02*
X003740Y001653D01*
X003740Y001652D02*
X000000Y001652D01*
X000000Y001651D02*
X003740Y001651D01*
X003740Y001650D02*
X000000Y001650D01*
X000000Y001649D02*
X003740Y001649D01*
X003740Y001648D02*
X000000Y001648D01*
X000000Y001647D02*
X003740Y001647D01*
X003740Y001646D02*
X000000Y001646D01*
X000000Y001645D02*
X003740Y001645D01*
X003740Y001644D02*
X000000Y001644D01*
X000000Y001643D02*
X003740Y001643D01*
X003740Y001642D02*
X000000Y001642D01*
X000000Y001641D02*
X003740Y001641D01*
X003740Y001640D02*
X000000Y001640D01*
X000000Y001639D02*
X003740Y001639D01*
X003740Y001638D02*
X000000Y001638D01*
X000000Y001637D02*
X003740Y001637D01*
X003740Y001636D02*
X000000Y001636D01*
X000000Y001635D02*
X003740Y001635D01*
X003740Y001634D02*
X000000Y001634D01*
X000000Y001633D02*
X003740Y001633D01*
X003740Y001632D02*
X000000Y001632D01*
X000000Y001631D02*
X003740Y001631D01*
X003740Y001630D02*
X000000Y001630D01*
X000000Y001629D02*
X003740Y001629D01*
X003740Y001628D02*
X000000Y001628D01*
X000000Y001627D02*
X003740Y001627D01*
X003740Y001626D02*
X000000Y001626D01*
X000000Y001625D02*
X003740Y001625D01*
X003740Y001624D02*
X000000Y001624D01*
X000000Y001623D02*
X003740Y001623D01*
X003740Y001622D02*
X000000Y001622D01*
X000000Y001621D02*
X003740Y001621D01*
X003740Y001620D02*
X000000Y001620D01*
X000000Y001619D02*
X003740Y001619D01*
X003740Y001618D02*
X000000Y001618D01*
X000000Y001617D02*
X003740Y001617D01*
X003740Y001616D02*
X000000Y001616D01*
X000000Y001615D02*
X003740Y001615D01*
X003740Y001614D02*
X000000Y001614D01*
X000000Y001613D02*
X003740Y001613D01*
X003740Y001612D02*
X000000Y001612D01*
X000000Y001611D02*
X003740Y001611D01*
X003740Y001610D02*
X000000Y001610D01*
X000000Y001609D02*
X003740Y001609D01*
X003740Y001608D02*
X000000Y001608D01*
X000000Y001607D02*
X003740Y001607D01*
X003740Y001606D02*
X000000Y001606D01*
X000000Y001605D02*
X003740Y001605D01*
X003740Y001604D02*
X000000Y001604D01*
X000000Y001603D02*
X003740Y001603D01*
X003740Y001602D02*
X000000Y001602D01*
X000000Y001601D02*
X003740Y001601D01*
X003740Y001600D02*
X000000Y001600D01*
X000000Y001599D02*
X003740Y001599D01*
X003740Y001598D02*
X000000Y001598D01*
X000000Y001597D02*
X003740Y001597D01*
X003740Y001596D02*
X000000Y001596D01*
X000000Y001595D02*
X003740Y001595D01*
X003740Y001594D02*
X000000Y001594D01*
X000000Y001593D02*
X003740Y001593D01*
X003740Y001592D02*
X000000Y001592D01*
X000000Y001591D02*
X003740Y001591D01*
X003740Y001590D02*
X000000Y001590D01*
X000000Y001589D02*
X003740Y001589D01*
X003740Y001588D02*
X000000Y001588D01*
X000000Y001587D02*
X003740Y001587D01*
X003740Y001586D02*
X000000Y001586D01*
X000000Y001585D02*
X003740Y001585D01*
X003740Y001584D02*
X000000Y001584D01*
X000000Y001583D02*
X003740Y001583D01*
X003740Y001582D02*
X000000Y001582D01*
X000000Y001581D02*
X003740Y001581D01*
X003740Y001580D02*
X000000Y001580D01*
X000000Y001579D02*
X003740Y001579D01*
X003740Y001578D02*
X000000Y001578D01*
X000000Y001577D02*
X003740Y001577D01*
X003740Y001576D02*
X000000Y001576D01*
X000000Y001575D02*
X003740Y001575D01*
X003740Y001574D02*
X000000Y001574D01*
X000000Y001573D02*
X003740Y001573D01*
X003740Y001572D02*
X000000Y001572D01*
X000000Y001571D02*
X003740Y001571D01*
X003740Y001570D02*
X000000Y001570D01*
X000000Y001569D02*
X003740Y001569D01*
X003740Y001568D02*
X000000Y001568D01*
X000000Y001567D02*
X003740Y001567D01*
X003740Y001566D02*
X000000Y001566D01*
X000000Y001565D02*
X003740Y001565D01*
X003740Y001564D02*
X000000Y001564D01*
X000000Y001563D02*
X003740Y001563D01*
X003740Y001562D02*
X000000Y001562D01*
X000000Y001561D02*
X003740Y001561D01*
X003740Y001560D02*
X000000Y001560D01*
X000000Y001559D02*
X003740Y001559D01*
X003740Y001558D02*
X000000Y001558D01*
X000000Y001557D02*
X003740Y001557D01*
X003740Y001556D02*
X000000Y001556D01*
X000000Y001555D02*
X003740Y001555D01*
X003740Y001554D02*
X000000Y001554D01*
X000000Y001553D02*
X003740Y001553D01*
X003740Y001552D02*
X000000Y001552D01*
X000000Y001551D02*
X003740Y001551D01*
X003740Y001550D02*
X000000Y001550D01*
X000000Y001549D02*
X003740Y001549D01*
X003740Y001548D02*
X000000Y001548D01*
X000000Y001547D02*
X003740Y001547D01*
X003740Y001546D02*
X000000Y001546D01*
X000000Y001545D02*
X003740Y001545D01*
X003740Y001544D02*
X000000Y001544D01*
X000000Y001543D02*
X003740Y001543D01*
X003740Y001542D02*
X000000Y001542D01*
X000000Y001541D02*
X003740Y001541D01*
X003740Y001540D02*
X000000Y001540D01*
X000000Y001539D02*
X003740Y001539D01*
X003740Y001538D02*
X000000Y001538D01*
X000000Y001537D02*
X003740Y001537D01*
X003740Y001536D02*
X000000Y001536D01*
X000000Y001535D02*
X003740Y001535D01*
X003740Y001534D02*
X000000Y001534D01*
X000000Y001533D02*
X003740Y001533D01*
X003740Y001532D02*
X000000Y001532D01*
X000000Y001531D02*
X003740Y001531D01*
X003740Y001530D02*
X000000Y001530D01*
X000000Y001529D02*
X003740Y001529D01*
X003740Y001528D02*
X000000Y001528D01*
X000000Y001527D02*
X003740Y001527D01*
X003740Y001526D02*
X000000Y001526D01*
X000000Y001525D02*
X003740Y001525D01*
X003740Y001524D02*
X000000Y001524D01*
X000000Y001523D02*
X003740Y001523D01*
X000000Y001523D01*
X000000Y001522D02*
X003740Y001522D01*
X003740Y001521D02*
X000000Y001521D01*
X000000Y001520D02*
X003740Y001520D01*
X003740Y001519D02*
X000000Y001519D01*
X000000Y001518D02*
X003740Y001518D01*
X003740Y001517D02*
X000000Y001517D01*
X000000Y001516D02*
X003740Y001516D01*
X003740Y001515D02*
X000000Y001515D01*
X000000Y001514D02*
X003740Y001514D01*
X003740Y001513D02*
X000000Y001513D01*
X000000Y001512D02*
X003740Y001512D01*
X003740Y001511D02*
X000000Y001511D01*
X000000Y001510D02*
X003740Y001510D01*
X003740Y001509D02*
X000000Y001509D01*
X000000Y001508D02*
X003740Y001508D01*
X003740Y001507D02*
X000000Y001507D01*
X000000Y001506D02*
X003740Y001506D01*
X003740Y001505D02*
X000000Y001505D01*
X000000Y001504D02*
X003740Y001504D01*
X003740Y001503D02*
X000000Y001503D01*
X000000Y001502D02*
X003740Y001502D01*
X003740Y001501D02*
X000000Y001501D01*
X000000Y001500D02*
X003740Y001500D01*
X003740Y001499D02*
X000000Y001499D01*
X000000Y001498D02*
X003740Y001498D01*
X003740Y001497D02*
X000000Y001497D01*
X000000Y001496D02*
X003740Y001496D01*
X003740Y001495D02*
X000000Y001495D01*
X000000Y001494D02*
X003740Y001494D01*
X003740Y001493D02*
X000000Y001493D01*
X000000Y001492D02*
X003740Y001492D01*
X003740Y001491D02*
X000000Y001491D01*
X000000Y001490D02*
X003740Y001490D01*
X003740Y001489D02*
X000000Y001489D01*
X000000Y001488D02*
X003740Y001488D01*
X003740Y001487D02*
X000000Y001487D01*
X000000Y001486D02*
X003740Y001486D01*
X003740Y001485D02*
X000000Y001485D01*
X000000Y001484D02*
X003740Y001484D01*
X003740Y001483D02*
X000000Y001483D01*
X000000Y001482D02*
X003740Y001482D01*
X003740Y001481D02*
X000000Y001481D01*
X000000Y001480D02*
X003740Y001480D01*
X003740Y001479D02*
X000000Y001479D01*
X000000Y001478D02*
X003740Y001478D01*
X003740Y001477D02*
X000000Y001477D01*
X000000Y001476D02*
X003740Y001476D01*
X003740Y001475D02*
X000000Y001475D01*
X000000Y001474D02*
X003740Y001474D01*
X003740Y001473D02*
X000000Y001473D01*
X000000Y001472D02*
X003740Y001472D01*
X003740Y001471D02*
X000000Y001471D01*
X000000Y001470D02*
X003740Y001470D01*
X003740Y001469D02*
X000000Y001469D01*
X000000Y001468D02*
X003740Y001468D01*
X003740Y001467D02*
X000000Y001467D01*
X000000Y001466D02*
X003740Y001466D01*
X003740Y001465D02*
X000000Y001465D01*
X000000Y001464D02*
X003740Y001464D01*
X003740Y001463D02*
X000000Y001463D01*
X000000Y001462D02*
X003740Y001462D01*
X003740Y001461D02*
X000000Y001461D01*
X000000Y001460D02*
X003740Y001460D01*
X003740Y001459D02*
X000000Y001459D01*
X000000Y001458D02*
X003740Y001458D01*
X003740Y001457D02*
X000000Y001457D01*
X000000Y001456D02*
X003740Y001456D01*
X003740Y001455D02*
X000000Y001455D01*
X000000Y001454D02*
X003740Y001454D01*
X003740Y001453D02*
X000000Y001453D01*
X000000Y001452D02*
X003740Y001452D01*
X003740Y001451D02*
X000000Y001451D01*
X000000Y001450D02*
X003740Y001450D01*
X003740Y001449D02*
X000000Y001449D01*
X000000Y001448D02*
X003740Y001448D01*
X003740Y001447D02*
X000000Y001447D01*
X000000Y001446D02*
X003740Y001446D01*
X003740Y001445D02*
X000000Y001445D01*
X000000Y001444D02*
X003740Y001444D01*
X003740Y001443D02*
X000000Y001443D01*
X000000Y001442D02*
X003740Y001442D01*
X003740Y001441D02*
X000000Y001441D01*
X000000Y001440D02*
X003740Y001440D01*
X003740Y001439D02*
X000000Y001439D01*
X000000Y001438D02*
X003740Y001438D01*
X003740Y001437D02*
X000000Y001437D01*
X000000Y001436D02*
X003740Y001436D01*
X003740Y001435D02*
X000000Y001435D01*
X000000Y001434D02*
X003740Y001434D01*
X003740Y001433D02*
X000000Y001433D01*
X000000Y001432D02*
X003740Y001432D01*
X003740Y001431D02*
X000000Y001431D01*
X000000Y001430D02*
X003740Y001430D01*
X003740Y001429D02*
X000000Y001429D01*
X000000Y001428D02*
X003740Y001428D01*
X003740Y001427D02*
X000000Y001427D01*
X000000Y001426D02*
X003740Y001426D01*
X003740Y001425D02*
X000000Y001425D01*
X000000Y001424D02*
X003740Y001424D01*
X003740Y001423D02*
X000000Y001423D01*
X000000Y001422D02*
X003740Y001422D01*
X003740Y001421D02*
X000000Y001421D01*
X000000Y001420D02*
X003740Y001420D01*
X003740Y001419D02*
X000000Y001419D01*
X000000Y001418D02*
X003740Y001418D01*
X003740Y001417D02*
X000000Y001417D01*
X000000Y001416D02*
X003740Y001416D01*
X003740Y001415D02*
X000000Y001415D01*
X000000Y001414D02*
X003740Y001414D01*
X003740Y001413D02*
X000000Y001413D01*
X000000Y001412D02*
X003740Y001412D01*
X003740Y001411D02*
X000000Y001411D01*
X000000Y001410D02*
X003740Y001410D01*
X003740Y001409D02*
X000000Y001409D01*
X000000Y001408D02*
X003740Y001408D01*
X003740Y001407D02*
X000000Y001407D01*
X000000Y001406D02*
X003740Y001406D01*
X003740Y001405D02*
X000000Y001405D01*
X000000Y001404D02*
X003740Y001404D01*
X003740Y001403D02*
X000000Y001403D01*
X000000Y001402D02*
X003740Y001402D01*
X003740Y001401D02*
X000000Y001401D01*
X000000Y001400D02*
X003740Y001400D01*
X003740Y001399D02*
X000000Y001399D01*
X000000Y001398D02*
X003740Y001398D01*
X003740Y001397D02*
X000000Y001397D01*
X000000Y001396D02*
X003740Y001396D01*
X003740Y001395D02*
X000000Y001395D01*
X000000Y001394D02*
X003740Y001394D01*
X003740Y001393D02*
X000000Y001393D01*
X000000Y001392D02*
X003740Y001392D01*
X003740Y001391D02*
X000000Y001391D01*
X000000Y001390D02*
X003740Y001390D01*
X003740Y001389D02*
X000000Y001389D01*
X000000Y001388D02*
X003740Y001388D01*
X003740Y001387D02*
X000000Y001387D01*
X000000Y001386D02*
X003740Y001386D01*
X003740Y001385D02*
X000000Y001385D01*
X000000Y001384D02*
X003740Y001384D01*
X003740Y001383D02*
X000000Y001383D01*
X000000Y001382D02*
X003740Y001382D01*
X003740Y001381D02*
X000000Y001381D01*
X000000Y001380D02*
X003740Y001380D01*
X003740Y001379D02*
X000000Y001379D01*
X000000Y001378D02*
X003740Y001378D01*
X003740Y001377D02*
X000000Y001377D01*
X000000Y001376D02*
X003740Y001376D01*
X003740Y001375D02*
X000000Y001375D01*
X000000Y001374D02*
X003740Y001374D01*
X003740Y001373D02*
X000000Y001373D01*
X000000Y001372D02*
X003740Y001372D01*
X003740Y001371D02*
X000000Y001371D01*
X000000Y001370D02*
X003740Y001370D01*
X003740Y001369D02*
X000000Y001369D01*
X000000Y001368D02*
X003740Y001368D01*
X003740Y001367D02*
X000000Y001367D01*
X000000Y001366D02*
X003740Y001366D01*
X003740Y001365D02*
X000000Y001365D01*
X000000Y001364D02*
X003740Y001364D01*
X003740Y001363D02*
X000000Y001363D01*
X000000Y001362D02*
X003740Y001362D01*
X003740Y001361D02*
X000000Y001361D01*
X000000Y001360D02*
X003740Y001360D01*
X003740Y001359D02*
X000000Y001359D01*
X000000Y001358D02*
X003740Y001358D01*
X003740Y001357D02*
X000000Y001357D01*
X000000Y001356D02*
X003740Y001356D01*
X003740Y001355D02*
X000000Y001355D01*
X000000Y001354D02*
X003740Y001354D01*
X003740Y001353D02*
X000000Y001353D01*
X000000Y001352D02*
X003740Y001352D01*
X003740Y001351D02*
X000000Y001351D01*
X000000Y001350D02*
X003740Y001350D01*
X003740Y001349D02*
X000000Y001349D01*
X000000Y001348D02*
X003740Y001348D01*
X003740Y001347D02*
X000000Y001347D01*
X000000Y001346D02*
X003740Y001346D01*
X003740Y001345D02*
X000000Y001345D01*
X000000Y001344D02*
X003740Y001344D01*
X003740Y001343D02*
X000000Y001343D01*
X000000Y001342D02*
X003740Y001342D01*
X003740Y001341D02*
X000000Y001341D01*
X000000Y001340D02*
X003740Y001340D01*
X003740Y001339D02*
X000000Y001339D01*
X000000Y001338D02*
X003740Y001338D01*
X003740Y001337D02*
X000000Y001337D01*
X000000Y001336D02*
X003740Y001336D01*
X003740Y001335D02*
X000000Y001335D01*
X000000Y001334D02*
X003740Y001334D01*
X003740Y001333D02*
X000000Y001333D01*
X000000Y001332D02*
X003740Y001332D01*
X003740Y001331D02*
X000000Y001331D01*
X000000Y001330D02*
X003740Y001330D01*
X003740Y001329D02*
X000000Y001329D01*
X000000Y001328D02*
X003740Y001328D01*
X003740Y001327D02*
X000000Y001327D01*
X000000Y001326D02*
X003740Y001326D01*
X003740Y001325D02*
X000000Y001325D01*
X000000Y001324D02*
X003740Y001324D01*
X003740Y001323D02*
X000000Y001323D01*
X000000Y001322D02*
X003740Y001322D01*
X003740Y001321D02*
X000000Y001321D01*
X000000Y001320D02*
X003740Y001320D01*
X003740Y001319D02*
X000000Y001319D01*
X000000Y001318D02*
X003740Y001318D01*
X003740Y001317D02*
X000000Y001317D01*
X000000Y001316D02*
X003740Y001316D01*
X003740Y001315D02*
X000000Y001315D01*
X000000Y001314D02*
X003740Y001314D01*
X003740Y001313D02*
X000000Y001313D01*
X000000Y001312D02*
X003740Y001312D01*
X003740Y001311D02*
X000000Y001311D01*
X000000Y001310D02*
X003740Y001310D01*
X003740Y001309D02*
X000000Y001309D01*
X000000Y001308D02*
X003740Y001308D01*
X003740Y001307D02*
X000000Y001307D01*
X000000Y001306D02*
X003740Y001306D01*
X003740Y001305D02*
X000000Y001305D01*
X000000Y001304D02*
X003740Y001304D01*
X003740Y001303D02*
X000000Y001303D01*
X000000Y001302D02*
X003740Y001302D01*
X003740Y001301D02*
X000000Y001301D01*
X000000Y001300D02*
X003740Y001300D01*
X003740Y001299D02*
X000000Y001299D01*
X000000Y001298D02*
X003740Y001298D01*
X003740Y001297D02*
X000000Y001297D01*
X000000Y001296D02*
X003740Y001296D01*
X003740Y001295D02*
X000000Y001295D01*
X000000Y001294D02*
X003740Y001294D01*
X003740Y001293D02*
X000000Y001293D01*
X000000Y001292D02*
X003740Y001292D01*
X003740Y001291D02*
X000000Y001291D01*
X000000Y001290D02*
X003740Y001290D01*
X003740Y001289D02*
X000000Y001289D01*
X000000Y001288D02*
X003740Y001288D01*
X003740Y001287D02*
X000000Y001287D01*
X000000Y001286D02*
X003740Y001286D01*
X003740Y001285D02*
X000000Y001285D01*
X000000Y001284D02*
X003740Y001284D01*
X003740Y001283D02*
X000000Y001283D01*
X000000Y001282D02*
X003740Y001282D01*
X003740Y001281D02*
X000000Y001281D01*
X000000Y001280D02*
X003740Y001280D01*
X003740Y001279D02*
X000000Y001279D01*
X000000Y001278D02*
X003740Y001278D01*
X003740Y001277D02*
X000000Y001277D01*
X000000Y001276D02*
X003740Y001276D01*
X003740Y001275D02*
X000000Y001275D01*
X000000Y001274D02*
X003740Y001274D01*
X003740Y001273D02*
X000000Y001273D01*
X000000Y001272D02*
X003740Y001272D01*
X003740Y001271D02*
X000000Y001271D01*
X000000Y001270D02*
X003740Y001270D01*
X003740Y001269D02*
X000000Y001269D01*
X000000Y001268D02*
X003740Y001268D01*
X003740Y001267D02*
X000000Y001267D01*
X000000Y001266D02*
X003740Y001266D01*
X003740Y001265D02*
X000000Y001265D01*
X000000Y001264D02*
X003740Y001264D01*
X003740Y001263D02*
X000000Y001263D01*
X000000Y001262D02*
X003740Y001262D01*
X003740Y001261D02*
X000000Y001261D01*
X000000Y001260D02*
X003740Y001260D01*
X003740Y001259D02*
X000000Y001259D01*
X000000Y001258D02*
X003740Y001258D01*
X003740Y001257D02*
X000000Y001257D01*
X000000Y001256D02*
X003740Y001256D01*
X003740Y001255D02*
X000000Y001255D01*
X000000Y001254D02*
X003740Y001254D01*
X003740Y001253D02*
X000000Y001253D01*
X000000Y001252D02*
X003740Y001252D01*
X003740Y001251D02*
X000000Y001251D01*
X000000Y001250D02*
X003740Y001250D01*
X003740Y001249D02*
X000000Y001249D01*
X000000Y001248D02*
X003740Y001248D01*
X003740Y001247D02*
X000000Y001247D01*
X000000Y001246D02*
X003740Y001246D01*
X003740Y001245D02*
X000000Y001245D01*
X000000Y001244D02*
X003740Y001244D01*
X003740Y001243D02*
X000000Y001243D01*
X000000Y001242D02*
X003740Y001242D01*
X003740Y001241D02*
X000000Y001241D01*
X000000Y001240D02*
X003740Y001240D01*
X003740Y001239D02*
X000000Y001239D01*
X000000Y001238D02*
X003740Y001238D01*
X003740Y001237D02*
X000000Y001237D01*
X000000Y001236D02*
X003740Y001236D01*
X003740Y001235D02*
X000000Y001235D01*
X000000Y001234D02*
X003740Y001234D01*
X003740Y001233D02*
X000000Y001233D01*
X000000Y001232D02*
X003740Y001232D01*
X003740Y001231D02*
X000000Y001231D01*
X000000Y001230D02*
X003740Y001230D01*
X003740Y001229D02*
X000000Y001229D01*
X000000Y001228D02*
X003740Y001228D01*
X003740Y001227D02*
X000000Y001227D01*
X000000Y001226D02*
X003740Y001226D01*
X003740Y001225D02*
X000000Y001225D01*
X000000Y001224D02*
X003740Y001224D01*
X003740Y001223D02*
X000000Y001223D01*
X000000Y001222D02*
X003740Y001222D01*
X003740Y001221D02*
X000000Y001221D01*
X000000Y001220D02*
X003740Y001220D01*
X003740Y001219D02*
X000000Y001219D01*
X000000Y001218D02*
X003740Y001218D01*
X003740Y001217D02*
X000000Y001217D01*
X000000Y001216D02*
X003740Y001216D01*
X003740Y001215D02*
X000000Y001215D01*
X000000Y001214D02*
X003740Y001214D01*
X003740Y001213D02*
X000000Y001213D01*
X000000Y001212D02*
X003740Y001212D01*
X003740Y001211D02*
X000000Y001211D01*
X000000Y001210D02*
X003740Y001210D01*
X003740Y001209D02*
X000000Y001209D01*
X000000Y001208D02*
X003740Y001208D01*
X003740Y001207D02*
X000000Y001207D01*
X000000Y001206D02*
X003740Y001206D01*
X003740Y001205D02*
X000000Y001205D01*
X000000Y001204D02*
X003740Y001204D01*
X003740Y001203D02*
X000000Y001203D01*
X000000Y001202D02*
X003740Y001202D01*
X003740Y001201D02*
X000000Y001201D01*
X000000Y001200D02*
X003740Y001200D01*
X003740Y001199D02*
X000000Y001199D01*
X000000Y001198D02*
X003740Y001198D01*
X003740Y001197D02*
X000000Y001197D01*
X000000Y001196D02*
X003740Y001196D01*
X003740Y001195D02*
X000000Y001195D01*
X000000Y001194D02*
X003740Y001194D01*
X003740Y001193D02*
X000000Y001193D01*
X000000Y001192D02*
X003740Y001192D01*
X003740Y001191D02*
X000000Y001191D01*
X000000Y001190D02*
X003740Y001190D01*
X003740Y001189D02*
X000000Y001189D01*
X000000Y001188D02*
X003740Y001188D01*
X003740Y001187D02*
X000000Y001187D01*
X000000Y001186D02*
X003740Y001186D01*
X003740Y001185D02*
X000000Y001185D01*
X000000Y001184D02*
X003740Y001184D01*
X003740Y001183D02*
X000000Y001183D01*
X000000Y001182D02*
X003740Y001182D01*
M02*
