%
M48
M72
T01C0.0236
T02C0.0394
T03C0.0787
T04C0.1299
%
T01
X9000Y3875
X11250Y1250
X12285Y4864
X13750Y8250
X13750Y10750
X13750Y11500
X11750Y14000
X13000Y15000
X13014Y15748
X13514Y15748
X14014Y15748
X14514Y15748
X15014Y15748
X15514Y15748
X16014Y15748
X16514Y15748
X16500Y15000
X16000Y15000
X15500Y15000
X15000Y15000
X14500Y15000
X18625Y13375
X18750Y11500
X22250Y7750
X23500Y9500
X24375Y8500
X22250Y5250
X21000Y2500
X20000Y2500
X17750Y2500
X16750Y2500
X2500Y9500
X2500Y10500
X2500Y11500
X2500Y12500
X2500Y13500
X3875Y17000
X25500Y15000
T02
X21000Y1250
X20000Y1250
X17750Y1250
X16750Y1250
X10000Y1250
X9000Y1250
X1250Y9500
X1250Y10500
X1250Y11500
X1250Y12500
X1250Y13500
T03
X25571Y17421
X25571Y21358
T04
X1969Y1969
X1969Y18898
X27559Y18898
X27559Y1969
M30
