%
M48
M72
T01C0.0236
T02C0.0394
T03C0.0400
T04C0.1260
T05C0.1299
%
T01
X1250Y7500
X1250Y13250
X4750Y13250
X8500Y13250
X12500Y13250
X12400Y16200
X13400Y16200
X14400Y16200
X15400Y17700
X15400Y19200
X16400Y19200
X14400Y19200
X13400Y19200
X12400Y19200
X11400Y16200
X10400Y16200
X2900Y17700
X15500Y9750
X12500Y7500
X15000Y1800
X16000Y1800
X17000Y1800
X20500Y13250
X20400Y16200
X19400Y16200
X21400Y16200
X22400Y16200
X23400Y16200
X23000Y19200
X22000Y19200
X21000Y19200
X20000Y19200
T02
X20000Y20000
X19000Y20000
X18000Y20000
X16400Y20000
X15400Y20000
X14400Y20000
X13400Y20000
X12400Y20000
X11400Y20000
X10400Y20000
X9400Y20000
X8400Y20000
X7400Y20000
X9400Y15439
X10400Y15439
X11400Y15439
X12400Y15439
X13400Y15439
X14400Y15439
X15400Y15439
X16400Y15439
X17400Y15439
X18400Y15439
X19400Y15439
X20400Y15439
X21400Y15439
X22400Y15439
X23400Y15439
X24400Y15439
X24000Y20000
X25000Y20000
X23000Y20000
X22000Y20000
X21000Y20000
X1250Y10500
X1250Y9500
X11000Y1000
X12000Y1000
X13000Y1000
X14000Y1000
X15000Y1000
X16000Y1000
X17000Y1000
X18000Y1000
X20000Y1000
X21000Y1000
X22000Y1000
X23000Y1000
X24000Y1000
X25000Y1000
T03
X4530Y18485
X1970Y18485
X1970Y20265
X4530Y20265
T04
X5000Y1000
X26000Y3000
X26000Y14000
X6000Y20000
T05
X7234Y15439
X7234Y3234
X36762Y3234
X36762Y15439
M30
